<svg width="530" height="340" viewBox="0 0 530 340" fill="none" xmlns="http://www.w3.org/2000/svg">
<g clip-path="url(#clip0_925_3023)">
<path d="M530 21V22H0V21H530Z" fill="#181614"/>
<path d="M23 340L22 340L22 4.37114e-08L23 0L23 340Z" fill="#181614"/>
<path d="M509 340H508V0L509 0V340Z" fill="#181614"/>
<path d="M530 317V318H0V317H530Z" fill="#181614"/>
<path d="M22 169V170H0V169H22Z" fill="#181614"/>
<path d="M530 169V170H508V169H530Z" fill="#181614"/>
<path d="M430.6 160.064H463.72C466.159 160.064 468.136 162.041 468.136 164.48V188.768C468.136 191.207 466.159 193.184 463.72 193.184H430.6V160.064Z" fill="#111010"/>
<path d="M478.072 66.224V67.328H53.0322V66.224H478.072ZM482.488 61.808V37.52C482.488 35.0811 480.511 33.104 478.072 33.104H53.0322C50.5933 33.104 48.6162 35.0811 48.6162 37.52V61.808C48.6162 64.2469 50.5933 66.224 53.0322 66.224V67.328C49.9836 67.328 47.5122 64.8566 47.5122 61.808V37.52C47.5122 34.4714 49.9836 32 53.0322 32H478.072L478.356 32.0075C481.273 32.1551 483.592 34.5665 483.592 37.52V61.808L483.585 62.0915C483.442 64.9145 481.179 67.1776 478.356 67.3205L478.072 67.328V66.224C480.511 66.224 482.488 64.2469 482.488 61.808Z" fill="#181614"/>
<path d="M463.72 193.184V194.288H65.1758V193.184H463.72ZM468.136 188.768V164.48C468.136 162.041 466.159 160.064 463.72 160.064H65.1758C62.7369 160.064 60.7598 162.041 60.7598 164.48V188.768C60.7598 191.207 62.7369 193.184 65.1758 193.184V194.288L64.8922 194.28C61.9754 194.133 59.6558 191.721 59.6558 188.768V164.48C59.6558 161.526 61.9754 159.115 64.8922 158.968L65.1758 158.96H463.72C466.768 158.96 469.24 161.431 469.24 164.48V188.768L469.232 189.052C469.085 191.968 466.673 194.288 463.72 194.288V193.184C466.159 193.184 468.136 191.207 468.136 188.768Z" fill="#181614"/>
<path d="M255.064 289.232V290.336H67.3838V289.232H255.064ZM259.48 284.816V260.528C259.48 258.089 257.503 256.112 255.064 256.112H67.3838C64.9449 256.112 62.9678 258.089 62.9678 260.528V284.816C62.9678 287.255 64.9449 289.232 67.3838 289.232V290.336C64.3352 290.336 61.8638 287.865 61.8638 284.816V260.528C61.8638 257.479 64.3352 255.008 67.3838 255.008H255.064L255.347 255.016C258.264 255.163 260.584 257.575 260.584 260.528V284.816L260.576 285.1C260.433 287.923 258.17 290.186 255.347 290.329L255.064 290.336V289.232C257.503 289.232 259.48 287.255 259.48 284.816Z" fill="#181614"/>
<path d="M269.416 260.528C269.416 257.479 271.887 255.008 274.936 255.008H462.616C465.665 255.008 468.136 257.479 468.136 260.528V284.816C468.136 287.865 465.665 290.336 462.616 290.336H274.936C271.887 290.336 269.416 287.865 269.416 284.816V260.528Z" fill="white"/>
<path d="M462.616 289.232V290.336H274.936V289.232H462.616ZM467.032 284.816V260.528C467.032 258.089 465.055 256.112 462.616 256.112H274.936C272.497 256.112 270.52 258.089 270.52 260.528V284.816C270.52 287.255 272.497 289.232 274.936 289.232V290.336C271.887 290.336 269.416 287.865 269.416 284.816V260.528C269.416 257.479 271.887 255.008 274.936 255.008H462.616L462.9 255.016C465.816 255.163 468.136 257.575 468.136 260.528V284.816L468.128 285.1C467.986 287.923 465.722 290.186 462.9 290.329L462.616 290.336V289.232C465.055 289.232 467.032 287.255 467.032 284.816Z" fill="#181614"/>
<path d="M478.072 306.896V308H51.9282V306.896H478.072ZM482.488 302.48V89.4079C482.488 87.0453 480.633 85.1157 478.3 84.9973L478.072 84.9919H51.9282C49.4893 84.9919 47.5122 86.9691 47.5122 89.4079V302.48C47.5122 304.919 49.4893 306.896 51.9282 306.896V308C48.8796 308 46.4082 305.529 46.4082 302.48V89.4079C46.4082 86.4544 48.7278 84.0431 51.6447 83.8955L51.9282 83.8879H478.072L478.356 83.8955C481.273 84.0431 483.592 86.4544 483.592 89.4079V302.48L483.585 302.763C483.437 305.68 481.026 308 478.072 308V306.896C480.511 306.896 482.488 304.919 482.488 302.48Z" fill="#181614"/>
<path d="M466.642 47.6177C466.858 47.4022 467.207 47.4022 467.423 47.6177C467.638 47.8333 467.638 48.1827 467.423 48.3983L464.111 51.7103C464.007 51.8138 463.867 51.872 463.72 51.872C463.574 51.872 463.434 51.8138 463.33 51.7103L460.018 48.3983C459.803 48.1827 459.803 47.8333 460.018 47.6177C460.234 47.4022 460.583 47.4022 460.799 47.6177L463.72 50.5395L466.642 47.6177Z" fill="white"/>
<path d="M126.947 55.1841L124.412 46.9924H125.834L127.751 53.824L129.698 46.9924H131.089L133.037 53.824L134.969 46.9924H136.391L133.856 55.1841H132.217L130.394 48.9553L128.57 55.1841H126.947Z" fill="white"/>
<path d="M120.237 55.3695C119.464 55.3695 118.794 55.1943 118.227 54.844C117.671 54.4937 117.238 53.9991 116.929 53.3602C116.63 52.7111 116.481 51.9537 116.481 51.0882C116.481 50.2227 116.63 49.4705 116.929 48.8316C117.238 48.1928 117.666 47.6982 118.212 47.3478C118.768 46.9872 119.423 46.8069 120.175 46.8069C120.886 46.8069 121.514 46.9769 122.061 47.3169C122.607 47.6467 123.029 48.1309 123.328 48.7698C123.637 49.4086 123.792 50.1866 123.792 51.1037V51.4901H117.841C117.893 52.3659 118.124 53.0253 118.537 53.4684C118.959 53.9115 119.526 54.133 120.237 54.133C120.773 54.133 121.21 54.0094 121.551 53.7621C121.901 53.5045 122.143 53.1696 122.277 52.7574L123.668 52.8656C123.452 53.5972 123.039 54.2 122.432 54.674C121.834 55.1377 121.102 55.3695 120.237 55.3695ZM117.841 50.3463H122.37C122.308 49.5529 122.076 48.9707 121.674 48.5998C121.283 48.2288 120.783 48.0434 120.175 48.0434C119.546 48.0434 119.026 48.2391 118.614 48.6307C118.212 49.0119 117.954 49.5838 117.841 50.3463Z" fill="white"/>
<path d="M113.414 55.1838V46.9921H114.713V55.1838H113.414ZM113.383 45.7093V44.1946H114.743V45.7093H113.383Z" fill="white"/>
<path d="M107.365 55.1841L104.382 46.9924H105.804L108.185 53.8549L110.565 46.9924H111.987L109.004 55.1841H107.365Z" fill="white"/>
<path d="M100.207 55.3695C99.4342 55.3695 98.7644 55.1943 98.1977 54.844C97.6413 54.4937 97.2085 53.9991 96.8994 53.3602C96.6006 52.7111 96.4512 51.9537 96.4512 51.0882C96.4512 50.2227 96.6006 49.4705 96.8994 48.8316C97.2085 48.1928 97.6361 47.6982 98.1822 47.3478C98.7387 46.9872 99.393 46.8069 100.145 46.8069C100.856 46.8069 101.485 46.9769 102.031 47.3169C102.577 47.6467 102.999 48.1309 103.298 48.7698C103.607 49.4086 103.762 50.1866 103.762 51.1037V51.4901H97.8113C97.8628 52.3659 98.0947 53.0253 98.5068 53.4684C98.9293 53.9115 99.496 54.133 100.207 54.133C100.743 54.133 101.181 54.0094 101.521 53.7621C101.871 53.5045 102.113 53.1696 102.247 52.7574L103.638 52.8656C103.422 53.5972 103.01 54.2 102.402 54.674C101.804 55.1377 101.073 55.3695 100.207 55.3695ZM97.8113 50.3463H102.34C102.278 49.5529 102.046 48.9707 101.644 48.5998C101.253 48.2288 100.753 48.0434 100.145 48.0434C99.5166 48.0434 98.9963 48.2391 98.5841 48.6307C98.1822 49.0119 97.9246 49.5838 97.8113 50.3463Z" fill="white"/>
<path d="M91.77 55.1841V46.9924H92.9138L92.9756 49.0635L92.8519 49.0172C92.955 48.3165 93.1765 47.8064 93.5165 47.487C93.8669 47.1573 94.3306 46.9924 94.9076 46.9924H95.7113V48.2289H94.923C94.5109 48.2289 94.1657 48.3062 93.8875 48.4608C93.6196 48.605 93.4135 48.8265 93.2693 49.1254C93.1353 49.4139 93.0683 49.7848 93.0683 50.2382V55.1841H91.77Z" fill="white"/>
<path d="M82.0542 55.184V44.2102H85.9955C87.2217 44.2102 88.1748 44.5039 88.8548 45.0912C89.5349 45.6785 89.8749 46.4925 89.8749 47.5332C89.8749 48.2339 89.7204 48.8419 89.4113 49.3571C89.1021 49.8619 88.6591 50.2483 88.082 50.5163C87.505 50.7842 86.8095 50.9181 85.9955 50.9181H83.3834V55.184H82.0542ZM83.3834 49.6198H85.9955C86.8198 49.6198 87.438 49.4446 87.8502 49.0943C88.2727 48.744 88.4839 48.2236 88.4839 47.5332C88.4839 46.8635 88.2727 46.3586 87.8502 46.0186C87.438 45.6785 86.8198 45.5085 85.9955 45.5085H83.3834V49.6198Z" fill="white"/>
<path d="M416.016 182.144V180.397H417.763V182.144H416.016Z" fill="#ADADAD"/>
<path d="M412.907 182.144V180.397H414.653V182.144H412.907Z" fill="#ADADAD"/>
<path d="M409.797 182.144V180.397H411.544V182.144H409.797Z" fill="#ADADAD"/>
<path d="M406.688 182.144V180.397H408.435V182.144H406.688Z" fill="#ADADAD"/>
<path d="M403.579 182.144V180.397H405.326V182.144H403.579Z" fill="#ADADAD"/>
<path d="M400.47 182.144V180.397H402.216V182.144H400.47Z" fill="#ADADAD"/>
<path d="M394.74 182.33C394.029 182.33 393.41 182.154 392.885 181.804C392.37 181.454 391.973 180.959 391.695 180.32C391.416 179.682 391.277 178.924 391.277 178.048C391.277 177.172 391.416 176.415 391.695 175.776C391.973 175.137 392.37 174.643 392.885 174.293C393.41 173.942 394.029 173.767 394.74 173.767C395.286 173.767 395.785 173.886 396.239 174.123C396.692 174.349 397.032 174.674 397.259 175.096V171.17H398.557V182.144H397.382L397.336 180.908C397.109 181.351 396.764 181.701 396.301 181.959C395.837 182.206 395.317 182.33 394.74 182.33ZM395.002 181.093C395.487 181.093 395.894 180.97 396.223 180.722C396.563 180.475 396.821 180.125 396.996 179.671C397.171 179.208 397.259 178.667 397.259 178.048C397.259 177.409 397.171 176.863 396.996 176.41C396.821 175.957 396.563 175.611 396.223 175.374C395.894 175.127 395.487 175.003 395.002 175.003C394.281 175.003 393.704 175.277 393.271 175.823C392.849 176.358 392.637 177.1 392.637 178.048C392.637 178.986 392.849 179.728 393.271 180.274C393.704 180.82 394.281 181.093 395.002 181.093Z" fill="#ADADAD"/>
<path d="M385.622 182.33C384.777 182.33 384.102 182.134 383.597 181.742C383.103 181.351 382.855 180.805 382.855 180.104C382.855 179.403 383.062 178.852 383.474 178.45C383.886 178.048 384.54 177.765 385.437 177.6L388.342 177.059C388.342 176.369 388.177 175.854 387.848 175.514C387.528 175.174 387.044 175.004 386.395 175.004C385.828 175.004 385.38 175.132 385.05 175.39C384.721 175.637 384.494 175.998 384.37 176.472L382.995 176.364C383.149 175.591 383.52 174.968 384.107 174.494C384.705 174.009 385.468 173.767 386.395 173.767C387.446 173.767 388.25 174.066 388.806 174.664C389.362 175.251 389.641 176.065 389.641 177.106V180.49C389.641 180.676 389.672 180.81 389.733 180.892C389.806 180.964 389.919 181 390.073 181H390.398V182.144C390.357 182.155 390.29 182.16 390.197 182.16C390.104 182.17 390.006 182.175 389.903 182.175C389.532 182.175 389.229 182.118 388.992 182.005C388.765 181.881 388.6 181.696 388.497 181.449C388.394 181.191 388.342 180.856 388.342 180.444L388.497 180.475C388.425 180.825 388.25 181.145 387.971 181.433C387.693 181.711 387.348 181.933 386.936 182.098C386.524 182.252 386.086 182.33 385.622 182.33ZM385.746 181.186C386.292 181.186 386.756 181.083 387.137 180.877C387.528 180.66 387.827 180.372 388.033 180.011C388.239 179.64 388.342 179.228 388.342 178.775V178.188L385.684 178.682C385.128 178.785 384.741 178.945 384.525 179.161C384.319 179.367 384.216 179.64 384.216 179.98C384.216 180.362 384.35 180.66 384.617 180.877C384.896 181.083 385.272 181.186 385.746 181.186Z" fill="#ADADAD"/>
<path d="M378.229 182.33C377.497 182.33 376.874 182.211 376.359 181.974C375.854 181.737 375.457 181.413 375.169 181C374.89 180.578 374.731 180.099 374.689 179.563L376.05 179.47C376.132 179.965 376.343 180.362 376.683 180.66C377.023 180.949 377.539 181.093 378.229 181.093C378.785 181.093 379.228 181.006 379.558 180.83C379.898 180.645 380.068 180.351 380.068 179.949C380.068 179.733 380.017 179.553 379.914 179.409C379.811 179.264 379.61 179.141 379.311 179.038C379.012 178.924 378.569 178.816 377.982 178.713C377.198 178.569 376.58 178.394 376.127 178.188C375.684 177.971 375.364 177.708 375.169 177.399C374.983 177.08 374.89 176.704 374.89 176.271C374.89 175.539 375.158 174.942 375.694 174.478C376.23 174.004 376.992 173.767 377.982 173.767C378.651 173.767 379.213 173.891 379.666 174.138C380.13 174.375 380.491 174.694 380.748 175.096C381.016 175.488 381.191 175.921 381.274 176.395L379.914 176.487C379.852 176.199 379.738 175.946 379.574 175.73C379.409 175.503 379.192 175.328 378.924 175.204C378.656 175.071 378.337 175.004 377.966 175.004C377.379 175.004 376.946 175.117 376.668 175.344C376.39 175.57 376.251 175.859 376.251 176.209C376.251 176.477 376.312 176.699 376.436 176.874C376.57 177.039 376.781 177.178 377.07 177.291C377.358 177.394 377.745 177.487 378.229 177.569C379.063 177.714 379.713 177.889 380.176 178.095C380.64 178.301 380.965 178.553 381.15 178.852C381.336 179.151 381.428 179.517 381.428 179.949C381.428 180.454 381.284 180.887 380.996 181.248C380.717 181.598 380.336 181.866 379.852 182.052C379.378 182.237 378.837 182.33 378.229 182.33Z" fill="#ADADAD"/>
<path d="M372.823 182.144C372.349 182.144 371.963 182.021 371.664 181.773C371.365 181.526 371.216 181.134 371.216 180.599V171.17H372.514V180.49C372.514 180.655 372.555 180.784 372.638 180.877C372.731 180.959 372.859 181 373.024 181H373.735V182.144H372.823Z" fill="#ADADAD"/>
<path d="M365.08 182.33C364.369 182.33 363.751 182.154 363.226 181.804C362.71 181.454 362.314 180.959 362.035 180.32C361.757 179.682 361.618 178.924 361.618 178.048C361.618 177.172 361.757 176.415 362.035 175.776C362.314 175.137 362.71 174.643 363.226 174.293C363.751 173.942 364.369 173.767 365.08 173.767C365.626 173.767 366.126 173.886 366.58 174.123C367.033 174.349 367.373 174.674 367.6 175.096V171.17H368.898V182.144H367.723L367.677 180.908C367.45 181.351 367.105 181.701 366.641 181.959C366.178 182.206 365.657 182.33 365.08 182.33ZM365.343 181.093C365.827 181.093 366.234 180.97 366.564 180.722C366.904 180.475 367.162 180.125 367.337 179.671C367.512 179.208 367.6 178.667 367.6 178.048C367.6 177.409 367.512 176.863 367.337 176.41C367.162 175.957 366.904 175.611 366.564 175.374C366.234 175.127 365.827 175.003 365.343 175.003C364.622 175.003 364.045 175.277 363.612 175.823C363.19 176.358 362.978 177.1 362.978 178.048C362.978 178.986 363.19 179.728 363.612 180.274C364.045 180.82 364.622 181.093 365.343 181.093Z" fill="#ADADAD"/>
<path d="M352.296 182.144C352.296 181.371 352.414 180.676 352.651 180.057C352.899 179.429 353.326 178.831 353.934 178.264C354.552 177.698 355.408 177.126 356.5 176.549C357.005 176.281 357.412 176.034 357.721 175.807C358.03 175.58 358.257 175.338 358.401 175.081C358.545 174.823 358.617 174.509 358.617 174.138C358.617 173.756 358.535 173.427 358.37 173.149C358.205 172.86 357.958 172.633 357.628 172.468C357.309 172.304 356.907 172.221 356.423 172.221C355.65 172.221 355.037 172.422 354.583 172.824C354.14 173.226 353.862 173.798 353.749 174.54L352.358 174.447C352.481 173.375 352.894 172.52 353.594 171.881C354.295 171.242 355.238 170.923 356.423 170.923C357.175 170.923 357.819 171.057 358.355 171.325C358.89 171.593 359.297 171.969 359.576 172.453C359.864 172.927 360.008 173.478 360.008 174.107C360.008 174.663 359.916 175.147 359.73 175.56C359.545 175.962 359.23 176.338 358.787 176.688C358.355 177.038 357.757 177.414 356.995 177.816C356.005 178.342 355.253 178.872 354.738 179.408C354.233 179.944 353.965 180.423 353.934 180.846H360.008V182.144H352.296Z" fill="#ADADAD"/>
<path d="M348.494 182.144V174.014H346.206V172.871H347.133C347.535 172.871 347.855 172.819 348.092 172.716C348.339 172.613 348.514 172.438 348.617 172.191C348.72 171.943 348.772 171.603 348.772 171.17H349.823V182.144H348.494Z" fill="#ADADAD"/>
<path d="M343.181 182.144V174.014H340.893V172.871H341.82C342.222 172.871 342.542 172.819 342.779 172.716C343.026 172.613 343.201 172.438 343.304 172.191C343.407 171.943 343.459 171.603 343.459 171.17H344.51V182.144H343.181Z" fill="#ADADAD"/>
<path d="M339.042 184.463H337.744V180.382L337.93 180.599C337.837 180.949 337.662 181.253 337.404 181.511C337.157 181.768 336.848 181.969 336.477 182.113C336.116 182.258 335.725 182.33 335.302 182.33C334.488 182.33 333.818 182.129 333.293 181.727C332.778 181.325 332.391 180.8 332.134 180.15C331.886 179.501 331.763 178.801 331.763 178.048C331.763 177.296 331.886 176.596 332.134 175.946C332.391 175.297 332.778 174.772 333.293 174.37C333.818 173.968 334.488 173.767 335.302 173.767C335.941 173.767 336.497 173.927 336.971 174.246C337.456 174.555 337.796 175.014 337.991 175.622L337.806 175.715L337.837 173.953H339.042V184.463ZM335.426 181.093C335.91 181.093 336.322 180.98 336.662 180.753C337.013 180.527 337.28 180.186 337.466 179.733C337.651 179.28 337.744 178.718 337.744 178.048C337.744 177.379 337.646 176.817 337.451 176.364C337.265 175.91 336.997 175.57 336.647 175.344C336.307 175.117 335.9 175.004 335.426 175.004C334.715 175.004 334.153 175.271 333.741 175.807C333.329 176.343 333.123 177.09 333.123 178.048C333.123 179.007 333.329 179.754 333.741 180.29C334.153 180.825 334.715 181.093 335.426 181.093Z" fill="#ADADAD"/>
<path d="M327.348 182.33C326.616 182.33 325.993 182.211 325.478 181.974C324.973 181.737 324.576 181.413 324.288 181C324.01 180.578 323.85 180.099 323.809 179.563L325.169 179.47C325.251 179.965 325.462 180.362 325.802 180.66C326.142 180.949 326.658 181.093 327.348 181.093C327.904 181.093 328.348 181.006 328.677 180.83C329.017 180.645 329.187 180.351 329.187 179.949C329.187 179.733 329.136 179.553 329.033 179.409C328.93 179.264 328.729 179.141 328.43 179.038C328.131 178.924 327.688 178.816 327.101 178.713C326.318 178.569 325.699 178.394 325.246 178.188C324.803 177.971 324.484 177.708 324.288 177.399C324.102 177.08 324.01 176.704 324.01 176.271C324.01 175.539 324.277 174.942 324.813 174.478C325.349 174.004 326.112 173.767 327.101 173.767C327.77 173.767 328.332 173.891 328.785 174.138C329.249 174.375 329.61 174.694 329.867 175.096C330.135 175.488 330.31 175.921 330.393 176.395L329.033 176.487C328.971 176.199 328.858 175.946 328.693 175.73C328.528 175.503 328.311 175.328 328.044 175.204C327.776 175.071 327.456 175.004 327.085 175.004C326.498 175.004 326.065 175.117 325.787 175.344C325.509 175.57 325.37 175.859 325.37 176.209C325.37 176.477 325.431 176.699 325.555 176.874C325.689 177.039 325.9 177.178 326.189 177.291C326.477 177.394 326.864 177.487 327.348 177.569C328.183 177.714 328.832 177.889 329.295 178.095C329.759 178.301 330.084 178.553 330.269 178.852C330.455 179.151 330.547 179.517 330.547 179.949C330.547 180.454 330.403 180.887 330.115 181.248C329.836 181.598 329.455 181.866 328.971 182.052C328.497 182.237 327.956 182.33 327.348 182.33Z" fill="#ADADAD"/>
<path d="M319.187 184.462V183.319H319.852C320.12 183.319 320.336 183.252 320.501 183.118C320.666 182.994 320.748 182.762 320.748 182.422V173.952H322.046V182.484C322.046 183.205 321.887 183.715 321.567 184.014C321.248 184.313 320.717 184.462 319.975 184.462H319.187ZM320.717 172.669V171.155H322.077V172.669H320.717Z" fill="#ADADAD"/>
<path d="M313.075 183.844L317.635 170.552H318.871L314.312 183.844H313.075Z" fill="#ADADAD"/>
<path d="M307.623 184.648C307.036 184.648 306.505 184.55 306.031 184.354C305.557 184.159 305.16 183.88 304.841 183.52C304.522 183.159 304.305 182.742 304.192 182.268L305.552 182.175C305.676 182.556 305.892 182.855 306.201 183.072C306.521 183.298 306.994 183.412 307.623 183.412C308.365 183.412 308.932 183.262 309.323 182.963C309.725 182.665 309.926 182.216 309.926 181.619V180.29C309.73 180.722 309.416 181.067 308.983 181.325C308.55 181.583 308.066 181.711 307.53 181.711C306.84 181.711 306.222 181.541 305.676 181.201C305.14 180.861 304.717 180.393 304.408 179.795C304.109 179.197 303.96 178.512 303.96 177.739C303.96 176.956 304.109 176.271 304.408 175.684C304.707 175.086 305.119 174.617 305.645 174.277C306.18 173.937 306.788 173.767 307.468 173.767C308.046 173.767 308.561 173.901 309.014 174.169C309.478 174.437 309.802 174.797 309.988 175.251V173.953H311.224V181.588C311.224 182.227 311.08 182.773 310.792 183.226C310.503 183.69 310.091 184.04 309.555 184.277C309.019 184.524 308.375 184.648 307.623 184.648ZM307.592 180.475C308.293 180.475 308.854 180.233 309.277 179.749C309.699 179.254 309.916 178.584 309.926 177.739C309.936 177.173 309.844 176.688 309.648 176.286C309.462 175.874 309.189 175.56 308.829 175.344C308.478 175.117 308.066 175.004 307.592 175.004C306.871 175.004 306.309 175.251 305.907 175.745C305.516 176.23 305.32 176.894 305.32 177.739C305.32 178.584 305.521 179.254 305.923 179.749C306.335 180.233 306.891 180.475 307.592 180.475Z" fill="#ADADAD"/>
<path d="M295.717 182.144V173.953H296.907L296.953 176.039L296.799 175.9C296.902 175.416 297.082 175.019 297.34 174.71C297.597 174.39 297.906 174.153 298.267 173.999C298.638 173.844 299.035 173.767 299.457 173.767C300.086 173.767 300.601 173.906 301.003 174.184C301.415 174.463 301.719 174.839 301.915 175.313C302.121 175.776 302.224 176.297 302.224 176.874V182.144H300.925V177.245C300.925 176.74 300.864 176.317 300.74 175.977C300.627 175.627 300.441 175.364 300.184 175.189C299.926 175.004 299.591 174.911 299.179 174.911C298.55 174.911 298.03 175.112 297.618 175.514C297.216 175.905 297.015 176.482 297.015 177.245V182.144H295.717Z" fill="#ADADAD"/>
<path d="M291.792 182.144V173.952H293.09V182.144H291.792ZM291.761 172.669V171.155H293.121V172.669H291.761Z" fill="#ADADAD"/>
<path d="M285.808 182.33C285.097 182.33 284.479 182.154 283.953 181.804C283.438 181.454 283.041 180.959 282.763 180.32C282.485 179.682 282.346 178.924 282.346 178.048C282.346 177.172 282.485 176.415 282.763 175.776C283.041 175.137 283.438 174.643 283.953 174.293C284.479 173.942 285.097 173.767 285.808 173.767C286.354 173.767 286.854 173.886 287.307 174.123C287.76 174.349 288.1 174.674 288.327 175.096V171.17H289.625V182.144H288.451L288.404 180.908C288.178 181.351 287.833 181.701 287.369 181.959C286.905 182.206 286.385 182.33 285.808 182.33ZM286.071 181.093C286.555 181.093 286.962 180.97 287.292 180.722C287.632 180.475 287.889 180.125 288.064 179.671C288.24 179.208 288.327 178.667 288.327 178.048C288.327 177.409 288.24 176.863 288.064 176.41C287.889 175.957 287.632 175.611 287.292 175.374C286.962 175.127 286.555 175.003 286.071 175.003C285.349 175.003 284.772 175.277 284.34 175.823C283.917 176.358 283.706 177.1 283.706 178.048C283.706 178.986 283.917 179.728 284.34 180.274C284.772 180.82 285.349 181.093 286.071 181.093Z" fill="#ADADAD"/>
<path d="M274.103 182.144V173.953H275.293L275.339 176.039L275.184 175.9C275.288 175.416 275.468 175.019 275.725 174.71C275.983 174.39 276.292 174.153 276.653 173.999C277.024 173.844 277.42 173.767 277.843 173.767C278.471 173.767 278.987 173.906 279.389 174.184C279.801 174.463 280.105 174.839 280.3 175.313C280.506 175.776 280.61 176.297 280.61 176.874V182.144H279.311V177.245C279.311 176.74 279.249 176.317 279.126 175.977C279.012 175.627 278.827 175.364 278.569 175.189C278.312 175.004 277.977 174.911 277.565 174.911C276.936 174.911 276.416 175.112 276.004 175.514C275.602 175.905 275.401 176.482 275.401 177.245V182.144H274.103Z" fill="#ADADAD"/>
<path d="M267.86 182.33C267.015 182.33 266.341 182.134 265.836 181.742C265.341 181.351 265.094 180.805 265.094 180.104C265.094 179.403 265.3 178.852 265.712 178.45C266.124 178.048 266.778 177.765 267.675 177.6L270.581 177.059C270.581 176.369 270.416 175.854 270.086 175.514C269.767 175.174 269.282 175.004 268.633 175.004C268.066 175.004 267.618 175.132 267.289 175.39C266.959 175.637 266.732 175.998 266.608 176.472L265.233 176.364C265.387 175.591 265.758 174.968 266.346 174.494C266.943 174.009 267.706 173.767 268.633 173.767C269.684 173.767 270.488 174.066 271.044 174.664C271.601 175.251 271.879 176.065 271.879 177.106V180.49C271.879 180.676 271.91 180.81 271.972 180.892C272.044 180.964 272.157 181 272.312 181H272.636V182.144C272.595 182.155 272.528 182.16 272.435 182.16C272.343 182.17 272.245 182.175 272.142 182.175C271.771 182.175 271.467 182.118 271.23 182.005C271.003 181.881 270.838 181.696 270.735 181.449C270.632 181.191 270.581 180.856 270.581 180.444L270.735 180.475C270.663 180.825 270.488 181.145 270.21 181.433C269.931 181.711 269.586 181.933 269.174 182.098C268.762 182.252 268.324 182.33 267.86 182.33ZM267.984 181.186C268.53 181.186 268.994 181.083 269.375 180.877C269.767 180.66 270.065 180.372 270.272 180.011C270.478 179.64 270.581 179.228 270.581 178.775V178.188L267.922 178.682C267.366 178.785 266.979 178.945 266.763 179.161C266.557 179.367 266.454 179.64 266.454 179.98C266.454 180.362 266.588 180.66 266.856 180.877C267.134 181.083 267.51 181.186 267.984 181.186Z" fill="#ADADAD"/>
<path d="M263.137 182.144C262.663 182.144 262.276 182.021 261.978 181.773C261.679 181.526 261.529 181.134 261.529 180.599V171.17H262.828V180.49C262.828 180.655 262.869 180.784 262.951 180.877C263.044 180.959 263.173 181 263.338 181H264.049V182.144H263.137Z" fill="#ADADAD"/>
<path d="M253.953 183.844L258.513 170.552H259.749L255.19 183.844H253.953Z" fill="#ADADAD"/>
<path d="M241.017 182.144V173.953H242.207L242.254 176.024L242.068 175.962C242.161 175.508 242.321 175.122 242.547 174.803C242.784 174.473 243.073 174.22 243.413 174.045C243.753 173.86 244.129 173.767 244.541 173.767C245.252 173.767 245.829 173.963 246.272 174.354C246.726 174.746 247.009 175.292 247.122 175.993L246.875 175.977C246.957 175.503 247.107 175.107 247.323 174.787C247.55 174.457 247.838 174.205 248.189 174.03C248.539 173.855 248.941 173.767 249.394 173.767C249.982 173.767 250.476 173.891 250.878 174.138C251.28 174.375 251.584 174.725 251.79 175.189C251.996 175.653 252.099 176.214 252.099 176.874V182.144H250.801V177.152C250.801 176.41 250.656 175.854 250.368 175.483C250.079 175.101 249.652 174.911 249.085 174.911C248.704 174.911 248.369 175.004 248.08 175.189C247.802 175.375 247.586 175.642 247.431 175.993C247.277 176.333 247.199 176.75 247.199 177.245V182.144H245.901V177.245C245.901 176.513 245.772 175.941 245.515 175.529C245.257 175.117 244.824 174.911 244.216 174.911C243.835 174.911 243.5 175.004 243.212 175.189C242.934 175.375 242.712 175.642 242.547 175.993C242.393 176.343 242.315 176.76 242.315 177.245V182.144H241.017Z" fill="#ADADAD"/>
<path d="M235.508 182.33C234.756 182.33 234.096 182.155 233.529 181.804C232.963 181.454 232.525 180.959 232.216 180.32C231.907 179.671 231.752 178.914 231.752 178.048C231.752 177.173 231.907 176.415 232.216 175.776C232.525 175.138 232.963 174.643 233.529 174.293C234.096 173.942 234.756 173.767 235.508 173.767C236.26 173.767 236.914 173.942 237.471 174.293C238.037 174.643 238.475 175.138 238.784 175.776C239.094 176.415 239.248 177.173 239.248 178.048C239.248 178.914 239.094 179.671 238.784 180.32C238.475 180.959 238.037 181.454 237.471 181.804C236.914 182.155 236.26 182.33 235.508 182.33ZM235.508 181.093C236.26 181.093 236.842 180.825 237.254 180.29C237.677 179.743 237.888 178.996 237.888 178.048C237.888 177.1 237.677 176.359 237.254 175.823C236.842 175.277 236.26 175.004 235.508 175.004C234.756 175.004 234.168 175.277 233.746 175.823C233.323 176.359 233.112 177.1 233.112 178.048C233.112 178.996 233.323 179.743 233.746 180.29C234.168 180.825 234.756 181.093 235.508 181.093Z" fill="#ADADAD"/>
<path d="M227.221 182.33C226.459 182.33 225.794 182.155 225.227 181.804C224.671 181.454 224.238 180.959 223.929 180.32C223.62 179.671 223.465 178.914 223.465 178.048C223.465 177.183 223.62 176.431 223.929 175.792C224.238 175.153 224.671 174.658 225.227 174.308C225.794 173.947 226.459 173.767 227.221 173.767C227.85 173.767 228.406 173.88 228.89 174.107C229.385 174.324 229.787 174.643 230.096 175.065C230.405 175.488 230.606 176.003 230.699 176.611L229.339 176.704C229.246 176.158 229.009 175.74 228.628 175.452C228.246 175.153 227.778 175.004 227.221 175.004C226.469 175.004 225.882 175.277 225.459 175.823C225.037 176.359 224.825 177.1 224.825 178.048C224.825 178.996 225.037 179.743 225.459 180.29C225.882 180.825 226.469 181.093 227.221 181.093C227.778 181.093 228.246 180.939 228.628 180.63C229.009 180.32 229.246 179.857 229.339 179.239L230.699 179.331C230.606 179.939 230.405 180.47 230.096 180.923C229.787 181.366 229.385 181.711 228.89 181.959C228.406 182.206 227.85 182.33 227.221 182.33Z" fill="#ADADAD"/>
<path d="M220.356 182.144V180.397H222.102V182.144H220.356Z" fill="#ADADAD"/>
<path d="M212.074 182.144V180.846L217.252 175.096H212.228V173.952H218.673V175.251L213.496 181H218.797V182.144H212.074Z" fill="#ADADAD"/>
<path d="M203.833 182.144V180.846L209.01 175.096H203.987V173.952H210.432V175.251L205.254 181H210.556V182.144H203.833Z" fill="#ADADAD"/>
<path d="M199.129 182.33C198.563 182.33 198.058 182.206 197.615 181.959C197.172 181.701 196.832 181.351 196.595 180.908L196.548 182.144H195.374V171.17H196.672V175.096C196.878 174.756 197.197 174.452 197.63 174.184C198.063 173.906 198.563 173.767 199.129 173.767C199.851 173.767 200.474 173.942 201 174.293C201.525 174.643 201.932 175.137 202.221 175.776C202.509 176.415 202.653 177.172 202.653 178.048C202.653 178.924 202.509 179.682 202.221 180.32C201.932 180.959 201.525 181.454 201 181.804C200.474 182.154 199.851 182.33 199.129 182.33ZM199.052 181.093C199.742 181.093 200.289 180.82 200.69 180.274C201.092 179.728 201.293 178.986 201.293 178.048C201.293 177.1 201.092 176.358 200.69 175.823C200.289 175.277 199.753 175.003 199.083 175.003C198.578 175.003 198.145 175.127 197.785 175.374C197.424 175.611 197.146 175.957 196.95 176.41C196.765 176.863 196.672 177.409 196.672 178.048C196.672 178.667 196.765 179.208 196.95 179.671C197.146 180.125 197.419 180.475 197.769 180.722C198.13 180.97 198.557 181.093 199.052 181.093Z" fill="#ADADAD"/>
<path d="M189.985 182.144V173.952H191.129L191.191 176.023L191.067 175.977C191.17 175.276 191.392 174.766 191.732 174.447C192.082 174.117 192.546 173.952 193.123 173.952H193.927V175.189H193.138C192.726 175.189 192.381 175.266 192.103 175.421C191.835 175.565 191.629 175.787 191.485 176.085C191.351 176.374 191.284 176.745 191.284 177.198V182.144H189.985Z" fill="#ADADAD"/>
<path d="M185.159 182.144V173.211C185.159 172.603 185.334 172.113 185.684 171.742C186.035 171.361 186.581 171.17 187.323 171.17H188.621V172.314H187.415C187.096 172.314 186.854 172.402 186.689 172.577C186.534 172.752 186.457 172.994 186.457 173.303V182.144H185.159ZM184.046 175.096V173.952H188.513V175.096H184.046Z" fill="#ADADAD"/>
<path d="M181.233 182.144V180.397H182.979V182.144H181.233Z" fill="#ADADAD"/>
<path d="M171.685 182.144L169.15 173.952H170.572L172.488 180.784L174.436 173.952H175.827L177.774 180.784L179.706 173.952H181.128L178.594 182.144H176.955L175.131 175.915L173.308 182.144H171.685Z" fill="#ADADAD"/>
<path d="M164.975 182.33C164.202 182.33 163.532 182.155 162.965 181.804C162.409 181.454 161.976 180.959 161.667 180.32C161.368 179.671 161.219 178.914 161.219 178.048C161.219 177.183 161.368 176.431 161.667 175.792C161.976 175.153 162.404 174.658 162.95 174.308C163.506 173.947 164.161 173.767 164.913 173.767C165.624 173.767 166.252 173.937 166.798 174.277C167.344 174.607 167.767 175.091 168.066 175.73C168.375 176.369 168.529 177.147 168.529 178.064V178.45H162.579C162.63 179.326 162.862 179.986 163.274 180.429C163.697 180.872 164.264 181.093 164.975 181.093C165.51 181.093 165.948 180.97 166.288 180.722C166.639 180.465 166.881 180.13 167.015 179.718L168.406 179.826C168.189 180.557 167.777 181.16 167.169 181.634C166.572 182.098 165.84 182.33 164.975 182.33ZM162.579 177.307H167.107C167.046 176.513 166.814 175.931 166.412 175.56C166.02 175.189 165.521 175.004 164.913 175.004C164.284 175.004 163.764 175.199 163.352 175.591C162.95 175.972 162.692 176.544 162.579 177.307Z" fill="#ADADAD"/>
<path d="M158.152 182.144V173.952H159.45V182.144H158.152ZM158.121 172.669V171.155H159.481V172.669H158.121Z" fill="#ADADAD"/>
<path d="M152.104 182.144L149.121 173.952H150.543L152.923 180.815L155.303 173.952H156.725L153.742 182.144H152.104Z" fill="#ADADAD"/>
<path d="M144.945 182.33C144.172 182.33 143.502 182.155 142.935 181.804C142.379 181.454 141.946 180.959 141.637 180.32C141.338 179.671 141.189 178.914 141.189 178.048C141.189 177.183 141.338 176.431 141.637 175.792C141.946 175.153 142.374 174.658 142.92 174.308C143.476 173.947 144.131 173.767 144.883 173.767C145.594 173.767 146.222 173.937 146.769 174.277C147.315 174.607 147.737 175.091 148.036 175.73C148.345 176.369 148.5 177.147 148.5 178.064V178.45H142.549C142.601 179.326 142.832 179.986 143.245 180.429C143.667 180.872 144.234 181.093 144.945 181.093C145.481 181.093 145.918 180.97 146.259 180.722C146.609 180.465 146.851 180.13 146.985 179.718L148.376 179.826C148.16 180.557 147.747 181.16 147.14 181.634C146.542 182.098 145.81 182.33 144.945 182.33ZM142.549 177.307H147.078C147.016 176.513 146.784 175.931 146.382 175.56C145.991 175.189 145.491 175.004 144.883 175.004C144.254 175.004 143.734 175.199 143.322 175.591C142.92 175.972 142.662 176.544 142.549 177.307Z" fill="#ADADAD"/>
<path d="M136.508 182.144V173.952H137.652L137.713 176.023L137.59 175.977C137.693 175.276 137.914 174.766 138.254 174.447C138.605 174.117 139.068 173.952 139.645 173.952H140.449V175.189H139.661C139.249 175.189 138.903 175.266 138.625 175.421C138.357 175.565 138.151 175.787 138.007 176.085C137.873 176.374 137.806 176.745 137.806 177.198V182.144H136.508Z" fill="#ADADAD"/>
<path d="M127.467 184.463V173.953H128.672L128.703 175.715L128.518 175.622C128.724 175.014 129.064 174.555 129.538 174.246C130.022 173.927 130.579 173.767 131.207 173.767C132.021 173.767 132.686 173.968 133.201 174.37C133.726 174.772 134.113 175.297 134.36 175.946C134.618 176.596 134.747 177.296 134.747 178.048C134.747 178.801 134.618 179.501 134.36 180.15C134.113 180.8 133.726 181.325 133.201 181.727C132.686 182.129 132.021 182.33 131.207 182.33C130.785 182.33 130.388 182.258 130.017 182.113C129.656 181.969 129.347 181.768 129.09 181.511C128.842 181.253 128.672 180.949 128.58 180.599L128.765 180.382V184.463H127.467ZM131.084 181.093C131.794 181.093 132.356 180.825 132.768 180.29C133.18 179.754 133.386 179.007 133.386 178.048C133.386 177.09 133.18 176.343 132.768 175.807C132.356 175.271 131.794 175.004 131.084 175.004C130.61 175.004 130.197 175.117 129.847 175.344C129.507 175.57 129.239 175.91 129.043 176.364C128.858 176.817 128.765 177.379 128.765 178.048C128.765 178.718 128.858 179.28 129.043 179.733C129.229 180.186 129.497 180.527 129.847 180.753C130.197 180.98 130.61 181.093 131.084 181.093Z" fill="#ADADAD"/>
<path d="M119.89 183.844L124.45 170.552H125.686L121.127 183.844H119.89Z" fill="#ADADAD"/>
<path d="M114.109 183.844L118.669 170.552H119.905L115.346 183.844H114.109Z" fill="#ADADAD"/>
<path d="M110.626 182.144V180.397H112.373V182.144H110.626ZM110.626 176.07V174.323H112.373V176.07H110.626Z" fill="#ADADAD"/>
<path d="M105.319 182.33C104.587 182.33 103.964 182.211 103.449 181.974C102.944 181.737 102.547 181.413 102.258 181C101.98 180.578 101.821 180.099 101.779 179.563L103.139 179.47C103.222 179.965 103.433 180.362 103.773 180.66C104.113 180.949 104.628 181.093 105.319 181.093C105.875 181.093 106.318 181.006 106.648 180.83C106.988 180.645 107.158 180.351 107.158 179.949C107.158 179.733 107.106 179.553 107.003 179.409C106.9 179.264 106.699 179.141 106.401 179.038C106.102 178.924 105.659 178.816 105.071 178.713C104.288 178.569 103.67 178.394 103.217 178.188C102.774 177.971 102.454 177.708 102.258 177.399C102.073 177.08 101.98 176.704 101.98 176.271C101.98 175.539 102.248 174.942 102.784 174.478C103.32 174.004 104.082 173.767 105.071 173.767C105.741 173.767 106.303 173.891 106.756 174.138C107.22 174.375 107.58 174.694 107.838 175.096C108.106 175.488 108.281 175.921 108.364 176.395L107.003 176.487C106.942 176.199 106.828 175.946 106.663 175.73C106.499 175.503 106.282 175.328 106.014 175.204C105.746 175.071 105.427 175.004 105.056 175.004C104.469 175.004 104.036 175.117 103.758 175.344C103.479 175.57 103.34 175.859 103.34 176.209C103.34 176.477 103.402 176.699 103.526 176.874C103.66 177.039 103.871 177.178 104.16 177.291C104.448 177.394 104.834 177.487 105.319 177.569C106.153 177.714 106.802 177.889 107.266 178.095C107.73 178.301 108.054 178.553 108.24 178.852C108.425 179.151 108.518 179.517 108.518 179.949C108.518 180.454 108.374 180.887 108.085 181.248C107.807 181.598 107.426 181.866 106.942 182.052C106.468 182.237 105.927 182.33 105.319 182.33Z" fill="#ADADAD"/>
<path d="M93.2944 184.463V173.953H94.5L94.5309 175.715L94.3454 175.622C94.5515 175.014 94.8916 174.555 95.3655 174.246C95.8498 173.927 96.4062 173.767 97.0348 173.767C97.8488 173.767 98.5134 173.968 99.0286 174.37C99.5541 174.772 99.9405 175.297 100.188 175.946C100.445 176.596 100.574 177.296 100.574 178.048C100.574 178.801 100.445 179.501 100.188 180.15C99.9405 180.8 99.5541 181.325 99.0286 181.727C98.5134 182.129 97.8488 182.33 97.0348 182.33C96.6123 182.33 96.2156 182.258 95.8447 182.113C95.484 181.969 95.1749 181.768 94.9173 181.511C94.67 181.253 94.5 180.949 94.4073 180.599L94.5927 180.382V184.463H93.2944ZM96.9111 181.093C97.6221 181.093 98.1837 180.825 98.5958 180.29C99.008 179.754 99.2141 179.007 99.2141 178.048C99.2141 177.09 99.008 176.343 98.5958 175.807C98.1837 175.271 97.6221 175.004 96.9111 175.004C96.4372 175.004 96.025 175.117 95.6747 175.344C95.3346 175.57 95.0667 175.91 94.8709 176.364C94.6855 176.817 94.5927 177.379 94.5927 178.048C94.5927 178.718 94.6855 179.28 94.8709 179.733C95.0564 180.186 95.3243 180.527 95.6747 180.753C96.025 180.98 96.4372 181.093 96.9111 181.093Z" fill="#ADADAD"/>
<path d="M85.5011 182.144C84.7592 182.144 84.2079 181.974 83.8473 181.634C83.4969 181.294 83.3218 180.763 83.3218 180.042V172.036H84.6201V180.011C84.6201 180.382 84.7025 180.64 84.8674 180.784C85.0322 180.928 85.2847 181 85.6247 181H86.7994V182.144H85.5011ZM82.1162 175.096V173.952H86.7994V175.096H82.1162ZM90.1533 182.144C89.4114 182.144 88.8602 181.974 88.4995 181.634C88.1492 181.294 87.974 180.763 87.974 180.042V172.036H89.2723V180.011C89.2723 180.382 89.3548 180.64 89.5196 180.784C89.6845 180.928 89.9369 181 90.277 181H91.4516V182.144H90.1533ZM86.7685 175.096V173.952H91.4516V175.096H86.7685Z" fill="#ADADAD"/>
<path d="M74.1406 182.144V171.17H75.4389V175.761L75.2844 175.73C75.3874 175.277 75.5626 174.906 75.8099 174.617C76.0572 174.329 76.3611 174.117 76.7218 173.983C77.0824 173.839 77.4791 173.767 77.9119 173.767C78.4992 173.767 78.9938 173.901 79.3957 174.169C79.8078 174.426 80.1169 174.792 80.323 175.266C80.5394 175.73 80.6476 176.266 80.6476 176.874V182.144H79.3493V177.245C79.3493 176.451 79.205 175.864 78.9165 175.483C78.6383 175.101 78.2107 174.911 77.6337 174.911C76.9742 174.911 76.4436 175.112 76.0417 175.514C75.6399 175.915 75.4389 176.498 75.4389 177.26V182.144H74.1406Z" fill="#ADADAD"/>
<path d="M290.93 219.68V217.933H292.677V219.68H290.93Z" fill="white"/>
<path d="M285.826 219.866C285.073 219.866 284.414 219.69 283.847 219.34C283.281 218.99 282.843 218.495 282.534 217.856C282.224 217.207 282.07 216.45 282.07 215.584C282.07 214.708 282.224 213.951 282.534 213.312C282.843 212.673 283.281 212.179 283.847 211.828C284.414 211.478 285.073 211.303 285.826 211.303C286.578 211.303 287.232 211.478 287.789 211.828C288.355 212.179 288.793 212.673 289.102 213.312C289.411 213.951 289.566 214.708 289.566 215.584C289.566 216.45 289.411 217.207 289.102 217.856C288.793 218.495 288.355 218.99 287.789 219.34C287.232 219.69 286.578 219.866 285.826 219.866ZM285.826 218.629C286.578 218.629 287.16 218.361 287.572 217.825C287.995 217.279 288.206 216.532 288.206 215.584C288.206 214.636 287.995 213.894 287.572 213.359C287.16 212.813 286.578 212.539 285.826 212.539C285.073 212.539 284.486 212.813 284.064 213.359C283.641 213.894 283.43 214.636 283.43 215.584C283.43 216.532 283.641 217.279 284.064 217.825C284.486 218.361 285.073 218.629 285.826 218.629Z" fill="white"/>
<path d="M276.707 222.184C276.12 222.184 275.589 222.086 275.115 221.89C274.641 221.695 274.244 221.416 273.925 221.056C273.606 220.695 273.389 220.278 273.276 219.804L274.636 219.711C274.76 220.092 274.976 220.391 275.285 220.607C275.604 220.834 276.078 220.948 276.707 220.948C277.449 220.948 278.016 220.798 278.407 220.499C278.809 220.2 279.01 219.752 279.01 219.155V217.825C278.814 218.258 278.5 218.603 278.067 218.861C277.634 219.119 277.15 219.247 276.614 219.247C275.924 219.247 275.306 219.077 274.76 218.737C274.224 218.397 273.801 217.928 273.492 217.331C273.193 216.733 273.044 216.048 273.044 215.275C273.044 214.492 273.193 213.807 273.492 213.22C273.791 212.622 274.203 212.153 274.729 211.813C275.264 211.473 275.872 211.303 276.552 211.303C277.129 211.303 277.645 211.437 278.098 211.705C278.562 211.973 278.886 212.333 279.072 212.787V211.488H280.308V219.124C280.308 219.763 280.164 220.309 279.876 220.762C279.587 221.226 279.175 221.576 278.639 221.813C278.103 222.06 277.459 222.184 276.707 222.184ZM276.676 218.011C277.377 218.011 277.938 217.769 278.361 217.284C278.783 216.79 279 216.12 279.01 215.275C279.02 214.708 278.928 214.224 278.732 213.822C278.546 213.41 278.273 213.096 277.913 212.879C277.562 212.653 277.15 212.539 276.676 212.539C275.955 212.539 275.393 212.787 274.991 213.281C274.6 213.766 274.404 214.43 274.404 215.275C274.404 216.12 274.605 216.79 275.007 217.284C275.419 217.769 275.975 218.011 276.676 218.011Z" fill="white"/>
<path d="M267.388 219.866C266.543 219.866 265.868 219.67 265.363 219.278C264.869 218.887 264.622 218.341 264.622 217.64C264.622 216.939 264.828 216.388 265.24 215.986C265.652 215.584 266.306 215.301 267.203 215.136L270.108 214.595C270.108 213.905 269.944 213.39 269.614 213.05C269.294 212.709 268.81 212.539 268.161 212.539C267.594 212.539 267.146 212.668 266.816 212.926C266.487 213.173 266.26 213.534 266.136 214.008L264.761 213.9C264.915 213.127 265.286 212.503 265.874 212.029C266.471 211.545 267.234 211.303 268.161 211.303C269.212 211.303 270.016 211.602 270.572 212.199C271.129 212.787 271.407 213.601 271.407 214.641V218.026C271.407 218.212 271.438 218.346 271.499 218.428C271.572 218.5 271.685 218.536 271.84 218.536H272.164V219.68C272.123 219.69 272.056 219.696 271.963 219.696C271.87 219.706 271.773 219.711 271.67 219.711C271.299 219.711 270.995 219.654 270.758 219.541C270.531 219.417 270.366 219.232 270.263 218.985C270.16 218.727 270.108 218.392 270.108 217.98L270.263 218.011C270.191 218.361 270.016 218.681 269.738 218.969C269.459 219.247 269.114 219.469 268.702 219.634C268.29 219.788 267.852 219.866 267.388 219.866ZM267.512 218.722C268.058 218.722 268.522 218.619 268.903 218.413C269.294 218.196 269.593 217.908 269.799 217.547C270.005 217.176 270.108 216.764 270.108 216.311V215.723L267.45 216.218C266.894 216.321 266.507 216.481 266.291 216.697C266.085 216.903 265.982 217.176 265.982 217.516C265.982 217.898 266.116 218.196 266.384 218.413C266.662 218.619 267.038 218.722 267.512 218.722Z" fill="white"/>
<path d="M255.028 219.866C254.317 219.866 253.698 219.69 253.173 219.34C252.658 218.99 252.261 218.495 251.983 217.856C251.705 217.217 251.565 216.46 251.565 215.584C251.565 214.708 251.705 213.951 251.983 213.312C252.261 212.673 252.658 212.179 253.173 211.828C253.698 211.478 254.317 211.303 255.028 211.303C255.574 211.303 256.073 211.421 256.527 211.658C256.98 211.885 257.32 212.21 257.547 212.632V208.706H258.845V219.68H257.671L257.624 218.444C257.398 218.887 257.052 219.237 256.589 219.495C256.125 219.742 255.605 219.866 255.028 219.866ZM255.29 218.629C255.775 218.629 256.182 218.505 256.511 218.258C256.851 218.011 257.109 217.66 257.284 217.207C257.459 216.743 257.547 216.202 257.547 215.584C257.547 214.945 257.459 214.399 257.284 213.946C257.109 213.493 256.851 213.147 256.511 212.91C256.182 212.663 255.775 212.539 255.29 212.539C254.569 212.539 253.992 212.812 253.559 213.359C253.137 213.894 252.926 214.636 252.926 215.584C252.926 216.522 253.137 217.264 253.559 217.81C253.992 218.356 254.569 218.629 255.29 218.629Z" fill="white"/>
<path d="M243.322 219.68V211.488H244.512L244.559 213.575L244.404 213.436C244.507 212.952 244.688 212.555 244.945 212.246C245.203 211.926 245.512 211.689 245.873 211.535C246.243 211.38 246.64 211.303 247.063 211.303C247.691 211.303 248.206 211.442 248.608 211.72C249.02 211.998 249.324 212.375 249.52 212.849C249.726 213.312 249.829 213.833 249.829 214.41V219.68H248.531V214.781C248.531 214.276 248.469 213.853 248.345 213.513C248.232 213.163 248.047 212.9 247.789 212.725C247.531 212.539 247.197 212.447 246.784 212.447C246.156 212.447 245.636 212.648 245.223 213.05C244.821 213.441 244.621 214.018 244.621 214.781V219.68H243.322Z" fill="white"/>
<path d="M237.812 219.866C237.06 219.866 236.401 219.69 235.834 219.34C235.267 218.99 234.829 218.495 234.52 217.856C234.211 217.207 234.057 216.45 234.057 215.584C234.057 214.708 234.211 213.951 234.52 213.312C234.829 212.673 235.267 212.179 235.834 211.828C236.401 211.478 237.06 211.303 237.812 211.303C238.565 211.303 239.219 211.478 239.775 211.828C240.342 212.179 240.78 212.673 241.089 213.312C241.398 213.951 241.553 214.708 241.553 215.584C241.553 216.45 241.398 217.207 241.089 217.856C240.78 218.495 240.342 218.99 239.775 219.34C239.219 219.69 238.565 219.866 237.812 219.866ZM237.812 218.629C238.565 218.629 239.147 218.361 239.559 217.825C239.981 217.279 240.193 216.532 240.193 215.584C240.193 214.636 239.981 213.894 239.559 213.359C239.147 212.813 238.565 212.539 237.812 212.539C237.06 212.539 236.473 212.813 236.05 213.359C235.628 213.894 235.417 214.636 235.417 215.584C235.417 216.532 235.628 217.279 236.05 217.825C236.473 218.361 237.06 218.629 237.812 218.629Z" fill="white"/>
<path d="M229.526 219.866C228.764 219.866 228.099 219.69 227.533 219.34C226.976 218.99 226.543 218.495 226.234 217.856C225.925 217.207 225.771 216.45 225.771 215.584C225.771 214.719 225.925 213.967 226.234 213.328C226.543 212.689 226.976 212.194 227.533 211.844C228.099 211.483 228.764 211.303 229.526 211.303C230.155 211.303 230.711 211.416 231.196 211.643C231.69 211.859 232.092 212.179 232.401 212.601C232.71 213.024 232.911 213.539 233.004 214.147L231.644 214.24C231.551 213.694 231.314 213.276 230.933 212.988C230.552 212.689 230.083 212.539 229.526 212.539C228.774 212.539 228.187 212.813 227.764 213.359C227.342 213.894 227.131 214.636 227.131 215.584C227.131 216.532 227.342 217.279 227.764 217.825C228.187 218.361 228.774 218.629 229.526 218.629C230.083 218.629 230.552 218.475 230.933 218.165C231.314 217.856 231.551 217.393 231.644 216.774L233.004 216.867C232.911 217.475 232.71 218.006 232.401 218.459C232.092 218.902 231.69 219.247 231.196 219.495C230.711 219.742 230.155 219.866 229.526 219.866Z" fill="white"/>
<path d="M221.013 219.866C220.24 219.866 219.571 219.69 219.004 219.34C218.447 218.99 218.015 218.495 217.706 217.856C217.407 217.207 217.257 216.45 217.257 215.584C217.257 214.719 217.407 213.967 217.706 213.328C218.015 212.689 218.442 212.194 218.988 211.844C219.545 211.483 220.199 211.303 220.951 211.303C221.662 211.303 222.291 211.473 222.837 211.813C223.383 212.143 223.806 212.627 224.104 213.266C224.413 213.905 224.568 214.683 224.568 215.6V215.986H218.617C218.669 216.862 218.901 217.521 219.313 217.965C219.735 218.408 220.302 218.629 221.013 218.629C221.549 218.629 221.987 218.505 222.327 218.258C222.677 218.001 222.919 217.666 223.053 217.254L224.444 217.362C224.228 218.093 223.816 218.696 223.208 219.17C222.61 219.634 221.879 219.866 221.013 219.866ZM218.617 214.842H223.146C223.084 214.049 222.852 213.467 222.451 213.096C222.059 212.725 221.559 212.539 220.951 212.539C220.323 212.539 219.802 212.735 219.39 213.127C218.988 213.508 218.731 214.08 218.617 214.842Z" fill="white"/>
<path d="M212.842 219.866C212.111 219.866 211.487 219.747 210.972 219.51C210.467 219.273 210.07 218.949 209.782 218.536C209.504 218.114 209.344 217.635 209.303 217.099L210.663 217.006C210.745 217.501 210.957 217.898 211.297 218.196C211.637 218.485 212.152 218.629 212.842 218.629C213.399 218.629 213.842 218.542 214.171 218.366C214.511 218.181 214.681 217.887 214.681 217.485C214.681 217.269 214.63 217.089 214.527 216.944C214.424 216.8 214.223 216.677 213.924 216.573C213.625 216.46 213.182 216.352 212.595 216.249C211.812 216.105 211.194 215.929 210.74 215.723C210.297 215.507 209.978 215.244 209.782 214.935C209.596 214.616 209.504 214.24 209.504 213.807C209.504 213.075 209.772 212.478 210.307 212.014C210.843 211.54 211.606 211.303 212.595 211.303C213.265 211.303 213.826 211.427 214.28 211.674C214.743 211.911 215.104 212.23 215.361 212.632C215.629 213.024 215.805 213.457 215.887 213.93L214.527 214.023C214.465 213.735 214.352 213.482 214.187 213.266C214.022 213.039 213.806 212.864 213.538 212.74C213.27 212.606 212.95 212.539 212.579 212.539C211.992 212.539 211.559 212.653 211.281 212.879C211.003 213.106 210.864 213.395 210.864 213.745C210.864 214.013 210.926 214.234 211.049 214.41C211.183 214.574 211.394 214.714 211.683 214.827C211.971 214.93 212.358 215.023 212.842 215.105C213.677 215.249 214.326 215.425 214.79 215.631C215.253 215.837 215.578 216.089 215.763 216.388C215.949 216.687 216.042 217.053 216.042 217.485C216.042 217.99 215.897 218.423 215.609 218.784C215.331 219.134 214.949 219.402 214.465 219.587C213.991 219.773 213.45 219.866 212.842 219.866Z" fill="white"/>
<path d="M199.693 219.866C198.848 219.866 198.173 219.67 197.668 219.278C197.174 218.887 196.926 218.341 196.926 217.64C196.926 216.939 197.132 216.388 197.545 215.986C197.957 215.584 198.611 215.301 199.507 215.136L202.413 214.595C202.413 213.905 202.248 213.39 201.919 213.05C201.599 212.709 201.115 212.539 200.466 212.539C199.899 212.539 199.451 212.668 199.121 212.926C198.791 213.173 198.565 213.534 198.441 214.008L197.065 213.9C197.22 213.127 197.591 212.503 198.178 212.029C198.776 211.545 199.538 211.303 200.466 211.303C201.517 211.303 202.32 211.602 202.877 212.199C203.433 212.787 203.711 213.601 203.711 214.641V218.026C203.711 218.212 203.742 218.346 203.804 218.428C203.876 218.5 203.99 218.536 204.144 218.536H204.469V219.68C204.428 219.69 204.361 219.696 204.268 219.696C204.175 219.706 204.077 219.711 203.974 219.711C203.603 219.711 203.299 219.654 203.062 219.541C202.836 219.417 202.671 219.232 202.568 218.985C202.465 218.727 202.413 218.392 202.413 217.98L202.568 218.011C202.496 218.361 202.32 218.681 202.042 218.969C201.764 219.247 201.419 219.469 201.007 219.634C200.595 219.788 200.157 219.866 199.693 219.866ZM199.817 218.722C200.363 218.722 200.826 218.619 201.208 218.413C201.599 218.196 201.898 217.908 202.104 217.547C202.31 217.176 202.413 216.764 202.413 216.311V215.723L199.755 216.218C199.198 216.321 198.812 216.481 198.596 216.697C198.389 216.903 198.286 217.176 198.286 217.516C198.286 217.898 198.42 218.196 198.688 218.413C198.966 218.619 199.343 218.722 199.817 218.722Z" fill="white"/>
<path d="M190.564 219.68C189.822 219.68 189.271 219.51 188.91 219.17C188.56 218.83 188.385 218.299 188.385 217.578V209.572H189.683V217.547C189.683 217.918 189.766 218.176 189.93 218.32C190.095 218.464 190.348 218.536 190.688 218.536H191.862V219.68H190.564ZM187.179 212.632V211.488H191.862V212.632H187.179Z" fill="white"/>
<path d="M181.803 219.866C180.989 219.866 180.334 219.593 179.84 219.047C179.355 218.49 179.113 217.728 179.113 216.759V211.489H180.412V216.404C180.412 217.197 180.551 217.784 180.829 218.166C181.117 218.536 181.555 218.722 182.143 218.722C182.792 218.722 183.302 218.516 183.673 218.104C184.044 217.681 184.229 217.104 184.229 216.373V211.489H185.528V219.68H184.291V217.655L184.492 217.764C184.327 218.433 184.013 218.954 183.549 219.325C183.085 219.685 182.503 219.866 181.803 219.866Z" fill="white"/>
<path d="M173.604 219.866C172.852 219.866 172.192 219.69 171.626 219.34C171.059 218.99 170.621 218.495 170.312 217.856C170.003 217.207 169.848 216.45 169.848 215.584C169.848 214.708 170.003 213.951 170.312 213.312C170.621 212.673 171.059 212.179 171.626 211.828C172.192 211.478 172.852 211.303 173.604 211.303C174.356 211.303 175.01 211.478 175.567 211.828C176.134 212.179 176.572 212.673 176.881 213.312C177.19 213.951 177.344 214.708 177.344 215.584C177.344 216.45 177.19 217.207 176.881 217.856C176.572 218.495 176.134 218.99 175.567 219.34C175.01 219.69 174.356 219.866 173.604 219.866ZM173.604 218.629C174.356 218.629 174.938 218.361 175.35 217.825C175.773 217.279 175.984 216.532 175.984 215.584C175.984 214.636 175.773 213.894 175.35 213.359C174.938 212.813 174.356 212.539 173.604 212.539C172.852 212.539 172.264 212.813 171.842 213.359C171.42 213.894 171.208 214.636 171.208 215.584C171.208 216.532 171.42 217.279 171.842 217.825C172.264 218.361 172.852 218.629 173.604 218.629Z" fill="white"/>
<path d="M165.119 219.866C164.552 219.866 164.047 219.742 163.604 219.495C163.161 219.237 162.821 218.887 162.584 218.444L162.538 219.68H161.363V208.706H162.662V212.632C162.868 212.292 163.187 211.988 163.62 211.72C164.053 211.442 164.552 211.303 165.119 211.303C165.84 211.303 166.464 211.478 166.989 211.828C167.515 212.179 167.922 212.673 168.21 213.312C168.499 213.951 168.643 214.708 168.643 215.584C168.643 216.46 168.499 217.217 168.21 217.856C167.922 218.495 167.515 218.99 166.989 219.34C166.464 219.69 165.84 219.866 165.119 219.866ZM165.042 218.629C165.732 218.629 166.278 218.356 166.68 217.81C167.082 217.264 167.283 216.522 167.283 215.584C167.283 214.636 167.082 213.894 166.68 213.359C166.278 212.812 165.742 212.539 165.073 212.539C164.568 212.539 164.135 212.663 163.774 212.91C163.414 213.147 163.136 213.493 162.94 213.946C162.754 214.399 162.662 214.945 162.662 215.584C162.662 216.202 162.754 216.743 162.94 217.207C163.136 217.66 163.409 218.011 163.759 218.258C164.12 218.505 164.547 218.629 165.042 218.629Z" fill="white"/>
<path d="M155.181 219.866C154.336 219.866 153.661 219.67 153.156 219.278C152.662 218.887 152.415 218.341 152.415 217.64C152.415 216.939 152.621 216.388 153.033 215.986C153.445 215.584 154.099 215.301 154.996 215.136L157.901 214.595C157.901 213.905 157.737 213.39 157.407 213.05C157.087 212.709 156.603 212.539 155.954 212.539C155.387 212.539 154.939 212.668 154.609 212.926C154.28 213.173 154.053 213.534 153.929 214.008L152.554 213.9C152.708 213.127 153.079 212.503 153.666 212.029C154.264 211.545 155.027 211.303 155.954 211.303C157.005 211.303 157.809 211.602 158.365 212.199C158.922 212.787 159.2 213.601 159.2 214.641V218.026C159.2 218.212 159.231 218.346 159.292 218.428C159.365 218.5 159.478 218.536 159.633 218.536H159.957V219.68C159.916 219.69 159.849 219.696 159.756 219.696C159.663 219.706 159.566 219.711 159.462 219.711C159.092 219.711 158.788 219.654 158.551 219.541C158.324 219.417 158.159 219.232 158.056 218.985C157.953 218.727 157.901 218.392 157.901 217.98L158.056 218.011C157.984 218.361 157.809 218.681 157.53 218.969C157.252 219.247 156.907 219.469 156.495 219.634C156.083 219.788 155.645 219.866 155.181 219.866ZM155.305 218.722C155.851 218.722 156.315 218.619 156.696 218.413C157.087 218.196 157.386 217.908 157.592 217.547C157.798 217.176 157.901 216.764 157.901 216.311V215.723L155.243 216.218C154.687 216.321 154.3 216.481 154.084 216.697C153.878 216.903 153.775 217.176 153.775 217.516C153.775 217.898 153.909 218.196 154.177 218.413C154.455 218.619 154.831 218.722 155.305 218.722Z" fill="white"/>
<path d="M142.821 219.866C142.11 219.866 141.491 219.69 140.966 219.34C140.451 218.99 140.054 218.495 139.776 217.856C139.498 217.217 139.358 216.46 139.358 215.584C139.358 214.708 139.498 213.951 139.776 213.312C140.054 212.673 140.451 212.179 140.966 211.828C141.491 211.478 142.11 211.303 142.821 211.303C143.367 211.303 143.866 211.421 144.32 211.658C144.773 211.885 145.113 212.21 145.34 212.632V208.706H146.638V219.68H145.464L145.417 218.444C145.19 218.887 144.845 219.237 144.382 219.495C143.918 219.742 143.398 219.866 142.821 219.866ZM143.083 218.629C143.568 218.629 143.975 218.505 144.304 218.258C144.644 218.011 144.902 217.66 145.077 217.207C145.252 216.743 145.34 216.202 145.34 215.584C145.34 214.945 145.252 214.399 145.077 213.946C144.902 213.493 144.644 213.147 144.304 212.91C143.975 212.663 143.568 212.539 143.083 212.539C142.362 212.539 141.785 212.812 141.352 213.359C140.93 213.894 140.719 214.636 140.719 215.584C140.719 216.522 140.93 217.264 141.352 217.81C141.785 218.356 142.362 218.629 143.083 218.629Z" fill="#059669"/>
<path d="M134.602 219.866C133.829 219.866 133.159 219.69 132.592 219.34C132.036 218.99 131.603 218.495 131.294 217.856C130.995 217.207 130.846 216.45 130.846 215.584C130.846 214.719 130.995 213.967 131.294 213.328C131.603 212.689 132.031 212.194 132.577 211.844C133.133 211.483 133.787 211.303 134.54 211.303C135.251 211.303 135.879 211.473 136.425 211.813C136.971 212.143 137.394 212.627 137.693 213.266C138.002 213.905 138.156 214.683 138.156 215.6V215.986H132.206C132.257 216.862 132.489 217.521 132.901 217.965C133.324 218.408 133.891 218.629 134.602 218.629C135.137 218.629 135.575 218.505 135.915 218.258C136.266 218.001 136.508 217.666 136.642 217.254L138.033 217.362C137.816 218.093 137.404 218.696 136.796 219.17C136.199 219.634 135.467 219.866 134.602 219.866ZM132.206 214.842H136.734C136.673 214.049 136.441 213.467 136.039 213.096C135.647 212.725 135.148 212.539 134.54 212.539C133.911 212.539 133.391 212.735 132.979 213.127C132.577 213.508 132.319 214.08 132.206 214.842Z" fill="#059669"/>
<path d="M122.603 219.68V208.706H123.901V213.297L123.746 213.266C123.849 212.812 124.024 212.441 124.272 212.153C124.519 211.864 124.823 211.653 125.184 211.519C125.544 211.375 125.941 211.303 126.374 211.303C126.961 211.303 127.456 211.437 127.858 211.705C128.27 211.962 128.579 212.328 128.785 212.802C129.001 213.266 129.11 213.802 129.11 214.41V219.68H127.811V214.781C127.811 213.987 127.667 213.4 127.378 213.019C127.1 212.637 126.673 212.447 126.096 212.447C125.436 212.447 124.905 212.648 124.504 213.049C124.102 213.451 123.901 214.033 123.901 214.796V219.68H122.603Z" fill="#059669"/>
<path d="M117.631 219.866C116.9 219.866 116.276 219.747 115.761 219.51C115.256 219.273 114.859 218.949 114.571 218.536C114.293 218.114 114.133 217.635 114.092 217.099L115.452 217.006C115.534 217.501 115.746 217.898 116.086 218.196C116.426 218.485 116.941 218.629 117.631 218.629C118.188 218.629 118.631 218.542 118.96 218.366C119.3 218.181 119.47 217.887 119.47 217.485C119.47 217.269 119.419 217.089 119.316 216.944C119.213 216.8 119.012 216.677 118.713 216.573C118.414 216.46 117.971 216.352 117.384 216.249C116.601 216.105 115.983 215.929 115.529 215.723C115.086 215.507 114.767 215.244 114.571 214.935C114.385 214.616 114.293 214.24 114.293 213.807C114.293 213.075 114.561 212.478 115.096 212.014C115.632 211.54 116.395 211.303 117.384 211.303C118.054 211.303 118.615 211.427 119.069 211.674C119.532 211.911 119.893 212.23 120.151 212.632C120.418 213.024 120.594 213.457 120.676 213.93L119.316 214.023C119.254 213.735 119.141 213.482 118.976 213.266C118.811 213.039 118.595 212.864 118.327 212.74C118.059 212.606 117.739 212.539 117.368 212.539C116.781 212.539 116.348 212.653 116.07 212.879C115.792 213.106 115.653 213.395 115.653 213.745C115.653 214.013 115.715 214.234 115.838 214.41C115.972 214.574 116.184 214.714 116.472 214.827C116.761 214.93 117.147 215.023 117.631 215.105C118.466 215.249 119.115 215.425 119.579 215.631C120.042 215.837 120.367 216.089 120.552 216.388C120.738 216.687 120.831 217.053 120.831 217.485C120.831 217.99 120.686 218.423 120.398 218.784C120.12 219.134 119.738 219.402 119.254 219.587C118.78 219.773 118.239 219.866 117.631 219.866Z" fill="#059669"/>
<path d="M111.025 219.68V211.488H112.323V219.68H111.025ZM110.994 210.205V208.691H112.354V210.205H110.994Z" fill="#059669"/>
<path d="M108.633 219.68C108.159 219.68 107.772 219.556 107.474 219.309C107.175 219.062 107.025 218.67 107.025 218.134V208.706H108.324V218.026C108.324 218.191 108.365 218.32 108.447 218.413C108.54 218.495 108.669 218.536 108.834 218.536H109.545V219.68H108.633Z" fill="#059669"/>
<path d="M101.665 219.866C101.098 219.866 100.593 219.742 100.15 219.495C99.7072 219.237 99.3672 218.887 99.1302 218.444L99.0838 219.68H97.9092V208.706H99.2075V212.632C99.4136 212.292 99.733 211.988 100.166 211.72C100.599 211.442 101.098 211.303 101.665 211.303C102.386 211.303 103.01 211.478 103.535 211.828C104.061 212.179 104.468 212.673 104.756 213.312C105.045 213.951 105.189 214.708 105.189 215.584C105.189 216.46 105.045 217.217 104.756 217.856C104.468 218.495 104.061 218.99 103.535 219.34C103.01 219.69 102.386 219.866 101.665 219.866ZM101.588 218.629C102.278 218.629 102.824 218.356 103.226 217.81C103.628 217.264 103.829 216.522 103.829 215.584C103.829 214.636 103.628 213.894 103.226 213.359C102.824 212.812 102.288 212.539 101.619 212.539C101.114 212.539 100.681 212.663 100.32 212.91C99.9597 213.147 99.6815 213.493 99.4857 213.946C99.3002 214.399 99.2075 214.945 99.2075 215.584C99.2075 216.202 99.3002 216.743 99.4857 217.207C99.6815 217.66 99.9545 218.011 100.305 218.258C100.665 218.505 101.093 218.629 101.588 218.629Z" fill="#059669"/>
<path d="M91.9345 219.866C91.1204 219.866 90.4661 219.593 89.9715 219.047C89.4873 218.49 89.2451 217.728 89.2451 216.759V211.489H90.5434V216.404C90.5434 217.197 90.6825 217.784 90.9607 218.166C91.2492 218.536 91.6872 218.722 92.2745 218.722C92.9236 218.722 93.4337 218.516 93.8046 218.104C94.1756 217.681 94.3611 217.104 94.3611 216.373V211.489H95.6594V219.68H94.4229V217.655L94.6238 217.764C94.4589 218.433 94.1447 218.954 93.681 219.325C93.2173 219.685 92.6351 219.866 91.9345 219.866Z" fill="#059669"/>
<path d="M79.8462 219.68V208.706H83.7875C85.0136 208.706 85.9668 209 86.6468 209.587C87.3269 210.175 87.6669 210.989 87.6669 212.029C87.6669 212.73 87.5124 213.338 87.2032 213.853C86.8941 214.358 86.4511 214.744 85.874 215.012C85.297 215.28 84.6015 215.414 83.7875 215.414H81.1754V219.68H79.8462ZM81.1754 214.116H83.7875C84.6118 214.116 85.23 213.941 85.6422 213.59C86.0647 213.24 86.2759 212.72 86.2759 212.029C86.2759 211.36 86.0647 210.855 85.6422 210.515C85.23 210.175 84.6118 210.005 83.7875 210.005H81.1754V214.116Z" fill="#059669"/>
<path d="M143.19 149.024V138.05H144.52V148.406L143.855 147.726H150.007V149.024H143.19Z" fill="white"/>
<path d="M133.032 149.024V138.05H137.19C137.963 138.05 138.627 138.184 139.184 138.452C139.74 138.72 140.168 139.106 140.467 139.611C140.776 140.106 140.93 140.693 140.93 141.373C140.93 141.868 140.812 142.311 140.575 142.703C140.348 143.084 140.054 143.388 139.694 143.614C139.333 143.841 138.957 143.965 138.565 143.985L138.473 143.846C139.142 143.846 139.668 144.001 140.049 144.31C140.441 144.619 140.667 145.114 140.729 145.794L141.038 149.024H139.694L139.416 145.933C139.374 145.479 139.209 145.145 138.921 144.928C138.643 144.712 138.184 144.604 137.545 144.604H134.361V149.024H133.032ZM134.361 143.305H137.36C138.03 143.305 138.56 143.135 138.952 142.795C139.343 142.455 139.539 141.971 139.539 141.342C139.539 140.704 139.338 140.214 138.936 139.874C138.535 139.524 137.952 139.349 137.19 139.349H134.361V143.305Z" fill="white"/>
<path d="M126.06 149.271C125.215 149.271 124.478 149.106 123.849 148.777C123.231 148.447 122.752 147.978 122.412 147.37C122.082 146.752 121.917 146.025 121.917 145.191V138.035H123.247V145.191C123.247 146.077 123.489 146.762 123.973 147.246C124.468 147.731 125.163 147.973 126.06 147.973C126.946 147.973 127.631 147.731 128.115 147.246C128.61 146.762 128.857 146.077 128.857 145.191V138.035H130.186V145.191C130.186 146.025 130.016 146.752 129.676 147.37C129.347 147.978 128.873 148.447 128.254 148.777C127.636 149.106 126.905 149.271 126.06 149.271Z" fill="white"/>
<path d="M107.075 149.024L104.54 140.833H105.962L107.879 147.664L109.826 140.833H111.217L113.164 147.664L115.096 140.833H116.518L113.984 149.024H112.345L110.522 142.795L108.698 149.024H107.075Z" fill="white"/>
<path d="M100.365 149.21C99.5919 149.21 98.9221 149.034 98.3554 148.684C97.799 148.334 97.3662 147.839 97.0571 147.2C96.7583 146.551 96.6089 145.794 96.6089 144.928C96.6089 144.063 96.7583 143.311 97.0571 142.672C97.3662 142.033 97.7938 141.538 98.34 141.188C98.8964 140.827 99.5507 140.647 100.303 140.647C101.014 140.647 101.642 140.817 102.189 141.157C102.735 141.487 103.157 141.971 103.456 142.61C103.765 143.249 103.92 144.027 103.92 144.944V145.33H97.969C98.0205 146.206 98.2524 146.865 98.6645 147.309C99.087 147.752 99.6537 147.973 100.365 147.973C100.901 147.973 101.338 147.849 101.678 147.602C102.029 147.345 102.271 147.01 102.405 146.598L103.796 146.706C103.58 147.437 103.167 148.04 102.559 148.514C101.962 148.978 101.23 149.21 100.365 149.21ZM97.969 144.186H102.498C102.436 143.393 102.204 142.811 101.802 142.44C101.411 142.069 100.911 141.883 100.303 141.883C99.6743 141.883 99.154 142.079 98.7418 142.471C98.34 142.852 98.0824 143.424 97.969 144.186Z" fill="white"/>
<path d="M93.5421 149.024V140.832H94.8404V149.024H93.5421ZM93.5112 139.549V138.035H94.8714V139.549H93.5112Z" fill="white"/>
<path d="M87.4937 149.024L84.5107 140.833H85.9327L88.3129 147.695L90.6931 140.833H92.1151L89.1321 149.024H87.4937Z" fill="white"/>
<path d="M80.3349 149.21C79.5621 149.21 78.8923 149.034 78.3256 148.684C77.7692 148.334 77.3364 147.839 77.0273 147.2C76.7285 146.551 76.5791 145.794 76.5791 144.928C76.5791 144.063 76.7285 143.311 77.0273 142.672C77.3364 142.033 77.7641 141.538 78.3102 141.188C78.8666 140.827 79.5209 140.647 80.2731 140.647C80.9841 140.647 81.6126 140.817 82.1587 141.157C82.7048 141.487 83.1273 141.971 83.4261 142.61C83.7352 143.249 83.8898 144.027 83.8898 144.944V145.33H77.9392C77.9907 146.206 78.2226 146.865 78.6348 147.309C79.0572 147.752 79.6239 147.973 80.3349 147.973C80.8707 147.973 81.3086 147.849 81.6487 147.602C81.999 147.345 82.2412 147.01 82.3751 146.598L83.7661 146.706C83.5498 147.437 83.1376 148.04 82.5297 148.514C81.932 148.978 81.2004 149.21 80.3349 149.21ZM77.9392 144.186H82.4678C82.406 143.393 82.1742 142.811 81.7723 142.44C81.3808 142.069 80.881 141.883 80.2731 141.883C79.6445 141.883 79.1242 142.079 78.712 142.471C78.3102 142.852 78.0526 143.424 77.9392 144.186Z" fill="white"/>
<path d="M71.8979 149.024V140.833H73.0417L73.1035 142.904L72.9799 142.857C73.0829 142.157 73.3044 141.647 73.6445 141.327C73.9948 140.997 74.4585 140.833 75.0355 140.833H75.8392V142.069H75.051C74.6388 142.069 74.2936 142.146 74.0154 142.301C73.7475 142.445 73.5414 142.667 73.3972 142.965C73.2632 143.254 73.1963 143.625 73.1963 144.078V149.024H71.8979Z" fill="white"/>
<path d="M62.1821 149.024V138.05H66.1234C67.3496 138.05 68.3027 138.344 68.9828 138.931C69.6628 139.519 70.0029 140.333 70.0029 141.373C70.0029 142.074 69.8483 142.682 69.5392 143.197C69.2301 143.702 68.787 144.088 68.21 144.356C67.6329 144.624 66.9374 144.758 66.1234 144.758H63.5113V149.024H62.1821ZM63.5113 143.46H66.1234C66.9477 143.46 67.566 143.285 67.9781 142.934C68.4006 142.584 68.6118 142.064 68.6118 141.373C68.6118 140.704 68.4006 140.199 67.9781 139.859C67.566 139.519 66.9477 139.349 66.1234 139.349H63.5113V143.46Z" fill="white"/>
<path d="M444.952 67.328L443.848 67.328L443.848 33.104L444.952 33.104L444.952 67.328Z" fill="#181614"/>
<path d="M430.6 194.288L429.496 194.288L429.496 160.064L430.6 160.064L430.6 194.288Z" fill="#181614"/>
<path d="M74.0078 49.664C74.0078 53.3224 71.0421 56.288 67.3838 56.288C63.7254 56.288 60.7598 53.3224 60.7598 49.664C60.7598 46.0057 63.7254 43.04 67.3838 43.04C71.0421 43.04 74.0078 46.0057 74.0078 49.664Z" fill="#2563EB"/>
<path d="M482.488 120.32L482.488 121.424L46.4082 121.424L46.4082 120.32L482.488 120.32Z" fill="#181614"/>
<path d="M47.5122 89.4079C47.5122 86.9691 49.4893 84.9919 51.9282 84.9919H478.072C480.511 84.9919 482.488 86.9691 482.488 89.4079V120.32H47.5122V89.4079Z" fill="#111010"/>
<path d="M164.163 107.072L161.99 100.051H163.209L164.852 105.906L166.521 100.051H167.713L169.383 105.906L171.039 100.051H172.257L170.085 107.072H168.68L167.117 101.733L165.554 107.072H164.163Z" fill="#ADADAD"/>
<path d="M158.411 107.231C157.748 107.231 157.174 107.081 156.688 106.781C156.212 106.48 155.841 106.056 155.576 105.509C155.319 104.952 155.191 104.303 155.191 103.561C155.191 102.819 155.319 102.175 155.576 101.627C155.841 101.08 156.207 100.656 156.675 100.355C157.152 100.046 157.713 99.8916 158.358 99.8916C158.967 99.8916 159.506 100.037 159.974 100.329C160.442 100.611 160.804 101.027 161.06 101.574C161.325 102.122 161.458 102.788 161.458 103.575V103.906H156.357C156.401 104.656 156.6 105.222 156.953 105.601C157.316 105.981 157.801 106.171 158.411 106.171C158.87 106.171 159.245 106.065 159.537 105.853C159.837 105.632 160.045 105.345 160.159 104.992L161.352 105.085C161.166 105.712 160.813 106.229 160.292 106.635C159.78 107.032 159.153 107.231 158.411 107.231ZM156.357 102.925H160.239C160.186 102.245 159.987 101.746 159.643 101.428C159.307 101.11 158.879 100.951 158.358 100.951C157.819 100.951 157.373 101.119 157.02 101.455C156.675 101.782 156.454 102.272 156.357 102.925Z" fill="#ADADAD"/>
<path d="M152.564 107.072V100.05H153.676V107.072H152.564ZM152.537 98.9509V97.6526H153.703V98.9509H152.537Z" fill="#ADADAD"/>
<path d="M147.379 107.072L144.822 100.051H146.041L148.081 105.933L150.121 100.051H151.34L148.783 107.072H147.379Z" fill="#ADADAD"/>
<path d="M141.243 107.231C140.58 107.231 140.006 107.081 139.52 106.781C139.044 106.48 138.673 106.056 138.408 105.509C138.152 104.952 138.023 104.303 138.023 103.561C138.023 102.819 138.152 102.175 138.408 101.627C138.673 101.08 139.039 100.656 139.507 100.355C139.984 100.046 140.545 99.8916 141.19 99.8916C141.799 99.8916 142.338 100.037 142.806 100.329C143.274 100.611 143.636 101.027 143.892 101.574C144.157 102.122 144.29 102.788 144.29 103.575V103.906H139.189C139.233 104.656 139.432 105.222 139.785 105.601C140.148 105.981 140.633 106.171 141.243 106.171C141.702 106.171 142.077 106.065 142.369 105.853C142.669 105.632 142.877 105.345 142.991 104.992L144.184 105.085C143.998 105.712 143.645 106.229 143.124 106.635C142.612 107.032 141.985 107.231 141.243 107.231ZM139.189 102.925H143.071C143.018 102.245 142.819 101.746 142.475 101.428C142.139 101.11 141.711 100.951 141.19 100.951C140.651 100.951 140.205 101.119 139.852 101.455C139.507 101.782 139.286 102.272 139.189 102.925Z" fill="#ADADAD"/>
<path d="M134.011 107.072V100.051H134.992L135.045 101.826L134.939 101.786C135.027 101.185 135.217 100.748 135.508 100.474C135.809 100.192 136.206 100.051 136.701 100.051H137.389V101.11H136.714C136.361 101.11 136.065 101.177 135.826 101.309C135.597 101.433 135.42 101.623 135.296 101.879C135.181 102.126 135.124 102.444 135.124 102.833V107.072H134.011Z" fill="#ADADAD"/>
<path d="M125.683 107.072V97.666H129.061C130.112 97.666 130.929 97.9177 131.512 98.4212C132.095 98.9246 132.387 99.6223 132.387 100.514C132.387 101.115 132.254 101.636 131.989 102.078C131.724 102.51 131.344 102.842 130.85 103.071C130.355 103.301 129.759 103.416 129.061 103.416H126.822V107.072H125.683ZM126.822 102.303H129.061C129.768 102.303 130.298 102.153 130.651 101.852C131.013 101.552 131.194 101.106 131.194 100.514C131.194 99.9403 131.013 99.5075 130.651 99.216C130.298 98.9246 129.768 98.7788 129.061 98.7788H126.822V102.303Z" fill="#ADADAD"/>
<path d="M117.36 107.231C116.715 107.231 116.15 107.081 115.664 106.781C115.178 106.48 114.803 106.056 114.538 105.509C114.273 104.952 114.141 104.303 114.141 103.561C114.141 102.811 114.273 102.161 114.538 101.614C114.803 101.066 115.178 100.642 115.664 100.342C116.15 100.042 116.715 99.8916 117.36 99.8916C118.005 99.8916 118.565 100.042 119.042 100.342C119.528 100.642 119.904 101.066 120.168 101.614C120.433 102.161 120.566 102.811 120.566 103.561C120.566 104.303 120.433 104.952 120.168 105.509C119.904 106.056 119.528 106.48 119.042 106.781C118.565 107.081 118.005 107.231 117.36 107.231ZM117.36 106.171C118.005 106.171 118.504 105.942 118.857 105.482C119.219 105.014 119.4 104.374 119.4 103.561C119.4 102.749 119.219 102.113 118.857 101.654C118.504 101.185 118.005 100.951 117.36 100.951C116.715 100.951 116.212 101.185 115.85 101.654C115.488 102.113 115.306 102.749 115.306 103.561C115.306 104.374 115.488 105.014 115.85 105.482C116.212 105.942 116.715 106.171 117.36 106.171Z" fill="#ADADAD"/>
<path d="M112.207 107.072C111.571 107.072 111.099 106.926 110.789 106.635C110.489 106.344 110.339 105.889 110.339 105.27V98.408H111.452V105.244C111.452 105.562 111.522 105.783 111.664 105.906C111.805 106.03 112.022 106.092 112.313 106.092H113.32V107.072H112.207ZM109.306 101.031V100.051H113.32V101.031H109.306Z" fill="#ADADAD"/>
<path d="M98.627 107.072V97.666H99.7398V101.601L99.6073 101.574C99.6956 101.186 99.8458 100.868 100.058 100.62C100.27 100.373 100.53 100.192 100.839 100.077C101.148 99.9535 101.489 99.8917 101.859 99.8917C102.363 99.8917 102.787 100.006 103.131 100.236C103.485 100.457 103.75 100.77 103.926 101.177C104.112 101.574 104.204 102.033 104.204 102.555V107.072H103.092V102.872C103.092 102.192 102.968 101.689 102.721 101.362C102.482 101.035 102.116 100.872 101.621 100.872C101.056 100.872 100.601 101.044 100.256 101.389C99.912 101.733 99.7398 102.232 99.7398 102.886V107.072H98.627Z" fill="#ADADAD"/>
<path d="M94.3658 107.231C93.7388 107.231 93.2044 107.129 92.7628 106.926C92.33 106.723 91.99 106.445 91.7427 106.092C91.5043 105.73 91.3674 105.319 91.332 104.86L92.4979 104.78C92.5685 105.204 92.7496 105.544 93.041 105.8C93.3325 106.048 93.7741 106.171 94.3658 106.171C94.8428 106.171 95.2225 106.096 95.5052 105.946C95.7966 105.787 95.9423 105.535 95.9423 105.191C95.9423 105.005 95.8982 104.851 95.8099 104.727C95.7215 104.603 95.5493 104.497 95.2932 104.409C95.0371 104.312 94.6573 104.219 94.1539 104.131C93.4826 104.007 92.9527 103.857 92.5641 103.681C92.1843 103.495 91.9105 103.27 91.7427 103.005C91.5837 102.731 91.5043 102.409 91.5043 102.038C91.5043 101.411 91.7339 100.898 92.1932 100.501C92.6524 100.095 93.306 99.8916 94.1539 99.8916C94.7279 99.8916 95.2093 99.9976 95.5979 100.21C95.9953 100.413 96.3044 100.686 96.5252 101.031C96.7549 101.367 96.905 101.737 96.9757 102.144L95.8099 102.223C95.7569 101.976 95.6597 101.76 95.5184 101.574C95.3771 101.38 95.1916 101.23 94.962 101.124C94.7324 101.009 94.4586 100.951 94.1406 100.951C93.6372 100.951 93.2662 101.049 93.0278 101.243C92.7893 101.437 92.6701 101.684 92.6701 101.985C92.6701 102.214 92.7231 102.404 92.8291 102.554C92.9439 102.696 93.1249 102.815 93.3722 102.912C93.6195 103 93.9507 103.08 94.3658 103.151C95.0812 103.274 95.6376 103.424 96.0351 103.601C96.4325 103.778 96.7107 103.994 96.8697 104.25C97.0287 104.506 97.1082 104.82 97.1082 105.191C97.1082 105.624 96.9845 105.995 96.7372 106.304C96.4988 106.604 96.172 106.834 95.7569 106.993C95.3506 107.152 94.8869 107.231 94.3658 107.231Z" fill="#ADADAD"/>
<path d="M88.7042 107.072V100.05H89.8171V107.072H88.7042ZM88.6777 98.9509V97.6526H89.8436V98.9509H88.6777Z" fill="#ADADAD"/>
<path d="M86.6532 107.072C86.2469 107.072 85.9157 106.966 85.6596 106.754C85.4035 106.542 85.2754 106.207 85.2754 105.747V97.666H86.3882V105.655C86.3882 105.796 86.4235 105.906 86.4942 105.986C86.5737 106.056 86.6841 106.092 86.8254 106.092H87.4348V107.072H86.6532Z" fill="#ADADAD"/>
<path d="M80.6807 107.231C80.1949 107.231 79.7622 107.125 79.3824 106.913C79.0026 106.692 78.7112 106.392 78.508 106.012L78.4683 107.072H77.4614V97.666H78.5743V101.031C78.7509 100.74 79.0247 100.479 79.3956 100.249C79.7666 100.011 80.1949 99.8917 80.6807 99.8917C81.2989 99.8917 81.8333 100.042 82.2837 100.342C82.7341 100.642 83.083 101.066 83.3303 101.614C83.5776 102.162 83.7012 102.811 83.7012 103.561C83.7012 104.312 83.5776 104.961 83.3303 105.509C83.083 106.056 82.7341 106.48 82.2837 106.781C81.8333 107.081 81.2989 107.231 80.6807 107.231ZM80.6144 106.171C81.2062 106.171 81.6743 105.937 82.0187 105.469C82.3632 105.001 82.5354 104.365 82.5354 103.561C82.5354 102.749 82.3632 102.113 82.0187 101.654C81.6743 101.186 81.215 100.952 80.6409 100.952C80.2082 100.952 79.8372 101.058 79.5281 101.269C79.219 101.473 78.9805 101.768 78.8127 102.157C78.6537 102.546 78.5743 103.014 78.5743 103.561C78.5743 104.091 78.6537 104.555 78.8127 104.952C78.9805 105.341 79.2146 105.641 79.5149 105.853C79.824 106.065 80.1905 106.171 80.6144 106.171Z" fill="#ADADAD"/>
<path d="M72.3403 107.231C71.6426 107.231 71.0817 106.997 70.6578 106.529C70.2427 106.052 70.0352 105.398 70.0352 104.568V100.051H71.148V104.263C71.148 104.943 71.2672 105.447 71.5057 105.774C71.753 106.092 72.1283 106.251 72.6318 106.251C73.1882 106.251 73.6254 106.074 73.9433 105.721C74.2613 105.359 74.4202 104.864 74.4202 104.237V100.051H75.5331V107.072H74.4732V105.336L74.6455 105.429C74.5041 106.003 74.2348 106.449 73.8373 106.767C73.4399 107.076 72.9409 107.231 72.3403 107.231Z" fill="#ADADAD"/>
<path d="M61.979 107.072V97.666H65.3572C66.4083 97.666 67.2252 97.9177 67.8081 98.4212C68.391 98.9246 68.6825 99.6223 68.6825 100.514C68.6825 101.115 68.55 101.636 68.2851 102.078C68.0201 102.51 67.6403 102.842 67.1457 103.071C66.6511 103.301 66.055 103.416 65.3572 103.416H63.1183V107.072H61.979ZM63.1183 102.303H65.3572C66.0638 102.303 66.5937 102.153 66.947 101.852C67.3091 101.552 67.4902 101.106 67.4902 100.514C67.4902 99.9403 67.3091 99.5075 66.947 99.216C66.5937 98.9246 66.0638 98.7788 65.3572 98.7788H63.1183V102.303Z" fill="#ADADAD"/>
<g opacity="0.64" clip-path="url(#clip1_925_3023)">
<path d="M450.553 176.429C450.66 176.321 450.835 176.321 450.943 176.429C451.051 176.537 451.051 176.712 450.943 176.82L449.104 178.659C448.996 178.767 448.821 178.767 448.713 178.659L447.793 177.739C447.685 177.631 447.685 177.457 447.793 177.349C447.9 177.241 448.075 177.241 448.183 177.349L448.907 178.073L450.553 176.429ZM450.932 172.484C450.932 172.383 450.849 172.3 450.748 172.3H447.988C447.886 172.3 447.804 172.383 447.804 172.484V173.404C447.804 173.506 447.886 173.588 447.988 173.588H450.748C450.849 173.588 450.932 173.506 450.932 173.404V172.484ZM451.484 173.404C451.484 173.811 451.154 174.14 450.748 174.14H447.988C447.581 174.14 447.252 173.81 447.252 173.404V173.22H446.608C446.437 173.22 446.273 173.288 446.153 173.408C446.032 173.529 445.964 173.694 445.964 173.864V180.304C445.964 180.475 446.032 180.638 446.153 180.759C446.273 180.88 446.437 180.948 446.608 180.948H452.128C452.299 180.948 452.463 180.88 452.584 180.759C452.704 180.638 452.772 180.475 452.772 180.304V173.864C452.772 173.694 452.705 173.529 452.584 173.408C452.463 173.288 452.299 173.22 452.128 173.22H451.484V173.404ZM451.484 172.668H452.128C452.445 172.668 452.75 172.794 452.974 173.018C453.198 173.242 453.324 173.547 453.324 173.864V180.304C453.324 180.621 453.198 180.925 452.974 181.149C452.75 181.374 452.445 181.5 452.128 181.5H446.608C446.291 181.5 445.987 181.374 445.762 181.149C445.538 180.925 445.412 180.621 445.412 180.304V173.864C445.412 173.547 445.538 173.242 445.762 173.018C445.987 172.794 446.291 172.668 446.608 172.668H447.252V172.484C447.252 172.078 447.581 171.748 447.988 171.748H450.748C451.154 171.748 451.484 172.078 451.484 172.484V172.668Z" fill="#F97F27"/>
</g>
<path d="M67.5452 212.666C67.7608 212.45 68.1102 212.45 68.3258 212.666L71.0858 215.426C71.3014 215.641 71.3014 215.991 71.0858 216.206L68.3258 218.966C68.1102 219.182 67.7608 219.182 67.5452 218.966C67.3297 218.751 67.3297 218.401 67.5452 218.186L69.363 216.368H64.0715C63.3395 216.368 62.6377 216.077 62.1201 215.559C61.6025 215.042 61.3115 214.34 61.3115 213.608V209.744C61.3115 209.439 61.5587 209.192 61.8635 209.192C62.1684 209.192 62.4155 209.439 62.4155 209.744V213.608L62.4241 213.772C62.4618 214.151 62.629 214.507 62.9007 214.779C63.2112 215.089 63.6323 215.264 64.0715 215.264H69.363L67.5452 213.446C67.3297 213.231 67.3297 212.881 67.5452 212.666Z" fill="white"/>
<path d="M483.592 236.24V237.344H47.5122V236.24H483.592Z" fill="#181614"/>
<path d="M217.397 278.192L214.862 270H216.284L218.201 276.832L220.148 270H221.539L223.487 276.832L225.419 270H226.841L224.306 278.192H222.668L220.844 271.963L219.02 278.192H217.397Z" fill="white"/>
<path d="M210.687 278.378C209.914 278.378 209.244 278.202 208.678 277.852C208.121 277.502 207.689 277.007 207.379 276.368C207.081 275.719 206.931 274.962 206.931 274.096C206.931 273.231 207.081 272.479 207.379 271.84C207.689 271.201 208.116 270.706 208.662 270.356C209.219 269.995 209.873 269.815 210.625 269.815C211.336 269.815 211.965 269.985 212.511 270.325C213.057 270.655 213.479 271.139 213.778 271.778C214.087 272.417 214.242 273.195 214.242 274.112V274.498H208.291C208.343 275.374 208.575 276.033 208.987 276.476C209.409 276.92 209.976 277.141 210.687 277.141C211.223 277.141 211.661 277.017 212.001 276.77C212.351 276.513 212.593 276.178 212.727 275.766L214.118 275.874C213.902 276.605 213.49 277.208 212.882 277.682C212.284 278.146 211.552 278.378 210.687 278.378ZM208.291 273.354H212.82C212.758 272.561 212.526 271.979 212.124 271.608C211.733 271.237 211.233 271.051 210.625 271.051C209.997 271.051 209.476 271.247 209.064 271.639C208.662 272.02 208.405 272.592 208.291 273.354Z" fill="white"/>
<path d="M203.864 278.192V270H205.163V278.192H203.864ZM203.833 268.717V267.203H205.194V268.717H203.833Z" fill="white"/>
<path d="M197.816 278.192L194.833 270H196.255L198.635 276.863L201.015 270H202.437L199.454 278.192H197.816Z" fill="white"/>
<path d="M190.658 278.378C189.885 278.378 189.215 278.202 188.648 277.852C188.092 277.502 187.659 277.007 187.35 276.368C187.051 275.719 186.902 274.962 186.902 274.096C186.902 273.231 187.051 272.479 187.35 271.84C187.659 271.201 188.087 270.706 188.633 270.356C189.189 269.995 189.844 269.815 190.596 269.815C191.307 269.815 191.935 269.985 192.481 270.325C193.028 270.655 193.45 271.139 193.749 271.778C194.058 272.417 194.213 273.195 194.213 274.112V274.498H188.262C188.314 275.374 188.545 276.033 188.958 276.476C189.38 276.92 189.947 277.141 190.658 277.141C191.193 277.141 191.631 277.017 191.971 276.77C192.322 276.513 192.564 276.178 192.698 275.766L194.089 275.874C193.873 276.605 193.46 277.208 192.852 277.682C192.255 278.146 191.523 278.378 190.658 278.378ZM188.262 273.354H192.791C192.729 272.561 192.497 271.979 192.095 271.608C191.704 271.237 191.204 271.051 190.596 271.051C189.967 271.051 189.447 271.247 189.035 271.639C188.633 272.02 188.375 272.592 188.262 273.354Z" fill="white"/>
<path d="M182.221 278.192V270H183.364L183.426 272.072L183.303 272.025C183.406 271.325 183.627 270.815 183.967 270.495C184.318 270.165 184.781 270 185.358 270H186.162V271.237H185.374C184.962 271.237 184.616 271.314 184.338 271.469C184.07 271.613 183.864 271.835 183.72 272.133C183.586 272.422 183.519 272.793 183.519 273.246V278.192H182.221Z" fill="white"/>
<path d="M172.504 278.192V267.218H176.446C177.672 267.218 178.625 267.512 179.305 268.099C179.985 268.687 180.325 269.501 180.325 270.541C180.325 271.242 180.171 271.85 179.861 272.365C179.552 272.87 179.109 273.256 178.532 273.524C177.955 273.792 177.26 273.926 176.446 273.926H173.834V278.192H172.504ZM173.834 272.628H176.446C177.27 272.628 177.888 272.453 178.3 272.102C178.723 271.752 178.934 271.232 178.934 270.541C178.934 269.872 178.723 269.367 178.3 269.027C177.888 268.687 177.27 268.517 176.446 268.517H173.834V272.628Z" fill="white"/>
<path d="M162.991 278.378C162.218 278.378 161.548 278.202 160.981 277.852C160.425 277.502 159.992 277.007 159.683 276.368C159.384 275.719 159.235 274.962 159.235 274.096C159.235 273.231 159.384 272.479 159.683 271.84C159.992 271.201 160.42 270.706 160.966 270.356C161.522 269.995 162.177 269.815 162.929 269.815C163.64 269.815 164.268 269.985 164.814 270.325C165.361 270.655 165.783 271.139 166.082 271.778C166.391 272.417 166.546 273.195 166.546 274.112V274.498H160.595C160.647 275.374 160.878 276.033 161.291 276.476C161.713 276.92 162.28 277.141 162.991 277.141C163.526 277.141 163.964 277.017 164.304 276.77C164.655 276.513 164.897 276.178 165.031 275.766L166.422 275.874C166.206 276.605 165.793 277.208 165.185 277.682C164.588 278.146 163.856 278.378 162.991 278.378ZM160.595 273.354H165.124C165.062 272.561 164.83 271.979 164.428 271.608C164.037 271.237 163.537 271.051 162.929 271.051C162.3 271.051 161.78 271.247 161.368 271.639C160.966 272.02 160.708 272.592 160.595 273.354Z" fill="white"/>
<path d="M156.979 278.192C156.237 278.192 155.685 278.022 155.325 277.682C154.974 277.342 154.799 276.811 154.799 276.09V268.084H156.098V276.059C156.098 276.43 156.18 276.688 156.345 276.832C156.51 276.976 156.762 277.048 157.102 277.048H158.277V278.192H156.979ZM153.594 271.144V270H158.277V271.144H153.594Z" fill="white"/>
<path d="M148.146 278.378C147.301 278.378 146.626 278.182 146.121 277.79C145.626 277.399 145.379 276.853 145.379 276.152C145.379 275.451 145.585 274.9 145.997 274.498C146.409 274.096 147.064 273.813 147.96 273.648L150.866 273.107C150.866 272.417 150.701 271.902 150.371 271.561C150.052 271.221 149.567 271.051 148.918 271.051C148.352 271.051 147.903 271.18 147.574 271.438C147.244 271.685 147.017 272.046 146.894 272.52L145.518 272.412C145.673 271.639 146.044 271.015 146.631 270.541C147.228 270.057 147.991 269.815 148.918 269.815C149.969 269.815 150.773 270.114 151.329 270.711C151.886 271.299 152.164 272.113 152.164 273.153V276.538C152.164 276.724 152.195 276.858 152.257 276.94C152.329 277.012 152.442 277.048 152.597 277.048H152.921V278.192C152.88 278.202 152.813 278.208 152.721 278.208C152.628 278.218 152.53 278.223 152.427 278.223C152.056 278.223 151.752 278.166 151.515 278.053C151.288 277.929 151.123 277.744 151.02 277.497C150.917 277.239 150.866 276.904 150.866 276.492L151.02 276.523C150.948 276.873 150.773 277.193 150.495 277.481C150.217 277.759 149.871 277.981 149.459 278.146C149.047 278.3 148.609 278.378 148.146 278.378ZM148.269 277.234C148.815 277.234 149.279 277.131 149.66 276.925C150.052 276.708 150.351 276.42 150.557 276.059C150.763 275.688 150.866 275.276 150.866 274.823V274.235L148.207 274.73C147.651 274.833 147.265 274.993 147.048 275.209C146.842 275.415 146.739 275.688 146.739 276.028C146.739 276.41 146.873 276.708 147.141 276.925C147.419 277.131 147.795 277.234 148.269 277.234Z" fill="white"/>
<path d="M139.8 278.377C139.089 278.377 138.47 278.202 137.945 277.852C137.43 277.502 137.033 277.007 136.755 276.368C136.477 275.729 136.337 274.972 136.337 274.096C136.337 273.22 136.477 272.463 136.755 271.824C137.033 271.185 137.43 270.691 137.945 270.34C138.47 269.99 139.089 269.815 139.8 269.815C140.346 269.815 140.845 269.933 141.299 270.17C141.752 270.397 142.092 270.722 142.319 271.144V267.218H143.617V278.192H142.443L142.396 276.956C142.169 277.399 141.824 277.749 141.361 278.007C140.897 278.254 140.377 278.377 139.8 278.377ZM140.062 277.141C140.547 277.141 140.954 277.017 141.283 276.77C141.623 276.523 141.881 276.172 142.056 275.719C142.231 275.255 142.319 274.714 142.319 274.096C142.319 273.457 142.231 272.911 142.056 272.458C141.881 272.004 141.623 271.659 141.283 271.422C140.954 271.175 140.547 271.051 140.062 271.051C139.341 271.051 138.764 271.324 138.331 271.871C137.909 272.406 137.698 273.148 137.698 274.096C137.698 275.034 137.909 275.776 138.331 276.322C138.764 276.868 139.341 277.141 140.062 277.141Z" fill="white"/>
<path d="M127.853 280.51V270H129.059L129.09 271.762L128.904 271.67C129.11 271.062 129.45 270.603 129.924 270.294C130.408 269.975 130.965 269.815 131.593 269.815C132.407 269.815 133.072 270.016 133.587 270.418C134.113 270.82 134.499 271.345 134.746 271.994C135.004 272.643 135.133 273.344 135.133 274.096C135.133 274.848 135.004 275.549 134.746 276.198C134.499 276.847 134.113 277.373 133.587 277.775C133.072 278.177 132.407 278.378 131.593 278.378C131.171 278.378 130.774 278.305 130.403 278.161C130.043 278.017 129.734 277.816 129.476 277.558C129.229 277.301 129.059 276.997 128.966 276.646L129.151 276.43V280.51H127.853ZM131.47 277.141C132.181 277.141 132.742 276.873 133.154 276.337C133.567 275.802 133.773 275.055 133.773 274.096C133.773 273.138 133.567 272.391 133.154 271.855C132.742 271.319 132.181 271.051 131.47 271.051C130.996 271.051 130.584 271.165 130.233 271.391C129.893 271.618 129.625 271.958 129.43 272.412C129.244 272.865 129.151 273.426 129.151 274.096C129.151 274.766 129.244 275.328 129.43 275.781C129.615 276.234 129.883 276.574 130.233 276.801C130.584 277.028 130.996 277.141 131.47 277.141Z" fill="white"/>
<path d="M121.293 278.439C120.448 278.439 119.711 278.274 119.082 277.945C118.464 277.615 117.985 277.146 117.645 276.538C117.315 275.92 117.15 275.193 117.15 274.359V267.203H118.48V274.359C118.48 275.245 118.722 275.93 119.206 276.414C119.701 276.899 120.396 277.141 121.293 277.141C122.179 277.141 122.864 276.899 123.348 276.414C123.843 275.93 124.09 275.245 124.09 274.359V267.203H125.419V274.359C125.419 275.193 125.249 275.92 124.909 276.538C124.58 277.146 124.106 277.615 123.487 277.945C122.869 278.274 122.138 278.439 121.293 278.439Z" fill="white"/>
<path d="M105.472 274.052C105.472 273.54 105.268 273.048 104.906 272.686C104.543 272.324 104.052 272.12 103.54 272.12H102.552C102.308 272.12 102.093 271.959 102.023 271.725C101.847 271.137 101.512 270.609 101.054 270.2C100.595 269.791 100.032 269.518 99.4267 269.411C98.822 269.304 98.1993 269.367 97.6284 269.593C97.0574 269.819 96.5605 270.2 96.1934 270.693C95.8265 271.185 95.6038 271.769 95.5498 272.381C95.4959 272.993 95.6131 273.608 95.8883 274.157C96.1637 274.706 96.5862 275.168 97.1088 275.49C97.6313 275.813 98.2337 275.984 98.8478 275.984H103.54C104.052 275.984 104.543 275.78 104.906 275.418C105.268 275.056 105.472 274.564 105.472 274.052ZM106.576 274.052C106.576 274.857 106.256 275.629 105.686 276.199C105.117 276.768 104.345 277.088 103.54 277.088H98.8478C98.0288 277.088 97.2256 276.859 96.5287 276.429C95.8323 275.999 95.2689 275.384 94.9018 274.653C94.5347 273.921 94.3783 273.101 94.4501 272.285C94.522 271.469 94.8189 270.689 95.3083 270.033C95.7978 269.376 96.4606 268.868 97.222 268.567C97.9832 268.265 98.8134 268.181 99.6197 268.324C100.426 268.467 101.177 268.831 101.788 269.376C102.295 269.828 102.687 270.39 102.94 271.016H103.54C104.345 271.016 105.117 271.336 105.686 271.905C106.256 272.475 106.576 273.247 106.576 274.052Z" fill="white"/>
<path d="M407.682 278.378C406.909 278.378 406.24 278.202 405.673 277.852C405.116 277.502 404.684 277.007 404.374 276.368C404.076 275.719 403.926 274.962 403.926 274.096C403.926 273.231 404.076 272.479 404.374 271.84C404.684 271.201 405.111 270.706 405.657 270.356C406.214 269.995 406.868 269.815 407.62 269.815C408.331 269.815 408.96 269.985 409.506 270.325C410.052 270.655 410.474 271.139 410.773 271.778C411.082 272.417 411.237 273.195 411.237 274.112V274.498H405.286C405.338 275.374 405.57 276.033 405.982 276.476C406.404 276.92 406.971 277.141 407.682 277.141C408.218 277.141 408.656 277.017 408.996 276.77C409.346 276.513 409.588 276.178 409.722 275.766L411.113 275.874C410.897 276.605 410.485 277.208 409.877 277.682C409.279 278.146 408.548 278.378 407.682 278.378ZM405.286 273.354H409.815C409.753 272.561 409.521 271.979 409.119 271.608C408.728 271.237 408.228 271.051 407.62 271.051C406.992 271.051 406.471 271.247 406.059 271.639C405.657 272.02 405.4 272.592 405.286 273.354Z" fill="#181614"/>
<path d="M401.67 278.192C400.928 278.192 400.376 278.022 400.016 277.682C399.665 277.342 399.49 276.811 399.49 276.09V268.084H400.789V276.059C400.789 276.43 400.871 276.688 401.036 276.832C401.201 276.976 401.453 277.048 401.793 277.048H402.968V278.192H401.67ZM398.285 271.144V270H402.968V271.144H398.285Z" fill="#181614"/>
<path d="M393.675 278.378C392.902 278.378 392.232 278.202 391.665 277.852C391.109 277.502 390.676 277.007 390.367 276.368C390.068 275.719 389.919 274.962 389.919 274.096C389.919 273.231 390.068 272.479 390.367 271.84C390.676 271.201 391.104 270.706 391.65 270.356C392.206 269.995 392.861 269.815 393.613 269.815C394.324 269.815 394.952 269.985 395.499 270.325C396.045 270.655 396.467 271.139 396.766 271.778C397.075 272.417 397.23 273.195 397.23 274.112V274.498H391.279C391.331 275.374 391.562 276.033 391.975 276.476C392.397 276.92 392.964 277.141 393.675 277.141C394.211 277.141 394.648 277.017 394.989 276.77C395.339 276.513 395.581 276.178 395.715 275.766L397.106 275.874C396.89 276.605 396.477 277.208 395.87 277.682C395.272 278.146 394.54 278.378 393.675 278.378ZM391.279 273.354H395.808C395.746 272.561 395.514 271.979 395.112 271.608C394.721 271.237 394.221 271.051 393.613 271.051C392.984 271.051 392.464 271.247 392.052 271.639C391.65 272.02 391.392 272.592 391.279 273.354Z" fill="#181614"/>
<path d="M388.053 278.192C387.579 278.192 387.192 278.068 386.894 277.821C386.595 277.574 386.445 277.182 386.445 276.646V267.218H387.744V276.538C387.744 276.703 387.785 276.832 387.867 276.925C387.96 277.007 388.089 277.048 388.254 277.048H388.965V278.192H388.053Z" fill="#181614"/>
<path d="M377.329 280.51V270H378.534L378.565 271.762L378.38 271.67C378.586 271.062 378.926 270.603 379.4 270.294C379.884 269.975 380.44 269.815 381.069 269.815C381.883 269.815 382.548 270.016 383.063 270.418C383.588 270.82 383.975 271.345 384.222 271.994C384.48 272.643 384.608 273.344 384.608 274.096C384.608 274.848 384.48 275.549 384.222 276.198C383.975 276.847 383.588 277.373 383.063 277.775C382.548 278.177 381.883 278.378 381.069 278.378C380.646 278.378 380.25 278.305 379.879 278.161C379.518 278.017 379.209 277.816 378.951 277.558C378.704 277.301 378.534 276.997 378.441 276.646L378.627 276.43V280.51H377.329ZM380.945 277.141C381.656 277.141 382.218 276.873 382.63 276.337C383.042 275.802 383.248 275.055 383.248 274.096C383.248 273.138 383.042 272.391 382.63 271.855C382.218 271.319 381.656 271.051 380.945 271.051C380.471 271.051 380.059 271.165 379.709 271.391C379.369 271.618 379.101 271.958 378.905 272.412C378.72 272.865 378.627 273.426 378.627 274.096C378.627 274.766 378.72 275.328 378.905 275.781C379.091 276.234 379.359 276.574 379.709 276.801C380.059 277.028 380.471 277.141 380.945 277.141Z" fill="#181614"/>
<path d="M364.077 278.192V270H365.267L365.313 272.072L365.128 272.01C365.22 271.556 365.38 271.17 365.607 270.85C365.844 270.521 366.132 270.268 366.472 270.093C366.812 269.908 367.188 269.815 367.601 269.815C368.312 269.815 368.889 270.011 369.332 270.402C369.785 270.794 370.068 271.34 370.182 272.041L369.934 272.025C370.017 271.551 370.166 271.154 370.383 270.835C370.609 270.505 370.898 270.253 371.248 270.078C371.599 269.903 372 269.815 372.454 269.815C373.041 269.815 373.536 269.939 373.938 270.186C374.339 270.423 374.643 270.773 374.849 271.237C375.056 271.701 375.159 272.262 375.159 272.922V278.192H373.86V273.2C373.86 272.458 373.716 271.902 373.428 271.531C373.139 271.149 372.711 270.959 372.145 270.959C371.763 270.959 371.429 271.051 371.14 271.237C370.862 271.422 370.645 271.69 370.491 272.041C370.336 272.381 370.259 272.798 370.259 273.293V278.192H368.961V273.293C368.961 272.561 368.832 271.989 368.574 271.577C368.317 271.165 367.884 270.959 367.276 270.959C366.895 270.959 366.56 271.051 366.271 271.237C365.993 271.422 365.772 271.69 365.607 272.041C365.452 272.391 365.375 272.808 365.375 273.293V278.192H364.077Z" fill="#181614"/>
<path d="M358.567 278.378C357.815 278.378 357.155 278.202 356.588 277.852C356.022 277.502 355.584 277.007 355.275 276.368C354.966 275.719 354.811 274.962 354.811 274.096C354.811 273.22 354.966 272.463 355.275 271.824C355.584 271.185 356.022 270.691 356.588 270.34C357.155 269.99 357.815 269.815 358.567 269.815C359.319 269.815 359.973 269.99 360.53 270.34C361.096 270.691 361.534 271.185 361.844 271.824C362.153 272.463 362.307 273.22 362.307 274.096C362.307 274.962 362.153 275.719 361.844 276.368C361.534 277.007 361.096 277.502 360.53 277.852C359.973 278.202 359.319 278.378 358.567 278.378ZM358.567 277.141C359.319 277.141 359.901 276.873 360.313 276.337C360.736 275.791 360.947 275.044 360.947 274.096C360.947 273.148 360.736 272.406 360.313 271.871C359.901 271.324 359.319 271.051 358.567 271.051C357.815 271.051 357.227 271.324 356.805 271.871C356.382 272.406 356.171 273.148 356.171 274.096C356.171 275.044 356.382 275.791 356.805 276.337C357.227 276.873 357.815 277.141 358.567 277.141Z" fill="#181614"/>
<path d="M349.01 278.439C348.031 278.439 347.171 278.213 346.429 277.759C345.687 277.296 345.11 276.636 344.698 275.781C344.286 274.926 344.08 273.906 344.08 272.721C344.08 271.536 344.286 270.516 344.698 269.66C345.11 268.795 345.687 268.13 346.429 267.666C347.171 267.203 348.031 266.971 349.01 266.971C350.339 266.971 351.37 267.306 352.101 267.976C352.833 268.645 353.312 269.557 353.539 270.711L352.132 270.804C351.978 270.021 351.648 269.403 351.143 268.949C350.638 268.496 349.927 268.269 349.01 268.269C348.309 268.269 347.691 268.45 347.155 268.81C346.63 269.161 346.218 269.671 345.919 270.34C345.62 271 345.471 271.793 345.471 272.721C345.471 273.648 345.62 274.441 345.919 275.101C346.218 275.76 346.63 276.265 347.155 276.615C347.691 276.966 348.309 277.141 349.01 277.141C349.968 277.141 350.71 276.894 351.236 276.399C351.761 275.894 352.091 275.214 352.225 274.359L353.631 274.452C353.497 275.245 353.235 275.941 352.843 276.538C352.452 277.136 351.931 277.605 351.282 277.945C350.643 278.274 349.886 278.439 349.01 278.439Z" fill="#181614"/>
<g clip-path="url(#clip2_925_3023)">
<path d="M335.266 271.178C335.482 270.962 335.831 270.962 336.047 271.178C336.262 271.393 336.262 271.743 336.047 271.958L331.907 276.098C331.691 276.314 331.342 276.314 331.126 276.098L330.298 275.27C330.083 275.055 330.083 274.705 330.298 274.49C330.514 274.274 330.863 274.274 331.079 274.49L331.516 274.928L335.266 271.178ZM333.058 268.97C333.274 268.754 333.623 268.754 333.839 268.97C334.054 269.185 334.054 269.535 333.839 269.75L327.767 275.822C327.551 276.038 327.202 276.038 326.986 275.822L324.226 273.062C324.011 272.847 324.011 272.497 324.226 272.282C324.442 272.066 324.791 272.066 325.007 272.282L327.376 274.652L333.058 268.97Z" fill="#181614"/>
</g>
<path d="M447.489 202.894V178.557L465.133 196.202H454.79L454.181 196.354L447.489 202.894Z" fill="white"/>
<path d="M461.33 203.959L455.855 206.241L448.706 189.357L454.334 187.075L461.33 203.959Z" fill="white"/>
<path d="M454.599 191.667L451.794 192.844L456.504 204.065L459.31 202.887L454.599 191.667Z" fill="black"/>
<path d="M449.01 182.208V199.244L453.573 194.833L454.181 194.681H461.483L449.01 182.208Z" fill="black"/>
</g>
<defs>
<clipPath id="clip0_925_3023">
<rect width="530" height="340" fill="white"/>
</clipPath>
<clipPath id="clip1_925_3023">
<rect width="11.04" height="11.04" fill="white" transform="translate(443.848 171.104)"/>
</clipPath>
<clipPath id="clip2_925_3023">
<rect width="13.248" height="13.248" fill="white" transform="translate(323.512 266.048)"/>
</clipPath>
</defs>
</svg>
