<svg width="530" height="340" viewBox="0 0 530 340" fill="none" xmlns="http://www.w3.org/2000/svg">
<g clip-path="url(#clip0_926_4105)">
<g filter="url(#filter0_d_926_4105)">
<path d="M530 21V22H0V21H530Z" fill="#181614"/>
</g>
<path d="M23 340L22 340L22 4.37114e-08L23 0L23 340Z" fill="#181614"/>
<path d="M509 340H508V0L509 0V340Z" fill="#181614"/>
<path d="M530 317V318H0V317H530Z" fill="#181614"/>
<g filter="url(#filter1_d_926_4105)">
<path d="M22 169V170H0V169H22Z" fill="#181614"/>
</g>
<g filter="url(#filter2_d_926_4105)">
<path d="M530 169V170H508V169H530Z" fill="#181614"/>
</g>
<path fill-rule="evenodd" clip-rule="evenodd" d="M223.994 300.855C246.313 265.233 297.247 195.674 322.428 202.422C347.609 209.169 395.49 183.486 416.283 169.801L491.253 132.03V300.855H223.994Z" fill="url(#paint0_linear_926_4105)" fill-opacity="0.3"/>
<path d="M277 35.5C252.271 41.2569 246.298 67.8538 224 86H491V0L453 35.5C426.897 52.117 302.162 29.6424 277 35.5Z" fill="url(#paint1_linear_926_4105)" fill-opacity="0.3"/>
<rect x="38.5" y="111.5" width="452.253" height="189" rx="9.5" stroke="#181614"/>
<path d="M89.6712 150.148C88.6472 150.148 87.7459 149.913 86.9672 149.444C86.1885 148.964 85.5805 148.281 85.1432 147.396C84.7059 146.51 84.4872 145.454 84.4872 144.228C84.4872 143.012 84.7005 141.961 85.1272 141.076C85.5645 140.18 86.1725 139.492 86.9512 139.012C87.7299 138.521 88.6419 138.276 89.6872 138.276C91.0952 138.276 92.1885 138.628 92.9672 139.332C93.7459 140.036 94.2525 141.012 94.4872 142.26L92.6792 142.356C92.5299 141.577 92.2099 140.969 91.7192 140.532C91.2285 140.084 90.5512 139.86 89.6872 139.86C88.9939 139.86 88.3912 140.036 87.8792 140.388C87.3779 140.74 86.9832 141.241 86.6952 141.892C86.4179 142.542 86.2792 143.321 86.2792 144.228C86.2792 145.134 86.4179 145.913 86.6952 146.564C86.9832 147.214 87.3832 147.71 87.8952 148.052C88.4072 148.393 88.9992 148.564 89.6712 148.564C90.5885 148.564 91.2979 148.324 91.7992 147.844C92.3112 147.353 92.6312 146.681 92.7592 145.828L94.5672 145.924C94.4285 146.788 94.1512 147.534 93.7352 148.164C93.3192 148.793 92.7699 149.284 92.0872 149.636C91.4045 149.977 90.5992 150.148 89.6712 150.148ZM99.7685 150.084C98.9578 150.084 98.2485 149.902 97.6405 149.54C97.0325 149.177 96.5631 148.66 96.2325 147.988C95.9018 147.316 95.7365 146.532 95.7365 145.636C95.7365 144.729 95.9018 143.945 96.2325 143.284C96.5631 142.622 97.0325 142.11 97.6405 141.748C98.2485 141.374 98.9578 141.188 99.7685 141.188C100.579 141.188 101.288 141.374 101.896 141.748C102.504 142.11 102.974 142.622 103.304 143.284C103.635 143.945 103.8 144.729 103.8 145.636C103.8 146.532 103.635 147.316 103.304 147.988C102.974 148.66 102.504 149.177 101.896 149.54C101.288 149.902 100.579 150.084 99.7685 150.084ZM99.7685 148.612C100.494 148.612 101.054 148.35 101.448 147.828C101.843 147.294 102.04 146.564 102.04 145.636C102.04 144.708 101.843 143.982 101.448 143.46C101.054 142.926 100.494 142.66 99.7685 142.66C99.0538 142.66 98.4938 142.926 98.0885 143.46C97.6938 143.982 97.4965 144.708 97.4965 145.636C97.4965 146.564 97.6938 147.294 98.0885 147.828C98.4938 148.35 99.0538 148.612 99.7685 148.612ZM105.514 149.892V141.38H107.066L107.13 143.652L106.922 143.54C107.018 142.985 107.2 142.537 107.466 142.196C107.733 141.854 108.058 141.604 108.442 141.444C108.826 141.273 109.242 141.188 109.69 141.188C110.33 141.188 110.858 141.332 111.274 141.62C111.701 141.897 112.021 142.281 112.234 142.772C112.458 143.252 112.57 143.801 112.57 144.42V149.892H110.874V144.932C110.874 144.43 110.821 144.009 110.714 143.668C110.608 143.326 110.432 143.065 110.186 142.884C109.941 142.702 109.621 142.612 109.226 142.612C108.629 142.612 108.144 142.809 107.77 143.204C107.397 143.598 107.21 144.174 107.21 144.932V149.892H105.514ZM116.692 149.892L113.588 141.38H115.396L117.716 148.164L120.036 141.38H121.86L118.74 149.892H116.692ZM126.456 150.084C125.624 150.084 124.904 149.902 124.296 149.54C123.699 149.177 123.235 148.66 122.904 147.988C122.584 147.316 122.424 146.532 122.424 145.636C122.424 144.74 122.584 143.961 122.904 143.3C123.235 142.628 123.699 142.11 124.296 141.748C124.893 141.374 125.597 141.188 126.408 141.188C127.176 141.188 127.853 141.369 128.44 141.732C129.027 142.084 129.48 142.596 129.8 143.268C130.131 143.94 130.296 144.75 130.296 145.7V146.132H124.184C124.227 146.964 124.445 147.588 124.84 148.004C125.245 148.42 125.789 148.628 126.472 148.628C126.973 148.628 127.389 148.51 127.72 148.276C128.051 148.041 128.28 147.726 128.408 147.332L130.168 147.444C129.944 148.233 129.501 148.873 128.84 149.364C128.189 149.844 127.395 150.084 126.456 150.084ZM124.184 144.852H128.504C128.451 144.094 128.232 143.534 127.848 143.172C127.475 142.809 126.995 142.628 126.408 142.628C125.8 142.628 125.299 142.82 124.904 143.204C124.52 143.577 124.28 144.126 124.184 144.852ZM132.014 149.892V141.38H133.566L133.63 143.636L133.486 143.588C133.604 142.82 133.838 142.26 134.19 141.908C134.553 141.556 135.038 141.38 135.646 141.38H136.462V142.9H135.646C135.22 142.9 134.862 142.969 134.574 143.108C134.286 143.246 134.068 143.46 133.918 143.748C133.78 144.036 133.71 144.409 133.71 144.868V149.892H132.014ZM140.951 150.084C140.151 150.084 139.473 149.961 138.919 149.716C138.375 149.47 137.953 149.134 137.655 148.708C137.356 148.27 137.185 147.769 137.143 147.204L138.887 147.124C138.972 147.593 139.175 147.966 139.495 148.244C139.815 148.521 140.3 148.66 140.951 148.66C141.484 148.66 141.905 148.574 142.215 148.404C142.524 148.233 142.679 147.961 142.679 147.588C142.679 147.385 142.625 147.214 142.519 147.076C142.423 146.926 142.231 146.804 141.943 146.708C141.655 146.601 141.228 146.5 140.663 146.404C139.82 146.244 139.159 146.057 138.679 145.844C138.199 145.63 137.857 145.358 137.655 145.028C137.452 144.697 137.351 144.297 137.351 143.828C137.351 143.049 137.639 142.414 138.215 141.924C138.801 141.433 139.644 141.188 140.743 141.188C141.479 141.188 142.097 141.316 142.599 141.572C143.1 141.817 143.489 142.153 143.767 142.58C144.055 142.996 144.236 143.465 144.311 143.988L142.567 144.084C142.513 143.785 142.407 143.529 142.247 143.316C142.097 143.092 141.895 142.921 141.639 142.804C141.383 142.676 141.079 142.612 140.727 142.612C140.183 142.612 139.777 142.718 139.511 142.932C139.244 143.145 139.111 143.422 139.111 143.764C139.111 144.02 139.169 144.228 139.287 144.388C139.415 144.548 139.617 144.681 139.895 144.788C140.172 144.884 140.54 144.969 140.999 145.044C141.884 145.193 142.577 145.38 143.079 145.604C143.58 145.817 143.932 146.084 144.135 146.404C144.337 146.724 144.439 147.113 144.439 147.572C144.439 148.105 144.289 148.558 143.991 148.932C143.692 149.305 143.281 149.593 142.759 149.796C142.236 149.988 141.633 150.084 140.951 150.084ZM146.155 149.892V141.38H147.851V149.892H146.155ZM146.123 140.148V138.452H147.883V140.148H146.123ZM153.597 150.084C152.786 150.084 152.077 149.902 151.469 149.54C150.861 149.177 150.391 148.66 150.061 147.988C149.73 147.316 149.565 146.532 149.565 145.636C149.565 144.729 149.73 143.945 150.061 143.284C150.391 142.622 150.861 142.11 151.469 141.748C152.077 141.374 152.786 141.188 153.597 141.188C154.407 141.188 155.117 141.374 155.725 141.748C156.333 142.11 156.802 142.622 157.133 143.284C157.463 143.945 157.629 144.729 157.629 145.636C157.629 146.532 157.463 147.316 157.133 147.988C156.802 148.66 156.333 149.177 155.725 149.54C155.117 149.902 154.407 150.084 153.597 150.084ZM153.597 148.612C154.322 148.612 154.882 148.35 155.277 147.828C155.671 147.294 155.869 146.564 155.869 145.636C155.869 144.708 155.671 143.982 155.277 143.46C154.882 142.926 154.322 142.66 153.597 142.66C152.882 142.66 152.322 142.926 151.917 143.46C151.522 143.982 151.325 144.708 151.325 145.636C151.325 146.564 151.522 147.294 151.917 147.828C152.322 148.35 152.882 148.612 153.597 148.612ZM159.343 149.892V141.38H160.895L160.959 143.652L160.751 143.54C160.847 142.985 161.028 142.537 161.295 142.196C161.561 141.854 161.887 141.604 162.271 141.444C162.655 141.273 163.071 141.188 163.519 141.188C164.159 141.188 164.687 141.332 165.103 141.62C165.529 141.897 165.849 142.281 166.063 142.772C166.287 143.252 166.399 143.801 166.399 144.42V149.892H164.703V144.932C164.703 144.43 164.649 144.009 164.543 143.668C164.436 143.326 164.26 143.065 164.015 142.884C163.769 142.702 163.449 142.612 163.055 142.612C162.457 142.612 161.972 142.809 161.599 143.204C161.225 143.598 161.039 144.174 161.039 144.932V149.892H159.343ZM171.888 150.084C171.088 150.084 170.411 149.961 169.856 149.716C169.312 149.47 168.891 149.134 168.592 148.708C168.294 148.27 168.123 147.769 168.08 147.204L169.824 147.124C169.91 147.593 170.112 147.966 170.432 148.244C170.752 148.521 171.238 148.66 171.888 148.66C172.422 148.66 172.843 148.574 173.152 148.404C173.462 148.233 173.616 147.961 173.616 147.588C173.616 147.385 173.563 147.214 173.456 147.076C173.36 146.926 173.168 146.804 172.88 146.708C172.592 146.601 172.166 146.5 171.6 146.404C170.758 146.244 170.096 146.057 169.616 145.844C169.136 145.63 168.795 145.358 168.592 145.028C168.39 144.697 168.288 144.297 168.288 143.828C168.288 143.049 168.576 142.414 169.152 141.924C169.739 141.433 170.582 141.188 171.68 141.188C172.416 141.188 173.035 141.316 173.536 141.572C174.038 141.817 174.427 142.153 174.704 142.58C174.992 142.996 175.174 143.465 175.248 143.988L173.504 144.084C173.451 143.785 173.344 143.529 173.184 143.316C173.035 143.092 172.832 142.921 172.576 142.804C172.32 142.676 172.016 142.612 171.664 142.612C171.12 142.612 170.715 142.718 170.448 142.932C170.182 143.145 170.048 143.422 170.048 143.764C170.048 144.02 170.107 144.228 170.224 144.388C170.352 144.548 170.555 144.681 170.832 144.788C171.11 144.884 171.478 144.969 171.936 145.044C172.822 145.193 173.515 145.38 174.016 145.604C174.518 145.817 174.87 146.084 175.072 146.404C175.275 146.724 175.376 147.113 175.376 147.572C175.376 148.105 175.227 148.558 174.928 148.932C174.63 149.305 174.219 149.593 173.696 149.796C173.174 149.988 172.571 150.084 171.888 150.084Z" fill="#ADADAD"/>
<path d="M80.4926 278.374V268.434H84.2586C84.9586 268.434 85.5606 268.555 86.0646 268.798C86.5686 269.04 86.9559 269.39 87.2266 269.848C87.5066 270.296 87.6466 270.828 87.6466 271.444C87.6466 271.892 87.5393 272.293 87.3246 272.648C87.1193 272.993 86.8533 273.268 86.5266 273.474C86.1999 273.679 85.8593 273.791 85.5046 273.81L85.4206 273.684C86.0273 273.684 86.5033 273.824 86.8486 274.104C87.2033 274.384 87.4086 274.832 87.4646 275.448L87.7446 278.374H86.5266L86.2746 275.574C86.2373 275.163 86.0879 274.86 85.8266 274.664C85.5746 274.468 85.1593 274.37 84.5806 274.37H81.6966V278.374H80.4926ZM81.6966 273.194H84.4126C85.0193 273.194 85.4999 273.04 85.8546 272.732C86.2093 272.424 86.3866 271.985 86.3866 271.416C86.3866 270.837 86.2046 270.394 85.8406 270.086C85.4766 269.768 84.9493 269.61 84.2586 269.61H81.6966V273.194ZM92.4648 278.542C91.7648 278.542 91.1581 278.383 90.6448 278.066C90.1408 277.748 89.7488 277.3 89.4688 276.722C89.1981 276.134 89.0628 275.448 89.0628 274.664C89.0628 273.88 89.1981 273.198 89.4688 272.62C89.7488 272.041 90.1361 271.593 90.6308 271.276C91.1348 270.949 91.7274 270.786 92.4088 270.786C93.0528 270.786 93.6221 270.94 94.1168 271.248C94.6114 271.546 94.9941 271.985 95.2648 272.564C95.5448 273.142 95.6848 273.847 95.6848 274.678V275.028H90.2948C90.3414 275.821 90.5514 276.418 90.9248 276.82C91.3074 277.221 91.8208 277.422 92.4648 277.422C92.9501 277.422 93.3468 277.31 93.6548 277.086C93.9721 276.852 94.1914 276.549 94.3128 276.176L95.5728 276.274C95.3768 276.936 95.0034 277.482 94.4528 277.912C93.9114 278.332 93.2488 278.542 92.4648 278.542ZM90.2948 273.992H94.3968C94.3408 273.273 94.1308 272.746 93.7668 272.41C93.4121 272.074 92.9594 271.906 92.4088 271.906C91.8394 271.906 91.3681 272.083 90.9948 272.438C90.6308 272.783 90.3974 273.301 90.2948 273.992ZM99.4711 278.542C98.7058 278.542 98.0945 278.364 97.6371 278.01C97.1891 277.655 96.9651 277.16 96.9651 276.526C96.9651 275.891 97.1518 275.392 97.5251 275.028C97.8985 274.664 98.4911 274.407 99.3031 274.258L101.935 273.768C101.935 273.142 101.786 272.676 101.487 272.368C101.198 272.06 100.759 271.906 100.171 271.906C99.6578 271.906 99.2518 272.022 98.9531 272.256C98.6545 272.48 98.4491 272.806 98.3371 273.236L97.0911 273.138C97.2311 272.438 97.5671 271.873 98.0991 271.444C98.6405 271.005 99.3311 270.786 100.171 270.786C101.123 270.786 101.851 271.056 102.355 271.598C102.859 272.13 103.111 272.867 103.111 273.81V276.876C103.111 277.044 103.139 277.165 103.195 277.24C103.26 277.305 103.363 277.338 103.503 277.338H103.797V278.374C103.76 278.383 103.699 278.388 103.615 278.388C103.531 278.397 103.442 278.402 103.349 278.402C103.013 278.402 102.738 278.35 102.523 278.248C102.318 278.136 102.168 277.968 102.075 277.744C101.982 277.51 101.935 277.207 101.935 276.834L102.075 276.862C102.01 277.179 101.851 277.468 101.599 277.73C101.347 277.982 101.034 278.182 100.661 278.332C100.288 278.472 99.8911 278.542 99.4711 278.542ZM99.5831 277.506C100.078 277.506 100.498 277.412 100.843 277.226C101.198 277.03 101.468 276.768 101.655 276.442C101.842 276.106 101.935 275.732 101.935 275.322V274.79L99.5271 275.238C99.0231 275.331 98.6731 275.476 98.4771 275.672C98.2905 275.858 98.1971 276.106 98.1971 276.414C98.1971 276.759 98.3185 277.03 98.5611 277.226C98.8131 277.412 99.1538 277.506 99.5831 277.506ZM106.499 278.374C106.07 278.374 105.72 278.262 105.449 278.038C105.179 277.814 105.043 277.459 105.043 276.974V268.434H106.219V276.876C106.219 277.025 106.257 277.142 106.331 277.226C106.415 277.3 106.532 277.338 106.681 277.338H107.325V278.374H106.499ZM111.068 278.374C110.396 278.374 109.897 278.22 109.57 277.912C109.253 277.604 109.094 277.123 109.094 276.47V269.218H110.27V276.442C110.27 276.778 110.345 277.011 110.494 277.142C110.643 277.272 110.872 277.338 111.18 277.338H112.244V278.374H111.068ZM108.002 271.99V270.954H112.244V271.99H108.002ZM113.752 278.374V270.954H114.928V278.374H113.752ZM113.724 269.792V268.42H114.956V269.792H113.724ZM117.307 278.374V270.954H118.385L118.427 272.83L118.259 272.774C118.343 272.363 118.488 272.013 118.693 271.724C118.908 271.425 119.169 271.196 119.477 271.038C119.785 270.87 120.126 270.786 120.499 270.786C121.143 270.786 121.666 270.963 122.067 271.318C122.478 271.672 122.734 272.167 122.837 272.802L122.613 272.788C122.688 272.358 122.823 271.999 123.019 271.71C123.224 271.411 123.486 271.182 123.803 271.024C124.12 270.865 124.484 270.786 124.895 270.786C125.427 270.786 125.875 270.898 126.239 271.122C126.603 271.336 126.878 271.654 127.065 272.074C127.252 272.494 127.345 273.002 127.345 273.6V278.374H126.169V273.852C126.169 273.18 126.038 272.676 125.777 272.34C125.516 271.994 125.128 271.822 124.615 271.822C124.27 271.822 123.966 271.906 123.705 272.074C123.453 272.242 123.257 272.484 123.117 272.802C122.977 273.11 122.907 273.488 122.907 273.936V278.374H121.731V273.936C121.731 273.273 121.614 272.755 121.381 272.382C121.148 272.008 120.756 271.822 120.205 271.822C119.86 271.822 119.556 271.906 119.295 272.074C119.043 272.242 118.842 272.484 118.693 272.802C118.553 273.119 118.483 273.497 118.483 273.936V278.374H117.307ZM132.318 278.542C131.618 278.542 131.012 278.383 130.498 278.066C129.994 277.748 129.602 277.3 129.322 276.722C129.052 276.134 128.916 275.448 128.916 274.664C128.916 273.88 129.052 273.198 129.322 272.62C129.602 272.041 129.99 271.593 130.484 271.276C130.988 270.949 131.581 270.786 132.262 270.786C132.906 270.786 133.476 270.94 133.97 271.248C134.465 271.546 134.848 271.985 135.118 272.564C135.398 273.142 135.538 273.847 135.538 274.678V275.028H130.148C130.195 275.821 130.405 276.418 130.778 276.82C131.161 277.221 131.674 277.422 132.318 277.422C132.804 277.422 133.2 277.31 133.508 277.086C133.826 276.852 134.045 276.549 134.166 276.176L135.426 276.274C135.23 276.936 134.857 277.482 134.306 277.912C133.765 278.332 133.102 278.542 132.318 278.542ZM130.148 273.992H134.25C134.194 273.273 133.984 272.746 133.62 272.41C133.266 272.074 132.813 271.906 132.262 271.906C131.693 271.906 131.222 272.083 130.848 272.438C130.484 272.783 130.251 273.301 130.148 273.992Z" fill="#ADADAD"/>
<path d="M68.0841 219.687V203.495H63.2841V200.711H65.2361C66.0895 200.711 66.7828 200.604 67.3161 200.391C67.8495 200.156 68.2335 199.772 68.4681 199.239C68.7028 198.684 68.8201 197.927 68.8201 196.967H71.5401V219.687H68.0841ZM76.3801 219.687V215.655H80.5081V219.687H76.3801ZM83.7366 219.687C83.7366 217.98 83.9926 216.455 84.5046 215.111C85.0166 213.767 85.8913 212.519 87.1286 211.367C88.366 210.215 90.0726 209.063 92.2486 207.911C93.294 207.377 94.126 206.887 94.7446 206.439C95.3846 205.969 95.8433 205.489 96.1206 204.999C96.398 204.508 96.5366 203.911 96.5366 203.207C96.5366 202.481 96.3766 201.863 96.0566 201.351C95.758 200.817 95.31 200.401 94.7126 200.103C94.1153 199.783 93.358 199.623 92.4406 199.623C90.99 199.623 89.838 200.017 88.9846 200.807C88.1526 201.575 87.63 202.684 87.4166 204.135L83.8326 203.911C84.0886 201.628 84.9526 199.815 86.4246 198.471C87.918 197.127 89.9233 196.455 92.4406 196.455C94.062 196.455 95.438 196.743 96.5686 197.319C97.7206 197.873 98.5953 198.652 99.1926 199.655C99.8113 200.657 100.121 201.82 100.121 203.143C100.121 204.295 99.9286 205.287 99.5446 206.119C99.1606 206.951 98.5206 207.729 97.6246 208.455C96.7286 209.159 95.5126 209.916 93.9766 210.727C92.014 211.772 90.5313 212.807 89.5286 213.831C88.526 214.833 87.9926 215.729 87.9286 216.519H100.121V219.687H83.7366ZM112.021 220.199C110.293 220.199 108.768 219.943 107.445 219.431C106.122 218.919 105.088 218.161 104.341 217.159C103.616 216.156 103.253 214.929 103.253 213.479C103.253 211.815 103.754 210.439 104.757 209.351C105.76 208.263 107.104 207.537 108.789 207.175L108.853 207.815C107.488 207.495 106.389 206.908 105.557 206.055C104.746 205.201 104.341 204.081 104.341 202.695C104.341 201.479 104.65 200.401 105.269 199.463C105.888 198.524 106.762 197.788 107.893 197.255C109.045 196.721 110.421 196.455 112.021 196.455C113.6 196.455 114.965 196.721 116.117 197.255C117.269 197.788 118.144 198.524 118.741 199.463C119.36 200.401 119.669 201.479 119.669 202.695C119.669 204.081 119.264 205.201 118.453 206.055C117.642 206.887 116.544 207.473 115.157 207.815L115.221 207.175C116.928 207.537 118.282 208.263 119.285 209.351C120.288 210.439 120.789 211.815 120.789 213.479C120.789 214.929 120.416 216.156 119.669 217.159C118.944 218.161 117.92 218.919 116.597 219.431C115.274 219.943 113.749 220.199 112.021 220.199ZM112.021 217.031C113.6 217.031 114.848 216.711 115.765 216.071C116.704 215.409 117.173 214.428 117.173 213.127C117.173 211.889 116.746 210.897 115.893 210.151C115.061 209.404 113.77 209.031 112.021 209.031C110.272 209.031 108.97 209.404 108.117 210.151C107.264 210.897 106.837 211.889 106.837 213.127C106.837 214.428 107.306 215.409 108.245 216.071C109.184 216.711 110.442 217.031 112.021 217.031ZM112.021 206.183C113.322 206.183 114.325 205.916 115.029 205.383C115.754 204.828 116.117 203.985 116.117 202.855C116.117 201.873 115.765 201.084 115.061 200.487C114.378 199.889 113.365 199.591 112.021 199.591C110.677 199.591 109.653 199.889 108.949 200.487C108.245 201.084 107.893 201.873 107.893 202.855C107.893 203.985 108.256 204.828 108.981 205.383C109.706 205.916 110.72 206.183 112.021 206.183ZM134.357 219.687V214.951H122.901V212.007L133.941 196.967H137.813V211.815H140.597V214.951H137.813V219.687H134.357ZM126.837 211.815H134.357V201.767L126.837 211.815Z" fill="white"/>
<path d="M60.8916 270.096C60.8916 268.832 61.9165 267.807 63.1808 267.807H72.3374C73.6017 267.807 74.6265 268.832 74.6265 270.096V279.253C74.6265 280.517 73.6017 281.542 72.3374 281.542H63.1808C61.9165 281.542 60.8916 280.517 60.8916 279.253V270.096Z" fill="#059669"/>
<path d="M221.327 299.855C221.327 301.328 222.521 302.522 223.994 302.522C225.467 302.522 226.661 301.328 226.661 299.855C226.661 298.383 225.467 297.189 223.994 297.189C222.521 297.189 221.327 298.383 221.327 299.855ZM416.283 168.801L416.058 168.355L416.033 168.368L416.008 168.383L416.283 168.801ZM488.587 131.03C488.587 132.503 489.78 133.697 491.253 133.697C492.726 133.697 493.92 132.503 493.92 131.03C493.92 129.557 492.726 128.363 491.253 128.363C489.78 128.363 488.587 129.557 488.587 131.03ZM223.994 299.855L224.418 300.121C235.568 282.324 253.865 256.054 272.512 235.082C281.837 224.594 291.232 215.451 299.852 209.354C308.504 203.235 316.239 200.281 322.298 201.905L322.428 201.422L322.557 200.939C316.027 199.189 307.952 202.4 299.274 208.538C290.564 214.699 281.11 223.906 271.764 234.418C253.069 255.444 234.739 281.764 223.57 299.59L223.994 299.855ZM322.428 201.422L322.298 201.905C328.7 203.62 336.5 203.266 344.89 201.586C353.287 199.905 362.315 196.887 371.191 193.236C388.944 185.933 406.141 176.075 416.558 169.219L416.283 168.801L416.008 168.383C405.633 175.212 388.492 185.038 370.811 192.311C361.97 195.948 353.007 198.941 344.694 200.605C336.374 202.271 328.746 202.597 322.557 200.939L322.428 201.422ZM416.283 168.801L416.508 169.248L491.478 131.477L491.253 131.03L491.028 130.583L416.058 168.355L416.283 168.801Z" fill="#F97F27"/>
<rect x="38.5" y="-102.5" width="452.253" height="189" rx="9.5" stroke="#181614"/>
<path d="M80.4926 64.3735V54.4335H84.2586C84.9586 54.4335 85.5606 54.5549 86.0646 54.7975C86.5686 55.0402 86.9559 55.3902 87.2266 55.8475C87.5066 56.2955 87.6466 56.8275 87.6466 57.4435C87.6466 57.8915 87.5393 58.2929 87.3246 58.6475C87.1193 58.9929 86.8533 59.2682 86.5266 59.4735C86.1999 59.6789 85.8593 59.7909 85.5046 59.8095L85.4206 59.6835C86.0273 59.6835 86.5033 59.8235 86.8486 60.1035C87.2033 60.3835 87.4086 60.8315 87.4646 61.4475L87.7446 64.3735H86.5266L86.2746 61.5735C86.2373 61.1629 86.0879 60.8595 85.8266 60.6635C85.5746 60.4675 85.1593 60.3695 84.5806 60.3695H81.6966V64.3735H80.4926ZM81.6966 59.1935H84.4126C85.0193 59.1935 85.4999 59.0395 85.8546 58.7315C86.2093 58.4235 86.3866 57.9849 86.3866 57.4155C86.3866 56.8369 86.2046 56.3935 85.8406 56.0855C85.4766 55.7682 84.9493 55.6095 84.2586 55.6095H81.6966V59.1935ZM92.4648 64.5415C91.7648 64.5415 91.1581 64.3829 90.6448 64.0655C90.1408 63.7482 89.7488 63.3002 89.4688 62.7215C89.1981 62.1335 89.0628 61.4475 89.0628 60.6635C89.0628 59.8795 89.1981 59.1982 89.4688 58.6195C89.7488 58.0409 90.1361 57.5929 90.6308 57.2755C91.1348 56.9489 91.7274 56.7855 92.4088 56.7855C93.0528 56.7855 93.6221 56.9395 94.1168 57.2475C94.6114 57.5462 94.9941 57.9849 95.2648 58.5635C95.5448 59.1422 95.6848 59.8469 95.6848 60.6775V61.0275H90.2948C90.3414 61.8209 90.5514 62.4182 90.9248 62.8195C91.3074 63.2209 91.8208 63.4215 92.4648 63.4215C92.9501 63.4215 93.3468 63.3095 93.6548 63.0855C93.9721 62.8522 94.1914 62.5489 94.3128 62.1755L95.5728 62.2735C95.3768 62.9362 95.0034 63.4822 94.4528 63.9115C93.9114 64.3315 93.2488 64.5415 92.4648 64.5415ZM90.2948 59.9915H94.3968C94.3408 59.2729 94.1308 58.7455 93.7668 58.4095C93.4121 58.0735 92.9594 57.9055 92.4088 57.9055C91.8394 57.9055 91.3681 58.0829 90.9948 58.4375C90.6308 58.7829 90.3974 59.3009 90.2948 59.9915ZM99.4711 64.5415C98.7058 64.5415 98.0945 64.3642 97.6371 64.0095C97.1891 63.6549 96.9651 63.1602 96.9651 62.5255C96.9651 61.8909 97.1518 61.3915 97.5251 61.0275C97.8985 60.6635 98.4911 60.4069 99.3031 60.2575L101.935 59.7675C101.935 59.1422 101.786 58.6755 101.487 58.3675C101.198 58.0595 100.759 57.9055 100.171 57.9055C99.6578 57.9055 99.2518 58.0222 98.9531 58.2555C98.6545 58.4795 98.4491 58.8062 98.3371 59.2355L97.0911 59.1375C97.2311 58.4375 97.5671 57.8729 98.0991 57.4435C98.6405 57.0049 99.3311 56.7855 100.171 56.7855C101.123 56.7855 101.851 57.0562 102.355 57.5975C102.859 58.1295 103.111 58.8669 103.111 59.8095V62.8755C103.111 63.0435 103.139 63.1649 103.195 63.2395C103.26 63.3049 103.363 63.3375 103.503 63.3375H103.797V64.3735C103.76 64.3829 103.699 64.3875 103.615 64.3875C103.531 64.3969 103.442 64.4015 103.349 64.4015C103.013 64.4015 102.738 64.3502 102.523 64.2475C102.318 64.1355 102.168 63.9675 102.075 63.7435C101.982 63.5102 101.935 63.2069 101.935 62.8335L102.075 62.8615C102.01 63.1789 101.851 63.4682 101.599 63.7295C101.347 63.9815 101.034 64.1822 100.661 64.3315C100.288 64.4715 99.8911 64.5415 99.4711 64.5415ZM99.5831 63.5055C100.078 63.5055 100.498 63.4122 100.843 63.2255C101.198 63.0295 101.468 62.7682 101.655 62.4415C101.842 62.1055 101.935 61.7322 101.935 61.3215V60.7895L99.5271 61.2375C99.0231 61.3309 98.6731 61.4755 98.4771 61.6715C98.2905 61.8582 98.1971 62.1055 98.1971 62.4135C98.1971 62.7589 98.3185 63.0295 98.5611 63.2255C98.8131 63.4122 99.1538 63.5055 99.5831 63.5055ZM106.499 64.3735C106.07 64.3735 105.72 64.2615 105.449 64.0375C105.179 63.8135 105.043 63.4589 105.043 62.9735V54.4335H106.219V62.8755C106.219 63.0249 106.257 63.1415 106.331 63.2255C106.415 63.3002 106.532 63.3375 106.681 63.3375H107.325V64.3735H106.499ZM111.068 64.3735C110.396 64.3735 109.897 64.2195 109.57 63.9115C109.253 63.6035 109.094 63.1229 109.094 62.4695V55.2175H110.27V62.4415C110.27 62.7775 110.345 63.0109 110.494 63.1415C110.643 63.2722 110.872 63.3375 111.18 63.3375H112.244V64.3735H111.068ZM108.002 57.9895V56.9535H112.244V57.9895H108.002ZM113.752 64.3735V56.9535H114.928V64.3735H113.752ZM113.724 55.7915V54.4195H114.956V55.7915H113.724ZM117.307 64.3735V56.9535H118.385L118.427 58.8295L118.259 58.7735C118.343 58.3629 118.488 58.0129 118.693 57.7235C118.908 57.4249 119.169 57.1962 119.477 57.0375C119.785 56.8695 120.126 56.7855 120.499 56.7855C121.143 56.7855 121.666 56.9629 122.067 57.3175C122.478 57.6722 122.734 58.1669 122.837 58.8015L122.613 58.7875C122.688 58.3582 122.823 57.9989 123.019 57.7095C123.224 57.4109 123.486 57.1822 123.803 57.0235C124.12 56.8649 124.484 56.7855 124.895 56.7855C125.427 56.7855 125.875 56.8975 126.239 57.1215C126.603 57.3362 126.878 57.6535 127.065 58.0735C127.252 58.4935 127.345 59.0022 127.345 59.5995V64.3735H126.169V59.8515C126.169 59.1795 126.038 58.6755 125.777 58.3395C125.516 57.9942 125.128 57.8215 124.615 57.8215C124.27 57.8215 123.966 57.9055 123.705 58.0735C123.453 58.2415 123.257 58.4842 123.117 58.8015C122.977 59.1095 122.907 59.4875 122.907 59.9355V64.3735H121.731V59.9355C121.731 59.2729 121.614 58.7549 121.381 58.3815C121.148 58.0082 120.756 57.8215 120.205 57.8215C119.86 57.8215 119.556 57.9055 119.295 58.0735C119.043 58.2415 118.842 58.4842 118.693 58.8015C118.553 59.1189 118.483 59.4969 118.483 59.9355V64.3735H117.307ZM132.318 64.5415C131.618 64.5415 131.012 64.3829 130.498 64.0655C129.994 63.7482 129.602 63.3002 129.322 62.7215C129.052 62.1335 128.916 61.4475 128.916 60.6635C128.916 59.8795 129.052 59.1982 129.322 58.6195C129.602 58.0409 129.99 57.5929 130.484 57.2755C130.988 56.9489 131.581 56.7855 132.262 56.7855C132.906 56.7855 133.476 56.9395 133.97 57.2475C134.465 57.5462 134.848 57.9849 135.118 58.5635C135.398 59.1422 135.538 59.8469 135.538 60.6775V61.0275H130.148C130.195 61.8209 130.405 62.4182 130.778 62.8195C131.161 63.2209 131.674 63.4215 132.318 63.4215C132.804 63.4215 133.2 63.3095 133.508 63.0855C133.826 62.8522 134.045 62.5489 134.166 62.1755L135.426 62.2735C135.23 62.9362 134.857 63.4822 134.306 63.9115C133.765 64.3315 133.102 64.5415 132.318 64.5415ZM130.148 59.9915H134.25C134.194 59.2729 133.984 58.7455 133.62 58.4095C133.266 58.0735 132.813 57.9055 132.262 57.9055C131.693 57.9055 131.222 58.0829 130.848 58.4375C130.484 58.7829 130.251 59.3009 130.148 59.9915Z" fill="#ADADAD"/>
<path d="M60.8916 56.0963C60.8916 54.832 61.9165 53.8071 63.1808 53.8071H72.3374C73.6017 53.8071 74.6265 54.832 74.6265 56.0963V65.2529C74.6265 66.5172 73.6017 67.5421 72.3374 67.5421H63.1808C61.9165 67.5421 60.8916 66.5172 60.8916 65.2529V56.0963Z" fill="#059669"/>
<path d="M221.333 86C221.333 87.4728 222.527 88.6667 224 88.6667C225.473 88.6667 226.667 87.4728 226.667 86C226.667 84.5272 225.473 83.3333 224 83.3333C222.527 83.3333 221.333 84.5272 221.333 86ZM277 35.5L277.113 35.987L277 35.5ZM453 35.5L453.269 35.9218L453.308 35.8969L453.341 35.8654L453 35.5ZM491.341 0.365368C491.543 0.176856 491.554 -0.139543 491.365 -0.34133C491.177 -0.543117 490.86 -0.553879 490.659 -0.365368L491 0L491.341 0.365368ZM224 86L224.316 86.3878C235.525 77.2657 242.647 66.0014 249.985 56.4078C257.342 46.7899 264.927 38.8239 277.113 35.987L277 35.5L276.887 35.013C264.344 37.9329 256.578 46.1438 249.191 55.8002C241.786 65.4808 234.773 76.5881 223.684 85.6122L224 86ZM277 35.5L277.113 35.987C280.198 35.2689 284.849 34.9783 290.714 34.9998C296.569 35.0212 303.595 35.3529 311.412 35.8645C327.053 36.8882 345.797 38.6274 364.61 40.0334C383.408 41.4382 402.253 42.5083 418.036 42.1864C425.928 42.0255 433.066 41.5165 439.057 40.5239C445.038 39.533 449.921 38.053 453.269 35.9218L453 35.5L452.731 35.0782C449.554 37.1012 444.829 38.5539 438.893 39.5374C432.968 40.5191 425.882 41.0263 418.016 41.1867C402.284 41.5074 383.478 40.4406 364.684 39.0361C345.905 37.6327 327.116 35.8902 311.477 34.8666C303.653 34.3546 296.603 34.0213 290.718 33.9998C284.843 33.9783 280.092 34.2667 276.887 35.013L277 35.5ZM453 35.5L453.341 35.8654L491.341 0.365368L491 0L490.659 -0.365368L452.659 35.1346L453 35.5Z" fill="#F97F27"/>
<g clip-path="url(#clip1_926_4105)">
<path d="M68.8677 144.44V138.145L73.446 140.434L68.8677 142.723M73.7671 142.85C74.0716 143.789 74.1001 144.795 73.8492 145.749C73.5982 146.704 73.0784 147.566 72.3516 148.233C71.6247 148.901 70.7214 149.345 69.7492 149.514C68.7769 149.683 67.7766 149.569 66.8673 149.186C65.958 148.802 65.1779 148.166 64.6199 147.352C64.0619 146.538 63.7494 145.581 63.7196 144.595C63.6899 143.608 63.9441 142.634 64.452 141.788C64.96 140.942 65.7003 140.26 66.5848 139.822M66.5797 142.721C66.2929 143.103 66.1062 143.55 66.0366 144.023C65.967 144.495 66.0167 144.977 66.1812 145.425C66.3456 145.874 66.6196 146.274 66.9782 146.589C67.3368 146.904 67.7685 147.125 68.2341 147.23C68.6997 147.336 69.1844 147.323 69.6439 147.194C70.1035 147.064 70.5233 146.822 70.8651 146.489C71.207 146.155 71.46 145.742 71.6011 145.286C71.7422 144.829 71.7669 144.345 71.6731 143.877" stroke="#ADADAD" stroke-linecap="round" stroke-linejoin="round"/>
</g>
<path d="M369 195.058L368 195.058L368 193L369 193L369 195.058ZM369 203.288L368 203.288L368 199.173L369 199.173L369 203.288ZM369 211.52L368 211.52L368 207.404L369 207.404L369 211.52ZM369 219.75L368 219.75L368 215.635L369 215.635L369 219.75ZM369 227.98L368 227.98L368 223.865L369 223.865L369 227.98ZM369 236.212L368 236.212L368 232.096L369 232.096L369 236.212ZM369 244.442L368 244.442L368 240.327L369 240.327L369 244.442ZM369 252.673L368 252.673L368 248.558L369 248.558L369 252.673ZM369 260.904L368 260.904L368 256.788L369 256.788L369 260.904ZM369 269.135L368 269.135L368 265.02L369 265.02L369 269.135ZM369 277.365L368 277.365L368 273.25L369 273.25L369 277.365ZM369 285.596L368 285.596L368 281.48L369 281.48L369 285.596ZM369 293.827L368 293.827L368 289.712L369 289.712L369 293.827ZM369 300L368 300L368 297.942L369 297.942L369 300Z" fill="#F97F27" fill-opacity="0.2"/>
<path d="M258 164.42C258 161.229 258 159.634 258.591 158.403C259.182 157.173 260.173 156.182 261.403 155.591C262.634 155 264.229 155 267.42 155H360.58C363.771 155 365.366 155 366.597 155.591C367.827 156.182 368.818 157.173 369.409 158.403C370 159.634 370 161.229 370 164.42V169.58C370 172.771 370 174.366 369.409 175.597C368.818 176.827 367.827 177.818 366.597 178.409C365.366 179 363.771 179 360.58 179H267.42C264.229 179 262.634 179 261.403 178.409C260.173 177.818 259.182 176.827 258.591 175.597C258 174.366 258 172.771 258 169.58V164.42Z" fill="#0F0E0D"/>
<path d="M360.58 178V179H267.42V178H360.58ZM369 169.58V164.42C369 162.809 368.999 161.658 368.929 160.754C368.859 159.861 368.727 159.293 368.507 158.836C368.015 157.811 367.189 156.985 366.164 156.493C365.707 156.273 365.139 156.141 364.246 156.071C363.794 156.036 363.28 156.018 362.678 156.009L360.58 156H267.42C265.809 156 264.658 156.001 263.754 156.071C262.861 156.141 262.293 156.273 261.836 156.493C260.811 156.985 259.985 157.811 259.493 158.836C259.273 159.293 259.141 159.861 259.071 160.754C259.001 161.658 259 162.809 259 164.42V169.58C259 171.191 259.001 172.342 259.071 173.246C259.141 174.139 259.273 174.707 259.493 175.164C259.985 176.189 260.811 177.015 261.836 177.507C262.293 177.727 262.861 177.859 263.754 177.929C264.658 177.999 265.809 178 267.42 178V179C264.429 179 262.84 179 261.639 178.513L261.402 178.409C260.25 177.856 259.307 176.949 258.707 175.825L258.591 175.598C258.073 174.52 258.009 173.164 258.001 170.704L258 164.42C258 161.229 258 159.634 258.591 158.402C259.181 157.173 260.173 156.181 261.402 155.591C262.634 155 264.229 155 267.42 155L361.704 155.001C364.164 155.009 365.52 155.073 366.598 155.591C367.827 156.181 368.819 157.173 369.409 158.402C370 159.634 370 161.229 370 164.42L369.999 170.704C369.991 173.164 369.927 174.52 369.409 175.598L369.293 175.825C368.693 176.949 367.75 177.856 366.598 178.409L366.361 178.513C365.32 178.935 363.988 178.992 361.704 178.999L360.58 179V178C362.191 178 363.342 177.999 364.246 177.929C365.139 177.859 365.707 177.727 366.164 177.507C367.189 177.015 368.015 176.189 368.507 175.164C368.727 174.707 368.859 174.139 368.929 173.246C368.999 172.342 369 171.191 369 169.58Z" fill="#181614"/>
<path d="M359.541 171.144C358.989 171.144 358.517 171.056 358.125 170.88C357.741 170.696 357.441 170.444 357.225 170.124C357.009 169.804 356.885 169.444 356.853 169.044L357.681 168.984C357.729 169.408 357.905 169.748 358.209 170.004C358.521 170.26 358.965 170.388 359.541 170.388C360.045 170.388 360.437 170.304 360.717 170.136C360.997 169.968 361.137 169.708 361.137 169.356C361.137 169.164 361.093 169.004 361.005 168.876C360.925 168.74 360.757 168.624 360.501 168.528C360.245 168.424 359.861 168.328 359.349 168.24C358.749 168.128 358.281 167.996 357.945 167.844C357.609 167.684 357.373 167.488 357.237 167.256C357.101 167.016 357.033 166.732 357.033 166.404C357.033 165.836 357.237 165.376 357.645 165.024C358.053 164.672 358.621 164.496 359.349 164.496C359.845 164.496 360.265 164.588 360.609 164.772C360.961 164.956 361.237 165.2 361.437 165.504C361.637 165.8 361.769 166.128 361.833 166.488L361.005 166.56C360.957 166.312 360.865 166.092 360.729 165.9C360.593 165.7 360.409 165.544 360.177 165.432C359.945 165.312 359.665 165.252 359.337 165.252C358.857 165.252 358.489 165.356 358.233 165.564C357.985 165.764 357.861 166.032 357.861 166.368C357.861 166.6 357.913 166.792 358.017 166.944C358.121 167.088 358.293 167.208 358.533 167.304C358.773 167.392 359.105 167.472 359.529 167.544C360.161 167.648 360.653 167.78 361.005 167.94C361.365 168.092 361.617 168.284 361.761 168.516C361.905 168.74 361.977 169.016 361.977 169.344C361.977 169.728 361.873 170.056 361.665 170.328C361.457 170.592 361.169 170.796 360.801 170.94C360.441 171.076 360.021 171.144 359.541 171.144Z" fill="white"/>
<path d="M350.546 171V164.64H351.266L351.302 166.308L351.206 166.236C351.27 165.844 351.402 165.52 351.602 165.264C351.81 165.008 352.062 164.816 352.358 164.688C352.654 164.56 352.974 164.496 353.318 164.496C353.806 164.496 354.206 164.604 354.518 164.82C354.838 165.036 355.074 165.328 355.226 165.696C355.378 166.056 355.454 166.46 355.454 166.908V171H354.662V167.196C354.662 166.78 354.61 166.424 354.506 166.128C354.41 165.832 354.25 165.604 354.026 165.444C353.802 165.284 353.51 165.204 353.15 165.204C352.606 165.204 352.166 165.38 351.83 165.732C351.502 166.084 351.338 166.572 351.338 167.196V171H350.546Z" fill="white"/>
<path d="M346.29 171.144C345.714 171.144 345.21 171.008 344.778 170.736C344.354 170.464 344.026 170.08 343.794 169.584C343.562 169.08 343.446 168.492 343.446 167.82C343.446 167.14 343.562 166.552 343.794 166.056C344.026 165.56 344.354 165.176 344.778 164.904C345.21 164.632 345.714 164.496 346.29 164.496C346.866 164.496 347.366 164.632 347.79 164.904C348.214 165.176 348.542 165.56 348.774 166.056C349.006 166.552 349.122 167.14 349.122 167.82C349.122 168.492 349.006 169.08 348.774 169.584C348.542 170.08 348.214 170.464 347.79 170.736C347.366 171.008 346.866 171.144 346.29 171.144ZM346.29 170.388C346.914 170.388 347.402 170.16 347.754 169.704C348.114 169.24 348.294 168.612 348.294 167.82C348.294 167.028 348.114 166.404 347.754 165.948C347.402 165.484 346.914 165.252 346.29 165.252C345.666 165.252 345.174 165.484 344.814 165.948C344.454 166.404 344.274 167.028 344.274 167.82C344.274 168.612 344.454 169.24 344.814 169.704C345.174 170.16 345.666 170.388 346.29 170.388Z" fill="white"/>
<path d="M341.253 171V164.64H342.045V171H341.253ZM341.229 163.584V162.516H342.069V163.584H341.229Z" fill="white"/>
<path d="M337.404 171.144C336.852 171.144 336.38 171.056 335.988 170.88C335.604 170.696 335.304 170.444 335.088 170.124C334.872 169.804 334.748 169.444 334.716 169.044L335.544 168.984C335.592 169.408 335.768 169.748 336.072 170.004C336.384 170.26 336.828 170.388 337.404 170.388C337.908 170.388 338.3 170.304 338.58 170.136C338.86 169.968 339 169.708 339 169.356C339 169.164 338.956 169.004 338.868 168.876C338.788 168.74 338.62 168.624 338.364 168.528C338.108 168.424 337.724 168.328 337.212 168.24C336.612 168.128 336.144 167.996 335.808 167.844C335.472 167.684 335.236 167.488 335.1 167.256C334.964 167.016 334.896 166.732 334.896 166.404C334.896 165.836 335.1 165.376 335.508 165.024C335.916 164.672 336.484 164.496 337.212 164.496C337.708 164.496 338.128 164.588 338.472 164.772C338.824 164.956 339.1 165.2 339.3 165.504C339.5 165.8 339.632 166.128 339.696 166.488L338.868 166.56C338.82 166.312 338.728 166.092 338.592 165.9C338.456 165.7 338.272 165.544 338.04 165.432C337.808 165.312 337.528 165.252 337.2 165.252C336.72 165.252 336.352 165.356 336.096 165.564C335.848 165.764 335.724 166.032 335.724 166.368C335.724 166.6 335.776 166.792 335.88 166.944C335.984 167.088 336.156 167.208 336.396 167.304C336.636 167.392 336.968 167.472 337.392 167.544C338.024 167.648 338.516 167.78 338.868 167.94C339.228 168.092 339.48 168.284 339.624 168.516C339.768 168.74 339.84 169.016 339.84 169.344C339.84 169.728 339.736 170.056 339.528 170.328C339.32 170.592 339.032 170.796 338.664 170.94C338.304 171.076 337.884 171.144 337.404 171.144Z" fill="white"/>
<path d="M331.222 171V164.64H331.906L331.954 166.38L331.846 166.32C331.95 165.752 332.138 165.332 332.41 165.06C332.682 164.78 333.058 164.64 333.538 164.64H334.09V165.408H333.514C333.194 165.408 332.922 165.48 332.698 165.624C332.474 165.76 332.302 165.956 332.182 166.212C332.07 166.468 332.014 166.772 332.014 167.124V171H331.222Z" fill="white"/>
<path d="M327.096 171.144C326.488 171.144 325.972 171.004 325.548 170.724C325.124 170.436 324.796 170.044 324.564 169.548C324.34 169.044 324.228 168.468 324.228 167.82C324.228 167.172 324.34 166.6 324.564 166.104C324.788 165.6 325.108 165.208 325.524 164.928C325.948 164.64 326.456 164.496 327.048 164.496C327.616 164.496 328.108 164.632 328.524 164.904C328.94 165.176 329.256 165.56 329.472 166.056C329.696 166.552 329.808 167.132 329.808 167.796V168.048H325.056C325.088 168.8 325.284 169.38 325.644 169.788C326.004 170.188 326.488 170.388 327.096 170.388C327.56 170.388 327.94 170.276 328.236 170.052C328.532 169.828 328.736 169.532 328.848 169.164L329.7 169.224C329.54 169.784 329.232 170.244 328.776 170.604C328.32 170.964 327.76 171.144 327.096 171.144ZM325.056 167.34H328.944C328.904 166.66 328.716 166.144 328.38 165.792C328.044 165.432 327.6 165.252 327.048 165.252C326.496 165.252 326.044 165.432 325.692 165.792C325.34 166.152 325.128 166.668 325.056 167.34Z" fill="white"/>
<path d="M320.362 171L318.034 164.64H318.898L320.866 170.196L322.834 164.64H323.698L321.37 171H320.362Z" fill="white"/>
<path d="M312.285 171V164.64H313.005L313.041 166.308L312.945 166.236C313.009 165.844 313.141 165.52 313.341 165.264C313.549 165.008 313.801 164.816 314.097 164.688C314.393 164.56 314.713 164.496 315.057 164.496C315.545 164.496 315.945 164.604 316.257 164.82C316.577 165.036 316.813 165.328 316.965 165.696C317.117 166.056 317.193 166.46 317.193 166.908V171H316.401V167.196C316.401 166.78 316.349 166.424 316.245 166.128C316.149 165.832 315.989 165.604 315.765 165.444C315.541 165.284 315.249 165.204 314.889 165.204C314.345 165.204 313.905 165.38 313.569 165.732C313.241 166.084 313.077 166.572 313.077 167.196V171H312.285Z" fill="white"/>
<path d="M308.029 171.144C307.453 171.144 306.949 171.008 306.517 170.736C306.093 170.464 305.765 170.08 305.533 169.584C305.301 169.08 305.185 168.492 305.185 167.82C305.185 167.14 305.301 166.552 305.533 166.056C305.765 165.56 306.093 165.176 306.517 164.904C306.949 164.632 307.453 164.496 308.029 164.496C308.605 164.496 309.105 164.632 309.529 164.904C309.953 165.176 310.281 165.56 310.513 166.056C310.745 166.552 310.861 167.14 310.861 167.82C310.861 168.492 310.745 169.08 310.513 169.584C310.281 170.08 309.953 170.464 309.529 170.736C309.105 171.008 308.605 171.144 308.029 171.144ZM308.029 170.388C308.653 170.388 309.141 170.16 309.493 169.704C309.853 169.24 310.033 168.612 310.033 167.82C310.033 167.028 309.853 166.404 309.493 165.948C309.141 165.484 308.653 165.252 308.029 165.252C307.405 165.252 306.913 165.484 306.553 165.948C306.193 166.404 306.013 167.028 306.013 167.82C306.013 168.612 306.193 169.24 306.553 169.704C306.913 170.16 307.405 170.388 308.029 170.388Z" fill="white"/>
<path d="M300.691 171.192C299.939 171.192 299.279 171.016 298.711 170.664C298.151 170.304 297.715 169.792 297.403 169.128C297.099 168.464 296.947 167.672 296.947 166.752C296.947 165.832 297.099 165.04 297.403 164.376C297.715 163.704 298.151 163.188 298.711 162.828C299.279 162.468 299.939 162.288 300.691 162.288C301.683 162.288 302.463 162.552 303.031 163.08C303.599 163.608 303.967 164.316 304.135 165.204L303.271 165.264C303.151 164.6 302.875 164.072 302.443 163.68C302.019 163.288 301.435 163.092 300.691 163.092C300.107 163.092 299.599 163.24 299.167 163.536C298.735 163.824 298.399 164.244 298.159 164.796C297.919 165.34 297.799 165.992 297.799 166.752C297.799 167.512 297.919 168.164 298.159 168.708C298.399 169.252 298.735 169.668 299.167 169.956C299.599 170.244 300.107 170.388 300.691 170.388C301.467 170.388 302.075 170.176 302.515 169.752C302.963 169.328 303.239 168.752 303.343 168.024L304.207 168.084C304.111 168.708 303.911 169.252 303.607 169.716C303.303 170.18 302.907 170.544 302.419 170.808C301.931 171.064 301.355 171.192 300.691 171.192Z" fill="white"/>
<path d="M289.438 171C289.438 170.096 289.562 169.188 289.81 168.276C290.058 167.364 290.41 166.484 290.866 165.636C291.322 164.788 291.862 164 292.486 163.272H287.482V162.48H293.386V163.212C292.714 163.988 292.146 164.788 291.682 165.612C291.218 166.436 290.866 167.296 290.626 168.192C290.394 169.08 290.278 170.016 290.278 171H289.438Z" fill="white"/>
<path d="M280.756 171C280.756 170.424 280.852 169.904 281.044 169.44C281.244 168.968 281.576 168.524 282.04 168.108C282.512 167.684 283.152 167.264 283.96 166.848C284.392 166.624 284.744 166.416 285.016 166.224C285.288 166.024 285.488 165.812 285.616 165.588C285.744 165.364 285.808 165.092 285.808 164.772C285.808 164.444 285.736 164.156 285.592 163.908C285.448 163.652 285.236 163.452 284.956 163.308C284.676 163.164 284.328 163.092 283.912 163.092C283.272 163.092 282.76 163.264 282.376 163.608C281.992 163.952 281.752 164.448 281.656 165.096L280.804 165.036C280.9 164.196 281.22 163.528 281.764 163.032C282.308 162.536 283.024 162.288 283.912 162.288C284.488 162.288 284.98 162.396 285.388 162.612C285.804 162.82 286.12 163.108 286.336 163.476C286.552 163.844 286.66 164.268 286.66 164.748C286.66 165.188 286.58 165.568 286.42 165.888C286.268 166.2 286.016 166.492 285.664 166.764C285.32 167.028 284.86 167.308 284.284 167.604C283.468 168.028 282.848 168.468 282.424 168.924C282.008 169.38 281.784 169.808 281.752 170.208H286.66V171H280.756Z" fill="white"/>
<path d="M265 165C265 163.343 266.343 162 268 162H272C273.657 162 275 163.343 275 165V169C275 170.657 273.657 172 272 172H268C266.343 172 265 170.657 265 169V165Z" fill="#F97F27"/>
<path d="M365.473 208.79V184.453L383.117 202.097H372.774L372.165 202.25L365.473 208.79Z" fill="white"/>
<path d="M379.314 209.855L373.838 212.137L366.689 195.253L372.317 192.971L379.314 209.855Z" fill="white"/>
<path d="M372.583 197.563L369.778 198.74L374.488 209.961L377.293 208.783L372.583 197.563Z" fill="black"/>
<path d="M366.994 188.104V205.14L371.557 200.729L372.165 200.577H379.466L366.994 188.104Z" fill="black"/>
</g>
<defs>
<filter id="filter0_d_926_4105" x="-4" y="21" width="538" height="9" filterUnits="userSpaceOnUse" color-interpolation-filters="sRGB">
<feFlood flood-opacity="0" result="BackgroundImageFix"/>
<feColorMatrix in="SourceAlpha" type="matrix" values="0 0 0 0 0 0 0 0 0 0 0 0 0 0 0 0 0 0 127 0" result="hardAlpha"/>
<feOffset dy="4"/>
<feGaussianBlur stdDeviation="2"/>
<feComposite in2="hardAlpha" operator="out"/>
<feColorMatrix type="matrix" values="0 0 0 0 0 0 0 0 0 0 0 0 0 0 0 0 0 0 0.25 0"/>
<feBlend mode="normal" in2="BackgroundImageFix" result="effect1_dropShadow_926_4105"/>
<feBlend mode="normal" in="SourceGraphic" in2="effect1_dropShadow_926_4105" result="shape"/>
</filter>
<filter id="filter1_d_926_4105" x="-4" y="169" width="30" height="9" filterUnits="userSpaceOnUse" color-interpolation-filters="sRGB">
<feFlood flood-opacity="0" result="BackgroundImageFix"/>
<feColorMatrix in="SourceAlpha" type="matrix" values="0 0 0 0 0 0 0 0 0 0 0 0 0 0 0 0 0 0 127 0" result="hardAlpha"/>
<feOffset dy="4"/>
<feGaussianBlur stdDeviation="2"/>
<feComposite in2="hardAlpha" operator="out"/>
<feColorMatrix type="matrix" values="0 0 0 0 0 0 0 0 0 0 0 0 0 0 0 0 0 0 0.25 0"/>
<feBlend mode="normal" in2="BackgroundImageFix" result="effect1_dropShadow_926_4105"/>
<feBlend mode="normal" in="SourceGraphic" in2="effect1_dropShadow_926_4105" result="shape"/>
</filter>
<filter id="filter2_d_926_4105" x="504" y="169" width="30" height="9" filterUnits="userSpaceOnUse" color-interpolation-filters="sRGB">
<feFlood flood-opacity="0" result="BackgroundImageFix"/>
<feColorMatrix in="SourceAlpha" type="matrix" values="0 0 0 0 0 0 0 0 0 0 0 0 0 0 0 0 0 0 127 0" result="hardAlpha"/>
<feOffset dy="4"/>
<feGaussianBlur stdDeviation="2"/>
<feComposite in2="hardAlpha" operator="out"/>
<feColorMatrix type="matrix" values="0 0 0 0 0 0 0 0 0 0 0 0 0 0 0 0 0 0 0.25 0"/>
<feBlend mode="normal" in2="BackgroundImageFix" result="effect1_dropShadow_926_4105"/>
<feBlend mode="normal" in="SourceGraphic" in2="effect1_dropShadow_926_4105" result="shape"/>
</filter>
<linearGradient id="paint0_linear_926_4105" x1="373.362" y1="194.982" x2="419.717" y2="306.006" gradientUnits="userSpaceOnUse">
<stop stop-color="#F97F27" stop-opacity="0.71"/>
<stop offset="0.25" stop-color="#F97F27" stop-opacity="0.48"/>
<stop offset="0.5" stop-color="#F97F27" stop-opacity="0.29"/>
<stop offset="1" stop-color="#F97F27" stop-opacity="0"/>
</linearGradient>
<linearGradient id="paint1_linear_926_4105" x1="373.223" y1="32.0678" x2="386.749" y2="95.6033" gradientUnits="userSpaceOnUse">
<stop stop-color="#F97F27" stop-opacity="0.71"/>
<stop offset="0.25" stop-color="#F97F27" stop-opacity="0.5"/>
<stop offset="0.5" stop-color="#F97F27" stop-opacity="0.29"/>
<stop offset="1" stop-color="#F97F27" stop-opacity="0.06"/>
</linearGradient>
<clipPath id="clip0_926_4105">
<rect width="530" height="340" fill="white"/>
</clipPath>
<clipPath id="clip1_926_4105">
<rect width="13.7349" height="13.7349" fill="white" transform="translate(62 137)"/>
</clipPath>
</defs>
</svg>
