<svg width="530" height="340" viewBox="0 0 530 340" fill="none" xmlns="http://www.w3.org/2000/svg">
<g clip-path="url(#clip0_926_4105)">
<g filter="url(#filter0_d_926_4105)">
<path d="M530 21V22H0V21H530Z" fill="#181614"/>
</g>
<g filter="url(#filter1_d_926_4105)">
<path d="M23 340L22 340L22 4.37114e-08L23 0L23 340Z" fill="#181614"/>
</g>
<g filter="url(#filter2_d_926_4105)">
<path d="M509 340H508V0L509 0V340Z" fill="#181614"/>
</g>
<g filter="url(#filter3_d_926_4105)">
<path d="M530 317V318H0V317H530Z" fill="#181614"/>
</g>
<g filter="url(#filter4_d_926_4105)">
<path d="M22 169V170H0V169H22Z" fill="#181614"/>
</g>
<g filter="url(#filter5_d_926_4105)">
<path d="M530 169V170H508V169H530Z" fill="#181614"/>
</g>
<path d="M322.428 202.422C297.247 195.674 246.313 265.233 223.994 300.855H491.253V132.03L416.283 169.801C395.49 183.486 347.609 209.169 322.428 202.422Z" fill="url(#paint0_linear_926_4105)" fill-opacity="0.3"/>
<path d="M491.753 301.355H223.091L223.57 300.59C234.739 282.764 253.069 256.444 271.765 235.418C281.111 224.907 290.564 215.699 299.274 209.538C307.952 203.4 316.027 200.188 322.558 201.938C328.747 203.597 336.374 203.271 344.693 201.605C353.006 199.941 361.97 196.948 370.811 193.311C388.492 186.038 405.633 176.212 416.009 169.384L416.032 169.368L416.059 169.354L491.753 131.219V301.355ZM416.532 170.234C406.112 177.09 388.93 186.939 371.191 194.236C362.315 197.887 353.286 200.905 344.89 202.586C336.5 204.265 328.7 204.62 322.299 202.905C316.239 201.281 308.503 204.235 299.852 210.354C291.232 216.451 281.837 225.594 272.512 236.082C254.131 256.754 236.091 282.577 224.9 300.355H490.753V132.842L416.532 170.234Z" fill="black"/>
<path d="M277 35.5C252.271 41.2569 246.298 67.8538 224 86H491V0L453 35.5C426.897 52.117 302.162 29.6424 277 35.5Z" fill="url(#paint1_linear_926_4105)" fill-opacity="0.3"/>
<path d="M491.5 86.5H222.594L223.685 85.6123C234.773 76.5882 241.786 65.4804 249.191 55.7998C256.578 46.1436 264.344 37.9326 276.887 35.0127C280.092 34.2664 284.843 33.9785 290.718 34C296.603 34.0215 303.653 34.3542 311.477 34.8662C327.116 35.8898 345.905 37.6327 364.685 39.0361C383.478 40.4406 402.283 41.5073 418.016 41.1865C425.882 41.0261 432.968 40.5189 438.894 39.5371C444.805 38.5576 449.516 37.1121 452.693 35.1016L491.5 -1.15137V86.5ZM453.342 35.8652L453.308 35.8965L453.269 35.9219C449.921 38.0531 445.037 39.5325 439.057 40.5234C433.066 41.516 425.928 42.0256 418.036 42.1865C402.253 42.5083 383.407 41.438 364.609 40.0332C345.797 38.6273 327.053 36.8879 311.412 35.8643C303.596 35.3527 296.568 35.0214 290.714 35C284.849 34.9785 280.198 35.2692 277.113 35.9873C264.927 38.8243 257.342 46.7904 249.985 56.4082C242.883 65.693 235.983 76.542 225.385 85.5H490.5V1.15137L453.342 35.8652Z" fill="black"/>
<path d="M481.253 300V301H48V300H481.253ZM490.253 291V121C490.253 116.029 486.224 112 481.253 112H48C43.0294 112 39 116.029 39 121V291C39 295.971 43.0294 300 48 300V301L47.4854 300.987C42.3721 300.728 38.2719 296.628 38.0127 291.515L38 291V121C38 115.65 42.2017 111.281 47.4854 111.013L48 111H481.253C486.776 111 491.253 115.477 491.253 121V291C491.253 296.523 486.776 301 481.253 301V300C486.224 300 490.253 295.971 490.253 291Z" fill="#181614"/>
<path d="M171.888 150.083C171.088 150.083 170.411 149.961 169.856 149.716C169.312 149.47 168.891 149.134 168.592 148.708C168.293 148.27 168.123 147.769 168.08 147.204L169.824 147.124C169.909 147.593 170.112 147.966 170.432 148.244C170.752 148.521 171.237 148.66 171.888 148.66C172.421 148.66 172.843 148.574 173.152 148.404C173.461 148.233 173.616 147.961 173.616 147.588C173.616 147.385 173.563 147.214 173.456 147.076C173.36 146.926 173.168 146.804 172.88 146.708C172.592 146.601 172.165 146.5 171.6 146.404C170.757 146.244 170.096 146.057 169.616 145.844C169.136 145.63 168.795 145.358 168.592 145.028C168.389 144.697 168.288 144.297 168.288 143.828C168.288 143.049 168.576 142.414 169.152 141.924C169.739 141.433 170.581 141.188 171.68 141.188C172.416 141.188 173.035 141.315 173.536 141.571C174.037 141.817 174.427 142.153 174.704 142.58C174.992 142.996 175.173 143.465 175.248 143.988L173.504 144.083C173.451 143.785 173.344 143.529 173.184 143.316C173.035 143.092 172.832 142.921 172.576 142.804C172.32 142.676 172.016 142.611 171.664 142.611C171.12 142.611 170.715 142.718 170.448 142.931C170.181 143.145 170.048 143.422 170.048 143.764C170.048 144.02 170.107 144.228 170.224 144.388C170.352 144.548 170.555 144.681 170.832 144.788C171.109 144.884 171.477 144.969 171.936 145.044C172.821 145.193 173.515 145.38 174.016 145.604C174.517 145.817 174.869 146.084 175.072 146.404C175.275 146.724 175.376 147.113 175.376 147.572C175.376 148.105 175.227 148.558 174.928 148.932C174.629 149.305 174.219 149.593 173.696 149.796C173.173 149.988 172.571 150.083 171.888 150.083Z" fill="#ADADAD"/>
<path d="M159.343 149.892V141.38H160.895L160.959 143.652L160.751 143.54C160.847 142.985 161.028 142.537 161.295 142.195C161.561 141.854 161.887 141.604 162.271 141.444C162.655 141.273 163.071 141.188 163.519 141.188C164.159 141.188 164.687 141.332 165.103 141.62C165.529 141.897 165.849 142.281 166.063 142.771C166.287 143.251 166.399 143.801 166.399 144.42V149.892H164.703V144.932C164.703 144.43 164.649 144.009 164.543 143.667C164.436 143.326 164.26 143.065 164.015 142.884C163.769 142.702 163.449 142.611 163.055 142.611C162.457 142.611 161.972 142.809 161.599 143.204C161.225 143.598 161.039 144.174 161.039 144.932V149.892H159.343Z" fill="#ADADAD"/>
<path d="M153.596 150.083C152.786 150.083 152.076 149.902 151.468 149.54C150.86 149.177 150.391 148.66 150.06 147.988C149.73 147.316 149.564 146.531 149.564 145.635C149.564 144.729 149.73 143.945 150.06 143.284C150.391 142.622 150.86 142.11 151.468 141.748C152.076 141.374 152.786 141.188 153.596 141.188C154.407 141.188 155.116 141.374 155.724 141.748C156.332 142.11 156.802 142.622 157.132 143.284C157.463 143.945 157.628 144.729 157.628 145.635C157.628 146.531 157.463 147.316 157.132 147.988C156.802 148.66 156.332 149.177 155.724 149.54C155.116 149.902 154.407 150.083 153.596 150.083ZM153.596 148.612C154.322 148.612 154.882 148.35 155.276 147.828C155.671 147.294 155.868 146.563 155.868 145.635C155.868 144.707 155.671 143.982 155.276 143.46C154.882 142.926 154.322 142.66 153.596 142.66C152.882 142.66 152.322 142.926 151.916 143.46C151.522 143.982 151.324 144.707 151.324 145.635C151.324 146.563 151.522 147.294 151.916 147.828C152.322 148.35 152.882 148.612 153.596 148.612Z" fill="#ADADAD"/>
<path d="M146.155 149.892V141.38H147.851V149.892H146.155ZM146.123 140.148V138.452H147.883V140.148H146.123Z" fill="#ADADAD"/>
<path d="M140.951 150.083C140.151 150.083 139.473 149.961 138.919 149.716C138.375 149.47 137.953 149.134 137.655 148.708C137.356 148.27 137.185 147.769 137.143 147.204L138.887 147.124C138.972 147.593 139.175 147.966 139.495 148.244C139.815 148.521 140.3 148.66 140.951 148.66C141.484 148.66 141.905 148.574 142.215 148.404C142.524 148.233 142.679 147.961 142.679 147.588C142.679 147.385 142.625 147.214 142.519 147.076C142.423 146.926 142.231 146.804 141.943 146.708C141.655 146.601 141.228 146.5 140.663 146.404C139.82 146.244 139.159 146.057 138.679 145.844C138.199 145.63 137.857 145.358 137.655 145.028C137.452 144.697 137.351 144.297 137.351 143.828C137.351 143.049 137.639 142.414 138.215 141.924C138.801 141.433 139.644 141.188 140.743 141.188C141.479 141.188 142.097 141.315 142.599 141.571C143.1 141.817 143.489 142.153 143.767 142.58C144.055 142.996 144.236 143.465 144.311 143.988L142.567 144.083C142.513 143.785 142.407 143.529 142.247 143.316C142.097 143.092 141.895 142.921 141.639 142.804C141.383 142.676 141.079 142.611 140.727 142.611C140.183 142.611 139.777 142.718 139.511 142.931C139.244 143.145 139.111 143.422 139.111 143.764C139.111 144.02 139.169 144.228 139.287 144.388C139.415 144.548 139.617 144.681 139.895 144.788C140.172 144.884 140.54 144.969 140.999 145.044C141.884 145.193 142.577 145.38 143.079 145.604C143.58 145.817 143.932 146.084 144.135 146.404C144.337 146.724 144.439 147.113 144.439 147.572C144.439 148.105 144.289 148.558 143.991 148.932C143.692 149.305 143.281 149.593 142.759 149.796C142.236 149.988 141.633 150.083 140.951 150.083Z" fill="#ADADAD"/>
<path d="M132.015 149.892V141.38H133.567L133.631 143.636L133.487 143.588C133.604 142.82 133.839 142.26 134.191 141.908C134.553 141.556 135.039 141.38 135.647 141.38H136.463V142.9H135.647C135.22 142.9 134.863 142.969 134.575 143.108C134.287 143.246 134.068 143.46 133.919 143.748C133.78 144.036 133.711 144.409 133.711 144.868V149.892H132.015Z" fill="#ADADAD"/>
<path d="M126.456 150.083C125.624 150.083 124.904 149.902 124.296 149.54C123.698 149.177 123.234 148.66 122.904 147.988C122.584 147.316 122.424 146.531 122.424 145.635C122.424 144.739 122.584 143.961 122.904 143.299C123.234 142.627 123.698 142.11 124.296 141.748C124.893 141.374 125.597 141.188 126.408 141.188C127.176 141.188 127.853 141.369 128.44 141.731C129.026 142.083 129.48 142.595 129.8 143.267C130.13 143.94 130.296 144.75 130.296 145.7V146.132H124.184C124.226 146.964 124.445 147.588 124.84 148.003C125.245 148.42 125.789 148.628 126.472 148.628C126.973 148.628 127.389 148.51 127.72 148.276C128.05 148.041 128.28 147.726 128.408 147.332L130.168 147.444C129.944 148.233 129.501 148.873 128.84 149.364C128.189 149.844 127.394 150.083 126.456 150.083ZM124.184 144.851H128.504C128.45 144.094 128.232 143.534 127.848 143.172C127.474 142.809 126.994 142.628 126.408 142.628C125.8 142.628 125.298 142.82 124.904 143.204C124.52 143.577 124.28 144.126 124.184 144.851Z" fill="#ADADAD"/>
<path d="M116.692 149.892L113.588 141.38H115.396L117.716 148.164L120.036 141.38H121.86L118.74 149.892H116.692Z" fill="#ADADAD"/>
<path d="M105.515 149.892V141.38H107.067L107.131 143.652L106.923 143.54C107.019 142.985 107.2 142.537 107.467 142.195C107.733 141.854 108.059 141.604 108.443 141.444C108.827 141.273 109.243 141.188 109.691 141.188C110.331 141.188 110.859 141.332 111.275 141.62C111.701 141.897 112.021 142.281 112.235 142.771C112.459 143.251 112.571 143.801 112.571 144.42V149.892H110.875V144.932C110.875 144.43 110.821 144.009 110.715 143.667C110.608 143.326 110.432 143.065 110.187 142.884C109.941 142.702 109.621 142.611 109.227 142.611C108.629 142.611 108.144 142.809 107.771 143.204C107.397 143.598 107.211 144.174 107.211 144.932V149.892H105.515Z" fill="#ADADAD"/>
<path d="M99.7683 150.083C98.9577 150.083 98.2483 149.902 97.6403 149.54C97.0323 149.177 96.563 148.66 96.2323 147.988C95.9017 147.316 95.7363 146.531 95.7363 145.635C95.7363 144.729 95.9017 143.945 96.2323 143.284C96.563 142.622 97.0323 142.11 97.6403 141.748C98.2483 141.374 98.9577 141.188 99.7683 141.188C100.579 141.188 101.288 141.374 101.896 141.748C102.504 142.11 102.974 142.622 103.304 143.284C103.635 143.945 103.8 144.729 103.8 145.635C103.8 146.531 103.635 147.316 103.304 147.988C102.974 148.66 102.504 149.177 101.896 149.54C101.288 149.902 100.579 150.083 99.7683 150.083ZM99.7683 148.612C100.494 148.612 101.054 148.35 101.448 147.828C101.843 147.294 102.04 146.563 102.04 145.635C102.04 144.707 101.843 143.982 101.448 143.46C101.054 142.926 100.494 142.66 99.7683 142.66C99.0537 142.66 98.4937 142.926 98.0883 143.46C97.6937 143.982 97.4963 144.707 97.4963 145.635C97.4963 146.563 97.6937 147.294 98.0883 147.828C98.4937 148.35 99.0537 148.612 99.7683 148.612Z" fill="#ADADAD"/>
<path d="M89.6713 150.148C88.6473 150.148 87.746 149.913 86.9673 149.444C86.1886 148.964 85.5806 148.281 85.1433 147.396C84.706 146.51 84.4873 145.454 84.4873 144.228C84.4873 143.012 84.7006 141.961 85.1273 141.076C85.5646 140.18 86.1726 139.492 86.9513 139.012C87.73 138.521 88.642 138.276 89.6873 138.276C91.0953 138.276 92.1886 138.628 92.9673 139.332C93.746 140.036 94.2526 141.012 94.4873 142.26L92.6793 142.356C92.53 141.577 92.21 140.969 91.7193 140.532C91.2286 140.084 90.5513 139.86 89.6873 139.86C88.994 139.86 88.3913 140.036 87.8793 140.388C87.378 140.74 86.9833 141.241 86.6953 141.892C86.418 142.542 86.2793 143.321 86.2793 144.228C86.2793 145.134 86.418 145.913 86.6953 146.564C86.9833 147.214 87.3833 147.71 87.8953 148.052C88.4073 148.393 88.9993 148.564 89.6713 148.564C90.5886 148.564 91.298 148.324 91.7993 147.844C92.3113 147.353 92.6313 146.681 92.7593 145.828L94.5673 145.924C94.4286 146.788 94.1513 147.534 93.7353 148.164C93.3193 148.793 92.77 149.284 92.0873 149.636C91.4046 149.977 90.5993 150.148 89.6713 150.148Z" fill="#ADADAD"/>
<path d="M132.319 278.542C131.619 278.542 131.012 278.383 130.499 278.066C129.995 277.748 129.603 277.3 129.323 276.722C129.052 276.134 128.917 275.448 128.917 274.664C128.917 273.88 129.052 273.198 129.323 272.62C129.603 272.041 129.99 271.593 130.485 271.276C130.989 270.949 131.581 270.786 132.263 270.786C132.907 270.786 133.476 270.94 133.971 271.248C134.465 271.546 134.848 271.985 135.119 272.564C135.399 273.142 135.539 273.847 135.539 274.678V275.028H130.149C130.195 275.821 130.405 276.418 130.779 276.82C131.161 277.221 131.675 277.422 132.319 277.422C132.804 277.422 133.201 277.31 133.509 277.086C133.826 276.852 134.045 276.549 134.167 276.176L135.427 276.274C135.231 276.936 134.857 277.482 134.307 277.912C133.765 278.332 133.103 278.542 132.319 278.542ZM130.149 273.992H134.251C134.195 273.273 133.985 272.746 133.621 272.41C133.266 272.074 132.813 271.906 132.263 271.906C131.693 271.906 131.222 272.083 130.849 272.438C130.485 272.783 130.251 273.301 130.149 273.992Z" fill="#ADADAD"/>
<path d="M117.307 278.374V270.954H118.385L118.427 272.83L118.259 272.774C118.343 272.363 118.488 272.013 118.693 271.724C118.908 271.425 119.169 271.196 119.477 271.038C119.785 270.87 120.126 270.786 120.499 270.786C121.143 270.786 121.666 270.963 122.067 271.318C122.478 271.672 122.734 272.167 122.837 272.802L122.613 272.788C122.688 272.358 122.823 271.999 123.019 271.71C123.224 271.411 123.486 271.182 123.803 271.024C124.12 270.865 124.484 270.786 124.895 270.786C125.427 270.786 125.875 270.898 126.239 271.122C126.603 271.336 126.878 271.654 127.065 272.074C127.252 272.494 127.345 273.002 127.345 273.6V278.374H126.169V273.852C126.169 273.18 126.038 272.676 125.777 272.34C125.516 271.994 125.128 271.822 124.615 271.822C124.27 271.822 123.966 271.906 123.705 272.074C123.453 272.242 123.257 272.484 123.117 272.802C122.977 273.11 122.907 273.488 122.907 273.936V278.374H121.731V273.936C121.731 273.273 121.614 272.755 121.381 272.382C121.148 272.008 120.756 271.822 120.205 271.822C119.86 271.822 119.556 271.906 119.295 272.074C119.043 272.242 118.842 272.484 118.693 272.802C118.553 273.119 118.483 273.497 118.483 273.936V278.374H117.307Z" fill="#ADADAD"/>
<path d="M113.752 278.373V270.953H114.928V278.373H113.752ZM113.724 269.791V268.419H114.956V269.791H113.724Z" fill="#ADADAD"/>
<path d="M111.068 278.374C110.396 278.374 109.897 278.22 109.57 277.912C109.253 277.604 109.094 277.123 109.094 276.47V269.218H110.27V276.442C110.27 276.778 110.345 277.011 110.494 277.142C110.643 277.272 110.872 277.338 111.18 277.338H112.244V278.374H111.068ZM108.002 271.99V270.954H112.244V271.99H108.002Z" fill="#ADADAD"/>
<path d="M106.499 278.374C106.07 278.374 105.72 278.262 105.449 278.038C105.179 277.814 105.043 277.459 105.043 276.974V268.434H106.219V276.876C106.219 277.025 106.257 277.142 106.331 277.226C106.415 277.3 106.532 277.338 106.681 277.338H107.325V278.374H106.499Z" fill="#ADADAD"/>
<path d="M99.4713 278.542C98.706 278.542 98.0947 278.364 97.6373 278.01C97.1893 277.655 96.9653 277.16 96.9653 276.526C96.9653 275.891 97.152 275.392 97.5253 275.028C97.8987 274.664 98.4913 274.407 99.3033 274.258L101.935 273.768C101.935 273.142 101.786 272.676 101.487 272.368C101.198 272.06 100.759 271.906 100.171 271.906C99.658 271.906 99.252 272.022 98.9533 272.256C98.6547 272.48 98.4493 272.806 98.3373 273.236L97.0913 273.138C97.2313 272.438 97.5673 271.873 98.0993 271.444C98.6407 271.005 99.3313 270.786 100.171 270.786C101.123 270.786 101.851 271.056 102.355 271.598C102.859 272.13 103.111 272.867 103.111 273.81V276.876C103.111 277.044 103.139 277.165 103.195 277.24C103.261 277.305 103.363 277.338 103.503 277.338H103.797V278.374C103.76 278.383 103.699 278.388 103.615 278.388C103.531 278.397 103.443 278.402 103.349 278.402C103.013 278.402 102.738 278.35 102.523 278.248C102.318 278.136 102.169 277.968 102.075 277.744C101.982 277.51 101.935 277.207 101.935 276.834L102.075 276.862C102.01 277.179 101.851 277.468 101.599 277.73C101.347 277.982 101.035 278.182 100.661 278.332C100.288 278.472 99.8913 278.542 99.4713 278.542ZM99.5833 277.506C100.078 277.506 100.498 277.412 100.843 277.226C101.198 277.03 101.469 276.768 101.655 276.442C101.842 276.106 101.935 275.732 101.935 275.322V274.79L99.5273 275.238C99.0233 275.331 98.6733 275.476 98.4773 275.672C98.2907 275.858 98.1973 276.106 98.1973 276.414C98.1973 276.759 98.3187 277.03 98.5613 277.226C98.8133 277.412 99.154 277.506 99.5833 277.506Z" fill="#ADADAD"/>
<path d="M92.465 278.542C91.765 278.542 91.1583 278.383 90.645 278.066C90.141 277.748 89.749 277.3 89.469 276.722C89.1983 276.134 89.063 275.448 89.063 274.664C89.063 273.88 89.1983 273.198 89.469 272.62C89.749 272.041 90.1363 271.593 90.631 271.276C91.135 270.949 91.7277 270.786 92.409 270.786C93.053 270.786 93.6223 270.94 94.117 271.248C94.6117 271.546 94.9943 271.985 95.265 272.564C95.545 273.142 95.685 273.847 95.685 274.678V275.028H90.295C90.3417 275.821 90.5517 276.418 90.925 276.82C91.3077 277.221 91.821 277.422 92.465 277.422C92.9503 277.422 93.347 277.31 93.655 277.086C93.9723 276.852 94.1917 276.549 94.313 276.176L95.573 276.274C95.377 276.936 95.0037 277.482 94.453 277.912C93.9117 278.332 93.249 278.542 92.465 278.542ZM90.295 273.992H94.397C94.341 273.273 94.131 272.746 93.767 272.41C93.4123 272.074 92.9597 271.906 92.409 271.906C91.8397 271.906 91.3683 272.083 90.995 272.438C90.631 272.783 90.3977 273.301 90.295 273.992Z" fill="#ADADAD"/>
<path d="M80.4927 278.374V268.434H84.2587C84.9587 268.434 85.5607 268.555 86.0647 268.798C86.5687 269.04 86.956 269.39 87.2267 269.848C87.5067 270.296 87.6467 270.828 87.6467 271.444C87.6467 271.892 87.5393 272.293 87.3247 272.648C87.1193 272.993 86.8533 273.268 86.5267 273.474C86.2 273.679 85.8593 273.791 85.5047 273.81L85.4207 273.684C86.0273 273.684 86.5033 273.824 86.8487 274.104C87.2033 274.384 87.4087 274.832 87.4647 275.448L87.7447 278.374H86.5267L86.2747 275.574C86.2373 275.163 86.088 274.86 85.8267 274.664C85.5747 274.468 85.1593 274.37 84.5807 274.37H81.6967V278.374H80.4927ZM81.6967 273.194H84.4127C85.0193 273.194 85.5 273.04 85.8547 272.732C86.2093 272.424 86.3867 271.985 86.3867 271.416C86.3867 270.837 86.2047 270.394 85.8407 270.086C85.4767 269.768 84.9493 269.61 84.2587 269.61H81.6967V273.194Z" fill="#ADADAD"/>
<path d="M134.357 219.687V214.951H122.901V212.007L133.941 196.967H137.813V211.815H140.597V214.951H137.813V219.687H134.357ZM126.837 211.815H134.357V201.767L126.837 211.815Z" fill="white"/>
<path d="M112.021 220.199C110.293 220.199 108.768 219.943 107.445 219.431C106.122 218.919 105.088 218.162 104.341 217.159C103.616 216.156 103.253 214.93 103.253 213.479C103.253 211.815 103.754 210.439 104.757 209.351C105.76 208.263 107.104 207.538 108.789 207.175L108.853 207.815C107.488 207.495 106.389 206.908 105.557 206.055C104.746 205.202 104.341 204.082 104.341 202.695C104.341 201.479 104.65 200.402 105.269 199.463C105.888 198.524 106.762 197.788 107.893 197.255C109.045 196.722 110.421 196.455 112.021 196.455C113.6 196.455 114.965 196.722 116.117 197.255C117.269 197.788 118.144 198.524 118.741 199.463C119.36 200.402 119.669 201.479 119.669 202.695C119.669 204.082 119.264 205.202 118.453 206.055C117.642 206.887 116.544 207.473 115.157 207.815L115.221 207.175C116.928 207.538 118.282 208.263 119.285 209.351C120.288 210.439 120.789 211.815 120.789 213.479C120.789 214.93 120.416 216.156 119.669 217.159C118.944 218.162 117.92 218.919 116.597 219.431C115.274 219.943 113.749 220.199 112.021 220.199ZM112.021 217.031C113.6 217.031 114.848 216.711 115.765 216.071C116.704 215.409 117.173 214.428 117.173 213.127C117.173 211.889 116.746 210.898 115.893 210.151C115.061 209.404 113.77 209.031 112.021 209.031C110.272 209.031 108.97 209.404 108.117 210.151C107.264 210.898 106.837 211.889 106.837 213.127C106.837 214.428 107.306 215.409 108.245 216.071C109.184 216.711 110.442 217.031 112.021 217.031ZM112.021 206.183C113.322 206.183 114.325 205.916 115.029 205.383C115.754 204.828 116.117 203.986 116.117 202.855C116.117 201.874 115.765 201.084 115.061 200.487C114.378 199.89 113.365 199.591 112.021 199.591C110.677 199.591 109.653 199.89 108.949 200.487C108.245 201.084 107.893 201.874 107.893 202.855C107.893 203.986 108.256 204.828 108.981 205.383C109.706 205.916 110.72 206.183 112.021 206.183Z" fill="white"/>
<path d="M83.7368 219.687C83.7368 217.98 83.9928 216.455 84.5048 215.111C85.0168 213.767 85.8915 212.519 87.1288 211.367C88.3661 210.215 90.0728 209.063 92.2488 207.911C93.2942 207.378 94.1261 206.887 94.7448 206.439C95.3848 205.97 95.8435 205.49 96.1208 204.999C96.3981 204.508 96.5368 203.911 96.5368 203.207C96.5368 202.481 96.3768 201.863 96.0568 201.351C95.7581 200.817 95.3101 200.401 94.7128 200.103C94.1155 199.783 93.3581 199.623 92.4408 199.623C90.9901 199.623 89.8381 200.017 88.9848 200.807C88.1528 201.575 87.6302 202.684 87.4168 204.135L83.8328 203.911C84.0888 201.628 84.9528 199.815 86.4248 198.471C87.9181 197.127 89.9235 196.455 92.4408 196.455C94.0621 196.455 95.4382 196.743 96.5688 197.319C97.7208 197.873 98.5955 198.652 99.1928 199.655C99.8115 200.657 100.121 201.82 100.121 203.143C100.121 204.295 99.9288 205.287 99.5448 206.119C99.1608 206.951 98.5208 207.73 97.6248 208.455C96.7288 209.159 95.5128 209.916 93.9768 210.727C92.0141 211.772 90.5315 212.807 89.5288 213.831C88.5261 214.834 87.9928 215.73 87.9288 216.519H100.121V219.687H83.7368Z" fill="white"/>
<path d="M76.3804 219.687V215.655H80.5084V219.687H76.3804Z" fill="white"/>
<path d="M68.0842 219.687V203.495H63.2842V200.711H65.2362C66.0895 200.711 66.7828 200.604 67.3162 200.391C67.8495 200.156 68.2335 199.772 68.4682 199.239C68.7028 198.684 68.8202 197.927 68.8202 196.967H71.5402V219.687H68.0842Z" fill="white"/>
<path d="M60.8916 270.096C60.8916 268.832 61.9165 267.807 63.1808 267.807H72.3374C73.6017 267.807 74.6265 268.832 74.6265 270.096V279.253C74.6265 280.517 73.6017 281.542 72.3374 281.542H63.1808C61.9165 281.542 60.8916 280.517 60.8916 279.253V270.096Z" fill="#059669"/>
<path d="M491.253 128.363C492.726 128.363 493.92 129.557 493.92 131.03C493.92 132.503 492.726 133.697 491.253 133.697C490.392 133.697 489.628 133.287 489.141 132.653L416.532 169.234C406.112 176.09 388.93 185.939 371.191 193.236C362.315 196.887 353.286 199.905 344.89 201.586C336.5 203.265 328.7 203.62 322.299 201.905C316.239 200.281 308.503 203.235 299.852 209.354C291.232 215.451 281.837 224.594 272.512 235.082C254.623 255.201 237.057 280.197 225.813 297.909C226.334 298.396 226.661 299.087 226.661 299.855C226.661 301.328 225.467 302.522 223.994 302.522C222.521 302.522 221.327 301.328 221.327 299.855C221.327 298.383 222.521 297.188 223.994 297.188C224.338 297.188 224.667 297.256 224.969 297.375C236.231 279.633 253.829 254.589 271.765 234.418C281.111 223.907 290.564 214.699 299.274 208.538C307.952 202.4 316.027 199.188 322.558 200.938C328.747 202.597 336.374 202.271 344.693 200.605C353.006 198.941 361.97 195.948 370.811 192.311C388.492 185.038 405.633 175.212 416.009 168.384L416.032 168.368L416.059 168.354L488.689 131.761C488.623 131.529 488.587 131.284 488.587 131.03C488.587 129.557 489.78 128.363 491.253 128.363Z" fill="#F97F27"/>
<path d="M481.253 86V87H48V86H481.253ZM490.253 77V-93C490.253 -97.9706 486.224 -102 481.253 -102H48C43.0294 -102 39 -97.9706 39 -93V77C39 81.9706 43.0294 86 48 86V87L47.4854 86.9873C42.3721 86.7281 38.2719 82.6279 38.0127 77.5146L38 77V-93C38 -98.3502 42.2017 -102.719 47.4854 -102.987L48 -103H481.253C486.776 -103 491.253 -98.5228 491.253 -93V77C491.253 82.5228 486.776 87 481.253 87V86C486.224 86 490.253 81.9706 490.253 77Z" fill="#181614"/>
<path d="M132.319 64.5416C131.619 64.5416 131.012 64.383 130.499 64.0656C129.995 63.7483 129.603 63.3003 129.323 62.7216C129.052 62.1336 128.917 61.4476 128.917 60.6636C128.917 59.8796 129.052 59.1983 129.323 58.6196C129.603 58.041 129.99 57.593 130.485 57.2756C130.989 56.949 131.581 56.7856 132.263 56.7856C132.907 56.7856 133.476 56.9396 133.971 57.2476C134.465 57.5463 134.848 57.985 135.119 58.5636C135.399 59.1423 135.539 59.847 135.539 60.6776V61.0276H130.149C130.195 61.821 130.405 62.4183 130.779 62.8196C131.161 63.221 131.675 63.4216 132.319 63.4216C132.804 63.4216 133.201 63.3096 133.509 63.0856C133.826 62.8523 134.045 62.549 134.167 62.1756L135.427 62.2736C135.231 62.9363 134.857 63.4823 134.307 63.9116C133.765 64.3316 133.103 64.5416 132.319 64.5416ZM130.149 59.9916H134.251C134.195 59.273 133.985 58.7456 133.621 58.4096C133.266 58.0736 132.813 57.9056 132.263 57.9056C131.693 57.9056 131.222 58.083 130.849 58.4376C130.485 58.783 130.251 59.301 130.149 59.9916Z" fill="#ADADAD"/>
<path d="M117.307 64.3736V56.9536H118.385L118.427 58.8296L118.259 58.7736C118.343 58.363 118.488 58.013 118.693 57.7236C118.908 57.425 119.169 57.1963 119.477 57.0376C119.785 56.8696 120.126 56.7856 120.499 56.7856C121.143 56.7856 121.666 56.963 122.067 57.3176C122.478 57.6723 122.734 58.167 122.837 58.8016L122.613 58.7876C122.688 58.3583 122.823 57.999 123.019 57.7096C123.224 57.411 123.486 57.1823 123.803 57.0236C124.12 56.865 124.484 56.7856 124.895 56.7856C125.427 56.7856 125.875 56.8976 126.239 57.1216C126.603 57.3363 126.878 57.6536 127.065 58.0736C127.252 58.4936 127.345 59.0023 127.345 59.5996V64.3736H126.169V59.8516C126.169 59.1796 126.038 58.6756 125.777 58.3396C125.516 57.9943 125.128 57.8216 124.615 57.8216C124.27 57.8216 123.966 57.9056 123.705 58.0736C123.453 58.2416 123.257 58.4843 123.117 58.8016C122.977 59.1096 122.907 59.4876 122.907 59.9356V64.3736H121.731V59.9356C121.731 59.273 121.614 58.755 121.381 58.3816C121.148 58.0083 120.756 57.8216 120.205 57.8216C119.86 57.8216 119.556 57.9056 119.295 58.0736C119.043 58.2416 118.842 58.4843 118.693 58.8016C118.553 59.119 118.483 59.497 118.483 59.9356V64.3736H117.307Z" fill="#ADADAD"/>
<path d="M113.752 64.3734V56.9534H114.928V64.3734H113.752ZM113.724 55.7914V54.4194H114.956V55.7914H113.724Z" fill="#ADADAD"/>
<path d="M111.068 64.3735C110.396 64.3735 109.897 64.2195 109.57 63.9115C109.253 63.6035 109.094 63.1229 109.094 62.4695V55.2175H110.27V62.4415C110.27 62.7775 110.345 63.0109 110.494 63.1415C110.643 63.2722 110.872 63.3375 111.18 63.3375H112.244V64.3735H111.068ZM108.002 57.9895V56.9535H112.244V57.9895H108.002Z" fill="#ADADAD"/>
<path d="M106.499 64.3736C106.07 64.3736 105.72 64.2616 105.449 64.0376C105.179 63.8136 105.043 63.4589 105.043 62.9736V54.4336H106.219V62.8756C106.219 63.0249 106.257 63.1416 106.331 63.2256C106.415 63.3003 106.532 63.3376 106.681 63.3376H107.325V64.3736H106.499Z" fill="#ADADAD"/>
<path d="M99.4713 64.5416C98.706 64.5416 98.0947 64.3643 97.6373 64.0096C97.1893 63.655 96.9653 63.1603 96.9653 62.5256C96.9653 61.891 97.152 61.3916 97.5253 61.0276C97.8987 60.6636 98.4913 60.407 99.3033 60.2576L101.935 59.7676C101.935 59.1423 101.786 58.6756 101.487 58.3676C101.198 58.0596 100.759 57.9056 100.171 57.9056C99.658 57.9056 99.252 58.0223 98.9533 58.2556C98.6547 58.4796 98.4493 58.8063 98.3373 59.2356L97.0913 59.1376C97.2313 58.4376 97.5673 57.873 98.0993 57.4436C98.6407 57.005 99.3313 56.7856 100.171 56.7856C101.123 56.7856 101.851 57.0563 102.355 57.5976C102.859 58.1296 103.111 58.867 103.111 59.8096V62.8756C103.111 63.0436 103.139 63.165 103.195 63.2396C103.261 63.305 103.363 63.3376 103.503 63.3376H103.797V64.3736C103.76 64.383 103.699 64.3876 103.615 64.3876C103.531 64.397 103.443 64.4016 103.349 64.4016C103.013 64.4016 102.738 64.3503 102.523 64.2476C102.318 64.1356 102.169 63.9676 102.075 63.7436C101.982 63.5103 101.935 63.207 101.935 62.8336L102.075 62.8616C102.01 63.179 101.851 63.4683 101.599 63.7296C101.347 63.9816 101.035 64.1823 100.661 64.3316C100.288 64.4716 99.8913 64.5416 99.4713 64.5416ZM99.5833 63.5056C100.078 63.5056 100.498 63.4123 100.843 63.2256C101.198 63.0296 101.469 62.7683 101.655 62.4416C101.842 62.1056 101.935 61.7323 101.935 61.3216V60.7896L99.5273 61.2376C99.0233 61.331 98.6733 61.4756 98.4773 61.6716C98.2907 61.8583 98.1973 62.1056 98.1973 62.4136C98.1973 62.759 98.3187 63.0296 98.5613 63.2256C98.8133 63.4123 99.154 63.5056 99.5833 63.5056Z" fill="#ADADAD"/>
<path d="M92.465 64.5416C91.765 64.5416 91.1583 64.383 90.645 64.0656C90.141 63.7483 89.749 63.3003 89.469 62.7216C89.1983 62.1336 89.063 61.4476 89.063 60.6636C89.063 59.8796 89.1983 59.1983 89.469 58.6196C89.749 58.041 90.1363 57.593 90.631 57.2756C91.135 56.949 91.7277 56.7856 92.409 56.7856C93.053 56.7856 93.6223 56.9396 94.117 57.2476C94.6117 57.5463 94.9943 57.985 95.265 58.5636C95.545 59.1423 95.685 59.847 95.685 60.6776V61.0276H90.295C90.3417 61.821 90.5517 62.4183 90.925 62.8196C91.3077 63.221 91.821 63.4216 92.465 63.4216C92.9503 63.4216 93.347 63.3096 93.655 63.0856C93.9723 62.8523 94.1917 62.549 94.313 62.1756L95.573 62.2736C95.377 62.9363 95.0037 63.4823 94.453 63.9116C93.9117 64.3316 93.249 64.5416 92.465 64.5416ZM90.295 59.9916H94.397C94.341 59.273 94.131 58.7456 93.767 58.4096C93.4123 58.0736 92.9597 57.9056 92.409 57.9056C91.8397 57.9056 91.3683 58.083 90.995 58.4376C90.631 58.783 90.3977 59.301 90.295 59.9916Z" fill="#ADADAD"/>
<path d="M80.4927 64.3736V54.4336H84.2587C84.9587 54.4336 85.5607 54.5549 86.0647 54.7976C86.5687 55.0403 86.956 55.3903 87.2267 55.8476C87.5067 56.2956 87.6467 56.8276 87.6467 57.4436C87.6467 57.8916 87.5393 58.2929 87.3247 58.6476C87.1193 58.9929 86.8533 59.2683 86.5267 59.4736C86.2 59.6789 85.8593 59.7909 85.5047 59.8096L85.4207 59.6836C86.0273 59.6836 86.5033 59.8236 86.8487 60.1036C87.2033 60.3836 87.4087 60.8316 87.4647 61.4476L87.7447 64.3736H86.5267L86.2747 61.5736C86.2373 61.1629 86.088 60.8596 85.8267 60.6636C85.5747 60.4676 85.1593 60.3696 84.5807 60.3696H81.6967V64.3736H80.4927ZM81.6967 59.1936H84.4127C85.0193 59.1936 85.5 59.0396 85.8547 58.7316C86.2093 58.4236 86.3867 57.9849 86.3867 57.4156C86.3867 56.8369 86.2047 56.3936 85.8407 56.0856C85.4767 55.7683 84.9493 55.6096 84.2587 55.6096H81.6967V59.1936Z" fill="#ADADAD"/>
<path d="M60.8916 56.0963C60.8916 54.832 61.9165 53.8071 63.1808 53.8071H72.3374C73.6017 53.8071 74.6265 54.832 74.6265 56.0963V65.2529C74.6265 66.5172 73.6017 67.5421 72.3374 67.5421H63.1808C61.9165 67.5421 60.8916 66.5172 60.8916 65.2529V56.0963Z" fill="#059669"/>
<path d="M490.658 -0.365233C490.86 -0.553646 491.177 -0.543278 491.365 -0.341795C491.554 -0.140114 491.543 0.176689 491.342 0.365236L453.342 35.8652L453.308 35.8965L453.269 35.9219C449.921 38.0531 445.037 39.5325 439.057 40.5234C433.066 41.516 425.928 42.0256 418.036 42.1865C402.253 42.5083 383.407 41.438 364.609 40.0332C345.797 38.6273 327.053 36.8879 311.412 35.8643C303.596 35.3527 296.568 35.0214 290.714 35C284.849 34.9785 280.198 35.2692 277.113 35.9873C264.927 38.8243 257.342 46.7904 249.985 56.4082C243.095 65.4161 236.394 75.896 226.323 84.6934C226.541 85.0797 226.667 85.5249 226.667 86C226.667 87.4728 225.473 88.667 224 88.667C222.527 88.667 221.333 87.4728 221.333 86C221.333 84.5272 222.527 83.333 224 83.333C224.636 83.333 225.219 83.557 225.678 83.9287C235.633 75.2304 242.24 64.8869 249.191 55.7998C256.578 46.1436 264.344 37.9326 276.887 35.0127C280.092 34.2664 284.843 33.9785 290.718 34C296.603 34.0215 303.653 34.3542 311.477 34.8662C327.116 35.8898 345.905 37.6327 364.685 39.0361C383.478 40.4406 402.283 41.5073 418.016 41.1865C425.882 41.0261 432.968 40.5189 438.894 39.5371C444.805 38.5576 449.516 37.1121 452.693 35.1016L490.658 -0.365233Z" fill="#F97F27"/>
<g clip-path="url(#clip1_926_4105)">
<path d="M66.3624 139.374C66.6098 139.252 66.9098 139.353 67.0323 139.601C67.1547 139.848 67.0533 140.148 66.8058 140.271C66.0072 140.666 65.3386 141.282 64.88 142.046C64.4215 142.81 64.192 143.69 64.2189 144.58C64.2458 145.471 64.5286 146.335 65.0323 147.069C65.5361 147.804 66.2399 148.379 67.0607 148.725C67.8817 149.071 68.7853 149.174 69.6632 149.022C70.541 148.869 71.3566 148.468 72.0128 147.865C72.6691 147.263 73.1388 146.484 73.3654 145.622C73.5919 144.761 73.5661 143.852 73.2911 143.004C73.2061 142.741 73.3498 142.459 73.6124 142.374C73.875 142.289 74.157 142.433 74.2423 142.695C74.5764 143.725 74.6074 144.829 74.3322 145.876C74.0569 146.923 73.4869 147.869 72.6896 148.602C71.8922 149.334 70.9007 149.822 69.8341 150.007C68.7676 150.192 67.6704 150.067 66.673 149.647C65.6754 149.226 64.8193 148.528 64.2072 147.635C63.595 146.742 63.2525 145.692 63.2198 144.61C63.1873 143.528 63.4656 142.459 64.0226 141.531C64.5798 140.603 65.3921 139.854 66.3624 139.374ZM66.1798 142.421C66.3457 142.2 66.6592 142.156 66.88 142.321C67.1006 142.487 67.1444 142.801 66.9786 143.022C66.7421 143.337 66.5888 143.706 66.5314 144.096C66.474 144.486 66.5148 144.883 66.6505 145.253C66.7862 145.623 67.012 145.953 67.3077 146.213C67.6037 146.473 67.9606 146.656 68.3448 146.743C68.7289 146.83 69.1289 146.82 69.5079 146.713C69.8871 146.606 70.2337 146.406 70.5157 146.131C70.7979 145.856 71.0067 145.514 71.1232 145.138C71.2396 144.762 71.2602 144.362 71.1827 143.976C71.1284 143.705 71.3036 143.441 71.5743 143.387C71.8451 143.333 72.1089 143.509 72.1632 143.779C72.2734 144.329 72.244 144.898 72.0782 145.434C71.9125 145.969 71.6155 146.455 71.214 146.847C70.8125 147.238 70.3191 147.523 69.7794 147.675C69.2396 147.827 68.6701 147.842 68.1232 147.718C67.5763 147.594 67.0688 147.335 66.6476 146.965C66.2263 146.595 65.9043 146.124 65.7111 145.598C65.518 145.071 65.4595 144.505 65.5411 143.95C65.6229 143.395 65.8429 142.869 66.1798 142.421ZM68.3673 144.44V138.145C68.3673 137.971 68.4572 137.81 68.6046 137.719C68.752 137.628 68.9361 137.62 69.0909 137.697L73.6691 139.986C73.8384 140.071 73.9454 140.244 73.9454 140.434C73.9454 140.623 73.8385 140.796 73.6691 140.881L69.3673 143.031V144.44C69.3673 144.716 69.1434 144.94 68.8673 144.94C68.5912 144.94 68.3673 144.716 68.3673 144.44ZM69.3673 141.913L72.3273 140.434L69.3673 138.953V141.913Z" fill="#ADADAD"/>
</g>
</g>
<defs>
<filter id="filter0_d_926_4105" x="-4" y="21" width="538" height="9" filterUnits="userSpaceOnUse" color-interpolation-filters="sRGB">
<feFlood flood-opacity="0" result="BackgroundImageFix"/>
<feColorMatrix in="SourceAlpha" type="matrix" values="0 0 0 0 0 0 0 0 0 0 0 0 0 0 0 0 0 0 127 0" result="hardAlpha"/>
<feOffset dy="4"/>
<feGaussianBlur stdDeviation="2"/>
<feComposite in2="hardAlpha" operator="out"/>
<feColorMatrix type="matrix" values="0 0 0 0 0 0 0 0 0 0 0 0 0 0 0 0 0 0 0.25 0"/>
<feBlend mode="normal" in2="BackgroundImageFix" result="effect1_dropShadow_926_4105"/>
<feBlend mode="normal" in="SourceGraphic" in2="effect1_dropShadow_926_4105" result="shape"/>
</filter>
<filter id="filter1_d_926_4105" x="18" y="0" width="9" height="348" filterUnits="userSpaceOnUse" color-interpolation-filters="sRGB">
<feFlood flood-opacity="0" result="BackgroundImageFix"/>
<feColorMatrix in="SourceAlpha" type="matrix" values="0 0 0 0 0 0 0 0 0 0 0 0 0 0 0 0 0 0 127 0" result="hardAlpha"/>
<feOffset dy="4"/>
<feGaussianBlur stdDeviation="2"/>
<feComposite in2="hardAlpha" operator="out"/>
<feColorMatrix type="matrix" values="0 0 0 0 0 0 0 0 0 0 0 0 0 0 0 0 0 0 0.25 0"/>
<feBlend mode="normal" in2="BackgroundImageFix" result="effect1_dropShadow_926_4105"/>
<feBlend mode="normal" in="SourceGraphic" in2="effect1_dropShadow_926_4105" result="shape"/>
</filter>
<filter id="filter2_d_926_4105" x="504" y="0" width="9" height="348" filterUnits="userSpaceOnUse" color-interpolation-filters="sRGB">
<feFlood flood-opacity="0" result="BackgroundImageFix"/>
<feColorMatrix in="SourceAlpha" type="matrix" values="0 0 0 0 0 0 0 0 0 0 0 0 0 0 0 0 0 0 127 0" result="hardAlpha"/>
<feOffset dy="4"/>
<feGaussianBlur stdDeviation="2"/>
<feComposite in2="hardAlpha" operator="out"/>
<feColorMatrix type="matrix" values="0 0 0 0 0 0 0 0 0 0 0 0 0 0 0 0 0 0 0.25 0"/>
<feBlend mode="normal" in2="BackgroundImageFix" result="effect1_dropShadow_926_4105"/>
<feBlend mode="normal" in="SourceGraphic" in2="effect1_dropShadow_926_4105" result="shape"/>
</filter>
<filter id="filter3_d_926_4105" x="-4" y="317" width="538" height="9" filterUnits="userSpaceOnUse" color-interpolation-filters="sRGB">
<feFlood flood-opacity="0" result="BackgroundImageFix"/>
<feColorMatrix in="SourceAlpha" type="matrix" values="0 0 0 0 0 0 0 0 0 0 0 0 0 0 0 0 0 0 127 0" result="hardAlpha"/>
<feOffset dy="4"/>
<feGaussianBlur stdDeviation="2"/>
<feComposite in2="hardAlpha" operator="out"/>
<feColorMatrix type="matrix" values="0 0 0 0 0 0 0 0 0 0 0 0 0 0 0 0 0 0 0.25 0"/>
<feBlend mode="normal" in2="BackgroundImageFix" result="effect1_dropShadow_926_4105"/>
<feBlend mode="normal" in="SourceGraphic" in2="effect1_dropShadow_926_4105" result="shape"/>
</filter>
<filter id="filter4_d_926_4105" x="-4" y="169" width="30" height="9" filterUnits="userSpaceOnUse" color-interpolation-filters="sRGB">
<feFlood flood-opacity="0" result="BackgroundImageFix"/>
<feColorMatrix in="SourceAlpha" type="matrix" values="0 0 0 0 0 0 0 0 0 0 0 0 0 0 0 0 0 0 127 0" result="hardAlpha"/>
<feOffset dy="4"/>
<feGaussianBlur stdDeviation="2"/>
<feComposite in2="hardAlpha" operator="out"/>
<feColorMatrix type="matrix" values="0 0 0 0 0 0 0 0 0 0 0 0 0 0 0 0 0 0 0.25 0"/>
<feBlend mode="normal" in2="BackgroundImageFix" result="effect1_dropShadow_926_4105"/>
<feBlend mode="normal" in="SourceGraphic" in2="effect1_dropShadow_926_4105" result="shape"/>
</filter>
<filter id="filter5_d_926_4105" x="504" y="169" width="30" height="9" filterUnits="userSpaceOnUse" color-interpolation-filters="sRGB">
<feFlood flood-opacity="0" result="BackgroundImageFix"/>
<feColorMatrix in="SourceAlpha" type="matrix" values="0 0 0 0 0 0 0 0 0 0 0 0 0 0 0 0 0 0 127 0" result="hardAlpha"/>
<feOffset dy="4"/>
<feGaussianBlur stdDeviation="2"/>
<feComposite in2="hardAlpha" operator="out"/>
<feColorMatrix type="matrix" values="0 0 0 0 0 0 0 0 0 0 0 0 0 0 0 0 0 0 0.25 0"/>
<feBlend mode="normal" in2="BackgroundImageFix" result="effect1_dropShadow_926_4105"/>
<feBlend mode="normal" in="SourceGraphic" in2="effect1_dropShadow_926_4105" result="shape"/>
</filter>
<linearGradient id="paint0_linear_926_4105" x1="373.362" y1="194.982" x2="419.717" y2="306.006" gradientUnits="userSpaceOnUse">
<stop stop-color="#F97F27" stop-opacity="0.71"/>
<stop offset="0.25" stop-color="#F97F27" stop-opacity="0.48"/>
<stop offset="0.5" stop-color="#F97F27" stop-opacity="0.29"/>
<stop offset="1" stop-color="#F97F27" stop-opacity="0"/>
</linearGradient>
<linearGradient id="paint1_linear_926_4105" x1="373.223" y1="32.0678" x2="386.749" y2="95.6033" gradientUnits="userSpaceOnUse">
<stop stop-color="#F97F27" stop-opacity="0.71"/>
<stop offset="0.25" stop-color="#F97F27" stop-opacity="0.5"/>
<stop offset="0.5" stop-color="#F97F27" stop-opacity="0.29"/>
<stop offset="1" stop-color="#F97F27" stop-opacity="0.06"/>
</linearGradient>
<clipPath id="clip0_926_4105">
<rect width="530" height="340" fill="white"/>
</clipPath>
<clipPath id="clip1_926_4105">
<rect width="13.7349" height="13.7349" fill="white" transform="translate(62 137)"/>
</clipPath>
</defs>
</svg>
