<svg width="530" height="340" viewBox="0 0 530 340" fill="none" xmlns="http://www.w3.org/2000/svg">
<g clip-path="url(#clip0_921_1228)">
<path d="M481.981 86.1869V87.2897H48.5794V86.1869H481.981ZM486.393 81.7757V57.514C486.393 55.154 484.539 53.2264 482.209 53.1082L481.981 53.1028H48.5794C46.1432 53.1028 44.1682 55.0778 44.1682 57.514V81.7757C44.1682 84.2119 46.1432 86.1869 48.5794 86.1869V87.2897L48.2962 87.2822C45.3825 87.1347 43.0654 84.726 43.0654 81.7757V57.514C43.0654 54.4687 45.5341 52 48.5794 52H481.981C485.027 52 487.495 54.4687 487.495 57.514V81.7757L487.488 82.0589C487.345 84.8788 485.084 87.1395 482.265 87.2822L481.981 87.2897V86.1869C484.418 86.1869 486.393 84.2119 486.393 81.7757Z" fill="#181614"/>
<path d="M481.981 286.897V288H48.5794V286.897H481.981ZM486.393 282.486V258.224C486.393 255.864 484.539 253.937 482.209 253.819L481.981 253.813H48.5794C46.1432 253.813 44.1682 255.788 44.1682 258.224V282.486C44.1682 284.922 46.1432 286.897 48.5794 286.897V288L48.2962 287.993C45.3825 287.845 43.0654 285.436 43.0654 282.486V258.224C43.0654 255.179 45.5341 252.71 48.5794 252.71H481.981C485.027 252.71 487.495 255.179 487.495 258.224V282.486L487.488 282.769C487.345 285.589 485.084 287.85 482.265 287.993L481.981 288V286.897C484.418 286.897 486.393 284.922 486.393 282.486Z" fill="#181614"/>
<path d="M481.981 222.935V224.038H48.5794V222.935H481.981ZM486.393 218.523V103.832C486.393 101.472 484.539 99.5443 482.209 99.4261L481.981 99.4207H48.5794C46.1432 99.4207 44.1682 101.396 44.1682 103.832V218.523C44.1682 220.96 46.1432 222.935 48.5794 222.935V224.038L48.2962 224.03C45.4764 223.887 43.2157 221.627 43.073 218.807L43.0654 218.523V103.832C43.0654 100.787 45.5341 98.3179 48.5794 98.3179H481.981C485.027 98.3179 487.495 100.787 487.495 103.832V218.523L487.488 218.807C487.345 221.627 485.084 223.887 482.265 224.03L481.981 224.038V222.935C484.418 222.935 486.393 220.96 486.393 218.523Z" fill="#181614"/>
<path d="M463.041 71.7182C462.81 71.9161 462.461 71.889 462.263 71.6579C462.065 71.4266 462.092 71.0784 462.324 70.8803L466.183 67.5719C466.39 67.3952 466.694 67.3952 466.901 67.5719L470.76 70.8803C470.992 71.0784 471.019 71.4266 470.821 71.6579C470.623 71.889 470.274 71.9161 470.043 71.7182L466.542 68.7178L463.041 71.7182Z" fill="white"/>
<path d="M150.08 75.3444C149.236 75.3444 148.561 75.1488 148.057 74.7577C147.563 74.3665 147.316 73.821 147.316 73.1211C147.316 72.4212 147.522 71.8705 147.933 71.4691C148.345 71.0677 148.999 70.7846 149.894 70.62L152.797 70.0796C152.797 69.39 152.632 68.8753 152.303 68.5357C151.984 68.196 151.5 68.0262 150.852 68.0262C150.285 68.0262 149.838 68.1548 149.508 68.4121C149.179 68.6592 148.952 69.0194 148.829 69.4929L147.455 69.3848C147.609 68.6128 147.98 67.9901 148.567 67.5167C149.163 67.0329 149.925 66.791 150.852 66.791C151.901 66.791 152.704 67.0895 153.26 67.6865C153.816 68.2732 154.094 69.0863 154.094 70.1259V73.5071C154.094 73.6924 154.125 73.8262 154.186 73.9085C154.258 73.9806 154.372 74.0166 154.526 74.0166H154.85V75.1591C154.809 75.1694 154.742 75.1745 154.65 75.1745C154.557 75.1848 154.459 75.19 154.356 75.19C153.986 75.19 153.682 75.1334 153.445 75.0201C153.219 74.8966 153.054 74.7114 152.951 74.4643C152.848 74.207 152.797 73.8725 152.797 73.4608L152.951 73.4917C152.879 73.8416 152.704 74.1607 152.426 74.4489C152.148 74.7268 151.804 74.9481 151.392 75.1128C150.98 75.2672 150.543 75.3444 150.08 75.3444ZM150.203 74.2019C150.749 74.2019 151.212 74.0989 151.593 73.8931C151.984 73.6769 152.282 73.3887 152.488 73.0285C152.694 72.6579 152.797 72.2462 152.797 71.7933V71.2066L150.141 71.7007C149.585 71.8036 149.2 71.9632 148.983 72.1793C148.778 72.3852 148.675 72.6579 148.675 72.9976C148.675 73.3784 148.808 73.6769 149.076 73.8931C149.354 74.0989 149.73 74.2019 150.203 74.2019Z" fill="#ADADAD"/>
<path d="M144.253 75.1589V66.9761H145.549V75.1589H144.253ZM144.222 65.6947V64.1816H145.58V65.6947H144.222Z" fill="#ADADAD"/>
<path d="M138.275 75.3439C137.565 75.3439 136.948 75.1689 136.423 74.819C135.908 74.469 135.512 73.975 135.234 73.3368C134.956 72.6987 134.817 71.9421 134.817 71.0672C134.817 70.1924 134.956 69.4358 135.234 68.7977C135.512 68.1595 135.908 67.6655 136.423 67.3155C136.948 66.9655 137.565 66.7906 138.275 66.7906C138.821 66.7906 139.32 66.9089 139.773 67.1457C140.226 67.3721 140.565 67.6963 140.792 68.1183V64.1968H142.089V75.1586H140.915L140.869 73.9235C140.643 74.3661 140.298 74.7161 139.835 74.9734C139.371 75.2204 138.852 75.3439 138.275 75.3439ZM138.538 74.1088C139.022 74.1088 139.428 73.9853 139.757 73.7382C140.097 73.4912 140.354 73.1413 140.529 72.6884C140.704 72.2252 140.792 71.6848 140.792 71.0672C140.792 70.4291 140.704 69.8836 140.529 69.4307C140.354 68.9778 140.097 68.633 139.757 68.3963C139.428 68.1492 139.022 68.0257 138.538 68.0257C137.817 68.0257 137.241 68.2985 136.809 68.844C136.387 69.3792 136.176 70.1203 136.176 71.0672C136.176 72.0039 136.387 72.745 136.809 73.2905C137.241 73.836 137.817 74.1088 138.538 74.1088Z" fill="#ADADAD"/>
<path d="M130.065 75.3444C129.293 75.3444 128.624 75.1694 128.058 74.8194C127.502 74.4695 127.07 73.9754 126.761 73.3373C126.462 72.6888 126.313 71.9323 126.313 71.0677C126.313 70.2031 126.462 69.4517 126.761 68.8136C127.07 68.1754 127.497 67.6813 128.042 67.3314C128.598 66.9711 129.252 66.791 130.003 66.791C130.713 66.791 131.341 66.9608 131.887 67.3005C132.432 67.6299 132.854 68.1136 133.153 68.7518C133.461 69.39 133.616 70.1671 133.616 71.0831V71.4691H127.672C127.723 72.344 127.955 73.0027 128.366 73.4453C128.788 73.8879 129.355 74.1092 130.065 74.1092C130.6 74.1092 131.037 73.9857 131.377 73.7387C131.727 73.4814 131.969 73.1468 132.103 72.7351L133.492 72.8432C133.276 73.574 132.864 74.1761 132.257 74.6496C131.66 75.1128 130.929 75.3444 130.065 75.3444ZM127.672 70.3266H132.195C132.134 69.5341 131.902 68.9525 131.501 68.582C131.109 68.2114 130.61 68.0262 130.003 68.0262C129.375 68.0262 128.855 68.2217 128.444 68.6128C128.042 68.9937 127.785 69.5649 127.672 70.3266Z" fill="#ADADAD"/>
<path d="M113.665 75.1586V64.1968H115.518L119.022 73.7074L122.512 64.1968H124.364V75.1586H123.037V66.6671L119.902 75.1586H118.127L114.993 66.6671V75.1586H113.665Z" fill="#ADADAD"/>
<path d="M98.6072 75.1589L96.0752 66.9761H97.4956L99.4101 73.8002L101.355 66.9761H102.745L104.69 73.8002L106.62 66.9761H108.041L105.509 75.1589H103.872L102.05 68.9369L100.228 75.1589H98.6072Z" fill="#ADADAD"/>
<path d="M91.9041 75.3444C91.1321 75.3444 90.4631 75.1694 89.897 74.8194C89.3412 74.4695 88.9089 73.9754 88.6001 73.3373C88.3016 72.6888 88.1523 71.9323 88.1523 71.0677C88.1523 70.2031 88.3016 69.4517 88.6001 68.8136C88.9089 68.1754 89.336 67.6813 89.8815 67.3314C90.4374 66.9711 91.0909 66.791 91.8423 66.791C92.5525 66.791 93.1804 66.9608 93.7259 67.3005C94.2714 67.6299 94.6934 68.1136 94.9919 68.7518C95.3007 69.39 95.4551 70.1671 95.4551 71.0831V71.4691H89.511C89.5625 72.344 89.7941 73.0027 90.2058 73.4453C90.6278 73.8879 91.1939 74.1092 91.9041 74.1092C92.4393 74.1092 92.8768 73.9857 93.2164 73.7387C93.5664 73.4814 93.8083 73.1468 93.9421 72.7351L95.3316 72.8432C95.1154 73.574 94.7037 74.1761 94.0965 74.6496C93.4995 75.1128 92.7687 75.3444 91.9041 75.3444ZM89.511 70.3266H94.0347C93.9729 69.5341 93.7414 68.9525 93.3399 68.582C92.9488 68.2114 92.4496 68.0262 91.8423 68.0262C91.2145 68.0262 90.6947 68.2217 90.283 68.6128C89.8815 68.9937 89.6242 69.5649 89.511 70.3266Z" fill="#ADADAD"/>
<path d="M77.5698 75.1586V64.1968H79.4534L84.8726 73.8309V64.1968H86.2004V75.1586H84.2241L78.8976 65.7098V75.1586H77.5698Z" fill="#ADADAD"/>
<path d="M169.854 124.971C169.082 124.971 168.413 124.796 167.847 124.446C167.291 124.096 166.859 123.602 166.55 122.964C166.252 122.315 166.103 121.559 166.103 120.694C166.103 119.83 166.252 119.078 166.55 118.44C166.859 117.802 167.286 117.308 167.832 116.958C168.388 116.598 169.041 116.417 169.793 116.417C170.503 116.417 171.131 116.587 171.676 116.927C172.222 117.256 172.644 117.74 172.942 118.378C173.251 119.016 173.405 119.794 173.405 120.71V121.096H167.461C167.513 121.97 167.744 122.629 168.156 123.072C168.578 123.514 169.144 123.736 169.854 123.736C170.39 123.736 170.827 123.612 171.167 123.365C171.517 123.108 171.758 122.773 171.892 122.362L173.282 122.47C173.066 123.2 172.654 123.803 172.047 124.276C171.45 124.739 170.719 124.971 169.854 124.971ZM167.461 119.953H171.985C171.923 119.161 171.692 118.579 171.29 118.208C170.899 117.838 170.4 117.653 169.793 117.653C169.165 117.653 168.645 117.848 168.233 118.239C167.832 118.62 167.574 119.191 167.461 119.953Z" fill="#ADADAD"/>
<path d="M160.745 127.287C160.158 127.287 159.628 127.189 159.155 126.993C158.681 126.798 158.285 126.52 157.966 126.16C157.647 125.799 157.431 125.383 157.318 124.909L158.676 124.816C158.8 125.197 159.016 125.496 159.325 125.712C159.644 125.938 160.117 126.052 160.745 126.052C161.486 126.052 162.052 125.902 162.443 125.604C162.845 125.305 163.045 124.858 163.045 124.261V122.933C162.85 123.365 162.536 123.71 162.104 123.967C161.671 124.225 161.188 124.353 160.652 124.353C159.963 124.353 159.345 124.183 158.8 123.844C158.264 123.504 157.842 123.036 157.534 122.439C157.235 121.842 157.086 121.157 157.086 120.385C157.086 119.603 157.235 118.919 157.534 118.332C157.832 117.735 158.244 117.267 158.769 116.927C159.304 116.587 159.911 116.417 160.591 116.417C161.167 116.417 161.682 116.551 162.135 116.819C162.598 117.087 162.922 117.447 163.107 117.9V116.603H164.342V124.23C164.342 124.868 164.198 125.413 163.91 125.866C163.622 126.329 163.21 126.679 162.675 126.916C162.14 127.163 161.496 127.287 160.745 127.287ZM160.714 123.118C161.414 123.118 161.975 122.876 162.397 122.392C162.819 121.898 163.035 121.229 163.045 120.385C163.056 119.819 162.963 119.336 162.768 118.934C162.582 118.522 162.31 118.208 161.949 117.992C161.599 117.766 161.188 117.653 160.714 117.653C159.994 117.653 159.433 117.9 159.031 118.394C158.64 118.877 158.445 119.541 158.445 120.385C158.445 121.229 158.645 121.898 159.047 122.392C159.458 122.876 160.014 123.118 160.714 123.118Z" fill="#ADADAD"/>
<path d="M151.436 124.971C150.592 124.971 149.918 124.775 149.414 124.384C148.92 123.993 148.673 123.447 148.673 122.748C148.673 122.048 148.879 121.497 149.29 121.096C149.702 120.694 150.356 120.411 151.251 120.246L154.154 119.706C154.154 119.016 153.989 118.502 153.66 118.162C153.341 117.822 152.857 117.653 152.208 117.653C151.642 117.653 151.195 117.781 150.865 118.039C150.536 118.286 150.309 118.646 150.186 119.119L148.812 119.011C148.966 118.239 149.337 117.617 149.923 117.143C150.52 116.659 151.282 116.417 152.208 116.417C153.258 116.417 154.061 116.716 154.617 117.313C155.173 117.9 155.451 118.713 155.451 119.752V123.134C155.451 123.319 155.482 123.453 155.543 123.535C155.615 123.607 155.729 123.643 155.883 123.643H156.207V124.786C156.166 124.796 156.099 124.801 156.006 124.801C155.914 124.811 155.816 124.816 155.713 124.816C155.343 124.816 155.039 124.76 154.802 124.647C154.576 124.523 154.411 124.338 154.308 124.091C154.205 123.833 154.154 123.499 154.154 123.087L154.308 123.118C154.236 123.468 154.061 123.787 153.783 124.075C153.505 124.353 153.161 124.575 152.749 124.739C152.337 124.894 151.9 124.971 151.436 124.971ZM151.56 123.828C152.106 123.828 152.569 123.725 152.95 123.52C153.341 123.303 153.639 123.015 153.845 122.655C154.051 122.284 154.154 121.873 154.154 121.42V120.833L151.498 121.327C150.942 121.43 150.556 121.59 150.34 121.806C150.134 122.012 150.032 122.284 150.032 122.624C150.032 123.005 150.165 123.303 150.433 123.52C150.711 123.725 151.087 123.828 151.56 123.828Z" fill="#ADADAD"/>
<path d="M135.84 124.786V116.603H137.029L137.075 118.672L136.89 118.61C136.982 118.157 137.142 117.771 137.368 117.452C137.605 117.123 137.893 116.87 138.233 116.695C138.573 116.51 138.948 116.417 139.36 116.417C140.07 116.417 140.647 116.613 141.089 117.004C141.542 117.395 141.825 117.941 141.938 118.641L141.691 118.625C141.774 118.152 141.923 117.756 142.139 117.436C142.366 117.107 142.654 116.855 143.004 116.68C143.354 116.505 143.755 116.417 144.208 116.417C144.795 116.417 145.289 116.541 145.69 116.788C146.092 117.025 146.395 117.375 146.601 117.838C146.807 118.301 146.91 118.862 146.91 119.521V124.786H145.613V119.799C145.613 119.058 145.469 118.502 145.181 118.131C144.892 117.75 144.465 117.56 143.899 117.56C143.518 117.56 143.184 117.653 142.896 117.838C142.618 118.023 142.402 118.291 142.247 118.641C142.093 118.98 142.016 119.397 142.016 119.891V124.786H140.719V119.891C140.719 119.161 140.59 118.589 140.333 118.178C140.075 117.766 139.643 117.56 139.036 117.56C138.655 117.56 138.32 117.653 138.032 117.838C137.754 118.023 137.533 118.291 137.368 118.641C137.214 118.991 137.137 119.408 137.137 119.891V124.786H135.84Z" fill="#ADADAD"/>
<path d="M131.713 124.785V113.823H133.041V124.785H131.713Z" fill="#ADADAD"/>
<path d="M121.388 124.97C120.678 124.97 120.06 124.795 119.535 124.445C119.021 124.095 118.624 123.601 118.347 122.963C118.069 122.325 117.93 121.569 117.93 120.694C117.93 119.819 118.069 119.062 118.347 118.424C118.624 117.786 119.021 117.292 119.535 116.942C120.06 116.592 120.678 116.417 121.388 116.417C121.934 116.417 122.433 116.535 122.886 116.772C123.339 116.999 123.678 117.323 123.905 117.745V113.823H125.202V124.785H124.028L123.982 123.55C123.755 123.993 123.411 124.343 122.947 124.6C122.484 124.847 121.964 124.97 121.388 124.97ZM121.651 123.735C122.134 123.735 122.541 123.612 122.87 123.365C123.21 123.118 123.467 122.768 123.642 122.315C123.817 121.852 123.905 121.311 123.905 120.694C123.905 120.056 123.817 119.51 123.642 119.057C123.467 118.604 123.21 118.259 122.87 118.023C122.541 117.776 122.134 117.652 121.651 117.652C120.93 117.652 120.354 117.925 119.921 118.47C119.499 119.006 119.288 119.747 119.288 120.694C119.288 121.63 119.499 122.371 119.921 122.917C120.354 123.462 120.93 123.735 121.651 123.735Z" fill="#ADADAD"/>
<path d="M112.28 124.971C111.436 124.971 110.762 124.775 110.258 124.384C109.764 123.993 109.517 123.447 109.517 122.748C109.517 122.048 109.722 121.497 110.134 121.096C110.546 120.694 111.199 120.411 112.095 120.246L114.998 119.706C114.998 119.016 114.833 118.502 114.503 118.162C114.184 117.822 113.701 117.653 113.052 117.653C112.486 117.653 112.038 117.781 111.709 118.039C111.38 118.286 111.153 118.646 111.03 119.119L109.656 119.011C109.81 118.239 110.18 117.617 110.767 117.143C111.364 116.659 112.126 116.417 113.052 116.417C114.102 116.417 114.905 116.716 115.461 117.313C116.017 117.9 116.294 118.713 116.294 119.752V123.134C116.294 123.319 116.325 123.453 116.387 123.535C116.459 123.607 116.572 123.643 116.727 123.643H117.051V124.786C117.01 124.796 116.943 124.801 116.85 124.801C116.758 124.811 116.66 124.816 116.557 124.816C116.186 124.816 115.883 124.76 115.646 124.647C115.42 124.523 115.255 124.338 115.152 124.091C115.049 123.833 114.998 123.499 114.998 123.087L115.152 123.118C115.08 123.468 114.905 123.787 114.627 124.075C114.349 124.353 114.004 124.575 113.593 124.739C113.181 124.894 112.743 124.971 112.28 124.971ZM112.404 123.828C112.949 123.828 113.412 123.725 113.793 123.52C114.184 123.303 114.483 123.015 114.689 122.655C114.895 122.284 114.998 121.873 114.998 121.42V120.833L112.342 121.327C111.786 121.43 111.4 121.59 111.184 121.806C110.978 122.012 110.875 122.284 110.875 122.624C110.875 123.005 111.009 123.303 111.277 123.52C111.555 123.725 111.93 123.828 112.404 123.828Z" fill="#ADADAD"/>
<path d="M104.358 124.971C103.606 124.971 102.948 124.796 102.381 124.446C101.815 124.096 101.378 123.602 101.069 122.964C100.76 122.315 100.606 121.559 100.606 120.694C100.606 119.819 100.76 119.063 101.069 118.425C101.378 117.786 101.815 117.292 102.381 116.942C102.948 116.592 103.606 116.417 104.358 116.417C105.109 116.417 105.763 116.592 106.318 116.942C106.885 117.292 107.322 117.786 107.631 118.425C107.94 119.063 108.094 119.819 108.094 120.694C108.094 121.559 107.94 122.315 107.631 122.964C107.322 123.602 106.885 124.096 106.318 124.446C105.763 124.796 105.109 124.971 104.358 124.971ZM104.358 123.736C105.109 123.736 105.691 123.468 106.102 122.933C106.524 122.387 106.735 121.641 106.735 120.694C106.735 119.747 106.524 119.006 106.102 118.471C105.691 117.925 105.109 117.653 104.358 117.653C103.606 117.653 103.02 117.925 102.598 118.471C102.176 119.006 101.965 119.747 101.965 120.694C101.965 121.641 102.176 122.387 102.598 122.933C103.02 123.468 103.606 123.736 104.358 123.736Z" fill="#ADADAD"/>
<path d="M98.7419 124.785C98.2684 124.785 97.8825 124.662 97.584 124.415C97.2855 124.168 97.1362 123.776 97.1362 123.241V113.823H98.4331V123.133C98.4331 123.298 98.4743 123.426 98.5566 123.519C98.6493 123.601 98.7779 123.643 98.9426 123.643H99.6528V124.785H98.7419Z" fill="#ADADAD"/>
<path d="M88.0298 127.101V116.603H89.234L89.2649 118.363L89.0797 118.27C89.2855 117.663 89.6252 117.205 90.0986 116.896C90.5824 116.577 91.1382 116.417 91.7661 116.417C92.5792 116.417 93.2431 116.618 93.7577 117.02C94.2827 117.421 94.6687 117.946 94.9157 118.594C95.173 119.243 95.3017 119.943 95.3017 120.694C95.3017 121.446 95.173 122.145 94.9157 122.794C94.6687 123.442 94.2827 123.967 93.7577 124.369C93.2431 124.77 92.5792 124.971 91.7661 124.971C91.3441 124.971 90.9478 124.899 90.5773 124.755C90.217 124.611 89.9082 124.41 89.6509 124.153C89.4039 123.895 89.234 123.592 89.1414 123.242L89.3267 123.025V127.101H88.0298ZM91.6426 123.736C92.3528 123.736 92.9137 123.468 93.3254 122.933C93.7372 122.398 93.943 121.651 93.943 120.694C93.943 119.737 93.7372 118.991 93.3254 118.455C92.9137 117.92 92.3528 117.653 91.6426 117.653C91.1691 117.653 90.7574 117.766 90.4074 117.992C90.0678 118.219 89.8002 118.558 89.6046 119.011C89.4193 119.464 89.3267 120.025 89.3267 120.694C89.3267 121.363 89.4193 121.924 89.6046 122.377C89.7899 122.83 90.0575 123.17 90.4074 123.396C90.7574 123.622 91.1691 123.736 91.6426 123.736Z" fill="#ADADAD"/>
<path d="M81.4761 125.032C80.6321 125.032 79.8961 124.867 79.2683 124.538C78.6507 124.209 78.1721 123.74 77.8324 123.133C77.5031 122.515 77.3384 121.79 77.3384 120.956V113.808H78.6662V120.956C78.6662 121.841 78.908 122.526 79.3918 123.009C79.8859 123.493 80.5806 123.735 81.4761 123.735C82.3613 123.735 83.0458 123.493 83.5295 123.009C84.0236 122.526 84.2706 121.841 84.2706 120.956V113.808H85.5984V120.956C85.5984 121.79 85.4285 122.515 85.0889 123.133C84.7595 123.74 84.286 124.209 83.6685 124.538C83.0509 124.867 82.3201 125.032 81.4761 125.032Z" fill="#ADADAD"/>
<path d="M274.778 166.691V155.729H276.075V160.315L275.92 160.284C276.023 159.831 276.198 159.461 276.445 159.172C276.692 158.884 276.996 158.673 277.356 158.539C277.716 158.395 278.113 158.323 278.545 158.323C279.132 158.323 279.626 158.457 280.027 158.725C280.439 158.982 280.748 159.347 280.954 159.821C281.17 160.284 281.278 160.819 281.278 161.427V166.691H279.981V161.797C279.981 161.005 279.837 160.418 279.549 160.037C279.271 159.656 278.844 159.466 278.267 159.466C277.608 159.466 277.078 159.667 276.677 160.068C276.275 160.469 276.075 161.051 276.075 161.813V166.691H274.778Z" fill="#ADADAD"/>
<path d="M269.812 166.877C269.081 166.877 268.458 166.758 267.944 166.521C267.439 166.285 267.043 165.961 266.755 165.549C266.477 165.127 266.318 164.648 266.276 164.113L267.635 164.02C267.717 164.514 267.928 164.911 268.268 165.209C268.608 165.497 269.122 165.641 269.812 165.641C270.368 165.641 270.81 165.554 271.14 165.379C271.479 165.194 271.649 164.9 271.649 164.499C271.649 164.283 271.598 164.103 271.495 163.959C271.392 163.814 271.191 163.691 270.893 163.588C270.594 163.475 270.152 163.367 269.565 163.264C268.783 163.12 268.165 162.945 267.712 162.739C267.27 162.523 266.951 162.26 266.755 161.951C266.57 161.632 266.477 161.257 266.477 160.824C266.477 160.094 266.745 159.497 267.28 159.033C267.815 158.56 268.577 158.323 269.565 158.323C270.234 158.323 270.795 158.447 271.248 158.694C271.711 158.931 272.071 159.25 272.329 159.651C272.596 160.042 272.771 160.474 272.853 160.948L271.495 161.041C271.433 160.752 271.32 160.5 271.155 160.284C270.99 160.058 270.774 159.883 270.507 159.759C270.239 159.625 269.92 159.558 269.549 159.558C268.963 159.558 268.531 159.672 268.253 159.898C267.975 160.124 267.836 160.413 267.836 160.763C267.836 161.03 267.897 161.252 268.021 161.427C268.155 161.591 268.366 161.73 268.654 161.843C268.942 161.946 269.328 162.039 269.812 162.121C270.646 162.265 271.294 162.44 271.757 162.646C272.22 162.852 272.545 163.104 272.73 163.403C272.915 163.701 273.008 164.067 273.008 164.499C273.008 165.003 272.864 165.436 272.576 165.796C272.298 166.146 271.917 166.413 271.433 166.599C270.96 166.784 270.419 166.877 269.812 166.877Z" fill="#ADADAD"/>
<path d="M260.627 166.877C259.783 166.877 259.109 166.681 258.604 166.29C258.11 165.899 257.863 165.353 257.863 164.653C257.863 163.953 258.069 163.403 258.481 163.001C258.893 162.6 259.546 162.317 260.442 162.152L263.344 161.612C263.344 160.922 263.18 160.408 262.85 160.068C262.531 159.728 262.047 159.558 261.399 159.558C260.833 159.558 260.385 159.687 260.056 159.944C259.726 160.191 259.5 160.552 259.376 161.025L258.002 160.917C258.157 160.145 258.527 159.522 259.114 159.049C259.711 158.565 260.473 158.323 261.399 158.323C262.449 158.323 263.252 158.622 263.807 159.219C264.363 159.805 264.641 160.619 264.641 161.658V165.039C264.641 165.225 264.672 165.358 264.734 165.441C264.806 165.513 264.919 165.549 265.073 165.549H265.398V166.691C265.356 166.702 265.29 166.707 265.197 166.707C265.104 166.717 265.007 166.722 264.904 166.722C264.533 166.722 264.229 166.666 263.993 166.552C263.766 166.429 263.602 166.244 263.499 165.997C263.396 165.739 263.344 165.405 263.344 164.993L263.499 165.024C263.427 165.374 263.252 165.693 262.974 165.981C262.696 166.259 262.351 166.48 261.939 166.645C261.528 166.799 261.09 166.877 260.627 166.877ZM260.75 165.734C261.296 165.734 261.759 165.631 262.14 165.425C262.531 165.209 262.83 164.921 263.035 164.561C263.241 164.19 263.344 163.778 263.344 163.326V162.739L260.689 163.233C260.133 163.336 259.747 163.495 259.531 163.712C259.325 163.917 259.222 164.19 259.222 164.53C259.222 164.911 259.356 165.209 259.623 165.425C259.901 165.631 260.277 165.734 260.75 165.734Z" fill="#ADADAD"/>
<path d="M255.908 166.691C255.435 166.691 255.049 166.568 254.75 166.321C254.452 166.074 254.303 165.683 254.303 165.147V155.729H255.6V165.039C255.6 165.204 255.641 165.333 255.723 165.425C255.816 165.508 255.944 165.549 256.109 165.549H256.819V166.691H255.908Z" fill="#ADADAD"/>
<path d="M245.196 169.007V158.509H246.401L246.431 160.269L246.246 160.176C246.452 159.569 246.792 159.111 247.265 158.802C247.749 158.483 248.305 158.323 248.933 158.323C249.746 158.323 250.41 158.524 250.924 158.925C251.449 159.327 251.835 159.852 252.082 160.5C252.34 161.149 252.468 161.849 252.468 162.6C252.468 163.351 252.34 164.051 252.082 164.7C251.835 165.348 251.449 165.873 250.924 166.274C250.41 166.676 249.746 166.877 248.933 166.877C248.511 166.877 248.114 166.805 247.744 166.66C247.384 166.516 247.075 166.316 246.817 166.058C246.57 165.801 246.401 165.497 246.308 165.147L246.493 164.931V169.007H245.196ZM248.809 165.641C249.519 165.641 250.08 165.374 250.492 164.839C250.904 164.303 251.11 163.557 251.11 162.6C251.11 161.643 250.904 160.896 250.492 160.361C250.08 159.826 249.519 159.558 248.809 159.558C248.336 159.558 247.924 159.672 247.574 159.898C247.234 160.124 246.967 160.464 246.771 160.917C246.586 161.37 246.493 161.931 246.493 162.6C246.493 163.269 246.586 163.83 246.771 164.283C246.956 164.736 247.224 165.075 247.574 165.302C247.924 165.528 248.336 165.641 248.809 165.641Z" fill="#ADADAD"/>
<path d="M240.23 166.877C239.499 166.877 238.876 166.758 238.362 166.521C237.857 166.285 237.461 165.961 237.173 165.549C236.895 165.127 236.736 164.648 236.694 164.113L238.053 164.02C238.135 164.514 238.346 164.911 238.686 165.209C239.026 165.497 239.54 165.641 240.23 165.641C240.786 165.641 241.228 165.554 241.558 165.379C241.897 165.194 242.067 164.9 242.067 164.499C242.067 164.283 242.016 164.103 241.913 163.959C241.81 163.814 241.609 163.691 241.311 163.588C241.012 163.475 240.57 163.367 239.983 163.264C239.201 163.12 238.583 162.945 238.13 162.739C237.688 162.523 237.369 162.26 237.173 161.951C236.988 161.632 236.895 161.257 236.895 160.824C236.895 160.094 237.163 159.497 237.698 159.033C238.233 158.56 238.995 158.323 239.983 158.323C240.652 158.323 241.213 158.447 241.666 158.694C242.129 158.931 242.489 159.25 242.747 159.651C243.014 160.042 243.189 160.474 243.271 160.948L241.913 161.041C241.851 160.752 241.738 160.5 241.573 160.284C241.408 160.058 241.192 159.883 240.925 159.759C240.657 159.625 240.338 159.558 239.967 159.558C239.381 159.558 238.948 159.672 238.671 159.898C238.393 160.124 238.254 160.413 238.254 160.763C238.254 161.03 238.315 161.252 238.439 161.427C238.573 161.591 238.784 161.73 239.072 161.843C239.36 161.946 239.746 162.039 240.23 162.121C241.064 162.265 241.712 162.44 242.175 162.646C242.638 162.852 242.963 163.104 243.148 163.403C243.333 163.701 243.426 164.067 243.426 164.499C243.426 165.003 243.282 165.436 242.994 165.796C242.716 166.146 242.335 166.413 241.851 166.599C241.378 166.784 240.837 166.877 240.23 166.877Z" fill="#ADADAD"/>
<path d="M228.46 166.691V158.509H229.649L229.695 160.593L229.541 160.454C229.644 159.97 229.824 159.574 230.081 159.265C230.338 158.946 230.647 158.709 231.007 158.555C231.378 158.4 231.774 158.323 232.196 158.323C232.824 158.323 233.339 158.462 233.74 158.74C234.152 159.018 234.456 159.394 234.651 159.867C234.857 160.33 234.96 160.85 234.96 161.427V166.691H233.663V161.797C233.663 161.293 233.601 160.871 233.478 160.531C233.364 160.181 233.179 159.919 232.922 159.744C232.665 159.558 232.33 159.466 231.918 159.466C231.29 159.466 230.771 159.666 230.359 160.068C229.958 160.459 229.757 161.035 229.757 161.797V166.691H228.46Z" fill="#ADADAD"/>
<path d="M221.907 166.939C221.063 166.939 220.327 166.774 219.699 166.445C219.082 166.115 218.603 165.647 218.264 165.04C217.934 164.422 217.77 163.696 217.77 162.863V155.714H219.097V162.863C219.097 163.748 219.339 164.432 219.823 164.916C220.317 165.4 221.012 165.642 221.907 165.642C222.792 165.642 223.477 165.4 223.961 164.916C224.455 164.432 224.702 163.748 224.702 162.863V155.714H226.03V162.863C226.03 163.696 225.86 164.422 225.52 165.04C225.191 165.647 224.717 166.115 224.1 166.445C223.482 166.774 222.751 166.939 221.907 166.939Z" fill="#ADADAD"/>
<path d="M200.416 166.691V158.509H201.605L201.651 160.577L201.466 160.516C201.559 160.063 201.718 159.677 201.944 159.358C202.181 159.028 202.469 158.776 202.809 158.601C203.149 158.416 203.524 158.323 203.936 158.323C204.646 158.323 205.223 158.519 205.665 158.91C206.118 159.301 206.401 159.847 206.515 160.546L206.267 160.531C206.35 160.058 206.499 159.661 206.715 159.342C206.942 159.013 207.23 158.761 207.58 158.586C207.93 158.411 208.331 158.323 208.784 158.323C209.371 158.323 209.865 158.447 210.266 158.694C210.668 158.931 210.971 159.28 211.177 159.744C211.383 160.207 211.486 160.768 211.486 161.427V166.691H210.189V161.704C210.189 160.963 210.045 160.408 209.757 160.037C209.469 159.656 209.041 159.466 208.475 159.466C208.094 159.466 207.76 159.558 207.472 159.744C207.194 159.929 206.978 160.197 206.823 160.546C206.669 160.886 206.592 161.303 206.592 161.797V166.691H205.295V161.797C205.295 161.066 205.166 160.495 204.909 160.083C204.652 159.672 204.219 159.466 203.612 159.466C203.231 159.466 202.897 159.558 202.608 159.744C202.33 159.929 202.109 160.197 201.944 160.546C201.79 160.896 201.713 161.313 201.713 161.797V166.691H200.416Z" fill="#ADADAD"/>
<path d="M194.913 166.877C194.161 166.877 193.503 166.702 192.937 166.352C192.371 166.002 191.933 165.508 191.624 164.869C191.316 164.221 191.161 163.465 191.161 162.6C191.161 161.725 191.316 160.969 191.624 160.33C191.933 159.692 192.371 159.198 192.937 158.848C193.503 158.498 194.161 158.323 194.913 158.323C195.664 158.323 196.318 158.498 196.874 158.848C197.44 159.198 197.877 159.692 198.186 160.33C198.495 160.969 198.649 161.725 198.649 162.6C198.649 163.465 198.495 164.221 198.186 164.869C197.877 165.508 197.44 166.002 196.874 166.352C196.318 166.702 195.664 166.877 194.913 166.877ZM194.913 165.641C195.664 165.641 196.246 165.374 196.658 164.839C197.08 164.293 197.291 163.547 197.291 162.6C197.291 161.653 197.08 160.912 196.658 160.377C196.246 159.831 195.664 159.558 194.913 159.558C194.161 159.558 193.575 159.831 193.153 160.377C192.731 160.912 192.52 161.653 192.52 162.6C192.52 163.547 192.731 164.293 193.153 164.839C193.575 165.374 194.161 165.641 194.913 165.641Z" fill="#ADADAD"/>
<path d="M186.485 166.692V158.509H187.627L187.689 160.578L187.566 160.531C187.669 159.831 187.89 159.322 188.229 159.003C188.579 158.673 189.043 158.509 189.619 158.509H190.422V159.744H189.634C189.223 159.744 188.878 159.821 188.6 159.976C188.332 160.12 188.127 160.341 187.982 160.639C187.849 160.928 187.782 161.298 187.782 161.751V166.692H186.485Z" fill="#ADADAD"/>
<path d="M181.663 166.691V157.767C181.663 157.16 181.838 156.671 182.188 156.301C182.538 155.92 183.084 155.729 183.825 155.729H185.122V156.872H183.918C183.598 156.872 183.357 156.959 183.192 157.134C183.037 157.309 182.96 157.551 182.96 157.86V166.691H181.663ZM180.552 159.651V158.509H185.014V159.651H180.552Z" fill="#ADADAD"/>
<path d="M171.542 166.877C170.77 166.877 170.101 166.702 169.535 166.352C168.979 166.002 168.547 165.508 168.238 164.869C167.94 164.221 167.791 163.465 167.791 162.6C167.791 161.735 167.94 160.984 168.238 160.346C168.547 159.708 168.974 159.214 169.52 158.864C170.076 158.503 170.729 158.323 171.481 158.323C172.191 158.323 172.819 158.493 173.364 158.833C173.91 159.162 174.332 159.646 174.63 160.284C174.939 160.922 175.093 161.699 175.093 162.615V163.001H169.149C169.201 163.876 169.432 164.535 169.844 164.978C170.266 165.42 170.832 165.641 171.542 165.641C172.077 165.641 172.515 165.518 172.855 165.271C173.205 165.014 173.446 164.679 173.58 164.267L174.97 164.375C174.754 165.106 174.342 165.708 173.735 166.182C173.138 166.645 172.407 166.877 171.542 166.877ZM169.149 161.859H173.673C173.611 161.066 173.38 160.485 172.978 160.114C172.587 159.744 172.088 159.558 171.481 159.558C170.853 159.558 170.333 159.754 169.921 160.145C169.52 160.526 169.262 161.097 169.149 161.859Z" fill="#ADADAD"/>
<path d="M162.434 169.192C161.847 169.192 161.317 169.095 160.843 168.899C160.37 168.704 159.974 168.426 159.654 168.065C159.335 167.705 159.119 167.288 159.006 166.815L160.365 166.722C160.488 167.103 160.704 167.402 161.013 167.618C161.332 167.844 161.806 167.957 162.434 167.957C163.175 167.957 163.741 167.808 164.132 167.51C164.533 167.211 164.734 166.763 164.734 166.166V164.839C164.538 165.271 164.224 165.616 163.792 165.873C163.36 166.13 162.876 166.259 162.341 166.259C161.651 166.259 161.034 166.089 160.488 165.75C159.953 165.41 159.531 164.942 159.222 164.345C158.924 163.748 158.774 163.063 158.774 162.291C158.774 161.509 158.924 160.824 159.222 160.238C159.521 159.641 159.932 159.172 160.457 158.833C160.993 158.493 161.6 158.323 162.279 158.323C162.856 158.323 163.37 158.457 163.823 158.725C164.286 158.992 164.61 159.353 164.796 159.805V158.509H166.031V166.136C166.031 166.774 165.887 167.319 165.599 167.772C165.31 168.235 164.899 168.585 164.363 168.822C163.828 169.069 163.185 169.192 162.434 169.192ZM162.403 165.024C163.103 165.024 163.664 164.782 164.086 164.298C164.508 163.804 164.724 163.135 164.734 162.291C164.744 161.725 164.652 161.241 164.456 160.84C164.271 160.428 163.998 160.114 163.638 159.898C163.288 159.672 162.876 159.558 162.403 159.558C161.682 159.558 161.121 159.805 160.72 160.299C160.329 160.783 160.133 161.447 160.133 162.291C160.133 163.135 160.334 163.804 160.735 164.298C161.147 164.782 161.703 165.024 162.403 165.024Z" fill="#ADADAD"/>
<path d="M153.125 166.877C152.281 166.877 151.607 166.681 151.102 166.29C150.608 165.899 150.361 165.353 150.361 164.653C150.361 163.953 150.567 163.403 150.979 163.001C151.391 162.6 152.044 162.317 152.94 162.152L155.842 161.612C155.842 160.922 155.678 160.408 155.348 160.068C155.029 159.728 154.545 159.558 153.897 159.558C153.331 159.558 152.883 159.687 152.554 159.944C152.224 160.191 151.998 160.552 151.874 161.025L150.5 160.917C150.655 160.145 151.025 159.522 151.612 159.049C152.209 158.565 152.971 158.323 153.897 158.323C154.947 158.323 155.75 158.622 156.305 159.219C156.861 159.805 157.139 160.619 157.139 161.658V165.039C157.139 165.225 157.17 165.358 157.232 165.441C157.304 165.513 157.417 165.549 157.571 165.549H157.896V166.691C157.855 166.702 157.788 166.707 157.695 166.707C157.602 166.717 157.505 166.722 157.402 166.722C157.031 166.722 156.727 166.666 156.491 166.552C156.264 166.429 156.1 166.244 155.997 165.997C155.894 165.739 155.842 165.405 155.842 164.993L155.997 165.024C155.925 165.374 155.75 165.693 155.472 165.981C155.194 166.259 154.849 166.48 154.437 166.645C154.026 166.799 153.588 166.877 153.125 166.877ZM153.248 165.734C153.794 165.734 154.257 165.631 154.638 165.425C155.029 165.209 155.328 164.921 155.533 164.561C155.739 164.19 155.842 163.778 155.842 163.326V162.739L153.187 163.233C152.631 163.336 152.245 163.495 152.029 163.712C151.823 163.917 151.72 164.19 151.72 164.53C151.72 164.911 151.854 165.209 152.121 165.425C152.399 165.631 152.775 165.734 153.248 165.734Z" fill="#ADADAD"/>
<path d="M137.528 166.691V158.509H138.717L138.763 160.577L138.578 160.516C138.671 160.063 138.83 159.677 139.057 159.358C139.294 159.028 139.582 158.776 139.921 158.601C140.261 158.416 140.637 158.323 141.048 158.323C141.759 158.323 142.335 158.519 142.778 158.91C143.231 159.301 143.514 159.847 143.627 160.546L143.38 160.531C143.462 160.058 143.611 159.661 143.828 159.342C144.054 159.013 144.342 158.761 144.692 158.586C145.042 158.411 145.444 158.323 145.896 158.323C146.483 158.323 146.977 158.447 147.379 158.694C147.78 158.931 148.084 159.28 148.289 159.744C148.495 160.207 148.598 160.768 148.598 161.427V166.691H147.301V161.704C147.301 160.963 147.157 160.408 146.869 160.037C146.581 159.656 146.154 159.466 145.588 159.466C145.207 159.466 144.872 159.558 144.584 159.744C144.306 159.929 144.09 160.197 143.936 160.546C143.781 160.886 143.704 161.303 143.704 161.797V166.691H142.407V161.797C142.407 161.066 142.278 160.495 142.021 160.083C141.764 159.672 141.332 159.466 140.724 159.466C140.343 159.466 140.009 159.558 139.721 159.744C139.443 159.929 139.221 160.197 139.057 160.546C138.902 160.896 138.825 161.313 138.825 161.797V166.691H137.528Z" fill="#ADADAD"/>
<path d="M133.401 166.691V155.729H134.729V166.691H133.401Z" fill="#ADADAD"/>
<path d="M120.386 166.691V158.509H121.575L121.621 160.593L121.466 160.454C121.569 159.97 121.75 159.574 122.007 159.265C122.264 158.946 122.573 158.709 122.933 158.555C123.304 158.4 123.7 158.323 124.122 158.323C124.75 158.323 125.265 158.462 125.666 158.74C126.078 159.018 126.381 159.394 126.577 159.867C126.783 160.33 126.886 160.85 126.886 161.427V166.691H125.589V161.797C125.589 161.293 125.527 160.871 125.404 160.531C125.29 160.181 125.105 159.919 124.848 159.744C124.59 159.558 124.256 159.466 123.844 159.466C123.216 159.466 122.696 159.666 122.285 160.068C121.883 160.459 121.683 161.035 121.683 161.797V166.691H120.386Z" fill="#ADADAD"/>
<path d="M114.15 166.877C113.306 166.877 112.632 166.681 112.128 166.29C111.634 165.899 111.387 165.353 111.387 164.653C111.387 163.953 111.593 163.403 112.004 163.001C112.416 162.6 113.07 162.317 113.965 162.152L116.868 161.612C116.868 160.922 116.703 160.408 116.374 160.068C116.055 159.728 115.571 159.558 114.922 159.558C114.356 159.558 113.908 159.687 113.579 159.944C113.25 160.191 113.023 160.552 112.9 161.025L111.526 160.917C111.68 160.145 112.051 159.522 112.637 159.049C113.234 158.565 113.996 158.323 114.922 158.323C115.972 158.323 116.775 158.622 117.331 159.219C117.887 159.805 118.165 160.619 118.165 161.658V165.039C118.165 165.225 118.195 165.358 118.257 165.441C118.329 165.513 118.442 165.549 118.597 165.549H118.921V166.691C118.88 166.702 118.813 166.707 118.72 166.707C118.628 166.717 118.53 166.722 118.427 166.722C118.056 166.722 117.753 166.666 117.516 166.552C117.29 166.429 117.125 166.244 117.022 165.997C116.919 165.739 116.868 165.405 116.868 164.993L117.022 165.024C116.95 165.374 116.775 165.693 116.497 165.981C116.219 166.259 115.874 166.48 115.463 166.645C115.051 166.799 114.614 166.877 114.15 166.877ZM114.274 165.734C114.819 165.734 115.283 165.631 115.663 165.425C116.055 165.209 116.353 164.921 116.559 164.561C116.765 164.19 116.868 163.778 116.868 163.326V162.739L114.212 163.233C113.656 163.336 113.27 163.495 113.054 163.712C112.848 163.917 112.745 164.19 112.745 164.53C112.745 164.911 112.879 165.209 113.147 165.425C113.425 165.631 113.8 165.734 114.274 165.734Z" fill="#ADADAD"/>
<path d="M101.803 166.877C101.093 166.877 100.475 166.702 99.9504 166.352C99.4358 166.002 99.0395 165.508 98.7616 164.87C98.4837 164.231 98.3447 163.475 98.3447 162.6C98.3447 161.725 98.4837 160.969 98.7616 160.33C99.0395 159.692 99.4358 159.198 99.9504 158.848C100.475 158.498 101.093 158.323 101.803 158.323C102.349 158.323 102.848 158.442 103.301 158.678C103.754 158.905 104.093 159.229 104.32 159.651V155.729H105.617V166.691H104.443L104.397 165.456C104.17 165.899 103.826 166.249 103.362 166.506C102.899 166.753 102.38 166.877 101.803 166.877ZM102.066 165.641C102.549 165.641 102.956 165.518 103.285 165.271C103.625 165.024 103.882 164.674 104.057 164.221C104.232 163.758 104.32 163.218 104.32 162.6C104.32 161.962 104.232 161.416 104.057 160.963C103.882 160.511 103.625 160.166 103.285 159.929C102.956 159.682 102.549 159.558 102.066 159.558C101.345 159.558 100.769 159.831 100.336 160.377C99.9144 160.912 99.7034 161.653 99.7034 162.6C99.7034 163.537 99.9144 164.278 100.336 164.823C100.769 165.369 101.345 165.641 102.066 165.641Z" fill="#ADADAD"/>
<path d="M90.1099 166.691V158.509H91.2987L91.345 160.593L91.1906 160.454C91.2935 159.97 91.4737 159.574 91.731 159.265C91.9883 158.946 92.2971 158.709 92.6573 158.555C93.0279 158.4 93.4242 158.323 93.8462 158.323C94.474 158.323 94.9887 158.462 95.3901 158.74C95.8018 159.018 96.1054 159.394 96.301 159.867C96.5069 160.33 96.6098 160.85 96.6098 161.427V166.691H95.3129V161.797C95.3129 161.293 95.2511 160.871 95.1276 160.531C95.0144 160.181 94.8291 159.919 94.5718 159.744C94.3145 159.558 93.98 159.466 93.5683 159.466C92.9404 159.466 92.4206 159.666 92.0089 160.068C91.6075 160.459 91.4068 161.035 91.4068 161.797V166.691H90.1099Z" fill="#ADADAD"/>
<path d="M86.1896 166.692V158.509H87.4865V166.692H86.1896ZM86.1587 157.227V155.714H87.5173V157.227H86.1587Z" fill="#ADADAD"/>
<path d="M77.5698 166.692V155.73H84.4557V157.027H78.2337L78.8976 156.348V161.381L78.2337 160.701H84.1778V161.967H78.2337L78.8976 161.288V166.692H77.5698Z" fill="#ADADAD"/>
<path d="M261.787 275.869C261.046 275.869 260.495 275.699 260.135 275.36C259.785 275.02 259.61 274.49 259.61 273.77V265.772H260.907V273.739C260.907 274.109 260.989 274.366 261.154 274.511C261.319 274.655 261.571 274.727 261.91 274.727H263.084V275.869H261.787ZM258.406 268.829V267.686H263.084V268.829H258.406Z" fill="#ADADAD"/>
<path d="M250.439 275.87V267.687H251.628L251.674 269.771L251.52 269.632C251.623 269.148 251.803 268.752 252.06 268.443C252.317 268.124 252.626 267.887 252.986 267.733C253.357 267.579 253.753 267.501 254.175 267.501C254.803 267.501 255.318 267.64 255.719 267.918C256.131 268.196 256.435 268.572 256.63 269.045C256.836 269.509 256.939 270.028 256.939 270.605V275.87H255.642V270.975C255.642 270.471 255.58 270.049 255.457 269.709C255.344 269.359 255.158 269.097 254.901 268.922C254.644 268.737 254.309 268.644 253.897 268.644C253.269 268.644 252.75 268.845 252.338 269.246C251.937 269.637 251.736 270.214 251.736 270.975V275.87H250.439Z" fill="#ADADAD"/>
<path d="M244.203 276.055C243.359 276.055 242.685 275.859 242.181 275.468C241.686 275.077 241.439 274.531 241.439 273.832C241.439 273.132 241.645 272.581 242.057 272.18C242.469 271.778 243.122 271.495 244.018 271.33L246.92 270.79C246.92 270.1 246.756 269.586 246.426 269.246C246.107 268.906 245.624 268.737 244.975 268.737C244.409 268.737 243.961 268.865 243.632 269.123C243.302 269.37 243.076 269.73 242.953 270.203L241.578 270.095C241.733 269.323 242.103 268.701 242.69 268.227C243.287 267.743 244.049 267.501 244.975 267.501C246.025 267.501 246.828 267.8 247.384 268.397C247.939 268.984 248.217 269.797 248.217 270.836V274.218C248.217 274.403 248.248 274.537 248.31 274.619C248.382 274.691 248.495 274.727 248.65 274.727H248.974V275.87C248.933 275.88 248.866 275.885 248.773 275.885C248.68 275.895 248.583 275.9 248.48 275.9C248.109 275.9 247.806 275.844 247.569 275.731C247.342 275.607 247.178 275.422 247.075 275.175C246.972 274.917 246.92 274.583 246.92 274.171L247.075 274.202C247.003 274.552 246.828 274.871 246.55 275.159C246.272 275.437 245.927 275.659 245.515 275.823C245.104 275.978 244.666 276.055 244.203 276.055ZM244.327 274.912C244.872 274.912 245.335 274.809 245.716 274.604C246.107 274.387 246.406 274.099 246.612 273.739C246.817 273.368 246.92 272.957 246.92 272.504V271.917L244.265 272.411C243.709 272.514 243.323 272.674 243.107 272.89C242.901 273.096 242.798 273.368 242.798 273.708C242.798 274.089 242.932 274.387 243.2 274.604C243.477 274.809 243.853 274.912 244.327 274.912Z" fill="#ADADAD"/>
<path d="M231.329 275.87L228.797 267.687H230.217L232.132 274.511L234.077 267.687H235.467L237.412 274.511L239.342 267.687H240.762L238.23 275.87H236.594L234.772 269.648L232.95 275.87H231.329Z" fill="#ADADAD"/>
<path d="M219.639 276.055C218.825 276.055 218.172 275.782 217.678 275.237C217.194 274.681 216.952 273.919 216.952 272.952V267.687H218.249V272.597C218.249 273.389 218.388 273.976 218.666 274.357C218.954 274.727 219.392 274.913 219.978 274.913C220.627 274.913 221.136 274.707 221.507 274.295C221.877 273.873 222.063 273.297 222.063 272.566V267.687H223.359V275.87H222.124V273.847L222.325 273.955C222.16 274.624 221.846 275.144 221.383 275.515C220.92 275.875 220.338 276.055 219.639 276.055Z" fill="#ADADAD"/>
<path d="M211.448 276.055C210.697 276.055 210.038 275.88 209.472 275.53C208.906 275.18 208.468 274.686 208.159 274.048C207.851 273.399 207.696 272.643 207.696 271.778C207.696 270.903 207.851 270.147 208.159 269.509C208.468 268.87 208.906 268.376 209.472 268.026C210.038 267.676 210.697 267.501 211.448 267.501C212.199 267.501 212.853 267.676 213.409 268.026C213.975 268.376 214.412 268.87 214.721 269.509C215.03 270.147 215.184 270.903 215.184 271.778C215.184 272.643 215.03 273.399 214.721 274.048C214.412 274.686 213.975 275.18 213.409 275.53C212.853 275.88 212.199 276.055 211.448 276.055ZM211.448 274.82C212.199 274.82 212.781 274.552 213.193 274.017C213.615 273.471 213.826 272.725 213.826 271.778C213.826 270.831 213.615 270.09 213.193 269.555C212.781 269.009 212.199 268.737 211.448 268.737C210.697 268.737 210.11 269.009 209.688 269.555C209.266 270.09 209.055 270.831 209.055 271.778C209.055 272.725 209.266 273.471 209.688 274.017C210.11 274.552 210.697 274.82 211.448 274.82Z" fill="#ADADAD"/>
<path d="M200.722 278.186V277.043H201.664C201.952 277.043 202.163 276.997 202.297 276.904C202.441 276.822 202.549 276.683 202.621 276.487L202.914 275.715H202.466L199.471 267.687H200.892L203.331 274.511L205.662 267.687H207.083L203.763 276.904C203.609 277.347 203.377 277.671 203.069 277.877C202.76 278.083 202.333 278.186 201.787 278.186H200.722Z" fill="#ADADAD"/>
<path d="M191.049 276.055C190.277 276.055 189.608 275.88 189.042 275.53C188.486 275.18 188.053 274.686 187.745 274.048C187.446 273.399 187.297 272.643 187.297 271.778C187.297 270.914 187.446 270.162 187.745 269.524C188.053 268.886 188.481 268.392 189.026 268.042C189.582 267.682 190.235 267.501 190.987 267.501C191.697 267.501 192.325 267.671 192.87 268.011C193.416 268.34 193.838 268.824 194.136 269.462C194.445 270.1 194.6 270.878 194.6 271.794V272.18H188.656C188.707 273.054 188.939 273.713 189.35 274.156C189.772 274.598 190.338 274.82 191.049 274.82C191.584 274.82 192.021 274.696 192.361 274.449C192.711 274.192 192.953 273.857 193.087 273.446L194.476 273.554C194.26 274.284 193.848 274.887 193.241 275.36C192.644 275.823 191.913 276.055 191.049 276.055ZM188.656 271.037H193.179C193.117 270.245 192.886 269.663 192.484 269.292C192.093 268.922 191.594 268.737 190.987 268.737C190.359 268.737 189.839 268.932 189.427 269.323C189.026 269.704 188.769 270.275 188.656 271.037Z" fill="#ADADAD"/>
<path d="M181.939 278.371C181.353 278.371 180.823 278.273 180.349 278.077C179.876 277.882 179.479 277.604 179.16 277.244C178.841 276.883 178.625 276.467 178.512 275.993L179.871 275.9C179.994 276.281 180.21 276.58 180.519 276.796C180.838 277.022 181.312 277.136 181.939 277.136C182.68 277.136 183.247 276.986 183.638 276.688C184.039 276.389 184.24 275.942 184.24 275.345V274.017C184.044 274.449 183.73 274.794 183.298 275.051C182.866 275.309 182.382 275.437 181.847 275.437C181.157 275.437 180.54 275.267 179.994 274.928C179.459 274.588 179.037 274.12 178.728 273.523C178.43 272.926 178.28 272.241 178.28 271.469C178.28 270.687 178.43 270.003 178.728 269.416C179.027 268.819 179.438 268.351 179.963 268.011C180.498 267.671 181.106 267.501 181.785 267.501C182.361 267.501 182.876 267.635 183.329 267.903C183.792 268.17 184.116 268.531 184.302 268.984V267.687H185.537V275.314C185.537 275.952 185.393 276.497 185.104 276.95C184.816 277.413 184.405 277.763 183.869 278C183.334 278.247 182.691 278.371 181.939 278.371ZM181.908 274.202C182.608 274.202 183.169 273.96 183.591 273.476C184.013 272.982 184.23 272.313 184.24 271.469C184.25 270.903 184.157 270.419 183.962 270.018C183.777 269.606 183.504 269.292 183.144 269.076C182.794 268.85 182.382 268.737 181.908 268.737C181.188 268.737 180.627 268.984 180.226 269.478C179.834 269.961 179.639 270.625 179.639 271.469C179.639 272.313 179.84 272.982 180.241 273.476C180.653 273.96 181.209 274.202 181.908 274.202Z" fill="#ADADAD"/>
<path d="M172.631 276.055C171.787 276.055 171.113 275.859 170.609 275.468C170.115 275.077 169.868 274.531 169.868 273.832C169.868 273.132 170.074 272.581 170.485 272.18C170.897 271.778 171.551 271.495 172.446 271.33L175.349 270.79C175.349 270.1 175.184 269.586 174.855 269.246C174.535 268.906 174.052 268.737 173.403 268.737C172.837 268.737 172.389 268.865 172.06 269.123C171.731 269.37 171.504 269.73 171.381 270.203L170.007 270.095C170.161 269.323 170.532 268.701 171.118 268.227C171.715 267.743 172.477 267.501 173.403 267.501C174.453 267.501 175.256 267.8 175.812 268.397C176.368 268.984 176.646 269.797 176.646 270.836V274.218C176.646 274.403 176.676 274.537 176.738 274.619C176.81 274.691 176.923 274.727 177.078 274.727H177.402V275.87C177.361 275.88 177.294 275.885 177.201 275.885C177.109 275.895 177.011 275.9 176.908 275.9C176.537 275.9 176.234 275.844 175.997 275.731C175.771 275.607 175.606 275.422 175.503 275.175C175.4 274.917 175.349 274.583 175.349 274.171L175.503 274.202C175.431 274.552 175.256 274.871 174.978 275.159C174.7 275.437 174.355 275.659 173.944 275.823C173.532 275.978 173.094 276.055 172.631 276.055ZM172.755 274.912C173.3 274.912 173.764 274.809 174.144 274.604C174.535 274.387 174.834 274.099 175.04 273.739C175.246 273.368 175.349 272.957 175.349 272.504V271.917L172.693 272.411C172.137 272.514 171.751 272.674 171.535 272.89C171.329 273.096 171.226 273.368 171.226 273.708C171.226 274.089 171.36 274.387 171.628 274.604C171.906 274.809 172.281 274.912 172.755 274.912Z" fill="#ADADAD"/>
<path d="M157.034 275.87V267.687H158.223L158.269 269.756L158.084 269.694C158.177 269.241 158.336 268.855 158.563 268.536C158.799 268.207 159.088 267.954 159.427 267.779C159.767 267.594 160.143 267.501 160.554 267.501C161.265 267.501 161.841 267.697 162.284 268.088C162.736 268.479 163.019 269.025 163.133 269.725L162.886 269.709C162.968 269.236 163.117 268.84 163.333 268.52C163.56 268.191 163.848 267.939 164.198 267.764C164.548 267.589 164.949 267.501 165.402 267.501C165.989 267.501 166.483 267.625 166.884 267.872C167.286 268.109 167.589 268.459 167.795 268.922C168.001 269.385 168.104 269.946 168.104 270.605V275.87H166.807V270.883C166.807 270.142 166.663 269.586 166.375 269.215C166.087 268.834 165.66 268.644 165.093 268.644C164.713 268.644 164.378 268.737 164.09 268.922C163.812 269.107 163.596 269.375 163.441 269.725C163.287 270.064 163.21 270.481 163.21 270.975V275.87H161.913V270.975C161.913 270.245 161.784 269.673 161.527 269.262C161.27 268.85 160.837 268.644 160.23 268.644C159.849 268.644 159.515 268.737 159.227 268.922C158.949 269.107 158.727 269.375 158.563 269.725C158.408 270.075 158.331 270.492 158.331 270.975V275.87H157.034Z" fill="#ADADAD"/>
<path d="M153.114 275.87V267.687H154.411V275.87H153.114ZM153.083 266.406V264.893H154.442V266.406H153.083Z" fill="#ADADAD"/>
<path d="M143.796 276.055C143.024 276.055 142.355 275.88 141.789 275.53C141.233 275.18 140.801 274.686 140.492 274.048C140.194 273.399 140.044 272.643 140.044 271.778C140.044 270.914 140.194 270.162 140.492 269.524C140.801 268.886 141.228 268.392 141.774 268.042C142.329 267.682 142.983 267.501 143.734 267.501C144.445 267.501 145.072 267.671 145.618 268.011C146.164 268.34 146.586 268.824 146.884 269.462C147.193 270.1 147.347 270.878 147.347 271.794V272.18H141.403C141.455 273.054 141.686 273.713 142.098 274.156C142.52 274.598 143.086 274.82 143.796 274.82C144.331 274.82 144.769 274.696 145.109 274.449C145.458 274.192 145.7 273.857 145.834 273.446L147.224 273.554C147.008 274.284 146.596 274.887 145.989 275.36C145.392 275.823 144.661 276.055 143.796 276.055ZM141.403 271.037H145.927C145.865 270.245 145.633 269.663 145.232 269.292C144.841 268.922 144.342 268.737 143.734 268.737C143.107 268.737 142.587 268.932 142.175 269.323C141.774 269.704 141.516 270.275 141.403 271.037Z" fill="#ADADAD"/>
<path d="M131.81 275.87V264.908H133.106V269.493L132.952 269.462C133.055 269.009 133.23 268.639 133.477 268.351C133.724 268.062 134.028 267.851 134.388 267.718C134.748 267.574 135.144 267.502 135.577 267.502C136.163 267.502 136.657 267.635 137.059 267.903C137.471 268.16 137.779 268.526 137.985 268.999C138.201 269.462 138.309 269.998 138.309 270.605V275.87H137.013V270.975C137.013 270.183 136.868 269.596 136.58 269.215C136.302 268.834 135.875 268.644 135.299 268.644C134.64 268.644 134.11 268.845 133.709 269.246C133.307 269.648 133.106 270.229 133.106 270.991V275.87H131.81Z" fill="#ADADAD"/>
<path d="M128.849 275.869C128.108 275.869 127.558 275.699 127.197 275.36C126.848 275.02 126.673 274.49 126.673 273.77V265.772H127.969V273.739C127.969 274.109 128.052 274.366 128.216 274.511C128.381 274.655 128.633 274.727 128.973 274.727H130.146V275.869H128.849ZM125.468 268.829V267.686H130.146V268.829H125.468Z" fill="#ADADAD"/>
<path d="M116.536 276.055C115.764 276.055 115.095 275.88 114.529 275.53C113.973 275.18 113.541 274.686 113.232 274.048C112.933 273.399 112.784 272.643 112.784 271.778C112.784 270.914 112.933 270.162 113.232 269.524C113.541 268.886 113.968 268.392 114.513 268.042C115.069 267.682 115.723 267.501 116.474 267.501C117.184 267.501 117.812 267.671 118.358 268.011C118.903 268.34 119.325 268.824 119.624 269.462C119.933 270.1 120.087 270.878 120.087 271.794V272.18H114.143C114.194 273.054 114.426 273.713 114.838 274.156C115.26 274.598 115.826 274.82 116.536 274.82C117.071 274.82 117.509 274.696 117.848 274.449C118.198 274.192 118.44 273.857 118.574 273.446L119.963 273.554C119.747 274.284 119.336 274.887 118.728 275.36C118.131 275.823 117.401 276.055 116.536 276.055ZM114.143 271.037H118.667C118.605 270.245 118.373 269.663 117.972 269.292C117.581 268.922 117.081 268.737 116.474 268.737C115.846 268.737 115.327 268.932 114.915 269.323C114.513 269.704 114.256 270.275 114.143 271.037Z" fill="#ADADAD"/>
<path d="M108.06 276.055C107.494 276.055 106.99 275.931 106.547 275.684C106.105 275.427 105.765 275.077 105.528 274.634L105.482 275.87H104.309V264.908H105.605V268.829C105.811 268.49 106.13 268.186 106.563 267.918C106.995 267.64 107.494 267.502 108.06 267.502C108.781 267.502 109.404 267.676 109.928 268.026C110.453 268.376 110.86 268.87 111.148 269.509C111.436 270.147 111.58 270.903 111.58 271.778C111.58 272.653 111.436 273.41 111.148 274.048C110.86 274.686 110.453 275.18 109.928 275.53C109.404 275.88 108.781 276.055 108.06 276.055ZM107.983 274.82C108.673 274.82 109.218 274.547 109.62 274.001C110.021 273.456 110.222 272.715 110.222 271.778C110.222 270.831 110.021 270.09 109.62 269.555C109.218 269.009 108.683 268.737 108.014 268.737C107.51 268.737 107.077 268.86 106.717 269.107C106.357 269.344 106.079 269.689 105.883 270.142C105.698 270.595 105.605 271.14 105.605 271.778C105.605 272.396 105.698 272.936 105.883 273.399C106.079 273.852 106.352 274.202 106.702 274.449C107.062 274.696 107.489 274.82 107.983 274.82Z" fill="#ADADAD"/>
<path d="M100.84 275.87V267.687H102.137V275.87H100.84ZM100.81 266.406V264.893H102.168V266.406H100.81Z" fill="#ADADAD"/>
<path d="M95.458 275.87V267.687H96.6005L96.6623 269.756L96.5388 269.71C96.6417 269.01 96.863 268.5 97.2026 268.181C97.5526 267.852 98.0158 267.687 98.5922 267.687H99.395V268.922H98.6076C98.1959 268.922 97.8511 268.999 97.5732 269.154C97.3056 269.298 97.0997 269.519 96.9556 269.818C96.8218 270.106 96.7549 270.476 96.7549 270.929V275.87H95.458Z" fill="#ADADAD"/>
<path d="M90.3767 276.055C89.6151 276.055 88.9512 275.88 88.3851 275.53C87.8293 275.18 87.397 274.686 87.0882 274.048C86.7794 273.399 86.625 272.643 86.625 271.778C86.625 270.914 86.7794 270.162 87.0882 269.524C87.397 268.886 87.8293 268.392 88.3851 268.042C88.9512 267.682 89.6151 267.501 90.3767 267.501C91.0046 267.501 91.5604 267.615 92.0442 267.841C92.5382 268.057 92.9397 268.376 93.2484 268.798C93.5572 269.22 93.7579 269.735 93.8506 270.342L92.4919 270.435C92.3993 269.889 92.1625 269.473 91.7817 269.184C91.4009 268.886 90.9326 268.737 90.3767 268.737C89.6254 268.737 89.0387 269.009 88.6167 269.555C88.1947 270.09 87.9837 270.831 87.9837 271.778C87.9837 272.725 88.1947 273.471 88.6167 274.017C89.0387 274.552 89.6254 274.82 90.3767 274.82C90.9326 274.82 91.4009 274.665 91.7817 274.356C92.1625 274.048 92.3993 273.585 92.4919 272.967L93.8506 273.06C93.7579 273.667 93.5572 274.197 93.2484 274.65C92.9397 275.092 92.5382 275.437 92.0442 275.684C91.5604 275.931 91.0046 276.055 90.3767 276.055Z" fill="#ADADAD"/>
<path d="M82.2148 276.055C81.484 276.055 80.8613 275.936 80.3466 275.7C79.8423 275.463 79.446 275.139 79.1578 274.727C78.8799 274.305 78.7204 273.826 78.6792 273.291L80.0379 273.199C80.1202 273.693 80.3312 274.089 80.6709 274.387C81.0105 274.676 81.5252 274.82 82.2148 274.82C82.7706 274.82 83.2132 274.732 83.5426 274.557C83.8822 274.372 84.0521 274.079 84.0521 273.677C84.0521 273.461 84.0006 273.281 83.8977 273.137C83.7947 272.993 83.594 272.869 83.2955 272.766C82.997 272.653 82.5545 272.545 81.9678 272.442C81.1855 272.298 80.5679 272.123 80.115 271.917C79.6725 271.701 79.3534 271.438 79.1578 271.13C78.9725 270.811 78.8799 270.435 78.8799 270.003C78.8799 269.272 79.1475 268.675 79.6828 268.212C80.218 267.738 80.9796 267.501 81.9678 267.501C82.6368 267.501 83.1978 267.625 83.6506 267.872C84.1138 268.109 84.4741 268.428 84.7314 268.829C84.999 269.22 85.174 269.653 85.2563 270.126L83.8977 270.219C83.8359 269.931 83.7227 269.678 83.558 269.462C83.3933 269.236 83.1772 269.061 82.9096 268.937C82.6419 268.804 82.3229 268.737 81.9523 268.737C81.3656 268.737 80.9333 268.85 80.6554 269.076C80.3775 269.303 80.2386 269.591 80.2386 269.941C80.2386 270.208 80.3003 270.43 80.4238 270.605C80.5576 270.769 80.7686 270.908 81.0568 271.022C81.345 271.125 81.731 271.217 82.2148 271.3C83.0485 271.444 83.697 271.619 84.1601 271.824C84.6233 272.03 84.9475 272.282 85.1328 272.581C85.3181 272.879 85.4107 273.245 85.4107 273.677C85.4107 274.182 85.2666 274.614 84.9784 274.974C84.7005 275.324 84.3197 275.592 83.8359 275.777C83.3624 275.962 82.8221 276.055 82.2148 276.055Z" fill="#ADADAD"/>
<path d="M73.9275 276.055C73.1556 276.055 72.4865 275.88 71.9204 275.53C71.3646 275.18 70.9323 274.686 70.6235 274.048C70.325 273.399 70.1758 272.643 70.1758 271.778C70.1758 270.914 70.325 270.162 70.6235 269.524C70.9323 268.886 71.3595 268.392 71.905 268.042C72.4608 267.682 73.1144 267.501 73.8658 267.501C74.576 267.501 75.2038 267.671 75.7494 268.011C76.2949 268.34 76.7169 268.824 77.0154 269.462C77.3242 270.1 77.4785 270.878 77.4785 271.794V272.18H71.5344C71.5859 273.054 71.8175 273.713 72.2292 274.156C72.6512 274.598 73.2173 274.82 73.9275 274.82C74.4627 274.82 74.9002 274.696 75.2399 274.449C75.5898 274.192 75.8317 273.857 75.9655 273.446L77.355 273.554C77.1389 274.284 76.7272 274.887 76.1199 275.36C75.5229 275.823 74.7921 276.055 73.9275 276.055ZM71.5344 271.037H76.0581C75.9964 270.245 75.7648 269.663 75.3634 269.292C74.9722 268.922 74.473 268.737 73.8658 268.737C73.2379 268.737 72.7181 268.932 72.3064 269.323C71.905 269.704 71.6477 270.275 71.5344 271.037Z" fill="#ADADAD"/>
<path d="M59.9248 275.87V264.908H63.3214C65.0095 264.908 66.3064 265.386 67.2121 266.344C68.1282 267.291 68.5862 268.644 68.5862 270.404C68.5862 272.154 68.1385 273.502 67.243 274.449C66.3475 275.396 65.0712 275.87 63.4141 275.87H59.9248ZM61.2526 274.573H63.3214C64.608 274.573 65.5756 274.228 66.224 273.538C66.8725 272.838 67.1967 271.794 67.1967 270.404C67.1967 268.994 66.8725 267.944 66.224 267.254C65.5756 266.555 64.608 266.205 63.3214 266.205H61.2526V274.573Z" fill="#ADADAD"/>
<path d="M447.403 276.054C446.631 276.054 445.962 275.879 445.396 275.529C444.84 275.179 444.408 274.685 444.099 274.047C443.801 273.399 443.651 272.642 443.651 271.778C443.651 270.913 443.801 270.162 444.099 269.524C444.408 268.885 444.835 268.391 445.381 268.041C445.936 267.681 446.59 267.501 447.341 267.501C448.052 267.501 448.679 267.671 449.225 268.01C449.77 268.34 450.192 268.824 450.491 269.462C450.8 270.1 450.954 270.877 450.954 271.793V272.179H445.01C445.061 273.054 445.293 273.713 445.705 274.155C446.127 274.598 446.693 274.819 447.403 274.819C447.938 274.819 448.376 274.696 448.715 274.449C449.065 274.191 449.307 273.857 449.441 273.445L450.831 273.553C450.614 274.284 450.203 274.886 449.595 275.36C448.998 275.823 448.268 276.054 447.403 276.054ZM445.01 271.037H449.534C449.472 270.244 449.24 269.662 448.839 269.292C448.448 268.921 447.949 268.736 447.341 268.736C446.713 268.736 446.194 268.932 445.782 269.323C445.381 269.704 445.123 270.275 445.01 271.037Z" fill="white"/>
<path d="M441.397 275.869C440.656 275.869 440.106 275.699 439.745 275.359C439.395 275.02 439.22 274.49 439.22 273.769V265.771H440.517V273.738C440.517 274.109 440.6 274.366 440.764 274.51C440.929 274.654 441.181 274.726 441.521 274.726H442.694V275.869H441.397ZM438.016 268.828V267.686H442.694V268.828H438.016Z" fill="white"/>
<path d="M432.574 276.054C431.73 276.054 431.055 275.859 430.551 275.468C430.057 275.077 429.81 274.531 429.81 273.831C429.81 273.131 430.016 272.58 430.428 272.179C430.839 271.778 431.493 271.495 432.388 271.33L435.291 270.79C435.291 270.1 435.126 269.585 434.797 269.246C434.478 268.906 433.994 268.736 433.346 268.736C432.78 268.736 432.332 268.865 432.002 269.122C431.673 269.369 431.447 269.729 431.323 270.203L429.949 270.095C430.103 269.323 430.474 268.7 431.061 268.227C431.658 267.743 432.419 267.501 433.346 267.501C434.396 267.501 435.198 267.799 435.754 268.396C436.31 268.983 436.588 269.796 436.588 270.836V274.217C436.588 274.402 436.619 274.536 436.681 274.618C436.753 274.691 436.866 274.727 437.02 274.727H437.344V275.869C437.303 275.879 437.236 275.884 437.144 275.884C437.051 275.895 436.953 275.9 436.85 275.9C436.48 275.9 436.176 275.843 435.939 275.73C435.713 275.607 435.548 275.421 435.445 275.174C435.342 274.917 435.291 274.582 435.291 274.171L435.445 274.202C435.373 274.552 435.198 274.871 434.92 275.159C434.643 275.437 434.298 275.658 433.886 275.823C433.474 275.977 433.037 276.054 432.574 276.054ZM432.697 274.912C433.243 274.912 433.706 274.809 434.087 274.603C434.478 274.387 434.776 274.099 434.982 273.738C435.188 273.368 435.291 272.956 435.291 272.503V271.917L432.635 272.411C432.08 272.514 431.694 272.673 431.477 272.889C431.272 273.095 431.169 273.368 431.169 273.708C431.169 274.088 431.303 274.387 431.57 274.603C431.848 274.809 432.224 274.912 432.697 274.912Z" fill="white"/>
<path d="M425.134 275.869V267.687H426.277L426.339 269.755L426.215 269.709C426.318 269.009 426.539 268.5 426.879 268.181C427.229 267.851 427.692 267.687 428.268 267.687H429.071V268.922H428.284C427.872 268.922 427.527 268.999 427.249 269.153C426.982 269.297 426.776 269.519 426.632 269.817C426.498 270.105 426.431 270.476 426.431 270.929V275.869H425.134Z" fill="white"/>
<path d="M419.826 276.054C419.054 276.054 418.385 275.879 417.819 275.529C417.264 275.179 416.831 274.685 416.522 274.047C416.224 273.399 416.075 272.642 416.075 271.778C416.075 270.913 416.224 270.162 416.522 269.524C416.831 268.885 417.258 268.391 417.804 268.041C418.36 267.681 419.013 267.501 419.765 267.501C420.475 267.501 421.103 267.671 421.648 268.01C422.194 268.34 422.616 268.824 422.914 269.462C423.223 270.1 423.377 270.877 423.377 271.793V272.179H417.433C417.485 273.054 417.716 273.713 418.128 274.155C418.55 274.598 419.116 274.819 419.826 274.819C420.362 274.819 420.799 274.696 421.139 274.449C421.489 274.191 421.731 273.857 421.864 273.445L423.254 273.553C423.038 274.284 422.626 274.886 422.019 275.36C421.422 275.823 420.691 276.054 419.826 276.054ZM417.433 271.037H421.957C421.895 270.244 421.664 269.662 421.262 269.292C420.871 268.921 420.372 268.736 419.765 268.736C419.137 268.736 418.617 268.932 418.205 269.323C417.804 269.704 417.547 270.275 417.433 271.037Z" fill="white"/>
<path d="M407.84 275.869V267.686H409.029L409.075 269.771L408.921 269.632C409.024 269.148 409.204 268.752 409.461 268.443C409.719 268.124 410.028 267.887 410.388 267.733C410.758 267.578 411.155 267.501 411.577 267.501C412.204 267.501 412.719 267.64 413.121 267.918C413.532 268.196 413.836 268.571 414.031 269.045C414.237 269.508 414.34 270.028 414.34 270.604V275.869H413.043V270.975C413.043 270.47 412.982 270.048 412.858 269.709C412.745 269.359 412.56 269.096 412.302 268.921C412.045 268.736 411.71 268.643 411.299 268.643C410.671 268.643 410.151 268.844 409.739 269.246C409.338 269.637 409.137 270.213 409.137 270.975V275.869H407.84Z" fill="white"/>
<path d="M402.533 276.054C401.761 276.054 401.092 275.879 400.526 275.529C399.97 275.179 399.538 274.685 399.229 274.047C398.93 273.399 398.781 272.642 398.781 271.778C398.781 270.913 398.93 270.162 399.229 269.524C399.538 268.885 399.965 268.391 400.51 268.041C401.066 267.681 401.72 267.501 402.471 267.501C403.181 267.501 403.809 267.671 404.355 268.01C404.9 268.34 405.322 268.824 405.621 269.462C405.93 270.1 406.084 270.877 406.084 271.793V272.179H400.14C400.191 273.054 400.423 273.713 400.835 274.155C401.257 274.598 401.823 274.819 402.533 274.819C403.068 274.819 403.506 274.696 403.845 274.449C404.195 274.191 404.437 273.857 404.571 273.445L405.961 273.553C405.744 274.284 405.333 274.886 404.725 275.36C404.128 275.823 403.398 276.054 402.533 276.054ZM400.14 271.037H404.664C404.602 270.244 404.37 269.662 403.969 269.292C403.578 268.921 403.079 268.736 402.471 268.736C401.843 268.736 401.324 268.932 400.912 269.323C400.51 269.704 400.253 270.275 400.14 271.037Z" fill="white"/>
<path d="M392.729 276.116C391.7 276.116 390.82 275.869 390.089 275.375C389.358 274.881 388.797 274.207 388.406 273.352C388.025 272.488 387.835 271.505 387.835 270.404C387.835 269.302 388.031 268.319 388.422 267.455C388.813 266.59 389.374 265.911 390.105 265.417C390.846 264.912 391.731 264.66 392.76 264.66C393.635 264.66 394.371 264.82 394.968 265.139C395.575 265.458 396.054 265.89 396.404 266.436C396.764 266.981 397.011 267.594 397.145 268.273L395.755 268.366C395.621 267.655 395.323 267.079 394.86 266.636C394.397 266.183 393.697 265.957 392.76 265.957C391.926 265.957 391.247 266.163 390.722 266.575C390.207 266.986 389.827 267.532 389.58 268.211C389.343 268.88 389.224 269.611 389.224 270.404C389.224 271.237 389.348 271.989 389.595 272.658C389.842 273.316 390.228 273.841 390.753 274.232C391.278 274.624 391.947 274.819 392.76 274.819C393.409 274.819 393.969 274.675 394.443 274.387C394.916 274.088 395.282 273.692 395.539 273.198C395.796 272.704 395.93 272.169 395.941 271.592H392.791V270.326H397.176V275.869H396.188L396.095 273.337L396.28 273.553C396.157 274.047 395.92 274.49 395.57 274.881C395.22 275.262 394.798 275.565 394.304 275.792C393.82 276.008 393.295 276.116 392.729 276.116Z" fill="white"/>
<path d="M238.009 208.599V197.637H239.337V208.599H238.009Z" fill="#F97F27"/>
<path d="M226.885 208.599L230.838 197.637H232.629L236.581 208.599H235.13L234.034 205.48H229.433L228.337 208.599H226.885ZM229.88 204.183H233.586L231.733 198.795L229.88 204.183Z" fill="#F97F27"/>
<path d="M214.981 208.599V197.637H216.278V202.222L216.123 202.191C216.226 201.738 216.401 201.368 216.648 201.08C216.895 200.791 217.199 200.58 217.559 200.447C217.92 200.303 218.316 200.231 218.748 200.231C219.335 200.231 219.829 200.364 220.23 200.632C220.642 200.889 220.951 201.255 221.157 201.728C221.373 202.191 221.481 202.727 221.481 203.334V208.599H220.184V203.704C220.184 202.912 220.04 202.325 219.752 201.944C219.474 201.563 219.047 201.373 218.47 201.373C217.811 201.373 217.281 201.574 216.88 201.975C216.479 202.377 216.278 202.958 216.278 203.72V208.599H214.981Z" fill="#F97F27"/>
<path d="M212.02 208.598C211.279 208.598 210.729 208.428 210.368 208.089C210.018 207.749 209.843 207.219 209.843 206.499V198.501H211.14V206.468C211.14 206.838 211.223 207.095 211.387 207.24C211.552 207.384 211.804 207.456 212.144 207.456H213.317V208.598H212.02ZM208.639 201.558V200.415H213.317V201.558H208.639Z" fill="#F97F27"/>
<path d="M205.874 208.598V200.415H207.171V208.598H205.874ZM205.843 199.134V197.621H207.202V199.134H205.843Z" fill="#F97F27"/>
<path d="M195.012 208.598L192.479 200.416H193.9L195.814 207.24L197.76 200.416H199.149L201.095 207.24L203.025 200.416H204.445L201.913 208.598H200.276L198.454 202.376L196.633 208.598H195.012Z" fill="#F97F27"/>
<path d="M184.057 208.784C183.285 208.784 182.616 208.609 182.05 208.259C181.494 207.909 181.062 207.415 180.753 206.777C180.454 206.128 180.305 205.372 180.305 204.507C180.305 203.643 180.454 202.891 180.753 202.253C181.062 201.615 181.489 201.121 182.034 200.771C182.59 200.411 183.244 200.23 183.995 200.23C184.705 200.23 185.333 200.4 185.879 200.74C186.424 201.069 186.846 201.553 187.145 202.191C187.454 202.829 187.608 203.607 187.608 204.523V204.909H181.664C181.715 205.783 181.947 206.442 182.359 206.885C182.781 207.327 183.347 207.549 184.057 207.549C184.592 207.549 185.03 207.425 185.369 207.178C185.719 206.921 185.961 206.586 186.095 206.175L187.484 206.283C187.268 207.013 186.857 207.616 186.249 208.089C185.652 208.552 184.922 208.784 184.057 208.784ZM181.664 203.766H186.188C186.126 202.974 185.894 202.392 185.493 202.021C185.102 201.651 184.602 201.466 183.995 201.466C183.367 201.466 182.848 201.661 182.436 202.052C182.034 202.433 181.777 203.004 181.664 203.766Z" fill="#F97F27"/>
<path d="M174.948 211.1C174.361 211.1 173.831 211.002 173.357 210.806C172.884 210.611 172.488 210.333 172.169 209.973C171.85 209.612 171.633 209.196 171.52 208.722L172.879 208.629C173.002 209.01 173.218 209.309 173.527 209.525C173.846 209.751 174.32 209.865 174.948 209.865C175.689 209.865 176.255 209.715 176.646 209.417C177.047 209.118 177.248 208.671 177.248 208.074V206.746C177.053 207.178 176.739 207.523 176.306 207.78C175.874 208.038 175.39 208.166 174.855 208.166C174.165 208.166 173.548 207.996 173.002 207.657C172.467 207.317 172.045 206.849 171.736 206.252C171.438 205.655 171.289 204.97 171.289 204.198C171.289 203.416 171.438 202.732 171.736 202.145C172.035 201.548 172.447 201.08 172.971 200.74C173.507 200.4 174.114 200.23 174.793 200.23C175.37 200.23 175.884 200.364 176.337 200.632C176.8 200.9 177.125 201.26 177.31 201.713V200.416H178.545V208.043C178.545 208.681 178.401 209.226 178.113 209.679C177.825 210.142 177.413 210.492 176.878 210.729C176.342 210.976 175.699 211.1 174.948 211.1ZM174.917 206.931C175.617 206.931 176.178 206.689 176.6 206.205C177.022 205.711 177.238 205.042 177.248 204.198C177.258 203.632 177.166 203.148 176.97 202.747C176.785 202.335 176.512 202.021 176.152 201.805C175.802 201.579 175.39 201.466 174.917 201.466C174.196 201.466 173.635 201.713 173.234 202.207C172.843 202.69 172.647 203.354 172.647 204.198C172.647 205.042 172.848 205.711 173.249 206.205C173.661 206.689 174.217 206.931 174.917 206.931Z" fill="#F97F27"/>
<path d="M165.64 208.784C164.796 208.784 164.121 208.588 163.617 208.197C163.123 207.806 162.876 207.26 162.876 206.561C162.876 205.861 163.082 205.31 163.494 204.909C163.905 204.507 164.559 204.224 165.454 204.059L168.357 203.519C168.357 202.829 168.192 202.315 167.863 201.975C167.544 201.635 167.06 201.466 166.412 201.466C165.845 201.466 165.398 201.594 165.068 201.852C164.739 202.099 164.513 202.459 164.389 202.932L163.015 202.824C163.169 202.052 163.54 201.43 164.127 200.956C164.724 200.472 165.485 200.23 166.412 200.23C167.461 200.23 168.264 200.529 168.82 201.126C169.376 201.713 169.654 202.526 169.654 203.565V206.947C169.654 207.132 169.685 207.266 169.746 207.348C169.818 207.42 169.932 207.456 170.086 207.456H170.41V208.599C170.369 208.609 170.302 208.614 170.21 208.614C170.117 208.624 170.019 208.629 169.916 208.629C169.546 208.629 169.242 208.573 169.005 208.46C168.779 208.336 168.614 208.151 168.511 207.904C168.408 207.646 168.357 207.312 168.357 206.9L168.511 206.931C168.439 207.281 168.264 207.6 167.986 207.888C167.708 208.166 167.364 208.388 166.952 208.552C166.54 208.707 166.103 208.784 165.64 208.784ZM165.763 207.641C166.309 207.641 166.772 207.538 167.153 207.333C167.544 207.116 167.842 206.828 168.048 206.468C168.254 206.097 168.357 205.686 168.357 205.233V204.646L165.701 205.14C165.146 205.243 164.76 205.403 164.543 205.619C164.338 205.825 164.235 206.097 164.235 206.437C164.235 206.818 164.368 207.116 164.636 207.333C164.914 207.538 165.29 207.641 165.763 207.641Z" fill="#F97F27"/>
<path d="M150.042 208.599V200.416H151.231L151.278 202.485L151.092 202.423C151.185 201.97 151.345 201.584 151.571 201.265C151.808 200.936 152.096 200.683 152.436 200.508C152.775 200.323 153.151 200.23 153.563 200.23C154.273 200.23 154.849 200.426 155.292 200.817C155.745 201.208 156.028 201.754 156.141 202.454L155.894 202.438C155.976 201.965 156.126 201.569 156.342 201.249C156.568 200.92 156.856 200.668 157.206 200.493C157.556 200.318 157.958 200.23 158.411 200.23C158.997 200.23 159.491 200.354 159.893 200.601C160.294 200.838 160.598 201.188 160.804 201.651C161.009 202.114 161.112 202.675 161.112 203.334V208.599H159.816V203.612C159.816 202.871 159.671 202.315 159.383 201.944C159.095 201.563 158.668 201.373 158.102 201.373C157.721 201.373 157.386 201.466 157.098 201.651C156.82 201.836 156.604 202.104 156.45 202.454C156.295 202.793 156.218 203.21 156.218 203.704V208.599H154.921V203.704C154.921 202.974 154.793 202.402 154.535 201.991C154.278 201.579 153.846 201.373 153.238 201.373C152.858 201.373 152.523 201.466 152.235 201.651C151.957 201.836 151.736 202.104 151.571 202.454C151.417 202.804 151.339 203.221 151.339 203.704V208.599H150.042Z" fill="#F97F27"/>
<path d="M145.916 208.599V197.637H147.243V208.599H145.916Z" fill="#F97F27"/>
<path d="M136.412 208.784C135.64 208.784 134.971 208.609 134.405 208.259C133.849 207.909 133.417 207.415 133.108 206.777C132.81 206.128 132.661 205.372 132.661 204.507C132.661 203.643 132.81 202.891 133.108 202.253C133.417 201.615 133.844 201.121 134.39 200.771C134.946 200.411 135.599 200.23 136.351 200.23C137.061 200.23 137.689 200.4 138.234 200.74C138.78 201.069 139.202 201.553 139.5 202.191C139.809 202.829 139.963 203.607 139.963 204.523V204.909H134.019C134.071 205.783 134.302 206.442 134.714 206.885C135.136 207.327 135.702 207.549 136.412 207.549C136.948 207.549 137.385 207.425 137.725 207.178C138.075 206.921 138.317 206.586 138.45 206.175L139.84 206.283C139.624 207.013 139.212 207.616 138.605 208.089C138.008 208.552 137.277 208.784 136.412 208.784ZM134.019 203.766H138.543C138.481 202.974 138.25 202.392 137.848 202.021C137.457 201.651 136.958 201.466 136.351 201.466C135.723 201.466 135.203 201.661 134.791 202.052C134.39 202.433 134.133 203.004 134.019 203.766Z" fill="#F97F27"/>
<path d="M130.407 208.598C129.666 208.598 129.115 208.428 128.755 208.089C128.405 207.749 128.23 207.219 128.23 206.499V198.501H129.527V206.468C129.527 206.838 129.609 207.095 129.774 207.24C129.938 207.384 130.19 207.456 130.53 207.456H131.703V208.598H130.407ZM127.025 201.558V200.415H131.703V201.558H127.025Z" fill="#F97F27"/>
<path d="M121.583 208.784C120.739 208.784 120.065 208.588 119.56 208.197C119.066 207.806 118.819 207.26 118.819 206.561C118.819 205.861 119.025 205.31 119.437 204.909C119.849 204.507 120.502 204.224 121.398 204.059L124.3 203.519C124.3 202.829 124.136 202.315 123.806 201.975C123.487 201.635 123.003 201.466 122.355 201.466C121.789 201.466 121.341 201.594 121.012 201.852C120.682 202.099 120.456 202.459 120.332 202.932L118.958 202.824C119.113 202.052 119.483 201.43 120.07 200.956C120.667 200.472 121.429 200.23 122.355 200.23C123.405 200.23 124.208 200.529 124.763 201.126C125.319 201.713 125.597 202.526 125.597 203.565V206.947C125.597 207.132 125.628 207.266 125.69 207.348C125.762 207.42 125.875 207.456 126.029 207.456H126.354V208.599C126.313 208.609 126.246 208.614 126.153 208.614C126.06 208.624 125.963 208.629 125.86 208.629C125.489 208.629 125.185 208.573 124.949 208.46C124.722 208.336 124.558 208.151 124.455 207.904C124.352 207.646 124.3 207.312 124.3 206.9L124.455 206.931C124.383 207.281 124.208 207.6 123.93 207.888C123.652 208.166 123.307 208.388 122.895 208.552C122.484 208.707 122.046 208.784 121.583 208.784ZM121.706 207.641C122.252 207.641 122.715 207.538 123.096 207.333C123.487 207.116 123.786 206.828 123.991 206.468C124.197 206.097 124.3 205.686 124.3 205.233V204.646L121.645 205.14C121.089 205.243 120.703 205.403 120.487 205.619C120.281 205.825 120.178 206.097 120.178 206.437C120.178 206.818 120.312 207.116 120.579 207.333C120.857 207.538 121.233 207.641 121.706 207.641Z" fill="#F97F27"/>
<path d="M114.144 208.598V200.416H115.286L115.348 202.484L115.224 202.438C115.327 201.738 115.549 201.229 115.888 200.91C116.238 200.58 116.701 200.416 117.278 200.416H118.081V201.651H117.293C116.881 201.651 116.537 201.728 116.259 201.882C115.991 202.026 115.785 202.248 115.641 202.546C115.507 202.834 115.44 203.205 115.44 203.658V208.598H114.144Z" fill="#F97F27"/>
<path d="M108.836 208.784C108.064 208.784 107.395 208.609 106.829 208.259C106.273 207.909 105.841 207.415 105.532 206.777C105.234 206.128 105.084 205.372 105.084 204.507C105.084 203.643 105.234 202.891 105.532 202.253C105.841 201.615 106.268 201.121 106.814 200.771C107.369 200.411 108.023 200.23 108.774 200.23C109.485 200.23 110.113 200.4 110.658 200.74C111.204 201.069 111.626 201.553 111.924 202.191C112.233 202.829 112.387 203.607 112.387 204.523V204.909H106.443C106.495 205.783 106.726 206.442 107.138 206.885C107.56 207.327 108.126 207.549 108.836 207.549C109.371 207.549 109.809 207.425 110.149 207.178C110.499 206.921 110.74 206.586 110.874 206.175L112.264 206.283C112.048 207.013 111.636 207.616 111.029 208.089C110.432 208.552 109.701 208.784 108.836 208.784ZM106.443 203.766H110.967C110.905 202.974 110.673 202.392 110.272 202.021C109.881 201.651 109.382 201.466 108.774 201.466C108.147 201.466 107.627 201.661 107.215 202.052C106.814 202.433 106.556 203.004 106.443 203.766Z" fill="#F97F27"/>
<path d="M96.8496 208.599V200.416H98.0384L98.0847 202.5L97.9304 202.361C98.0333 201.877 98.2134 201.481 98.4707 201.172C98.7281 200.853 99.0368 200.616 99.3971 200.462C99.7676 200.308 100.164 200.23 100.586 200.23C101.214 200.23 101.728 200.369 102.13 200.647C102.542 200.925 102.845 201.301 103.041 201.774C103.247 202.238 103.35 202.757 103.35 203.334V208.599H102.053V203.704C102.053 203.2 101.991 202.778 101.867 202.438C101.754 202.088 101.569 201.826 101.312 201.651C101.054 201.466 100.72 201.373 100.308 201.373C99.6801 201.373 99.1604 201.574 98.7486 201.975C98.3472 202.366 98.1465 202.943 98.1465 203.704V208.599H96.8496Z" fill="#F97F27"/>
<path d="M91.5418 208.784C90.7698 208.784 90.1008 208.609 89.5347 208.259C88.9789 207.909 88.5466 207.415 88.2378 206.777C87.9393 206.128 87.79 205.372 87.79 204.507C87.79 203.643 87.9393 202.891 88.2378 202.253C88.5466 201.615 88.9737 201.121 89.5192 200.771C90.075 200.411 90.7286 200.23 91.48 200.23C92.1902 200.23 92.8181 200.4 93.3636 200.74C93.9091 201.069 94.3311 201.553 94.6296 202.191C94.9384 202.829 95.0928 203.607 95.0928 204.523V204.909H89.1487C89.2002 205.783 89.4317 206.442 89.8435 206.885C90.2655 207.327 90.8316 207.549 91.5418 207.549C92.077 207.549 92.5145 207.425 92.8541 207.178C93.2041 206.921 93.446 206.586 93.5798 206.175L94.9693 206.283C94.7531 207.013 94.3414 207.616 93.7342 208.089C93.1372 208.552 92.4064 208.784 91.5418 208.784ZM89.1487 203.766H93.6724C93.6106 202.974 93.379 202.392 92.9776 202.021C92.5865 201.651 92.0873 201.466 91.48 201.466C90.8522 201.466 90.3324 201.661 89.9207 202.052C89.5192 202.433 89.2619 203.004 89.1487 203.766Z" fill="#F97F27"/>
<path d="M81.7385 208.845C80.7092 208.845 79.8292 208.598 79.0984 208.104C78.3676 207.61 77.8066 206.936 77.4155 206.081C77.0347 205.217 76.8442 204.234 76.8442 203.133C76.8442 202.031 77.0398 201.048 77.4309 200.184C77.8221 199.319 78.383 198.64 79.1138 198.146C79.8549 197.641 80.7401 197.389 81.7694 197.389C82.6443 197.389 83.3802 197.549 83.9772 197.868C84.5845 198.187 85.0631 198.619 85.413 199.165C85.7733 199.71 86.0203 200.323 86.1541 201.002L84.7646 201.095C84.6308 200.384 84.3323 199.808 83.8691 199.365C83.4059 198.912 82.706 198.686 81.7694 198.686C80.9356 198.686 80.2563 198.892 79.7314 199.304C79.2167 199.715 78.8359 200.261 78.5889 200.94C78.3521 201.609 78.2338 202.34 78.2338 203.133C78.2338 203.966 78.3573 204.718 78.6043 205.387C78.8513 206.045 79.2373 206.57 79.7623 206.961C80.2872 207.353 80.9562 207.548 81.7694 207.548C82.4178 207.548 82.9788 207.404 83.4522 207.116C83.9257 206.817 84.2911 206.421 84.5484 205.927C84.8057 205.433 84.9396 204.898 84.9498 204.321H81.8002V203.055H86.185V208.598H85.1969L85.1042 206.066L85.2895 206.282C85.166 206.776 84.9293 207.219 84.5793 207.61C84.2293 207.991 83.8073 208.294 83.3133 208.521C82.8295 208.737 82.3046 208.845 81.7385 208.845Z" fill="#F97F27"/>
<path d="M60.1591 73.5049V70.1965H56.8507C56.5462 70.1965 56.2993 69.9496 56.2993 69.6451C56.2993 69.3406 56.5462 69.0937 56.8507 69.0937H60.1591V65.7853C60.1591 65.4808 60.406 65.2339 60.7105 65.2339C61.0151 65.2339 61.2619 65.4808 61.2619 65.7853V69.0937H64.5703C64.8749 69.0937 65.1217 69.3406 65.1217 69.6451C65.1217 69.9496 64.8749 70.1965 64.5703 70.1965H61.2619V73.5049C61.2619 73.8094 61.0151 74.0563 60.7105 74.0563C60.406 74.0563 60.1591 73.8094 60.1591 73.5049Z" fill="white"/>
<path d="M446.691 87.2899L445.589 87.2899L445.589 53.103L446.691 53.103L446.691 87.2899Z" fill="#181614"/>
<path d="M377.215 286.897L376.112 286.897L376.112 252.71L377.215 252.71L377.215 286.897Z" fill="#181614"/>
<path d="M487.496 139.122V140.224H44.1685V139.122H487.496Z" fill="#181614"/>
<path d="M487.496 181.028V182.131H44.1685V181.028H487.496Z" fill="#181614"/>
<path d="M55.1968 123.131V120.925C55.1968 120.621 55.4436 120.374 55.7482 120.374C56.0527 120.374 56.2996 120.621 56.2996 120.925V123.131C56.2996 123.277 56.3577 123.417 56.4611 123.521C56.5645 123.624 56.7047 123.682 56.851 123.682H64.5706C64.7169 123.682 64.8571 123.624 64.9605 123.521C65.0639 123.417 65.122 123.277 65.122 123.131V120.925C65.122 120.621 65.3689 120.374 65.6734 120.374C65.9779 120.374 66.2248 120.621 66.2248 120.925V123.131C66.2248 123.57 66.0504 123.99 65.7402 124.3C65.43 124.611 65.0093 124.785 64.5706 124.785H56.851C56.4123 124.785 55.9916 124.611 55.6814 124.3C55.3712 123.99 55.1968 123.57 55.1968 123.131ZM60.1594 120.925V115.64L58.3436 117.455C58.1283 117.671 57.7793 117.671 57.5639 117.455C57.3486 117.24 57.3486 116.891 57.5639 116.676L60.3209 113.919L60.4071 113.848C60.6211 113.706 60.9122 113.73 61.1007 113.919L63.8577 116.676C64.073 116.891 64.073 117.24 63.8577 117.455C63.6423 117.671 63.2933 117.671 63.0779 117.455L61.2622 115.64V120.925C61.2622 121.23 61.0153 121.477 60.7108 121.477C60.4063 121.477 60.1594 121.23 60.1594 120.925Z" fill="white"/>
<g clip-path="url(#clip1_921_1228)">
<path d="M64.6407 162.167C64.7901 161.902 65.127 161.807 65.3924 161.957L66.2195 162.423H66.2206C66.3903 162.519 66.5316 162.66 66.6298 162.828C66.7278 162.997 66.7795 163.188 66.7795 163.383C66.7795 163.578 66.728 163.77 66.6298 163.938C66.5319 164.106 66.3905 164.244 66.2216 164.34L66.2227 164.341L61.5369 167.024L61.5379 167.025C61.2866 167.17 61.0011 167.247 60.7108 167.247C60.4209 167.247 60.136 167.17 59.8848 167.025V167.026L55.1979 164.341V164.34C55.0294 164.244 54.8885 164.106 54.7908 163.938C54.6926 163.77 54.6411 163.578 54.6411 163.383C54.6411 163.188 54.6928 162.997 54.7908 162.828C54.889 162.66 55.0303 162.519 55.2001 162.423H55.2011L56.0282 161.957C56.2936 161.807 56.6305 161.902 56.7799 162.167C56.9291 162.432 56.835 162.768 56.5699 162.918L55.7439 163.383L55.7461 163.384L60.433 166.07L60.4351 166.071C60.5188 166.119 60.6143 166.144 60.7108 166.144C60.8075 166.144 60.9029 166.119 60.9865 166.071L60.9876 166.07L65.6745 163.384L65.6756 163.383L64.8507 162.918C64.5857 162.768 64.4916 162.432 64.6407 162.167ZM65.6745 158.97L60.9876 156.285H60.9865C60.9029 156.236 60.8075 156.21 60.7108 156.21C60.6141 156.21 60.5189 156.236 60.4351 156.285H60.433L55.7461 158.97L55.7439 158.972L55.7461 158.973L60.433 161.659L60.4351 161.66C60.5188 161.708 60.6143 161.733 60.7108 161.733C60.8075 161.733 60.9029 161.708 60.9865 161.66L60.9876 161.659L65.6745 158.973L65.6767 158.972L65.6745 158.97ZM66.7795 158.972C66.7795 159.167 66.728 159.359 66.6298 159.527C66.5319 159.695 66.3905 159.833 66.2216 159.929L66.2227 159.93L61.5369 162.613L61.5379 162.614C61.2866 162.759 61.0011 162.836 60.7108 162.836C60.4209 162.836 60.136 162.759 59.8848 162.614V162.615L55.1979 159.93V159.929C55.0294 159.833 54.8885 159.695 54.7908 159.527C54.6926 159.359 54.6411 159.167 54.6411 158.972C54.6411 158.777 54.6928 158.585 54.7908 158.417C54.889 158.248 55.0303 158.108 55.2001 158.012L59.8848 155.328V155.329C60.136 155.184 60.4209 155.107 60.7108 155.107C61.0004 155.108 61.2849 155.184 61.5358 155.328L66.2206 158.012C66.3903 158.108 66.5316 158.248 66.6298 158.417C66.7278 158.585 66.7795 158.777 66.7795 158.972Z" fill="white"/>
</g>
<path d="M60.3209 202.694C60.5362 202.479 60.8853 202.479 61.1006 202.694C61.3159 202.909 61.3159 203.258 61.1006 203.474L56.138 208.436C55.9227 208.652 55.5736 208.652 55.3583 208.436C55.1429 208.221 55.1429 207.872 55.3583 207.657L60.3209 202.694ZM61.8136 205.29V204.187C61.8136 203.882 62.0604 203.635 62.365 203.635C62.6695 203.635 62.9164 203.882 62.9164 204.187V205.29C62.9164 205.594 62.6695 205.841 62.365 205.841C62.0604 205.841 61.8136 205.594 61.8136 205.29ZM63.5195 202.584C63.7348 202.369 64.0838 202.369 64.2992 202.584L64.9604 203.246C65.1758 203.461 65.1758 203.81 64.9604 204.025C64.7451 204.241 64.396 204.241 64.1807 204.025L63.5195 203.364C63.3041 203.149 63.3041 202.8 63.5195 202.584ZM59.608 200.878C59.9125 200.878 60.1594 201.125 60.1594 201.43C60.1594 201.734 59.9125 201.981 59.608 201.981H58.5051C58.2006 201.981 57.9537 201.734 57.9537 201.43C57.9537 201.125 58.2006 200.878 58.5051 200.878H59.608ZM62.3703 200.878C62.6749 200.878 62.9217 201.125 62.9217 201.43C62.9217 201.734 62.6749 201.981 62.3703 201.981H62.365C62.0604 201.981 61.8136 201.734 61.8136 201.43C61.8136 201.125 62.0604 200.878 62.365 200.878H62.3703ZM66.2248 200.878C66.5293 200.878 66.7762 201.125 66.7762 201.43C66.7762 201.734 66.5293 201.981 66.2248 201.981H65.122C64.8174 201.981 64.5706 201.734 64.5706 201.43C64.5706 201.125 64.8174 200.878 65.122 200.878H66.2248ZM59.7695 198.834C59.9848 198.619 60.3339 198.619 60.5492 198.834L61.2105 199.496C61.4258 199.711 61.4258 200.06 61.2105 200.275C60.9951 200.491 60.6461 200.491 60.4307 200.275L59.7695 199.614C59.5542 199.399 59.5542 199.05 59.7695 198.834ZM64.1807 198.834C64.396 198.619 64.7451 198.619 64.9604 198.834C65.1758 199.05 65.1758 199.399 64.9604 199.614L64.2992 200.275C64.0838 200.491 63.7348 200.491 63.5195 200.275C63.3041 200.06 63.3041 199.711 63.5195 199.496L64.1807 198.834ZM61.8136 198.673V197.57C61.8136 197.265 62.0604 197.019 62.365 197.019C62.6695 197.019 62.9164 197.265 62.9164 197.57V198.673C62.9164 198.977 62.6695 199.224 62.365 199.224C62.0604 199.224 61.8136 198.977 61.8136 198.673Z" fill="#F97F27"/>
<path d="M464.253 268.833C464.484 268.635 464.832 268.663 465.03 268.894C465.229 269.125 465.202 269.473 464.971 269.671L462.886 271.458H469.115C469.677 271.458 470.201 271.266 470.576 270.944C470.948 270.625 471.137 270.213 471.137 269.804V265.944C471.137 265.64 471.384 265.393 471.688 265.393C471.993 265.393 472.24 265.639 472.24 265.944V269.804C472.24 270.565 471.887 271.274 471.294 271.782C470.704 272.288 469.919 272.561 469.115 272.561H462.886L464.971 274.347C465.202 274.546 465.229 274.894 465.03 275.125C464.832 275.356 464.484 275.384 464.253 275.185L461.037 272.428C460.915 272.324 460.844 272.17 460.844 272.009C460.844 271.848 460.915 271.695 461.037 271.59L464.253 268.833Z" fill="white"/>
<path d="M530 21V22H0V21H530Z" fill="#181614"/>
<path d="M23 340L22 340L22 4.37114e-08L23 0L23 340Z" fill="#181614"/>
<path d="M509 340H508V0L509 0V340Z" fill="#181614"/>
<path d="M530 317V318H0V317H530Z" fill="#181614"/>
<path d="M22 169V170H0V169H22Z" fill="#181614"/>
<path d="M530 169V170H508V169H530Z" fill="#181614"/>
</g>
<defs>
<clipPath id="clip0_921_1228">
<rect width="530" height="340" fill="white"/>
</clipPath>
<clipPath id="clip1_921_1228">
<rect width="13.2336" height="13.2336" fill="white" transform="translate(54.0938 154.561)"/>
</clipPath>
</defs>
</svg>
