<svg width="530" height="340" viewBox="0 0 530 340" fill="none" xmlns="http://www.w3.org/2000/svg">
<path d="M496.673 80.5047V81.6822H33.8879V80.5047H496.673ZM501.383 75.7944V49.8879C501.383 47.3678 499.404 45.3096 496.916 45.1833L496.673 45.1776H33.8879C31.2864 45.1776 29.1776 47.2864 29.1776 49.8879V75.7944C29.1776 78.3958 31.2864 80.5047 33.8879 80.5047V81.6822L33.5854 81.6742C30.4742 81.5168 28 78.9447 28 75.7944V49.8879C28 46.6361 30.6361 44 33.8879 44H496.673C499.925 44 502.561 46.6361 502.561 49.8879V75.7944L502.553 76.0968C502.4 79.1079 499.986 81.5218 496.975 81.6742L496.673 81.6822V80.5047C499.274 80.5047 501.383 78.3958 501.383 75.7944Z" fill="#181614"/>
<path d="M496.673 294.823V296H33.8879V294.823H496.673ZM501.383 290.112V264.206C501.383 261.686 499.404 259.627 496.916 259.501L496.673 259.495H33.8879C31.2864 259.495 29.1776 261.604 29.1776 264.206V290.112C29.1776 292.714 31.2864 294.823 33.8879 294.823V296L33.5854 295.992C30.4742 295.835 28 293.263 28 290.112V264.206C28 260.954 30.6361 258.318 33.8879 258.318H496.673C499.925 258.318 502.561 260.954 502.561 264.206V290.112L502.553 290.415C502.4 293.426 499.986 295.84 496.975 295.992L496.673 296V294.823C499.274 294.823 501.383 292.714 501.383 290.112Z" fill="#181614"/>
<path d="M496.673 226.523V227.701H33.8879V226.523H496.673ZM501.383 221.813V99.3459C501.383 96.8258 499.404 94.7676 496.916 94.6413L496.673 94.6356H33.8879C31.2864 94.6356 29.1776 96.7444 29.1776 99.3459V221.813C29.1776 224.415 31.2864 226.523 33.8879 226.523V227.701L33.5854 227.693C30.5744 227.541 28.1604 225.127 28.008 222.116L28 221.813V99.3459C28 96.0941 30.6361 93.458 33.8879 93.458H496.673C499.925 93.458 502.561 96.0941 502.561 99.3459V221.813L502.553 222.116C502.4 225.127 499.986 227.541 496.975 227.693L496.673 227.701V226.523C499.274 226.523 501.383 224.415 501.383 221.813Z" fill="#181614"/>
<path d="M476.448 65.0549C476.201 65.2663 475.829 65.2373 475.618 64.9905C475.407 64.7436 475.436 64.3718 475.682 64.1602L479.804 60.6275C480.024 60.4388 480.349 60.4388 480.57 60.6275L484.691 64.1602C484.938 64.3718 484.967 64.7436 484.756 64.9905C484.544 65.2373 484.172 65.2663 483.925 65.0549L480.187 61.8511L476.448 65.0549Z" fill="white"/>
<path d="M142.269 68.9272C141.368 68.9272 140.648 68.7184 140.11 68.3007C139.582 67.8831 139.318 67.3006 139.318 66.5532C139.318 65.8058 139.538 65.2178 139.978 64.7892C140.417 64.3606 141.115 64.0583 142.072 63.8825L145.171 63.3055C145.171 62.5691 144.995 62.0196 144.643 61.6569C144.303 61.2942 143.786 61.1128 143.094 61.1128C142.489 61.1128 142.011 61.2502 141.659 61.525C141.308 61.7887 141.066 62.1734 140.934 62.679L139.467 62.5636C139.632 61.7393 140.027 61.0744 140.654 60.5688C141.291 60.0522 142.104 59.7939 143.094 59.7939C144.215 59.7939 145.072 60.1127 145.665 60.7501C146.259 61.3766 146.556 62.2449 146.556 63.3549V66.9653C146.556 67.1632 146.589 67.3061 146.655 67.394C146.732 67.4709 146.852 67.5094 147.017 67.5094H147.364V68.7293C147.32 68.7403 147.248 68.7458 147.149 68.7458C147.05 68.7568 146.946 68.7623 146.836 68.7623C146.44 68.7623 146.116 68.7019 145.863 68.581C145.622 68.4491 145.446 68.2513 145.336 67.9875C145.226 67.7127 145.171 67.3555 145.171 66.9159L145.336 66.9489C145.259 67.3225 145.072 67.6633 144.775 67.971C144.478 68.2677 144.11 68.504 143.671 68.6799C143.231 68.8448 142.764 68.9272 142.269 68.9272ZM142.401 67.7072C142.984 67.7072 143.478 67.5973 143.885 67.3775C144.303 67.1467 144.621 66.839 144.841 66.4543C145.061 66.0586 145.171 65.619 145.171 65.1354V64.5089L142.335 65.0365C141.742 65.1464 141.33 65.3168 141.099 65.5476C140.879 65.7674 140.769 66.0586 140.769 66.4213C140.769 66.828 140.912 67.1467 141.198 67.3775C141.495 67.5973 141.896 67.7072 142.401 67.7072Z" fill="#ADADAD"/>
<path d="M136.047 68.7289V59.9913H137.432V68.7289H136.047ZM136.014 58.623V57.0073H137.465V58.623H136.014Z" fill="#ADADAD"/>
<path d="M129.665 68.9268C128.906 68.9268 128.247 68.74 127.686 68.3663C127.137 67.9926 126.714 67.465 126.417 66.7836C126.12 66.1022 125.972 65.2944 125.972 64.3602C125.972 63.426 126.12 62.6182 126.417 61.9367C126.714 61.2553 127.137 60.7278 127.686 60.3541C128.247 59.9804 128.906 59.7936 129.665 59.7936C130.247 59.7936 130.78 59.92 131.264 60.1727C131.747 60.4145 132.11 60.7607 132.352 61.2114V57.0239H133.737V68.729H132.484L132.434 67.4101C132.192 67.8827 131.824 68.2564 131.33 68.5311C130.835 68.7949 130.28 68.9268 129.665 68.9268ZM129.945 67.6079C130.461 67.6079 130.895 67.476 131.247 67.2123C131.61 66.9485 131.885 66.5748 132.071 66.0912C132.258 65.5966 132.352 65.0196 132.352 64.3602C132.352 63.6788 132.258 63.0963 132.071 62.6127C131.885 62.1291 131.61 61.7609 131.247 61.5081C130.895 61.2443 130.461 61.1124 129.945 61.1124C129.175 61.1124 128.56 61.4037 128.098 61.9862C127.648 62.5577 127.422 63.349 127.422 64.3602C127.422 65.3603 127.648 66.1517 128.098 66.7342C128.56 67.3167 129.175 67.6079 129.945 67.6079Z" fill="#ADADAD"/>
<path d="M120.898 68.9272C120.073 68.9272 119.359 68.7403 118.755 68.3667C118.161 67.993 117.699 67.4654 117.37 66.784C117.051 66.0916 116.892 65.2838 116.892 64.3606C116.892 63.4373 117.051 62.635 117.37 61.9536C117.699 61.2722 118.156 60.7446 118.738 60.371C119.332 59.9863 120.029 59.7939 120.832 59.7939C121.59 59.7939 122.261 59.9753 122.843 60.338C123.426 60.6897 123.876 61.2062 124.195 61.8877C124.525 62.5691 124.689 63.3989 124.689 64.377V64.7892H118.342C118.397 65.7234 118.645 66.4268 119.084 66.8994C119.535 67.372 120.139 67.6083 120.898 67.6083C121.469 67.6083 121.936 67.4764 122.299 67.2126C122.673 66.9379 122.931 66.5807 123.074 66.141L124.558 66.2565C124.327 67.0368 123.887 67.6797 123.239 68.1853C122.601 68.6799 121.821 68.9272 120.898 68.9272ZM118.342 63.5692H123.173C123.107 62.723 122.86 62.102 122.431 61.7063C122.013 61.3107 121.48 61.1128 120.832 61.1128C120.161 61.1128 119.606 61.3216 119.167 61.7393C118.738 62.1459 118.463 62.7559 118.342 63.5692Z" fill="#ADADAD"/>
<path d="M103.386 68.729V57.0239H105.365L109.107 67.1793L112.833 57.0239H114.811V68.729H113.393V59.6617L110.047 68.729H108.151L104.804 59.6617V68.729H103.386Z" fill="#ADADAD"/>
<path d="M87.3072 68.7288L84.6035 59.9912H86.1202L88.1645 67.278L90.2417 59.9912H91.7255L93.8027 67.278L95.8634 59.9912H97.3802L94.6764 68.7288H92.9289L90.9836 62.0849L89.0382 68.7288H87.3072Z" fill="#ADADAD"/>
<path d="M80.1496 68.9272C79.3253 68.9272 78.611 68.7403 78.0065 68.3667C77.413 67.993 76.9514 67.4654 76.6216 66.784C76.3029 66.0916 76.1436 65.2838 76.1436 64.3606C76.1436 63.4373 76.3029 62.635 76.6216 61.9536C76.9514 61.2722 77.4075 60.7446 77.99 60.371C78.5835 59.9863 79.2814 59.7939 80.0837 59.7939C80.8421 59.7939 81.5125 59.9753 82.095 60.338C82.6775 60.6897 83.1281 61.2062 83.4468 61.8877C83.7766 62.5691 83.9414 63.3989 83.9414 64.377V64.7892H77.5943C77.6493 65.7234 77.8966 66.4268 78.3362 66.8994C78.7868 67.372 79.3913 67.6083 80.1496 67.6083C80.7212 67.6083 81.1883 67.4764 81.551 67.2126C81.9246 66.9379 82.1829 66.5807 82.3258 66.141L83.8095 66.2565C83.5787 67.0368 83.1391 67.6797 82.4907 68.1853C81.8532 68.6799 81.0729 68.9272 80.1496 68.9272ZM77.5943 63.5692H82.4247C82.3588 62.723 82.1115 62.102 81.6828 61.7063C81.2652 61.3107 80.7322 61.1128 80.0837 61.1128C79.4133 61.1128 78.8582 61.3216 78.4186 61.7393C77.99 62.1459 77.7152 62.7559 77.5943 63.5692Z" fill="#ADADAD"/>
<path d="M64.8438 68.729V57.0239H66.855L72.6416 67.3112V57.0239H74.0594V68.729H71.9492L66.2615 58.6396V68.729H64.8438Z" fill="#ADADAD"/>
<path d="M163.385 121.918C162.56 121.918 161.846 121.731 161.241 121.357C160.648 120.984 160.186 120.456 159.857 119.775C159.538 119.082 159.378 118.275 159.378 117.351C159.378 116.428 159.538 115.626 159.857 114.944C160.186 114.263 160.642 113.735 161.225 113.362C161.818 112.977 162.516 112.785 163.319 112.785C164.077 112.785 164.747 112.966 165.33 113.329C165.912 113.68 166.363 114.197 166.682 114.878C167.011 115.56 167.176 116.39 167.176 117.368V117.78H160.829C160.884 118.714 161.131 119.418 161.571 119.89C162.022 120.363 162.626 120.599 163.385 120.599C163.956 120.599 164.423 120.467 164.786 120.203C165.16 119.929 165.418 119.571 165.561 119.132L167.044 119.247C166.814 120.028 166.374 120.67 165.726 121.176C165.088 121.671 164.308 121.918 163.385 121.918ZM160.829 116.56H165.66C165.594 115.714 165.346 115.093 164.918 114.697C164.5 114.301 163.967 114.104 163.319 114.104C162.648 114.104 162.093 114.312 161.653 114.73C161.225 115.137 160.95 115.747 160.829 116.56Z" fill="#ADADAD"/>
<path d="M153.658 124.391C153.032 124.391 152.466 124.286 151.96 124.078C151.455 123.869 151.031 123.572 150.691 123.187C150.35 122.803 150.119 122.358 149.998 121.852L151.449 121.753C151.581 122.16 151.812 122.478 152.141 122.709C152.482 122.951 152.988 123.072 153.658 123.072C154.449 123.072 155.054 122.913 155.472 122.594C155.9 122.275 156.115 121.797 156.115 121.16V119.742C155.906 120.203 155.571 120.572 155.109 120.846C154.647 121.121 154.131 121.258 153.559 121.258C152.823 121.258 152.163 121.077 151.581 120.714C151.009 120.352 150.559 119.852 150.229 119.214C149.91 118.577 149.751 117.846 149.751 117.022C149.751 116.186 149.91 115.455 150.229 114.829C150.548 114.191 150.987 113.691 151.548 113.329C152.119 112.966 152.768 112.785 153.493 112.785C154.109 112.785 154.658 112.928 155.142 113.213C155.636 113.499 155.983 113.884 156.181 114.367V112.983H157.499V121.127C157.499 121.808 157.346 122.391 157.038 122.874C156.73 123.369 156.29 123.742 155.719 123.995C155.147 124.259 154.46 124.391 153.658 124.391ZM153.625 119.94C154.373 119.94 154.972 119.681 155.422 119.165C155.873 118.637 156.104 117.923 156.115 117.022C156.126 116.417 156.027 115.901 155.818 115.472C155.62 115.032 155.329 114.697 154.944 114.466C154.57 114.224 154.131 114.104 153.625 114.104C152.856 114.104 152.257 114.367 151.828 114.895C151.411 115.411 151.202 116.12 151.202 117.022C151.202 117.923 151.416 118.637 151.845 119.165C152.284 119.681 152.878 119.94 153.625 119.94Z" fill="#ADADAD"/>
<path d="M143.718 121.918C142.817 121.918 142.097 121.709 141.558 121.291C141.031 120.874 140.767 120.291 140.767 119.544C140.767 118.797 140.987 118.209 141.427 117.78C141.866 117.351 142.564 117.049 143.52 116.873L146.62 116.296C146.62 115.56 146.444 115.01 146.092 114.648C145.751 114.285 145.235 114.104 144.542 114.104C143.938 114.104 143.46 114.241 143.108 114.516C142.756 114.779 142.515 115.164 142.383 115.67L140.915 115.554C141.08 114.73 141.476 114.065 142.102 113.56C142.74 113.043 143.553 112.785 144.542 112.785C145.663 112.785 146.521 113.103 147.114 113.741C147.708 114.367 148.004 115.236 148.004 116.346V119.956C148.004 120.154 148.037 120.297 148.103 120.385C148.18 120.462 148.301 120.5 148.466 120.5H148.812V121.72C148.768 121.731 148.697 121.737 148.598 121.737C148.499 121.748 148.395 121.753 148.285 121.753C147.889 121.753 147.565 121.693 147.312 121.572C147.07 121.44 146.894 121.242 146.784 120.978C146.675 120.703 146.62 120.346 146.62 119.907L146.784 119.94C146.708 120.313 146.521 120.654 146.224 120.962C145.927 121.258 145.559 121.495 145.119 121.671C144.68 121.835 144.213 121.918 143.718 121.918ZM143.85 120.698C144.432 120.698 144.927 120.588 145.334 120.368C145.751 120.137 146.07 119.83 146.29 119.445C146.51 119.049 146.62 118.61 146.62 118.126V117.5L143.784 118.027C143.191 118.137 142.778 118.307 142.548 118.538C142.328 118.758 142.218 119.049 142.218 119.412C142.218 119.819 142.361 120.137 142.646 120.368C142.943 120.588 143.344 120.698 143.85 120.698Z" fill="#ADADAD"/>
<path d="M127.064 121.72V112.983H128.333L128.383 115.192L128.185 115.126C128.284 114.642 128.454 114.23 128.696 113.889C128.949 113.538 129.257 113.268 129.619 113.081C129.982 112.884 130.383 112.785 130.823 112.785C131.581 112.785 132.197 112.993 132.669 113.411C133.153 113.829 133.455 114.411 133.576 115.159L133.312 115.142C133.4 114.637 133.559 114.213 133.79 113.873C134.032 113.521 134.34 113.252 134.713 113.065C135.087 112.878 135.516 112.785 135.999 112.785C136.626 112.785 137.153 112.917 137.582 113.18C138.011 113.433 138.335 113.807 138.555 114.301C138.775 114.796 138.884 115.395 138.884 116.098V121.72H137.5V116.395C137.5 115.604 137.346 115.01 137.038 114.615C136.73 114.208 136.274 114.005 135.67 114.005C135.263 114.005 134.906 114.104 134.598 114.301C134.301 114.499 134.071 114.785 133.906 115.159C133.741 115.521 133.658 115.966 133.658 116.494V121.72H132.274V116.494C132.274 115.714 132.136 115.104 131.861 114.664C131.587 114.224 131.125 114.005 130.477 114.005C130.07 114.005 129.713 114.104 129.405 114.301C129.108 114.499 128.872 114.785 128.696 115.159C128.531 115.532 128.449 115.977 128.449 116.494V121.72H127.064Z" fill="#ADADAD"/>
<path d="M122.657 121.72V110.015H124.075V121.72H122.657Z" fill="#ADADAD"/>
<path d="M111.633 121.918C110.874 121.918 110.215 121.731 109.654 121.357C109.105 120.983 108.682 120.456 108.385 119.774C108.088 119.093 107.94 118.285 107.94 117.351C107.94 116.417 108.088 115.609 108.385 114.927C108.682 114.246 109.105 113.718 109.654 113.345C110.215 112.971 110.874 112.784 111.633 112.784C112.215 112.784 112.748 112.911 113.232 113.163C113.716 113.405 114.078 113.751 114.32 114.202V110.015H115.705V121.72H114.452L114.402 120.401C114.161 120.873 113.792 121.247 113.298 121.522C112.803 121.786 112.248 121.918 111.633 121.918ZM111.913 120.599C112.43 120.599 112.864 120.467 113.215 120.203C113.578 119.939 113.853 119.566 114.04 119.082C114.227 118.587 114.32 118.01 114.32 117.351C114.32 116.669 114.227 116.087 114.04 115.603C113.853 115.12 113.578 114.752 113.215 114.499C112.864 114.235 112.43 114.103 111.913 114.103C111.144 114.103 110.528 114.394 110.067 114.977C109.616 115.548 109.391 116.34 109.391 117.351C109.391 118.351 109.616 119.142 110.067 119.725C110.528 120.307 111.144 120.599 111.913 120.599Z" fill="#ADADAD"/>
<path d="M101.908 121.918C101.006 121.918 100.286 121.709 99.7479 121.291C99.2203 120.874 98.9565 120.291 98.9565 119.544C98.9565 118.797 99.1764 118.209 99.616 117.78C100.056 117.351 100.754 117.049 101.71 116.873L104.809 116.296C104.809 115.56 104.633 115.01 104.282 114.648C103.941 114.285 103.424 114.104 102.732 114.104C102.127 114.104 101.649 114.241 101.298 114.516C100.946 114.779 100.704 115.164 100.572 115.67L99.1049 115.554C99.2698 114.73 99.6654 114.065 100.292 113.56C100.929 113.043 101.743 112.785 102.732 112.785C103.853 112.785 104.71 113.103 105.304 113.741C105.897 114.367 106.194 115.236 106.194 116.346V119.956C106.194 120.154 106.227 120.297 106.293 120.385C106.37 120.462 106.491 120.5 106.655 120.5H107.002V121.72C106.958 121.731 106.886 121.737 106.787 121.737C106.688 121.748 106.584 121.753 106.474 121.753C106.078 121.753 105.754 121.693 105.501 121.572C105.26 121.44 105.084 121.242 104.974 120.978C104.864 120.703 104.809 120.346 104.809 119.907L104.974 119.94C104.897 120.313 104.71 120.654 104.413 120.962C104.117 121.258 103.748 121.495 103.309 121.671C102.869 121.835 102.402 121.918 101.908 121.918ZM102.039 120.698C102.622 120.698 103.117 120.588 103.523 120.368C103.941 120.137 104.26 119.83 104.479 119.445C104.699 119.049 104.809 118.61 104.809 118.126V117.5L101.973 118.027C101.38 118.137 100.968 118.307 100.737 118.538C100.517 118.758 100.407 119.049 100.407 119.412C100.407 119.819 100.55 120.137 100.836 120.368C101.133 120.588 101.534 120.698 102.039 120.698Z" fill="#ADADAD"/>
<path d="M93.4475 121.918C92.6452 121.918 91.9418 121.731 91.3373 121.357C90.7328 120.984 90.2657 120.456 89.936 119.775C89.6063 119.082 89.4414 118.275 89.4414 117.351C89.4414 116.417 89.6063 115.609 89.936 114.928C90.2657 114.246 90.7328 113.719 91.3373 113.345C91.9418 112.972 92.6452 112.785 93.4475 112.785C94.2498 112.785 94.9477 112.972 95.5412 113.345C96.1457 113.719 96.6128 114.246 96.9425 114.928C97.2722 115.609 97.4371 116.417 97.4371 117.351C97.4371 118.275 97.2722 119.082 96.9425 119.775C96.6128 120.456 96.1457 120.984 95.5412 121.357C94.9477 121.731 94.2498 121.918 93.4475 121.918ZM93.4475 120.599C94.2498 120.599 94.8708 120.313 95.3104 119.742C95.761 119.159 95.9863 118.362 95.9863 117.351C95.9863 116.34 95.761 115.549 95.3104 114.977C94.8708 114.395 94.2498 114.104 93.4475 114.104C92.6452 114.104 92.0187 114.395 91.5681 114.977C91.1175 115.549 90.8922 116.34 90.8922 117.351C90.8922 118.362 91.1175 119.159 91.5681 119.742C92.0187 120.313 92.6452 120.599 93.4475 120.599Z" fill="#ADADAD"/>
<path d="M87.4514 121.72C86.9458 121.72 86.5336 121.588 86.2149 121.324C85.8962 121.06 85.7368 120.643 85.7368 120.071V110.015H87.1216V119.956C87.1216 120.132 87.1656 120.269 87.2535 120.368C87.3524 120.456 87.4898 120.5 87.6657 120.5H88.424V121.72H87.4514Z" fill="#ADADAD"/>
<path d="M76.0127 124.193V112.983H77.2986L77.3316 114.862L77.1337 114.763C77.3536 114.115 77.7162 113.625 78.2218 113.296C78.7384 112.955 79.3319 112.785 80.0023 112.785C80.8706 112.785 81.5795 112.999 82.129 113.428C82.6895 113.856 83.1017 114.417 83.3654 115.109C83.6402 115.802 83.7776 116.549 83.7776 117.351C83.7776 118.154 83.6402 118.901 83.3654 119.593C83.1017 120.286 82.6895 120.846 82.129 121.275C81.5795 121.704 80.8706 121.918 80.0023 121.918C79.5517 121.918 79.1285 121.841 78.7329 121.687C78.3482 121.533 78.0185 121.319 77.7437 121.044C77.4799 120.769 77.2986 120.445 77.1997 120.071L77.3975 119.841V124.193H76.0127ZM79.8704 120.599C80.6288 120.599 81.2278 120.313 81.6674 119.742C82.107 119.17 82.3268 118.373 82.3268 117.351C82.3268 116.329 82.107 115.532 81.6674 114.961C81.2278 114.389 80.6288 114.104 79.8704 114.104C79.3648 114.104 78.9252 114.224 78.5515 114.466C78.1888 114.708 77.9031 115.071 77.6943 115.554C77.4964 116.038 77.3975 116.637 77.3975 117.351C77.3975 118.066 77.4964 118.665 77.6943 119.148C77.8921 119.632 78.1779 119.995 78.5515 120.236C78.9252 120.478 79.3648 120.599 79.8704 120.599Z" fill="#ADADAD"/>
<path d="M69.0149 121.983C68.1137 121.983 67.3279 121.808 66.6574 121.456C65.998 121.104 65.4869 120.604 65.1242 119.956C64.7725 119.296 64.5967 118.521 64.5967 117.631V109.998H66.0145V117.631C66.0145 118.576 66.2728 119.307 66.7893 119.824C67.3169 120.34 68.0587 120.599 69.0149 120.599C69.9601 120.599 70.691 120.34 71.2076 119.824C71.7351 119.307 71.9989 118.576 71.9989 117.631V109.998H73.4167V117.631C73.4167 118.521 73.2353 119.296 72.8726 119.956C72.5209 120.604 72.0154 121.104 71.3559 121.456C70.6965 121.808 69.9162 121.983 69.0149 121.983Z" fill="#ADADAD"/>
<path d="M275.422 166.467V154.762H276.807V159.659L276.642 159.626C276.752 159.142 276.939 158.746 277.202 158.439C277.466 158.131 277.79 157.906 278.175 157.763C278.56 157.609 278.983 157.532 279.444 157.532C280.071 157.532 280.598 157.675 281.027 157.96C281.467 158.235 281.796 158.625 282.016 159.131C282.247 159.626 282.362 160.197 282.362 160.846V166.467H280.978V161.241C280.978 160.395 280.824 159.768 280.516 159.362C280.219 158.955 279.763 158.752 279.148 158.752C278.444 158.752 277.878 158.966 277.45 159.395C277.021 159.823 276.807 160.444 276.807 161.258V166.467H275.422Z" fill="#ADADAD"/>
<path d="M270.119 166.665C269.339 166.665 268.674 166.539 268.124 166.286C267.586 166.033 267.163 165.687 266.855 165.247C266.558 164.797 266.388 164.285 266.344 163.714L267.795 163.615C267.882 164.143 268.108 164.566 268.47 164.884C268.833 165.192 269.383 165.346 270.119 165.346C270.713 165.346 271.185 165.253 271.537 165.066C271.9 164.868 272.081 164.555 272.081 164.126C272.081 163.895 272.026 163.703 271.916 163.549C271.806 163.395 271.592 163.263 271.273 163.153C270.954 163.033 270.482 162.917 269.855 162.807C269.02 162.653 268.361 162.467 267.877 162.247C267.404 162.016 267.064 161.736 266.855 161.406C266.657 161.065 266.558 160.664 266.558 160.202C266.558 159.422 266.844 158.785 267.415 158.29C267.987 157.785 268.8 157.532 269.855 157.532C270.57 157.532 271.169 157.664 271.652 157.927C272.147 158.18 272.531 158.521 272.806 158.95C273.092 159.367 273.279 159.829 273.367 160.334L271.916 160.433C271.85 160.126 271.729 159.856 271.553 159.625C271.377 159.384 271.147 159.197 270.861 159.065C270.575 158.922 270.234 158.851 269.839 158.851C269.212 158.851 268.751 158.972 268.454 159.213C268.157 159.455 268.009 159.763 268.009 160.137C268.009 160.422 268.075 160.659 268.207 160.845C268.35 161.021 268.575 161.17 268.883 161.291C269.19 161.4 269.602 161.499 270.119 161.587C271.009 161.741 271.702 161.928 272.196 162.148C272.691 162.368 273.037 162.637 273.235 162.956C273.433 163.274 273.532 163.665 273.532 164.126C273.532 164.665 273.378 165.126 273.07 165.511C272.773 165.885 272.367 166.17 271.85 166.368C271.345 166.566 270.767 166.665 270.119 166.665Z" fill="#ADADAD"/>
<path d="M260.311 166.665C259.41 166.665 258.69 166.456 258.152 166.039C257.624 165.621 257.36 165.038 257.36 164.291C257.36 163.544 257.58 162.956 258.02 162.527C258.459 162.098 259.157 161.796 260.114 161.62L263.213 161.043C263.213 160.307 263.037 159.757 262.685 159.395C262.345 159.032 261.828 158.851 261.136 158.851C260.531 158.851 260.053 158.988 259.701 159.263C259.35 159.527 259.108 159.911 258.976 160.417L257.509 160.301C257.674 159.477 258.069 158.812 258.696 158.307C259.333 157.79 260.146 157.532 261.136 157.532C262.257 157.532 263.114 157.85 263.707 158.488C264.301 159.114 264.598 159.983 264.598 161.093V164.703C264.598 164.901 264.631 165.044 264.697 165.132C264.774 165.209 264.894 165.247 265.059 165.247H265.406V166.467C265.362 166.478 265.29 166.484 265.191 166.484C265.092 166.495 264.988 166.5 264.878 166.5C264.482 166.5 264.158 166.44 263.905 166.319C263.663 166.187 263.488 165.989 263.378 165.725C263.268 165.451 263.213 165.093 263.213 164.654L263.378 164.687C263.301 165.06 263.114 165.401 262.817 165.709C262.52 166.006 262.152 166.242 261.713 166.418C261.273 166.583 260.806 166.665 260.311 166.665ZM260.443 165.445C261.026 165.445 261.52 165.335 261.927 165.115C262.345 164.884 262.663 164.577 262.883 164.192C263.103 163.796 263.213 163.357 263.213 162.873V162.247L260.377 162.774C259.784 162.884 259.372 163.055 259.141 163.285C258.921 163.505 258.811 163.796 258.811 164.159C258.811 164.566 258.954 164.884 259.24 165.115C259.537 165.335 259.938 165.445 260.443 165.445Z" fill="#ADADAD"/>
<path d="M255.273 166.467C254.768 166.467 254.355 166.335 254.037 166.072C253.718 165.808 253.559 165.39 253.559 164.819V154.762H254.943V164.703C254.943 164.879 254.987 165.016 255.075 165.115C255.174 165.203 255.312 165.247 255.487 165.247H256.246V166.467H255.273Z" fill="#ADADAD"/>
<path d="M243.834 168.94V157.73H245.12L245.153 159.609L244.956 159.51C245.175 158.862 245.538 158.373 246.044 158.043C246.56 157.702 247.154 157.532 247.824 157.532C248.692 157.532 249.401 157.746 249.951 158.175C250.511 158.603 250.923 159.164 251.187 159.856C251.462 160.549 251.599 161.296 251.599 162.098C251.599 162.901 251.462 163.648 251.187 164.34C250.923 165.033 250.511 165.593 249.951 166.022C249.401 166.451 248.692 166.665 247.824 166.665C247.373 166.665 246.95 166.588 246.555 166.434C246.17 166.28 245.84 166.066 245.566 165.791C245.302 165.516 245.12 165.192 245.021 164.819L245.219 164.588V168.94H243.834ZM247.692 165.346C248.451 165.346 249.05 165.06 249.489 164.489C249.929 163.917 250.149 163.12 250.149 162.098C250.149 161.076 249.929 160.279 249.489 159.708C249.05 159.136 248.451 158.851 247.692 158.851C247.187 158.851 246.747 158.972 246.373 159.213C246.011 159.455 245.725 159.818 245.516 160.301C245.318 160.785 245.219 161.384 245.219 162.098C245.219 162.813 245.318 163.412 245.516 163.895C245.714 164.379 246 164.742 246.373 164.983C246.747 165.225 247.187 165.346 247.692 165.346Z" fill="#ADADAD"/>
<path d="M238.532 166.665C237.751 166.665 237.086 166.539 236.537 166.286C235.998 166.033 235.575 165.687 235.267 165.247C234.971 164.797 234.8 164.285 234.756 163.714L236.207 163.615C236.295 164.143 236.52 164.566 236.883 164.884C237.246 165.192 237.795 165.346 238.532 165.346C239.125 165.346 239.598 165.253 239.949 165.066C240.312 164.868 240.493 164.555 240.493 164.126C240.493 163.895 240.439 163.703 240.329 163.549C240.219 163.395 240.004 163.263 239.686 163.153C239.367 163.033 238.894 162.917 238.268 162.807C237.433 162.653 236.773 162.467 236.29 162.247C235.817 162.016 235.476 161.736 235.267 161.406C235.07 161.065 234.971 160.664 234.971 160.202C234.971 159.422 235.256 158.785 235.828 158.29C236.399 157.785 237.213 157.532 238.268 157.532C238.982 157.532 239.581 157.664 240.065 157.927C240.559 158.18 240.944 158.521 241.219 158.95C241.505 159.367 241.691 159.829 241.779 160.334L240.329 160.433C240.263 160.126 240.142 159.856 239.966 159.625C239.79 159.384 239.559 159.197 239.274 159.065C238.988 158.922 238.647 158.851 238.251 158.851C237.625 158.851 237.163 158.972 236.867 159.213C236.57 159.455 236.421 159.763 236.421 160.137C236.421 160.422 236.487 160.659 236.619 160.845C236.762 161.021 236.987 161.17 237.295 161.291C237.603 161.4 238.015 161.499 238.532 161.587C239.422 161.741 240.114 161.928 240.609 162.148C241.103 162.368 241.45 162.637 241.647 162.956C241.845 163.274 241.944 163.665 241.944 164.126C241.944 164.665 241.79 165.126 241.483 165.511C241.186 165.885 240.779 166.17 240.263 166.368C239.757 166.566 239.18 166.665 238.532 166.665Z" fill="#ADADAD"/>
<path d="M225.964 166.467V157.73H227.233L227.283 159.955L227.118 159.807C227.228 159.29 227.42 158.867 227.695 158.537C227.97 158.197 228.299 157.944 228.684 157.779C229.08 157.614 229.503 157.532 229.953 157.532C230.624 157.532 231.173 157.68 231.602 157.977C232.042 158.274 232.366 158.675 232.575 159.18C232.795 159.675 232.904 160.23 232.904 160.845V166.467H231.52V161.241C231.52 160.703 231.454 160.252 231.322 159.889C231.201 159.516 231.003 159.235 230.728 159.048C230.454 158.851 230.096 158.752 229.657 158.752C228.986 158.752 228.431 158.966 227.992 159.395C227.563 159.812 227.349 160.428 227.349 161.241V166.467H225.964Z" fill="#ADADAD"/>
<path d="M218.967 166.731C218.065 166.731 217.28 166.555 216.609 166.203C215.95 165.852 215.439 165.352 215.076 164.703C214.724 164.044 214.548 163.269 214.548 162.379V154.746H215.966V162.379C215.966 163.324 216.224 164.055 216.741 164.571C217.269 165.088 218.01 165.346 218.967 165.346C219.912 165.346 220.643 165.088 221.159 164.571C221.687 164.055 221.951 163.324 221.951 162.379V154.746H223.368V162.379C223.368 163.269 223.187 164.044 222.824 164.703C222.473 165.352 221.967 165.852 221.308 166.203C220.648 166.555 219.868 166.731 218.967 166.731Z" fill="#ADADAD"/>
<path d="M196.019 166.467V157.73H197.288L197.337 159.939L197.14 159.873C197.239 159.389 197.409 158.977 197.651 158.636C197.903 158.285 198.211 158.015 198.574 157.828C198.937 157.631 199.338 157.532 199.777 157.532C200.536 157.532 201.151 157.741 201.624 158.158C202.107 158.576 202.41 159.158 202.531 159.906L202.267 159.889C202.355 159.384 202.514 158.961 202.745 158.62C202.987 158.268 203.294 157.999 203.668 157.812C204.042 157.625 204.47 157.532 204.954 157.532C205.58 157.532 206.108 157.664 206.537 157.927C206.965 158.18 207.289 158.554 207.509 159.048C207.729 159.543 207.839 160.142 207.839 160.845V166.467H206.454V161.142C206.454 160.351 206.3 159.757 205.993 159.362C205.685 158.955 205.229 158.752 204.624 158.752C204.218 158.752 203.86 158.851 203.553 159.048C203.256 159.246 203.025 159.532 202.86 159.906C202.695 160.268 202.613 160.714 202.613 161.241V166.467H201.228V161.241C201.228 160.461 201.091 159.851 200.816 159.411C200.541 158.972 200.08 158.752 199.431 158.752C199.024 158.752 198.667 158.851 198.36 159.048C198.063 159.246 197.827 159.532 197.651 159.906C197.486 160.279 197.403 160.725 197.403 161.241V166.467H196.019Z" fill="#ADADAD"/>
<path d="M190.142 166.665C189.34 166.665 188.637 166.478 188.032 166.104C187.428 165.731 186.961 165.203 186.631 164.522C186.301 163.829 186.136 163.022 186.136 162.098C186.136 161.164 186.301 160.356 186.631 159.675C186.961 158.993 187.428 158.466 188.032 158.092C188.637 157.719 189.34 157.532 190.142 157.532C190.945 157.532 191.643 157.719 192.236 158.092C192.841 158.466 193.308 158.993 193.637 159.675C193.967 160.356 194.132 161.164 194.132 162.098C194.132 163.022 193.967 163.829 193.637 164.522C193.308 165.203 192.841 165.731 192.236 166.104C191.643 166.478 190.945 166.665 190.142 166.665ZM190.142 165.346C190.945 165.346 191.566 165.06 192.005 164.489C192.456 163.906 192.681 163.109 192.681 162.098C192.681 161.087 192.456 160.296 192.005 159.724C191.566 159.142 190.945 158.851 190.142 158.851C189.34 158.851 188.714 159.142 188.263 159.724C187.812 160.296 187.587 161.087 187.587 162.098C187.587 163.109 187.812 163.906 188.263 164.489C188.714 165.06 189.34 165.346 190.142 165.346Z" fill="#ADADAD"/>
<path d="M181.143 166.468V157.73H182.363L182.428 159.939L182.297 159.89C182.406 159.142 182.643 158.598 183.005 158.258C183.379 157.906 183.874 157.73 184.489 157.73H185.347V159.049H184.506C184.066 159.049 183.698 159.131 183.401 159.296C183.115 159.45 182.896 159.686 182.742 160.005C182.599 160.313 182.527 160.708 182.527 161.192V166.468H181.143Z" fill="#ADADAD"/>
<path d="M175.995 166.467V156.938C175.995 156.29 176.181 155.768 176.555 155.372C176.929 154.966 177.511 154.762 178.303 154.762H179.687V155.982H178.402C178.061 155.982 177.803 156.076 177.627 156.262C177.462 156.449 177.379 156.708 177.379 157.037V166.467H175.995ZM174.808 158.95V157.73H179.572V158.95H174.808Z" fill="#ADADAD"/>
<path d="M165.187 166.665C164.363 166.665 163.649 166.478 163.044 166.104C162.451 165.731 161.989 165.203 161.659 164.522C161.341 163.829 161.181 163.022 161.181 162.098C161.181 161.175 161.341 160.373 161.659 159.691C161.989 159.01 162.445 158.482 163.028 158.109C163.621 157.724 164.319 157.532 165.121 157.532C165.88 157.532 166.55 157.713 167.133 158.076C167.715 158.427 168.166 158.944 168.484 159.625C168.814 160.307 168.979 161.137 168.979 162.115V162.527H162.632C162.687 163.461 162.934 164.165 163.374 164.637C163.824 165.11 164.429 165.346 165.187 165.346C165.759 165.346 166.226 165.214 166.589 164.95C166.962 164.676 167.221 164.318 167.363 163.879L168.847 163.994C168.616 164.775 168.177 165.418 167.528 165.923C166.891 166.418 166.11 166.665 165.187 166.665ZM162.632 161.307H167.462C167.396 160.461 167.149 159.84 166.72 159.444C166.303 159.048 165.77 158.851 165.121 158.851C164.451 158.851 163.896 159.059 163.456 159.477C163.028 159.884 162.753 160.494 162.632 161.307Z" fill="#ADADAD"/>
<path d="M155.461 169.138C154.834 169.138 154.268 169.033 153.763 168.825C153.257 168.616 152.834 168.319 152.493 167.934C152.153 167.55 151.922 167.105 151.801 166.599L153.252 166.5C153.384 166.907 153.614 167.225 153.944 167.456C154.285 167.698 154.79 167.819 155.461 167.819C156.252 167.819 156.857 167.66 157.274 167.341C157.703 167.022 157.917 166.544 157.917 165.907V164.489C157.708 164.95 157.373 165.319 156.912 165.593C156.45 165.868 155.933 166.006 155.362 166.006C154.626 166.006 153.966 165.824 153.384 165.461C152.812 165.099 152.362 164.599 152.032 163.961C151.713 163.324 151.554 162.593 151.554 161.769C151.554 160.933 151.713 160.202 152.032 159.576C152.351 158.939 152.79 158.438 153.351 158.076C153.922 157.713 154.571 157.532 155.296 157.532C155.912 157.532 156.461 157.675 156.945 157.96C157.439 158.246 157.785 158.631 157.983 159.114V157.73H159.302V165.874C159.302 166.555 159.148 167.138 158.841 167.621C158.533 168.116 158.093 168.489 157.522 168.742C156.95 169.006 156.263 169.138 155.461 169.138ZM155.428 164.687C156.175 164.687 156.774 164.428 157.225 163.912C157.676 163.384 157.906 162.67 157.917 161.769C157.928 161.164 157.829 160.648 157.621 160.219C157.423 159.779 157.131 159.444 156.747 159.213C156.373 158.972 155.933 158.851 155.428 158.851C154.659 158.851 154.06 159.114 153.631 159.642C153.213 160.159 153.004 160.867 153.004 161.769C153.004 162.67 153.219 163.384 153.647 163.912C154.087 164.428 154.681 164.687 155.428 164.687Z" fill="#ADADAD"/>
<path d="M145.521 166.665C144.62 166.665 143.9 166.456 143.362 166.039C142.834 165.621 142.57 165.038 142.57 164.291C142.57 163.544 142.79 162.956 143.23 162.527C143.669 162.098 144.367 161.796 145.323 161.62L148.423 161.043C148.423 160.307 148.247 159.757 147.895 159.395C147.555 159.032 147.038 158.851 146.346 158.851C145.741 158.851 145.263 158.988 144.911 159.263C144.56 159.527 144.318 159.911 144.186 160.417L142.719 160.301C142.884 159.477 143.279 158.812 143.906 158.307C144.543 157.79 145.356 157.532 146.346 157.532C147.467 157.532 148.324 157.85 148.917 158.488C149.511 159.114 149.808 159.983 149.808 161.093V164.703C149.808 164.901 149.841 165.044 149.907 165.132C149.984 165.209 150.104 165.247 150.269 165.247H150.615V166.467C150.572 166.478 150.5 166.484 150.401 166.484C150.302 166.495 150.198 166.5 150.088 166.5C149.692 166.5 149.368 166.44 149.115 166.319C148.873 166.187 148.698 165.989 148.588 165.725C148.478 165.451 148.423 165.093 148.423 164.654L148.588 164.687C148.511 165.06 148.324 165.401 148.027 165.709C147.73 166.006 147.362 166.242 146.923 166.418C146.483 166.583 146.016 166.665 145.521 166.665ZM145.653 165.445C146.236 165.445 146.73 165.335 147.137 165.115C147.555 164.884 147.873 164.577 148.093 164.192C148.313 163.796 148.423 163.357 148.423 162.873V162.247L145.587 162.774C144.994 162.884 144.582 163.055 144.351 163.285C144.131 163.505 144.021 163.796 144.021 164.159C144.021 164.566 144.164 164.884 144.45 165.115C144.746 165.335 145.148 165.445 145.653 165.445Z" fill="#ADADAD"/>
<path d="M128.867 166.467V157.73H130.137L130.186 159.939L129.988 159.873C130.087 159.389 130.258 158.977 130.499 158.636C130.752 158.285 131.06 158.015 131.423 157.828C131.785 157.631 132.186 157.532 132.626 157.532C133.384 157.532 134 157.741 134.472 158.158C134.956 158.576 135.258 159.158 135.379 159.906L135.115 159.889C135.203 159.384 135.363 158.961 135.593 158.62C135.835 158.268 136.143 157.999 136.517 157.812C136.89 157.625 137.319 157.532 137.803 157.532C138.429 157.532 138.957 157.664 139.385 157.927C139.814 158.18 140.138 158.554 140.358 159.048C140.578 159.543 140.688 160.142 140.688 160.845V166.467H139.303V161.142C139.303 160.351 139.149 159.757 138.841 159.362C138.533 158.955 138.077 158.752 137.473 158.752C137.066 158.752 136.709 158.851 136.401 159.048C136.105 159.246 135.874 159.532 135.709 159.906C135.544 160.268 135.462 160.714 135.462 161.241V166.467H134.077V161.241C134.077 160.461 133.939 159.851 133.665 159.411C133.39 158.972 132.928 158.752 132.28 158.752C131.873 158.752 131.516 158.851 131.208 159.048C130.911 159.246 130.675 159.532 130.499 159.906C130.334 160.279 130.252 160.725 130.252 161.241V166.467H128.867Z" fill="#ADADAD"/>
<path d="M124.46 166.467V154.762H125.878V166.467H124.46Z" fill="#ADADAD"/>
<path d="M110.562 166.467V157.73H111.832L111.881 159.955L111.717 159.807C111.826 159.29 112.019 158.867 112.294 158.537C112.568 158.197 112.898 157.944 113.283 157.779C113.678 157.614 114.101 157.532 114.552 157.532C115.223 157.532 115.772 157.68 116.201 157.977C116.64 158.274 116.965 158.675 117.173 159.18C117.393 159.675 117.503 160.23 117.503 160.845V166.467H116.118V161.241C116.118 160.703 116.052 160.252 115.92 159.889C115.8 159.516 115.602 159.235 115.327 159.048C115.052 158.851 114.695 158.752 114.255 158.752C113.585 158.752 113.03 158.966 112.59 159.395C112.162 159.812 111.947 160.428 111.947 161.241V166.467H110.562Z" fill="#ADADAD"/>
<path d="M103.904 166.665C103.003 166.665 102.283 166.456 101.744 166.039C101.217 165.621 100.953 165.038 100.953 164.291C100.953 163.544 101.173 162.956 101.613 162.527C102.052 162.098 102.75 161.796 103.706 161.62L106.806 161.043C106.806 160.307 106.63 159.757 106.278 159.395C105.937 159.032 105.421 158.851 104.728 158.851C104.124 158.851 103.646 158.988 103.294 159.263C102.942 159.527 102.701 159.911 102.569 160.417L101.102 160.301C101.266 159.477 101.662 158.812 102.288 158.307C102.926 157.79 103.739 157.532 104.728 157.532C105.849 157.532 106.707 157.85 107.3 158.488C107.894 159.114 108.19 159.983 108.19 161.093V164.703C108.19 164.901 108.223 165.044 108.289 165.132C108.366 165.209 108.487 165.247 108.652 165.247H108.998V166.467C108.954 166.478 108.883 166.484 108.784 166.484C108.685 166.495 108.581 166.5 108.471 166.5C108.075 166.5 107.751 166.44 107.498 166.319C107.256 166.187 107.08 165.989 106.971 165.725C106.861 165.451 106.806 165.093 106.806 164.654L106.971 164.687C106.894 165.06 106.707 165.401 106.41 165.709C106.113 166.006 105.745 166.242 105.305 166.418C104.866 166.583 104.399 166.665 103.904 166.665ZM104.036 165.445C104.619 165.445 105.113 165.335 105.52 165.115C105.937 164.884 106.256 164.577 106.476 164.192C106.696 163.796 106.806 163.357 106.806 162.873V162.247L103.97 162.774C103.377 162.884 102.964 163.055 102.734 163.285C102.514 163.505 102.404 163.796 102.404 164.159C102.404 164.566 102.547 164.884 102.833 165.115C103.129 165.335 103.53 165.445 104.036 165.445Z" fill="#ADADAD"/>
<path d="M90.7197 166.665C89.9614 166.665 89.3019 166.478 88.7414 166.105C88.1919 165.731 87.7687 165.203 87.472 164.522C87.1752 163.84 87.0269 163.033 87.0269 162.098C87.0269 161.164 87.1752 160.356 87.472 159.675C87.7687 158.994 88.1919 158.466 88.7414 158.092C89.3019 157.719 89.9614 157.532 90.7197 157.532C91.3022 157.532 91.8353 157.658 92.3189 157.911C92.8024 158.153 93.1651 158.499 93.4069 158.95V154.762H94.7918V166.467H93.5388L93.4894 165.148C93.2476 165.621 92.8794 165.995 92.3848 166.269C91.8902 166.533 91.3352 166.665 90.7197 166.665ZM91 165.346C91.5165 165.346 91.9507 165.214 92.3024 164.951C92.6651 164.687 92.9398 164.313 93.1267 163.829C93.3135 163.335 93.4069 162.758 93.4069 162.098C93.4069 161.417 93.3135 160.835 93.1267 160.351C92.9398 159.867 92.6651 159.499 92.3024 159.246C91.9507 158.983 91.5165 158.851 91 158.851C90.2306 158.851 89.6152 159.142 89.1535 159.724C88.7029 160.296 88.4776 161.087 88.4776 162.098C88.4776 163.099 88.7029 163.89 89.1535 164.472C89.6152 165.055 90.2306 165.346 91 165.346Z" fill="#ADADAD"/>
<path d="M78.2339 166.467V157.73H79.5033L79.5528 159.955L79.3879 159.807C79.4978 159.29 79.6901 158.867 79.9649 158.537C80.2397 158.197 80.5694 157.944 80.9541 157.779C81.3497 157.614 81.7729 157.532 82.2235 157.532C82.8939 157.532 83.4435 157.68 83.8721 157.977C84.3117 158.274 84.6359 158.675 84.8448 159.18C85.0646 159.675 85.1745 160.23 85.1745 160.845V166.467H83.7897V161.241C83.7897 160.703 83.7237 160.252 83.5918 159.889C83.4709 159.516 83.2731 159.235 82.9983 159.048C82.7236 158.851 82.3664 158.752 81.9267 158.752C81.2563 158.752 80.7013 158.966 80.2617 159.395C79.833 159.812 79.6187 160.428 79.6187 161.241V166.467H78.2339Z" fill="#ADADAD"/>
<path d="M74.0476 166.467V157.73H75.4324V166.467H74.0476ZM74.0146 156.361V154.746H75.4654V156.361H74.0146Z" fill="#ADADAD"/>
<path d="M64.8438 166.467V154.762H72.1965V156.147H65.5526L66.2615 155.422V160.796L65.5526 160.071H71.8998V161.423H65.5526L66.2615 160.697V166.467H64.8438Z" fill="#ADADAD"/>
<path d="M261.55 283.046C260.759 283.046 260.171 282.865 259.786 282.502C259.412 282.14 259.225 281.574 259.225 280.804V272.265H260.61V280.771C260.61 281.167 260.698 281.442 260.874 281.596C261.05 281.75 261.319 281.827 261.682 281.827H262.935V283.046H261.55ZM257.939 275.529V274.309H262.935V275.529H257.939Z" fill="#ADADAD"/>
<path d="M249.433 283.047V274.309H250.702L250.752 276.535L250.587 276.386C250.697 275.87 250.889 275.447 251.164 275.117C251.438 274.776 251.768 274.523 252.153 274.359C252.548 274.194 252.972 274.111 253.422 274.111C254.093 274.111 254.642 274.26 255.071 274.556C255.51 274.853 255.835 275.254 256.043 275.76C256.263 276.255 256.373 276.81 256.373 277.425V283.047H254.988V277.821C254.988 277.282 254.922 276.832 254.791 276.469C254.67 276.095 254.472 275.815 254.197 275.628C253.922 275.43 253.565 275.331 253.125 275.331C252.455 275.331 251.9 275.546 251.46 275.974C251.032 276.392 250.817 277.007 250.817 277.821V283.047H249.433Z" fill="#ADADAD"/>
<path d="M242.774 283.245C241.873 283.245 241.153 283.036 240.615 282.618C240.087 282.2 239.823 281.618 239.823 280.871C239.823 280.123 240.043 279.535 240.483 279.107C240.922 278.678 241.62 278.376 242.576 278.2L245.676 277.623C245.676 276.886 245.5 276.337 245.148 275.974C244.808 275.612 244.291 275.43 243.599 275.43C242.994 275.43 242.516 275.568 242.164 275.842C241.813 276.106 241.571 276.491 241.439 276.996L239.972 276.881C240.136 276.057 240.532 275.392 241.159 274.886C241.796 274.37 242.609 274.111 243.599 274.111C244.72 274.111 245.577 274.43 246.17 275.068C246.764 275.694 247.061 276.562 247.061 277.672V281.283C247.061 281.481 247.094 281.623 247.159 281.711C247.236 281.788 247.357 281.827 247.522 281.827H247.868V283.047C247.824 283.058 247.753 283.063 247.654 283.063C247.555 283.074 247.451 283.08 247.341 283.08C246.945 283.08 246.621 283.019 246.368 282.898C246.126 282.766 245.951 282.569 245.841 282.305C245.731 282.03 245.676 281.673 245.676 281.233L245.841 281.266C245.764 281.64 245.577 281.981 245.28 282.288C244.983 282.585 244.615 282.821 244.176 282.997C243.736 283.162 243.269 283.245 242.774 283.245ZM242.906 282.025C243.489 282.025 243.983 281.915 244.39 281.695C244.808 281.464 245.126 281.156 245.346 280.772C245.566 280.376 245.676 279.936 245.676 279.453V278.826L242.84 279.354C242.247 279.464 241.835 279.634 241.604 279.865C241.384 280.085 241.274 280.376 241.274 280.739C241.274 281.145 241.417 281.464 241.703 281.695C241.999 281.915 242.401 282.025 242.906 282.025Z" fill="#ADADAD"/>
<path d="M229.027 283.047L226.323 274.309H227.84L229.884 281.596L231.961 274.309H233.445L235.522 281.596L237.583 274.309H239.1L236.396 283.047H234.649L232.703 276.403L230.758 283.047H229.027Z" fill="#ADADAD"/>
<path d="M216.544 283.244C215.676 283.244 214.978 282.953 214.451 282.371C213.934 281.777 213.676 280.964 213.676 279.931V274.309H215.061V279.552C215.061 280.398 215.209 281.024 215.506 281.431C215.813 281.827 216.281 282.025 216.907 282.025C217.599 282.025 218.143 281.805 218.539 281.365C218.935 280.914 219.133 280.299 219.133 279.519V274.309H220.517V283.047H219.199V280.887L219.413 281.002C219.237 281.717 218.902 282.272 218.407 282.667C217.913 283.052 217.292 283.244 216.544 283.244Z" fill="#ADADAD"/>
<path d="M207.799 283.245C206.996 283.245 206.293 283.058 205.688 282.684C205.084 282.31 204.617 281.783 204.287 281.101C203.957 280.409 203.792 279.601 203.792 278.678C203.792 277.744 203.957 276.936 204.287 276.255C204.617 275.573 205.084 275.046 205.688 274.672C206.293 274.298 206.996 274.111 207.799 274.111C208.601 274.111 209.299 274.298 209.892 274.672C210.497 275.046 210.964 275.573 211.294 276.255C211.623 276.936 211.788 277.744 211.788 278.678C211.788 279.601 211.623 280.409 211.294 281.101C210.964 281.783 210.497 282.31 209.892 282.684C209.299 283.058 208.601 283.245 207.799 283.245ZM207.799 281.926C208.601 281.926 209.222 281.64 209.662 281.068C210.112 280.486 210.337 279.689 210.337 278.678C210.337 277.667 210.112 276.875 209.662 276.304C209.222 275.721 208.601 275.43 207.799 275.43C206.996 275.43 206.37 275.721 205.919 276.304C205.469 276.875 205.243 277.667 205.243 278.678C205.243 279.689 205.469 280.486 205.919 281.068C206.37 281.64 206.996 281.926 207.799 281.926Z" fill="#ADADAD"/>
<path d="M196.345 285.52V284.3H197.351C197.659 284.3 197.884 284.25 198.027 284.151C198.181 284.063 198.296 283.915 198.373 283.706L198.686 282.882H198.208L195.01 274.309H196.526L199.131 281.596L201.621 274.309H203.137L199.593 284.151C199.428 284.624 199.181 284.97 198.851 285.19C198.521 285.41 198.065 285.52 197.483 285.52H196.345Z" fill="#ADADAD"/>
<path d="M186.016 283.245C185.192 283.245 184.477 283.058 183.873 282.684C183.279 282.31 182.818 281.783 182.488 281.101C182.169 280.409 182.01 279.601 182.01 278.678C182.01 277.755 182.169 276.952 182.488 276.271C182.818 275.59 183.274 275.062 183.856 274.688C184.45 274.304 185.148 274.111 185.95 274.111C186.708 274.111 187.379 274.293 187.961 274.655C188.544 275.007 188.994 275.524 189.313 276.205C189.643 276.886 189.808 277.716 189.808 278.694V279.107H183.461C183.515 280.041 183.763 280.744 184.202 281.217C184.653 281.689 185.258 281.926 186.016 281.926C186.587 281.926 187.054 281.794 187.417 281.53C187.791 281.255 188.049 280.898 188.192 280.458L189.676 280.574C189.445 281.354 189.005 281.997 188.357 282.503C187.719 282.997 186.939 283.245 186.016 283.245ZM183.461 277.887H188.291C188.225 277.04 187.978 276.419 187.549 276.024C187.131 275.628 186.598 275.43 185.95 275.43C185.279 275.43 184.724 275.639 184.285 276.057C183.856 276.463 183.581 277.073 183.461 277.887Z" fill="#ADADAD"/>
<path d="M176.289 285.717C175.663 285.717 175.097 285.613 174.591 285.404C174.085 285.195 173.662 284.899 173.322 284.514C172.981 284.129 172.75 283.684 172.629 283.179L174.08 283.08C174.212 283.486 174.443 283.805 174.772 284.036C175.113 284.278 175.619 284.399 176.289 284.399C177.08 284.399 177.685 284.239 178.102 283.92C178.531 283.602 178.745 283.124 178.745 282.486V281.068C178.537 281.53 178.201 281.898 177.74 282.173C177.278 282.448 176.762 282.585 176.19 282.585C175.454 282.585 174.794 282.404 174.212 282.041C173.64 281.678 173.19 281.178 172.86 280.541C172.541 279.903 172.382 279.173 172.382 278.348C172.382 277.513 172.541 276.782 172.86 276.156C173.179 275.518 173.618 275.018 174.179 274.655C174.75 274.293 175.399 274.111 176.124 274.111C176.74 274.111 177.289 274.254 177.773 274.54C178.267 274.826 178.614 275.21 178.811 275.694V274.309H180.13V282.453C180.13 283.135 179.976 283.717 179.669 284.201C179.361 284.695 178.921 285.069 178.35 285.322C177.778 285.586 177.091 285.717 176.289 285.717ZM176.256 281.266C177.003 281.266 177.602 281.008 178.053 280.491C178.504 279.964 178.734 279.249 178.745 278.348C178.756 277.744 178.657 277.227 178.449 276.799C178.251 276.359 177.96 276.024 177.575 275.793C177.201 275.551 176.762 275.43 176.256 275.43C175.487 275.43 174.888 275.694 174.459 276.222C174.041 276.738 173.833 277.447 173.833 278.348C173.833 279.249 174.047 279.964 174.476 280.491C174.915 281.008 175.509 281.266 176.256 281.266Z" fill="#ADADAD"/>
<path d="M166.35 283.245C165.449 283.245 164.729 283.036 164.19 282.618C163.663 282.2 163.399 281.618 163.399 280.871C163.399 280.123 163.619 279.535 164.058 279.107C164.498 278.678 165.196 278.376 166.152 278.2L169.251 277.623C169.251 276.886 169.076 276.337 168.724 275.974C168.383 275.612 167.867 275.43 167.174 275.43C166.57 275.43 166.092 275.568 165.74 275.842C165.388 276.106 165.146 276.491 165.015 276.996L163.547 276.881C163.712 276.057 164.108 275.392 164.734 274.886C165.372 274.37 166.185 274.111 167.174 274.111C168.295 274.111 169.153 274.43 169.746 275.068C170.34 275.694 170.636 276.562 170.636 277.672V281.283C170.636 281.481 170.669 281.623 170.735 281.711C170.812 281.788 170.933 281.827 171.098 281.827H171.444V283.047C171.4 283.058 171.329 283.063 171.23 283.063C171.131 283.074 171.026 283.08 170.917 283.08C170.521 283.08 170.197 283.019 169.944 282.898C169.702 282.766 169.526 282.569 169.416 282.305C169.306 282.03 169.251 281.673 169.251 281.233L169.416 281.266C169.339 281.64 169.153 281.981 168.856 282.288C168.559 282.585 168.191 282.821 167.751 282.997C167.312 283.162 166.845 283.245 166.35 283.245ZM166.482 282.025C167.064 282.025 167.559 281.915 167.966 281.695C168.383 281.464 168.702 281.156 168.922 280.772C169.142 280.376 169.251 279.936 169.251 279.453V278.826L166.416 279.354C165.822 279.464 165.41 279.634 165.179 279.865C164.96 280.085 164.85 280.376 164.85 280.739C164.85 281.145 164.993 281.464 165.278 281.695C165.575 281.915 165.976 282.025 166.482 282.025Z" fill="#ADADAD"/>
<path d="M149.695 283.047V274.309H150.965L151.014 276.518L150.816 276.452C150.915 275.969 151.086 275.557 151.327 275.216C151.58 274.864 151.888 274.595 152.251 274.408C152.613 274.21 153.014 274.111 153.454 274.111C154.212 274.111 154.828 274.32 155.301 274.738C155.784 275.155 156.086 275.738 156.207 276.485L155.943 276.469C156.031 275.963 156.191 275.54 156.422 275.199C156.663 274.848 156.971 274.578 157.345 274.392C157.718 274.205 158.147 274.111 158.631 274.111C159.257 274.111 159.785 274.243 160.213 274.507C160.642 274.76 160.966 275.133 161.186 275.628C161.406 276.123 161.516 276.722 161.516 277.425V283.047H160.131V277.722C160.131 276.93 159.977 276.337 159.669 275.941C159.362 275.535 158.905 275.331 158.301 275.331C157.894 275.331 157.537 275.43 157.229 275.628C156.933 275.826 156.702 276.112 156.537 276.485C156.372 276.848 156.29 277.293 156.29 277.821V283.047H154.905V277.821C154.905 277.04 154.767 276.43 154.493 275.991C154.218 275.551 153.756 275.331 153.108 275.331C152.701 275.331 152.344 275.43 152.036 275.628C151.74 275.826 151.503 276.112 151.327 276.485C151.163 276.859 151.08 277.304 151.08 277.821V283.047H149.695Z" fill="#ADADAD"/>
<path d="M145.51 283.047V274.309H146.894V283.047H145.51ZM145.477 272.941V271.325H146.927V272.941H145.477Z" fill="#ADADAD"/>
<path d="M135.56 283.245C134.736 283.245 134.021 283.058 133.417 282.684C132.823 282.31 132.362 281.783 132.032 281.101C131.713 280.409 131.554 279.601 131.554 278.678C131.554 277.755 131.713 276.952 132.032 276.271C132.362 275.59 132.818 275.062 133.4 274.688C133.994 274.304 134.692 274.111 135.494 274.111C136.252 274.111 136.923 274.293 137.505 274.655C138.088 275.007 138.538 275.524 138.857 276.205C139.187 276.886 139.352 277.716 139.352 278.694V279.107H133.004C133.059 280.041 133.307 280.744 133.746 281.217C134.197 281.689 134.801 281.926 135.56 281.926C136.131 281.926 136.598 281.794 136.961 281.53C137.335 281.255 137.593 280.898 137.736 280.458L139.22 280.574C138.989 281.354 138.549 281.997 137.901 282.503C137.263 282.997 136.483 283.245 135.56 283.245ZM133.004 277.887H137.835C137.769 277.04 137.522 276.419 137.093 276.024C136.675 275.628 136.142 275.43 135.494 275.43C134.823 275.43 134.268 275.639 133.829 276.057C133.4 276.463 133.125 277.073 133.004 277.887Z" fill="#ADADAD"/>
<path d="M122.761 283.047V271.342H124.146V276.238L123.981 276.205C124.091 275.722 124.277 275.326 124.541 275.018C124.805 274.71 125.129 274.485 125.514 274.342C125.899 274.188 126.322 274.111 126.783 274.111C127.41 274.111 127.937 274.254 128.366 274.54C128.806 274.815 129.135 275.205 129.355 275.711C129.586 276.205 129.701 276.777 129.701 277.425V283.047H128.317V277.821C128.317 276.975 128.163 276.348 127.855 275.941C127.558 275.535 127.102 275.331 126.487 275.331C125.783 275.331 125.217 275.546 124.789 275.974C124.36 276.403 124.146 277.024 124.146 277.837V283.047H122.761Z" fill="#ADADAD"/>
<path d="M119.6 283.046C118.808 283.046 118.22 282.865 117.836 282.502C117.462 282.14 117.275 281.574 117.275 280.804V272.265H118.66V280.771C118.66 281.167 118.748 281.442 118.924 281.596C119.1 281.75 119.369 281.827 119.732 281.827H120.985V283.046H119.6ZM115.989 275.529V274.309H120.985V275.529H115.989Z" fill="#ADADAD"/>
<path d="M106.451 283.245C105.627 283.245 104.913 283.058 104.308 282.684C103.715 282.31 103.253 281.783 102.923 281.101C102.605 280.409 102.445 279.601 102.445 278.678C102.445 277.755 102.605 276.952 102.923 276.271C103.253 275.59 103.709 275.062 104.292 274.688C104.885 274.304 105.583 274.111 106.385 274.111C107.144 274.111 107.814 274.293 108.397 274.655C108.979 275.007 109.43 275.524 109.749 276.205C110.078 276.886 110.243 277.716 110.243 278.694V279.107H103.896C103.951 280.041 104.198 280.744 104.638 281.217C105.089 281.689 105.693 281.926 106.451 281.926C107.023 281.926 107.49 281.794 107.853 281.53C108.226 281.255 108.485 280.898 108.628 280.458L110.111 280.574C109.88 281.354 109.441 281.997 108.792 282.503C108.155 282.997 107.375 283.245 106.451 283.245ZM103.896 277.887H108.726C108.661 277.04 108.413 276.419 107.985 276.024C107.567 275.628 107.034 275.43 106.385 275.43C105.715 275.43 105.16 275.639 104.72 276.057C104.292 276.463 104.017 277.073 103.896 277.887Z" fill="#ADADAD"/>
<path d="M97.4016 283.245C96.7971 283.245 96.2586 283.113 95.786 282.849C95.3134 282.574 94.9507 282.201 94.6979 281.728L94.6484 283.047H93.3955V271.342H94.7803V275.529C95.0001 275.167 95.3409 274.842 95.8025 274.557C96.2641 274.26 96.7971 274.111 97.4016 274.111C98.1709 274.111 98.8359 274.298 99.3964 274.672C99.9569 275.046 100.391 275.573 100.699 276.255C101.007 276.936 101.16 277.744 101.16 278.678C101.16 279.612 101.007 280.42 100.699 281.101C100.391 281.783 99.9569 282.31 99.3964 282.684C98.8359 283.058 98.1709 283.245 97.4016 283.245ZM97.3192 281.926C98.0555 281.926 98.6381 281.635 99.0667 281.052C99.4953 280.47 99.7096 279.678 99.7096 278.678C99.7096 277.667 99.4953 276.876 99.0667 276.304C98.6381 275.722 98.0665 275.43 97.3521 275.43C96.8136 275.43 96.352 275.562 95.9673 275.826C95.5827 276.079 95.2859 276.447 95.0771 276.931C94.8792 277.414 94.7803 277.997 94.7803 278.678C94.7803 279.337 94.8792 279.915 95.0771 280.409C95.2859 280.893 95.5772 281.266 95.9508 281.53C96.3355 281.794 96.7916 281.926 97.3192 281.926Z" fill="#ADADAD"/>
<path d="M89.6922 283.047V274.309H91.077V283.047H89.6922ZM89.6592 272.941V271.325H91.1099V272.941H89.6592Z" fill="#ADADAD"/>
<path d="M83.9448 283.047V274.309H85.1648L85.2307 276.518L85.0988 276.469C85.2087 275.721 85.445 275.177 85.8077 274.837C86.1814 274.485 86.676 274.309 87.2915 274.309H88.1487V275.628H87.308C86.8683 275.628 86.5002 275.71 86.2034 275.875C85.9177 276.029 85.6978 276.265 85.544 276.584C85.4011 276.892 85.3296 277.288 85.3296 277.771V283.047H83.9448Z" fill="#ADADAD"/>
<path d="M78.5188 283.245C77.7055 283.245 76.9966 283.058 76.3921 282.684C75.7986 282.31 75.337 281.783 75.0073 281.101C74.6776 280.409 74.5127 279.601 74.5127 278.678C74.5127 277.755 74.6776 276.952 75.0073 276.271C75.337 275.59 75.7986 275.062 76.3921 274.688C76.9966 274.304 77.7055 274.111 78.5188 274.111C79.1892 274.111 79.7827 274.232 80.2993 274.474C80.8268 274.705 81.2555 275.046 81.5852 275.496C81.9149 275.947 82.1292 276.496 82.2281 277.145L80.7774 277.244C80.6785 276.661 80.4257 276.216 80.019 275.908C79.6124 275.59 79.1123 275.43 78.5188 275.43C77.7165 275.43 77.09 275.721 76.6394 276.304C76.1888 276.875 75.9635 277.667 75.9635 278.678C75.9635 279.689 76.1888 280.486 76.6394 281.068C77.09 281.64 77.7165 281.926 78.5188 281.926C79.1123 281.926 79.6124 281.761 80.019 281.431C80.4257 281.101 80.6785 280.607 80.7774 279.947L82.2281 280.046C82.1292 280.695 81.9149 281.261 81.5852 281.744C81.2555 282.217 80.8268 282.585 80.2993 282.849C79.7827 283.113 79.1892 283.245 78.5188 283.245Z" fill="#ADADAD"/>
<path d="M69.8036 283.245C69.0233 283.245 68.3583 283.118 67.8088 282.865C67.2703 282.613 66.8471 282.266 66.5394 281.827C66.2426 281.376 66.0723 280.865 66.0283 280.294L67.4791 280.195C67.567 280.722 67.7923 281.145 68.155 281.464C68.5177 281.772 69.0672 281.926 69.8036 281.926C70.3971 281.926 70.8697 281.832 71.2214 281.645C71.5841 281.448 71.7654 281.134 71.7654 280.706C71.7654 280.475 71.7105 280.283 71.6006 280.129C71.4907 279.975 71.2764 279.843 70.9576 279.733C70.6389 279.612 70.1663 279.497 69.5398 279.387C68.7045 279.233 68.0451 279.046 67.5615 278.826C67.0889 278.596 66.7482 278.315 66.5394 277.986C66.3416 277.645 66.2426 277.244 66.2426 276.782C66.2426 276.002 66.5284 275.364 67.0999 274.87C67.6714 274.364 68.4847 274.111 69.5398 274.111C70.2542 274.111 70.8532 274.243 71.3368 274.507C71.8314 274.76 72.2161 275.1 72.4908 275.529C72.7766 275.947 72.9634 276.408 73.0513 276.914L71.6006 277.013C71.5346 276.705 71.4137 276.436 71.2379 276.205C71.062 275.963 70.8312 275.776 70.5455 275.645C70.2597 275.502 69.919 275.43 69.5233 275.43C68.8969 275.43 68.4353 275.551 68.1385 275.793C67.8418 276.035 67.6934 276.342 67.6934 276.716C67.6934 277.002 67.7593 277.238 67.8912 277.425C68.0341 277.601 68.2594 277.749 68.5672 277.87C68.8749 277.98 69.2871 278.079 69.8036 278.167C70.6939 278.321 71.3863 278.508 71.8808 278.727C72.3754 278.947 72.7216 279.216 72.9195 279.535C73.1173 279.854 73.2162 280.244 73.2162 280.706C73.2162 281.244 73.0623 281.706 72.7546 282.091C72.4579 282.464 72.0512 282.75 71.5346 282.948C71.0291 283.146 70.4521 283.245 69.8036 283.245Z" fill="#ADADAD"/>
<path d="M60.9543 283.245C60.13 283.245 59.4156 283.058 58.8112 282.684C58.2177 282.31 57.7561 281.783 57.4263 281.101C57.1076 280.409 56.9482 279.601 56.9482 278.678C56.9482 277.755 57.1076 276.952 57.4263 276.271C57.7561 275.59 58.2122 275.062 58.7947 274.688C59.3882 274.304 60.0861 274.111 60.8884 274.111C61.6467 274.111 62.3172 274.293 62.8997 274.655C63.4822 275.007 63.9328 275.524 64.2515 276.205C64.5813 276.886 64.7461 277.716 64.7461 278.694V279.107H58.399C58.454 280.041 58.7013 280.744 59.1409 281.217C59.5915 281.689 60.196 281.926 60.9543 281.926C61.5258 281.926 61.993 281.794 62.3556 281.53C62.7293 281.255 62.9876 280.898 63.1305 280.458L64.6142 280.574C64.3834 281.354 63.9438 281.997 63.2953 282.503C62.6579 282.997 61.8776 283.245 60.9543 283.245ZM58.399 277.887H63.2294C63.1635 277.04 62.9162 276.419 62.4875 276.024C62.0699 275.628 61.5368 275.43 60.8884 275.43C60.218 275.43 59.6629 275.639 59.2233 276.057C58.7947 276.463 58.5199 277.073 58.399 277.887Z" fill="#ADADAD"/>
<path d="M46.0024 283.047V271.342H49.6294C51.4318 271.342 52.8166 271.853 53.7838 272.875C54.762 273.886 55.2511 275.331 55.2511 277.211C55.2511 279.079 54.773 280.519 53.8168 281.53C52.8606 282.541 51.4978 283.047 49.7283 283.047H46.0024ZM47.4202 281.662H49.6294C51.0032 281.662 52.0363 281.294 52.7287 280.557C53.4211 279.81 53.7673 278.695 53.7673 277.211C53.7673 275.705 53.4211 274.584 52.7287 273.848C52.0363 273.1 51.0032 272.727 49.6294 272.727H47.4202V281.662Z" fill="#ADADAD"/>
<path d="M459.75 283.245C458.926 283.245 458.212 283.058 457.607 282.684C457.014 282.31 456.552 281.783 456.222 281.101C455.904 280.409 455.744 279.601 455.744 278.678C455.744 277.755 455.904 276.952 456.222 276.271C456.552 275.59 457.008 275.062 457.591 274.688C458.184 274.304 458.882 274.111 459.684 274.111C460.443 274.111 461.113 274.293 461.696 274.655C462.278 275.007 462.729 275.524 463.047 276.205C463.377 276.886 463.542 277.716 463.542 278.694V279.107H457.195C457.25 280.041 457.497 280.744 457.937 281.217C458.387 281.689 458.992 281.926 459.75 281.926C460.322 281.926 460.789 281.794 461.152 281.53C461.525 281.255 461.784 280.898 461.926 280.458L463.41 280.574C463.179 281.354 462.74 281.997 462.091 282.503C461.454 282.997 460.673 283.245 459.75 283.245ZM457.195 277.887H462.025C461.959 277.04 461.712 276.419 461.283 276.024C460.866 275.628 460.333 275.43 459.684 275.43C459.014 275.43 458.459 275.639 458.019 276.057C457.591 276.463 457.316 277.073 457.195 277.887Z" fill="white"/>
<path d="M453.337 283.046C452.546 283.046 451.958 282.865 451.573 282.502C451.2 282.14 451.013 281.574 451.013 280.804V272.265H452.398V280.771C452.398 281.167 452.486 281.442 452.662 281.596C452.837 281.75 453.107 281.827 453.469 281.827H454.722V283.046H453.337ZM449.727 275.529V274.309H454.722V275.529H449.727Z" fill="white"/>
<path d="M443.916 283.245C443.015 283.245 442.295 283.036 441.756 282.618C441.229 282.2 440.965 281.618 440.965 280.871C440.965 280.123 441.185 279.535 441.624 279.107C442.064 278.678 442.762 278.376 443.718 278.2L446.817 277.623C446.817 276.886 446.642 276.337 446.29 275.974C445.949 275.612 445.433 275.43 444.74 275.43C444.136 275.43 443.658 275.568 443.306 275.842C442.954 276.106 442.712 276.491 442.58 276.996L441.113 276.881C441.278 276.057 441.674 275.392 442.3 274.886C442.938 274.37 443.751 274.111 444.74 274.111C445.861 274.111 446.718 274.43 447.312 275.068C447.905 275.694 448.202 276.562 448.202 277.672V281.283C448.202 281.481 448.235 281.623 448.301 281.711C448.378 281.788 448.499 281.827 448.664 281.827H449.01V283.047C448.966 283.058 448.895 283.063 448.796 283.063C448.697 283.074 448.592 283.08 448.482 283.08C448.087 283.08 447.763 283.019 447.51 282.898C447.268 282.766 447.092 282.569 446.982 282.305C446.872 282.03 446.817 281.673 446.817 281.233L446.982 281.266C446.905 281.64 446.718 281.981 446.422 282.288C446.125 282.585 445.757 282.821 445.317 282.997C444.878 283.162 444.41 283.245 443.916 283.245ZM444.048 282.025C444.63 282.025 445.125 281.915 445.531 281.695C445.949 281.464 446.268 281.156 446.488 280.772C446.707 280.376 446.817 279.936 446.817 279.453V278.826L443.982 279.354C443.388 279.464 442.976 279.634 442.745 279.865C442.526 280.085 442.416 280.376 442.416 280.739C442.416 281.145 442.558 281.464 442.844 281.695C443.141 281.915 443.542 282.025 444.048 282.025Z" fill="white"/>
<path d="M435.972 283.047V274.309H437.192L437.258 276.518L437.126 276.469C437.236 275.721 437.472 275.177 437.835 274.837C438.208 274.485 438.703 274.309 439.318 274.309H440.176V275.628H439.335C438.895 275.628 438.527 275.71 438.23 275.875C437.945 276.029 437.725 276.265 437.571 276.584C437.428 276.892 437.357 277.288 437.357 277.771V283.047H435.972Z" fill="white"/>
<path d="M430.304 283.245C429.48 283.245 428.765 283.058 428.161 282.684C427.567 282.31 427.106 281.783 426.776 281.101C426.457 280.409 426.298 279.601 426.298 278.678C426.298 277.755 426.457 276.952 426.776 276.271C427.106 275.59 427.562 275.062 428.144 274.688C428.738 274.304 429.436 274.111 430.238 274.111C430.996 274.111 431.667 274.293 432.249 274.655C432.832 275.007 433.282 275.524 433.601 276.205C433.931 276.886 434.096 277.716 434.096 278.694V279.107H427.749C427.804 280.041 428.051 280.744 428.49 281.217C428.941 281.689 429.546 281.926 430.304 281.926C430.875 281.926 431.343 281.794 431.705 281.53C432.079 281.255 432.337 280.898 432.48 280.458L433.964 280.574C433.733 281.354 433.293 281.997 432.645 282.503C432.007 282.997 431.227 283.245 430.304 283.245ZM427.749 277.887H432.579C432.513 277.04 432.266 276.419 431.837 276.024C431.419 275.628 430.886 275.43 430.238 275.43C429.568 275.43 429.013 275.639 428.573 276.057C428.144 276.463 427.87 277.073 427.749 277.887Z" fill="white"/>
<path d="M417.505 283.047V274.309H418.775L418.824 276.535L418.659 276.386C418.769 275.87 418.962 275.447 419.236 275.117C419.511 274.776 419.841 274.523 420.226 274.359C420.621 274.194 421.044 274.111 421.495 274.111C422.165 274.111 422.715 274.26 423.144 274.556C423.583 274.853 423.907 275.254 424.116 275.76C424.336 276.255 424.446 276.81 424.446 277.425V283.047H423.061V277.821C423.061 277.282 422.995 276.832 422.863 276.469C422.742 276.095 422.545 275.815 422.27 275.628C421.995 275.43 421.638 275.331 421.198 275.331C420.528 275.331 419.973 275.546 419.533 275.974C419.105 276.392 418.89 277.007 418.89 277.821V283.047H417.505Z" fill="white"/>
<path d="M411.838 283.245C411.014 283.245 410.299 283.058 409.695 282.684C409.101 282.31 408.64 281.783 408.31 281.101C407.991 280.409 407.832 279.601 407.832 278.678C407.832 277.755 407.991 276.952 408.31 276.271C408.64 275.59 409.096 275.062 409.678 274.688C410.272 274.304 410.97 274.111 411.772 274.111C412.531 274.111 413.201 274.293 413.783 274.655C414.366 275.007 414.817 275.524 415.135 276.205C415.465 276.886 415.63 277.716 415.63 278.694V279.107H409.283C409.338 280.041 409.585 280.744 410.025 281.217C410.475 281.689 411.08 281.926 411.838 281.926C412.41 281.926 412.877 281.794 413.239 281.53C413.613 281.255 413.871 280.898 414.014 280.458L415.498 280.574C415.267 281.354 414.828 281.997 414.179 282.503C413.542 282.997 412.761 283.245 411.838 283.245ZM409.283 277.887H414.113C414.047 277.04 413.8 276.419 413.371 276.024C412.954 275.628 412.421 275.43 411.772 275.43C411.102 275.43 410.547 275.639 410.107 276.057C409.678 276.463 409.404 277.073 409.283 277.887Z" fill="white"/>
<path d="M401.37 283.31C400.271 283.31 399.331 283.046 398.551 282.519C397.77 281.991 397.171 281.271 396.754 280.359C396.347 279.436 396.144 278.386 396.144 277.21C396.144 276.034 396.352 274.985 396.77 274.062C397.188 273.138 397.787 272.413 398.567 271.885C399.358 271.347 400.304 271.078 401.403 271.078C402.337 271.078 403.123 271.248 403.76 271.589C404.409 271.929 404.92 272.391 405.293 272.974C405.678 273.556 405.942 274.21 406.085 274.935L404.601 275.034C404.458 274.276 404.139 273.66 403.645 273.188C403.15 272.704 402.403 272.462 401.403 272.462C400.512 272.462 399.787 272.682 399.226 273.122C398.677 273.562 398.27 274.144 398.006 274.869C397.754 275.584 397.627 276.364 397.627 277.21C397.627 278.101 397.759 278.903 398.023 279.617C398.287 280.321 398.699 280.881 399.259 281.299C399.82 281.717 400.534 281.925 401.403 281.925C402.095 281.925 402.694 281.772 403.2 281.464C403.705 281.145 404.095 280.722 404.37 280.194C404.645 279.667 404.788 279.095 404.799 278.48H401.436V277.128H406.118V283.046H405.062L404.964 280.343L405.161 280.574C405.029 281.101 404.777 281.574 404.403 281.991C404.029 282.398 403.579 282.722 403.051 282.964C402.535 283.195 401.974 283.31 401.37 283.31Z" fill="white"/>
<path d="M236.16 211.215V199.51H237.577V211.215H236.16Z" fill="#F97F27"/>
<path d="M224.282 211.215L228.503 199.51H230.415L234.635 211.215H233.086L231.915 207.885H227.002L225.832 211.215H224.282ZM227.481 206.5H231.437L229.459 200.747L227.481 206.5Z" fill="#F97F27"/>
<path d="M211.571 211.215V199.51H212.956V204.407L212.791 204.374C212.901 203.89 213.088 203.494 213.351 203.187C213.615 202.879 213.939 202.654 214.324 202.511C214.709 202.357 215.132 202.28 215.593 202.28C216.22 202.28 216.747 202.423 217.176 202.709C217.616 202.983 217.945 203.373 218.165 203.879C218.396 204.374 218.511 204.945 218.511 205.594V211.215H217.127V205.989C217.127 205.143 216.973 204.516 216.665 204.11C216.368 203.703 215.912 203.5 215.297 203.5C214.593 203.5 214.027 203.714 213.599 204.143C213.17 204.571 212.956 205.192 212.956 206.006V211.215H211.571Z" fill="#F97F27"/>
<path d="M208.41 211.215C207.618 211.215 207.03 211.034 206.646 210.671C206.272 210.308 206.085 209.742 206.085 208.973V200.433H207.47V208.94C207.47 209.336 207.558 209.61 207.734 209.764C207.91 209.918 208.179 209.995 208.542 209.995H209.795V211.215H208.41ZM204.799 203.697V202.477H209.795V203.697H204.799Z" fill="#F97F27"/>
<path d="M201.846 211.215V202.477H203.231V211.215H201.846ZM201.813 201.109V199.493H203.264V201.109H201.813Z" fill="#F97F27"/>
<path d="M190.248 211.215L187.544 202.478H189.061L191.105 209.764L193.182 202.478H194.666L196.743 209.764L198.804 202.478H200.321L197.617 211.215H195.869L193.924 204.571L191.979 211.215H190.248Z" fill="#F97F27"/>
<path d="M178.55 211.413C177.726 211.413 177.011 211.226 176.407 210.852C175.813 210.479 175.352 209.951 175.022 209.27C174.703 208.577 174.544 207.77 174.544 206.846C174.544 205.923 174.703 205.121 175.022 204.439C175.352 203.758 175.808 203.23 176.39 202.857C176.984 202.472 177.682 202.28 178.484 202.28C179.242 202.28 179.913 202.461 180.495 202.824C181.078 203.176 181.529 203.692 181.847 204.374C182.177 205.055 182.342 205.885 182.342 206.863V207.275H175.995C176.05 208.209 176.297 208.913 176.737 209.385C177.187 209.858 177.792 210.094 178.55 210.094C179.122 210.094 179.589 209.962 179.951 209.698C180.325 209.424 180.583 209.067 180.726 208.627L182.21 208.742C181.979 209.523 181.539 210.166 180.891 210.671C180.254 211.166 179.473 211.413 178.55 211.413ZM175.995 206.055H180.825C180.759 205.209 180.512 204.588 180.083 204.192C179.666 203.796 179.133 203.599 178.484 203.599C177.814 203.599 177.259 203.807 176.819 204.225C176.39 204.632 176.116 205.242 175.995 206.055Z" fill="#F97F27"/>
<path d="M168.824 213.886C168.197 213.886 167.631 213.782 167.126 213.573C166.62 213.364 166.197 213.067 165.856 212.682C165.515 212.298 165.285 211.853 165.164 211.347L166.615 211.248C166.746 211.655 166.977 211.974 167.307 212.204C167.648 212.446 168.153 212.567 168.824 212.567C169.615 212.567 170.219 212.408 170.637 212.089C171.066 211.77 171.28 211.292 171.28 210.655V209.237C171.071 209.698 170.736 210.067 170.274 210.341C169.813 210.616 169.296 210.754 168.725 210.754C167.988 210.754 167.329 210.572 166.746 210.21C166.175 209.847 165.724 209.347 165.395 208.709C165.076 208.072 164.917 207.341 164.917 206.517C164.917 205.681 165.076 204.951 165.395 204.324C165.713 203.687 166.153 203.187 166.713 202.824C167.285 202.461 167.933 202.28 168.659 202.28C169.274 202.28 169.824 202.423 170.307 202.708C170.802 202.994 171.148 203.379 171.346 203.862V202.478H172.665V210.622C172.665 211.303 172.511 211.886 172.203 212.369C171.896 212.864 171.456 213.237 170.884 213.49C170.313 213.754 169.626 213.886 168.824 213.886ZM168.791 209.435C169.538 209.435 170.137 209.176 170.588 208.66C171.038 208.132 171.269 207.418 171.28 206.517C171.291 205.912 171.192 205.396 170.983 204.967C170.786 204.527 170.494 204.192 170.11 203.961C169.736 203.72 169.296 203.599 168.791 203.599C168.021 203.599 167.422 203.862 166.994 204.39C166.576 204.907 166.367 205.615 166.367 206.517C166.367 207.418 166.582 208.132 167.01 208.66C167.45 209.176 168.043 209.435 168.791 209.435Z" fill="#F97F27"/>
<path d="M158.884 211.413C157.983 211.413 157.263 211.204 156.724 210.787C156.197 210.369 155.933 209.786 155.933 209.039C155.933 208.292 156.153 207.704 156.593 207.275C157.032 206.846 157.73 206.544 158.686 206.368L161.786 205.791C161.786 205.055 161.61 204.505 161.258 204.143C160.917 203.78 160.401 203.599 159.708 203.599C159.104 203.599 158.626 203.736 158.274 204.011C157.922 204.275 157.681 204.659 157.549 205.165L156.081 205.049C156.246 204.225 156.642 203.56 157.268 203.055C157.906 202.538 158.719 202.28 159.708 202.28C160.829 202.28 161.687 202.599 162.28 203.236C162.874 203.862 163.17 204.731 163.17 205.841V209.451C163.17 209.649 163.203 209.792 163.269 209.88C163.346 209.957 163.467 209.995 163.632 209.995H163.978V211.215C163.934 211.226 163.863 211.232 163.764 211.232C163.665 211.243 163.561 211.248 163.451 211.248C163.055 211.248 162.731 211.188 162.478 211.067C162.236 210.935 162.06 210.737 161.95 210.473C161.841 210.199 161.786 209.841 161.786 209.402L161.95 209.435C161.874 209.808 161.687 210.149 161.39 210.457C161.093 210.754 160.725 210.99 160.285 211.166C159.846 211.331 159.379 211.413 158.884 211.413ZM159.016 210.193C159.598 210.193 160.093 210.083 160.5 209.863C160.917 209.633 161.236 209.325 161.456 208.94C161.676 208.544 161.786 208.105 161.786 207.621V206.995L158.95 207.522C158.357 207.632 157.944 207.803 157.714 208.033C157.494 208.253 157.384 208.544 157.384 208.907C157.384 209.314 157.527 209.633 157.813 209.863C158.109 210.083 158.51 210.193 159.016 210.193Z" fill="#F97F27"/>
<path d="M142.23 211.215V202.478H143.499L143.549 204.687L143.351 204.621C143.45 204.137 143.62 203.725 143.862 203.384C144.115 203.033 144.423 202.763 144.785 202.577C145.148 202.379 145.549 202.28 145.989 202.28C146.747 202.28 147.363 202.489 147.835 202.906C148.319 203.324 148.621 203.906 148.742 204.654L148.478 204.637C148.566 204.132 148.725 203.709 148.956 203.368C149.198 203.016 149.506 202.747 149.879 202.56C150.253 202.373 150.682 202.28 151.165 202.28C151.792 202.28 152.319 202.412 152.748 202.675C153.177 202.928 153.501 203.302 153.721 203.796C153.941 204.291 154.05 204.89 154.05 205.593V211.215H152.666V205.89C152.666 205.099 152.512 204.505 152.204 204.11C151.896 203.703 151.44 203.5 150.836 203.5C150.429 203.5 150.072 203.599 149.764 203.796C149.467 203.994 149.237 204.28 149.072 204.654C148.907 205.016 148.824 205.462 148.824 205.989V211.215H147.44V205.989C147.44 205.209 147.302 204.599 147.027 204.159C146.753 203.72 146.291 203.5 145.643 203.5C145.236 203.5 144.879 203.599 144.571 203.796C144.274 203.994 144.038 204.28 143.862 204.654C143.697 205.027 143.615 205.473 143.615 205.989V211.215H142.23Z" fill="#F97F27"/>
<path d="M137.823 211.215V199.51H139.241V211.215H137.823Z" fill="#F97F27"/>
<path d="M127.676 211.413C126.851 211.413 126.137 211.226 125.532 210.852C124.939 210.479 124.477 209.951 124.148 209.27C123.829 208.577 123.669 207.77 123.669 206.846C123.669 205.923 123.829 205.121 124.148 204.439C124.477 203.758 124.933 203.23 125.516 202.857C126.109 202.472 126.807 202.28 127.61 202.28C128.368 202.28 129.038 202.461 129.621 202.824C130.203 203.176 130.654 203.692 130.973 204.374C131.302 205.055 131.467 205.885 131.467 206.863V207.275H125.12C125.175 208.209 125.422 208.913 125.862 209.385C126.313 209.858 126.917 210.094 127.676 210.094C128.247 210.094 128.714 209.962 129.077 209.698C129.451 209.424 129.709 209.067 129.852 208.627L131.335 208.742C131.105 209.523 130.665 210.166 130.017 210.671C129.379 211.166 128.599 211.413 127.676 211.413ZM125.12 206.055H129.951C129.885 205.209 129.637 204.588 129.209 204.192C128.791 203.796 128.258 203.599 127.61 203.599C126.939 203.599 126.384 203.807 125.944 204.225C125.516 204.632 125.241 205.242 125.12 206.055Z" fill="#F97F27"/>
<path d="M121.263 211.215C120.471 211.215 119.883 211.034 119.499 210.671C119.125 210.308 118.938 209.742 118.938 208.973V200.433H120.323V208.94C120.323 209.336 120.411 209.61 120.587 209.764C120.763 209.918 121.032 209.995 121.395 209.995H122.648V211.215H121.263ZM117.652 203.697V202.477H122.648V203.697H117.652Z" fill="#F97F27"/>
<path d="M111.841 211.413C110.939 211.413 110.22 211.204 109.681 210.787C109.153 210.369 108.89 209.786 108.89 209.039C108.89 208.292 109.109 207.704 109.549 207.275C109.989 206.846 110.687 206.544 111.643 206.368L114.742 205.791C114.742 205.055 114.566 204.505 114.215 204.143C113.874 203.78 113.357 203.599 112.665 203.599C112.06 203.599 111.582 203.736 111.231 204.011C110.879 204.275 110.637 204.659 110.505 205.165L109.038 205.049C109.203 204.225 109.599 203.56 110.225 203.055C110.862 202.538 111.676 202.28 112.665 202.28C113.786 202.28 114.643 202.599 115.237 203.236C115.83 203.862 116.127 204.731 116.127 205.841V209.451C116.127 209.649 116.16 209.792 116.226 209.88C116.303 209.957 116.424 209.995 116.589 209.995H116.935V211.215C116.891 211.226 116.819 211.232 116.72 211.232C116.622 211.243 116.517 211.248 116.407 211.248C116.012 211.248 115.687 211.188 115.435 211.067C115.193 210.935 115.017 210.737 114.907 210.473C114.797 210.199 114.742 209.841 114.742 209.402L114.907 209.435C114.83 209.808 114.643 210.149 114.347 210.457C114.05 210.754 113.682 210.99 113.242 211.166C112.802 211.331 112.335 211.413 111.841 211.413ZM111.973 210.193C112.555 210.193 113.05 210.083 113.456 209.863C113.874 209.633 114.193 209.325 114.412 208.94C114.632 208.544 114.742 208.105 114.742 207.621V206.995L111.907 207.522C111.313 207.632 110.901 207.803 110.67 208.033C110.45 208.253 110.34 208.544 110.34 208.907C110.34 209.314 110.483 209.633 110.769 209.863C111.066 210.083 111.467 210.193 111.973 210.193Z" fill="#F97F27"/>
<path d="M103.897 211.215V202.478H105.117L105.183 204.687L105.051 204.637C105.161 203.89 105.397 203.346 105.76 203.005C106.134 202.653 106.628 202.478 107.244 202.478H108.101V203.796H107.26C106.82 203.796 106.452 203.879 106.156 204.044C105.87 204.198 105.65 204.434 105.496 204.753C105.353 205.06 105.282 205.456 105.282 205.94V211.215H103.897Z" fill="#F97F27"/>
<path d="M98.2297 211.413C97.4054 211.413 96.691 211.226 96.0865 210.852C95.4931 210.479 95.0314 209.951 94.7017 209.27C94.383 208.577 94.2236 207.77 94.2236 206.846C94.2236 205.923 94.383 205.121 94.7017 204.439C95.0314 203.758 95.4876 203.23 96.0701 202.857C96.6636 202.472 97.3615 202.28 98.1638 202.28C98.9221 202.28 99.5926 202.461 100.175 202.824C100.758 203.176 101.208 203.692 101.527 204.374C101.857 205.055 102.022 205.885 102.022 206.863V207.275H95.6744C95.7294 208.209 95.9766 208.913 96.4163 209.385C96.8669 209.858 97.4714 210.094 98.2297 210.094C98.8012 210.094 99.2683 209.962 99.631 209.698C100.005 209.424 100.263 209.067 100.406 208.627L101.89 208.742C101.659 209.523 101.219 210.166 100.571 210.671C99.9333 211.166 99.1529 211.413 98.2297 211.413ZM95.6744 206.055H100.505C100.439 205.209 100.192 204.588 99.7629 204.192C99.3453 203.796 98.8122 203.599 98.1638 203.599C97.4934 203.599 96.9383 203.807 96.4987 204.225C96.0701 204.632 95.7953 205.242 95.6744 206.055Z" fill="#F97F27"/>
<path d="M85.4307 211.215V202.478H86.7001L86.7495 204.703L86.5847 204.555C86.6946 204.038 86.8869 203.615 87.1617 203.285C87.4365 202.945 87.7662 202.692 88.1509 202.527C88.5465 202.362 88.9697 202.28 89.4203 202.28C90.0907 202.28 90.6402 202.428 91.0689 202.725C91.5085 203.022 91.8327 203.423 92.0415 203.928C92.2614 204.423 92.3713 204.978 92.3713 205.593V211.215H90.9864V205.989C90.9864 205.451 90.9205 205 90.7886 204.637C90.6677 204.264 90.4699 203.983 90.1951 203.796C89.9203 203.599 89.5631 203.5 89.1235 203.5C88.4531 203.5 87.8981 203.714 87.4584 204.143C87.0298 204.56 86.8155 205.176 86.8155 205.989V211.215H85.4307Z" fill="#F97F27"/>
<path d="M79.7629 211.413C78.9386 211.413 78.2242 211.226 77.6198 210.852C77.0263 210.479 76.5646 209.951 76.2349 209.27C75.9162 208.577 75.7568 207.77 75.7568 206.846C75.7568 205.923 75.9162 205.121 76.2349 204.439C76.5646 203.758 77.0208 203.23 77.6033 202.857C78.1968 202.472 78.8947 202.28 79.697 202.28C80.4553 202.28 81.1258 202.461 81.7083 202.824C82.2908 203.176 82.7414 203.692 83.0601 204.374C83.3898 205.055 83.5547 205.885 83.5547 206.863V207.275H77.2076C77.2626 208.209 77.5098 208.913 77.9495 209.385C78.4001 209.858 79.0046 210.094 79.7629 210.094C80.3344 210.094 80.8015 209.962 81.1642 209.698C81.5379 209.424 81.7962 209.067 81.9391 208.627L83.4228 208.742C83.192 209.523 82.7524 210.166 82.1039 210.671C81.4665 211.166 80.6861 211.413 79.7629 211.413ZM77.2076 206.055H82.038C81.9721 205.209 81.7248 204.588 81.2961 204.192C80.8785 203.796 80.3454 203.599 79.697 203.599C79.0266 203.599 78.4715 203.807 78.0319 204.225C77.6033 204.632 77.3285 205.242 77.2076 206.055Z" fill="#F97F27"/>
<path d="M69.2949 211.479C68.1958 211.479 67.2561 211.215 66.4758 210.687C65.6955 210.16 65.0965 209.44 64.6788 208.528C64.2722 207.604 64.0688 206.555 64.0688 205.379C64.0688 204.203 64.2777 203.153 64.6953 202.23C65.113 201.307 65.712 200.581 66.4923 200.054C67.2836 199.515 68.2288 199.246 69.3279 199.246C70.2621 199.246 71.0479 199.416 71.6854 199.757C72.3338 200.098 72.8449 200.559 73.2186 201.142C73.6032 201.724 73.867 202.378 74.0099 203.104L72.5262 203.203C72.3833 202.444 72.0645 201.829 71.57 201.356C71.0754 200.873 70.328 200.631 69.3279 200.631C68.4376 200.631 67.7122 200.851 67.1517 201.29C66.6022 201.73 66.1955 202.312 65.9318 203.038C65.679 203.752 65.5526 204.533 65.5526 205.379C65.5526 206.269 65.6845 207.071 65.9482 207.786C66.212 208.489 66.6242 209.05 67.1847 209.467C67.7452 209.885 68.4596 210.094 69.3279 210.094C70.0203 210.094 70.6193 209.94 71.1248 209.632C71.6304 209.314 72.0206 208.89 72.2954 208.363C72.5701 207.835 72.713 207.264 72.724 206.648H69.3608V205.296H74.0429V211.215H72.9878L72.8888 208.511L73.0867 208.742C72.9548 209.27 72.702 209.742 72.3283 210.16C71.9546 210.566 71.504 210.891 70.9765 211.132C70.4599 211.363 69.8994 211.479 69.2949 211.479Z" fill="#F97F27"/>
<path d="M46.2524 66.9626V63.4299H42.7196C42.3945 63.4299 42.1309 63.1663 42.1309 62.8411C42.1309 62.516 42.3945 62.2524 42.7196 62.2524H46.2524V58.7196C46.2524 58.3945 46.516 58.1309 46.8411 58.1309C47.1663 58.1309 47.4299 58.3945 47.4299 58.7196V62.2524H50.9626C51.2878 62.2524 51.5514 62.516 51.5514 62.8411C51.5514 63.1663 51.2878 63.4299 50.9626 63.4299H47.4299V66.9626C47.4299 67.2878 47.1663 67.5514 46.8411 67.5514C46.516 67.5514 46.2524 67.2878 46.2524 66.9626Z" fill="white"/>
<path d="M458.991 81.6824L457.813 81.6824L457.813 45.1777L458.991 45.1777L458.991 81.6824Z" fill="#181614"/>
<path d="M384.804 294.823L383.626 294.823L383.626 258.318L384.804 258.318L384.804 294.823Z" fill="#181614"/>
<path d="M502.561 137.028V138.206H29.1777V137.028H502.561Z" fill="#181614"/>
<path d="M502.561 181.776V182.953H29.1777V181.776H502.561Z" fill="#181614"/>
<path d="M40.9536 119.953V117.598C40.9536 117.273 41.2172 117.01 41.5424 117.01C41.8676 117.01 42.1312 117.273 42.1312 117.598V119.953C42.1312 120.11 42.1933 120.259 42.3037 120.37C42.4141 120.48 42.5638 120.542 42.72 120.542H50.963C51.1191 120.542 51.2688 120.48 51.3792 120.37C51.4897 120.259 51.5517 120.11 51.5517 119.953V117.598C51.5517 117.273 51.8154 117.01 52.1405 117.01C52.4657 117.01 52.7293 117.273 52.7293 117.598V119.953C52.7293 120.422 52.5431 120.871 52.2118 121.202C51.8806 121.534 51.4314 121.72 50.963 121.72H42.72C42.2515 121.72 41.8024 121.534 41.4711 121.202C41.1398 120.871 40.9536 120.422 40.9536 119.953ZM46.2527 117.598V111.954L44.3138 113.893C44.0839 114.123 43.7112 114.123 43.4812 113.893C43.2513 113.663 43.2513 113.29 43.4812 113.061L46.4252 110.117L46.5172 110.041C46.7457 109.89 47.0565 109.915 47.2578 110.117L50.2017 113.061C50.4316 113.29 50.4316 113.663 50.2017 113.893C49.9717 114.123 49.599 114.123 49.3691 113.893L47.4302 111.954V117.598C47.4302 117.923 47.1666 118.187 46.8415 118.187C46.5163 118.187 46.2527 117.923 46.2527 117.598Z" fill="white"/>
<g clip-path="url(#clip0_921_1228)">
<path d="M51.0378 161.636C51.1974 161.352 51.5572 161.252 51.8405 161.411L52.7237 161.909H52.7248C52.9061 162.012 53.057 162.162 53.1618 162.342C53.2665 162.522 53.3217 162.726 53.3217 162.934C53.3217 163.142 53.2667 163.347 53.1618 163.527C53.0573 163.707 52.9063 163.854 52.726 163.956L52.7271 163.958L47.7236 166.822L47.7248 166.823C47.4564 166.978 47.1515 167.06 46.8416 167.06C46.5319 167.06 46.2278 166.978 45.9596 166.823V166.824L40.9549 163.958V163.956C40.775 163.854 40.6245 163.706 40.5202 163.527C40.4153 163.347 40.3604 163.142 40.3604 162.934C40.3604 162.726 40.4155 162.522 40.5202 162.342C40.6251 162.162 40.776 162.012 40.9572 161.909H40.9583L41.8415 161.411C42.1248 161.252 42.4846 161.352 42.6442 161.636C42.8034 161.919 42.703 162.278 42.4199 162.437L41.5379 162.934L41.5402 162.935L46.5449 165.803L46.5472 165.804C46.6366 165.856 46.7385 165.883 46.8416 165.883C46.9448 165.882 47.0466 165.856 47.136 165.804L47.1371 165.803L52.1418 162.935L52.143 162.934L51.2621 162.437C50.9791 162.278 50.8787 161.919 51.0378 161.636ZM52.1418 158.223L47.1371 155.355H47.136C47.0466 155.303 46.9448 155.275 46.8416 155.275C46.7383 155.275 46.6367 155.303 46.5472 155.355H46.5449L41.5402 158.223L41.5379 158.224L41.5402 158.225L46.5449 161.093L46.5472 161.094C46.6366 161.146 46.7385 161.172 46.8416 161.172C46.9448 161.172 47.0466 161.146 47.136 161.094L47.1371 161.093L52.1418 158.225L52.1441 158.224L52.1418 158.223ZM53.3217 158.224C53.3217 158.432 53.2667 158.637 53.1618 158.817C53.0573 158.996 52.9063 159.143 52.726 159.246L52.7271 159.247L47.7236 162.112L47.7248 162.113C47.4564 162.268 47.1515 162.35 46.8416 162.35C46.5319 162.35 46.2278 162.268 45.9596 162.113V162.114L40.9549 159.247V159.246C40.775 159.143 40.6245 158.996 40.5202 158.817C40.4153 158.637 40.3604 158.432 40.3604 158.224C40.3604 158.016 40.4155 157.811 40.5202 157.632C40.6251 157.452 40.776 157.302 40.9572 157.199L45.9596 154.333V154.335C46.2278 154.18 46.532 154.098 46.8416 154.098C47.1508 154.098 47.4545 154.179 47.7225 154.333L52.7248 157.199C52.9061 157.302 53.057 157.452 53.1618 157.632C53.2665 157.811 53.3217 158.016 53.3217 158.224Z" fill="white"/>
</g>
<g clip-path="url(#clip1_921_1228)">
<path d="M46.4251 204.911C46.6551 204.681 47.0278 204.681 47.2577 204.911C47.4876 205.141 47.4876 205.514 47.2577 205.744L41.9586 211.043C41.7287 211.273 41.356 211.273 41.1261 211.043C40.8961 210.813 40.8961 210.44 41.1261 210.21L46.4251 204.911ZM48.019 207.682V206.505C48.019 206.18 48.2826 205.916 48.6078 205.916C48.933 205.916 49.1966 206.18 49.1966 206.505V207.682C49.1966 208.008 48.933 208.271 48.6078 208.271C48.2826 208.271 48.019 208.008 48.019 207.682ZM49.8405 204.794C50.0705 204.564 50.4432 204.564 50.6731 204.794L51.3792 205.5C51.6091 205.73 51.6091 206.102 51.3792 206.332C51.1493 206.562 50.7766 206.562 50.5466 206.332L49.8405 205.626C49.6106 205.396 49.6106 205.024 49.8405 204.794ZM45.6638 202.972C45.989 202.972 46.2526 203.236 46.2526 203.561C46.2526 203.886 45.989 204.15 45.6638 204.15H44.4863C44.1611 204.15 43.8975 203.886 43.8975 203.561C43.8975 203.236 44.1611 202.972 44.4863 202.972H45.6638ZM48.6135 202.972C48.9387 202.972 49.2023 203.236 49.2023 203.561C49.2023 203.886 48.9387 204.15 48.6135 204.15H48.6078C48.2826 204.15 48.019 203.886 48.019 203.561C48.019 203.236 48.2826 202.972 48.6078 202.972H48.6135ZM52.7293 202.972C53.0544 202.972 53.3181 203.236 53.3181 203.561C53.3181 203.886 53.0544 204.15 52.7293 204.15H51.5517C51.2265 204.15 50.9629 203.886 50.9629 203.561C50.9629 203.236 51.2265 202.972 51.5517 202.972H52.7293ZM45.8363 200.789C46.0663 200.56 46.439 200.56 46.6689 200.789L47.375 201.496C47.6049 201.725 47.6049 202.098 47.375 202.328C47.1451 202.558 46.7724 202.558 46.5424 202.328L45.8363 201.622C45.6064 201.392 45.6064 201.019 45.8363 200.789ZM50.5466 200.789C50.7766 200.56 51.1493 200.56 51.3792 200.789C51.6091 201.019 51.6091 201.392 51.3792 201.622L50.6731 202.328C50.4432 202.558 50.0705 202.558 49.8405 202.328C49.6106 202.098 49.6106 201.725 49.8405 201.496L50.5466 200.789ZM48.019 200.617V199.439C48.019 199.114 48.2826 198.851 48.6078 198.851C48.933 198.851 49.1966 199.114 49.1966 199.439V200.617C49.1966 200.942 48.933 201.206 48.6078 201.206C48.2826 201.206 48.019 200.942 48.019 200.617Z" fill="#F97F27"/>
</g>
<path d="M477.742 275.534C477.989 275.322 478.361 275.351 478.572 275.598C478.784 275.845 478.756 276.217 478.509 276.428L476.283 278.336H482.934C483.534 278.336 484.093 278.131 484.494 277.787C484.891 277.447 485.093 277.006 485.093 276.57V272.448C485.093 272.123 485.357 271.86 485.682 271.859C486.007 271.859 486.27 272.123 486.27 272.448V276.57C486.27 277.382 485.894 278.14 485.261 278.682C484.63 279.222 483.792 279.514 482.934 279.514H476.283L478.509 281.421C478.756 281.633 478.784 282.005 478.572 282.252C478.361 282.498 477.989 282.528 477.742 282.316L474.308 279.372C474.178 279.26 474.103 279.097 474.103 278.925C474.103 278.753 474.178 278.589 474.308 278.477L477.742 275.534Z" fill="white"/>
<defs>
<clipPath id="clip0_921_1228">
<rect width="14.1308" height="14.1308" fill="white" transform="translate(39.7759 153.514)"/>
</clipPath>
<clipPath id="clip1_921_1228">
<rect width="14.1308" height="14.1308" fill="white" transform="translate(39.7759 198.262)"/>
</clipPath>
</defs>
</svg>
