<svg width="530" height="340" viewBox="0 0 530 340" fill="none" xmlns="http://www.w3.org/2000/svg">
<g clip-path="url(#clip0_923_2602)">
<path d="M508 21V22H0V21H508Z" fill="#181614"/>
<path d="M22 318L21 318L21 21L22 21L22 318Z" fill="#181614"/>
<path d="M33 318L32 318L32 21L33 21L33 318Z" fill="#181614"/>
<path d="M11 318L10 318L9.99999 21L11 21L11 318Z" fill="#181614"/>
<path d="M509 340H508V0L509 0V340Z" fill="#181614"/>
<path d="M509 317V318H0V317H509Z" fill="#181614"/>
<path d="M530 169V170H508V169H530Z" fill="#181614"/>
<path d="M530 245V246H508V245H530Z" fill="#181614"/>
<path d="M530 93V94H508V93H530Z" fill="#181614"/>
<path d="M431.667 147.778H465C467.454 147.778 469.444 149.768 469.444 152.222V176.667C469.444 179.121 467.454 181.111 465 181.111H431.667V147.778Z" fill="#111010"/>
<path d="M479.444 77.7783V78.8895H121.667V77.7783H479.444ZM483.888 73.3339V48.8895C483.888 46.5117 482.021 44.5697 479.673 44.4505L479.444 44.4451H121.667C119.212 44.4451 117.222 46.4349 117.222 48.8895V73.3339C117.222 75.7885 119.212 77.7783 121.667 77.7783V78.8895C118.599 78.8894 116.111 76.4021 116.111 73.3339V48.8895C116.111 45.8213 118.599 43.334 121.667 43.334H479.444L479.729 43.3416C482.665 43.4901 484.999 45.917 484.999 48.8895V73.3339L484.992 73.6193C484.848 76.4604 482.57 78.7381 479.729 78.8819L479.444 78.8895V77.7783C481.898 77.7783 483.888 75.7885 483.888 73.3339Z" fill="#181614"/>
<path d="M465 181.111V182.222H63.8895V181.111H465ZM469.444 176.667V152.223C469.444 149.768 467.454 147.778 465 147.778H63.8895C61.4349 147.778 59.4451 149.768 59.4451 152.223V176.667C59.4451 179.122 61.4349 181.111 63.8895 181.111V182.222L63.6042 182.215C60.6685 182.066 58.334 179.639 58.334 176.667V152.223C58.334 149.25 60.6685 146.823 63.6042 146.675L63.8895 146.667H465C468.068 146.667 470.555 149.154 470.555 152.223V176.667L470.548 176.952C470.399 179.888 467.972 182.222 465 182.222V181.111C467.454 181.111 469.444 179.122 469.444 176.667Z" fill="#181614"/>
<path d="M255 277.777V278.888H66.1117V277.777H255ZM259.445 273.333V248.889C259.445 246.434 257.455 244.444 255 244.444H66.1117C63.6571 244.444 61.6673 246.434 61.6673 248.889V273.333C61.6673 275.788 63.6571 277.777 66.1117 277.777V278.888C63.0435 278.888 60.5562 276.401 60.5562 273.333V248.889C60.5562 245.82 63.0435 243.333 66.1117 243.333H255L255.285 243.341C258.221 243.489 260.556 245.916 260.556 248.889V273.333L260.548 273.618C260.404 276.459 258.127 278.737 255.285 278.881L255 278.888V277.777C257.455 277.777 259.445 275.788 259.445 273.333Z" fill="#181614"/>
<path d="M463.888 277.777V278.888H275V277.777H463.888ZM468.333 273.333V248.889C468.333 246.434 466.343 244.444 463.888 244.444H275C272.545 244.444 270.555 246.434 270.555 248.889V273.333C270.555 275.788 272.545 277.777 275 277.777V278.888C271.932 278.888 269.444 276.401 269.444 273.333V248.889C269.444 245.82 271.932 243.333 275 243.333H463.888L464.174 243.341C467.109 243.489 469.444 245.916 469.444 248.889V273.333L469.436 273.618C469.292 276.459 467.015 278.737 464.174 278.881L463.888 278.888V277.777C466.343 277.777 468.333 275.788 468.333 273.333Z" fill="#181614"/>
<path d="M479.444 295.555V296.666H50.5565V295.555H479.444ZM483.889 291.111V101.111C483.889 98.7334 482.021 96.7913 479.673 96.6722L479.444 96.6668H50.5565C48.1019 96.6668 46.1121 98.6566 46.1121 101.111V291.111C46.1121 293.565 48.1019 295.555 50.5565 295.555V296.666C47.4883 296.666 45.001 294.179 45.001 291.111V101.111C45.001 98.1387 47.3355 95.7118 50.2711 95.5633L50.5565 95.5557H479.444L479.73 95.5633C482.665 95.7118 485 98.1387 485 101.111V291.111C485 294.179 482.513 296.666 479.444 296.666V295.555C481.899 295.555 483.889 293.565 483.889 291.111Z" fill="#181614"/>
<path d="M467.94 59.0519C468.157 58.8349 468.509 58.8349 468.726 59.0519C468.943 59.2688 468.943 59.6205 468.726 59.8375L465.392 63.1708C465.288 63.275 465.147 63.3336 465 63.3336C464.852 63.3336 464.711 63.275 464.607 63.1708L461.274 59.8375C461.057 59.6205 461.057 59.2688 461.274 59.0519C461.491 58.8349 461.842 58.8349 462.059 59.0519L465 61.9924L467.94 59.0519Z" fill="white"/>
<path d="M214.256 66.8536C213.54 66.8536 212.918 66.6773 212.389 66.3248C211.871 65.9722 211.471 65.4744 211.191 64.8314C210.911 64.1885 210.771 63.4262 210.771 62.5448C210.771 61.6633 210.911 60.9011 211.191 60.2581C211.471 59.6151 211.871 59.1174 212.389 58.7648C212.918 58.4122 213.54 58.2359 214.256 58.2359C214.806 58.2359 215.309 58.3551 215.765 58.5937C216.221 58.8218 216.563 59.1485 216.791 59.5737V55.6226H218.098V66.667H216.916L216.869 65.4225C216.641 65.8685 216.294 66.221 215.827 66.4803C215.36 66.7292 214.837 66.8536 214.256 66.8536ZM214.52 65.6092C215.008 65.6092 215.417 65.4848 215.749 65.2359C216.091 64.987 216.351 64.6344 216.527 64.1781C216.703 63.7114 216.791 63.167 216.791 62.5448C216.791 61.9018 216.703 61.3522 216.527 60.8959C216.351 60.4396 216.091 60.0922 215.749 59.8537C215.417 59.6048 215.008 59.4803 214.52 59.4803C213.794 59.4803 213.214 59.7551 212.778 60.3048C212.353 60.844 212.14 61.5907 212.14 62.5448C212.14 63.4885 212.353 64.2351 212.778 64.7848C213.214 65.3344 213.794 65.6092 214.52 65.6092Z" fill="white"/>
<path d="M205.984 66.8541C205.206 66.8541 204.532 66.6778 203.961 66.3252C203.401 65.9726 202.966 65.4748 202.655 64.8319C202.354 64.1785 202.204 63.4163 202.204 62.5452C202.204 61.6741 202.354 60.9171 202.655 60.2741C202.966 59.6311 203.396 59.1334 203.946 58.7808C204.506 58.4178 205.164 58.2363 205.921 58.2363C206.637 58.2363 207.27 58.4074 207.819 58.7497C208.369 59.0815 208.794 59.5689 209.095 60.2119C209.406 60.8548 209.561 61.6378 209.561 62.5608V62.9497H203.572C203.624 63.8311 203.858 64.4948 204.272 64.9408C204.698 65.3867 205.268 65.6096 205.984 65.6096C206.523 65.6096 206.964 65.4852 207.306 65.2363C207.658 64.9771 207.902 64.64 208.037 64.2252L209.437 64.3341C209.219 65.0704 208.804 65.6771 208.192 66.1541C207.591 66.6208 206.855 66.8541 205.984 66.8541ZM203.572 61.7985H208.13C208.068 61 207.835 60.4141 207.43 60.0408C207.036 59.6674 206.533 59.4808 205.921 59.4808C205.289 59.4808 204.765 59.6778 204.35 60.0719C203.946 60.4556 203.687 61.0311 203.572 61.7985Z" fill="white"/>
<path d="M193.907 66.667V55.6226H195.214V60.2425L195.058 60.2114C195.162 59.7551 195.338 59.3818 195.587 59.0914C195.836 58.8011 196.142 58.5885 196.505 58.4537C196.868 58.3085 197.267 58.2359 197.703 58.2359C198.294 58.2359 198.792 58.3707 199.196 58.6403C199.611 58.8996 199.922 59.2677 200.129 59.7448C200.347 60.2114 200.456 60.7507 200.456 61.3625V66.667H199.149V61.7359C199.149 60.9374 199.004 60.3463 198.714 59.9625C198.434 59.5788 198.004 59.387 197.423 59.387C196.759 59.387 196.225 59.5892 195.821 59.9937C195.416 60.3981 195.214 60.984 195.214 61.7514V66.667H193.907Z" fill="white"/>
<path d="M188.904 66.8541C188.167 66.8541 187.54 66.7348 187.021 66.4963C186.513 66.2578 186.114 65.9311 185.824 65.5163C185.544 65.0911 185.383 64.6089 185.341 64.0696L186.71 63.9763C186.793 64.4741 187.006 64.8733 187.348 65.1741C187.69 65.4645 188.209 65.6096 188.904 65.6096C189.464 65.6096 189.909 65.5215 190.241 65.3452C190.584 65.1585 190.755 64.863 190.755 64.4585C190.755 64.2408 190.703 64.0593 190.599 63.9141C190.495 63.7689 190.293 63.6445 189.992 63.5408C189.692 63.4267 189.246 63.3178 188.655 63.2141C187.866 63.0689 187.244 62.8926 186.788 62.6852C186.342 62.4674 186.021 62.203 185.824 61.8919C185.637 61.5704 185.544 61.1919 185.544 60.7563C185.544 60.02 185.813 59.4185 186.352 58.9519C186.892 58.4748 187.659 58.2363 188.655 58.2363C189.329 58.2363 189.894 58.3608 190.35 58.6097C190.817 58.8482 191.18 59.1697 191.439 59.5741C191.709 59.9682 191.885 60.4037 191.968 60.8808L190.599 60.9741C190.537 60.6837 190.423 60.4297 190.257 60.2119C190.091 59.9837 189.873 59.8074 189.604 59.683C189.334 59.5482 189.012 59.4808 188.639 59.4808C188.048 59.4808 187.612 59.5948 187.332 59.823C187.052 60.0511 186.912 60.3415 186.912 60.6941C186.912 60.9637 186.975 61.1867 187.099 61.363C187.234 61.5289 187.446 61.6689 187.737 61.783C188.027 61.8867 188.416 61.98 188.904 62.063C189.744 62.2082 190.397 62.3845 190.864 62.5919C191.33 62.7993 191.657 63.0534 191.844 63.3541C192.03 63.6548 192.124 64.023 192.124 64.4585C192.124 64.9667 191.978 65.4022 191.688 65.7652C191.408 66.1178 191.024 66.3874 190.537 66.5741C190.06 66.7608 189.515 66.8541 188.904 66.8541Z" fill="white"/>
<path d="M182.256 66.6669V58.4225H183.562V66.6669H182.256ZM182.225 57.1314V55.6069H183.593V57.1314H182.225Z" fill="white"/>
<path d="M179.848 66.667C179.371 66.667 178.982 66.5425 178.682 66.2936C178.381 66.0448 178.23 65.6507 178.23 65.1114V55.6226H179.537V65.0025C179.537 65.1685 179.579 65.2981 179.662 65.3914C179.755 65.4744 179.885 65.5159 180.05 65.5159H180.766V66.667H179.848Z" fill="white"/>
<path d="M172.835 66.8536C172.265 66.8536 171.757 66.7292 171.311 66.4803C170.865 66.221 170.523 65.8685 170.284 65.4225L170.237 66.667H169.055V55.6226H170.362V59.5737C170.569 59.2314 170.891 58.9255 171.326 58.6559C171.762 58.3759 172.265 58.2359 172.835 58.2359C173.561 58.2359 174.188 58.4122 174.717 58.7648C175.246 59.1174 175.656 59.6151 175.946 60.2581C176.237 60.9011 176.382 61.6633 176.382 62.5448C176.382 63.4262 176.237 64.1885 175.946 64.8314C175.656 65.4744 175.246 65.9722 174.717 66.3248C174.188 66.6773 173.561 66.8536 172.835 66.8536ZM172.757 65.6092C173.452 65.6092 174.002 65.3344 174.406 64.7848C174.811 64.2351 175.013 63.4885 175.013 62.5448C175.013 61.5907 174.811 60.844 174.406 60.3048C174.002 59.7551 173.463 59.4803 172.788 59.4803C172.28 59.4803 171.845 59.6048 171.482 59.8537C171.119 60.0922 170.839 60.4396 170.642 60.8959C170.455 61.3522 170.362 61.9018 170.362 62.5448C170.362 63.167 170.455 63.7114 170.642 64.1781C170.839 64.6344 171.114 64.987 171.466 65.2359C171.829 65.4848 172.26 65.6092 172.757 65.6092Z" fill="white"/>
<path d="M163.042 66.8539C162.223 66.8539 161.564 66.5791 161.067 66.0295C160.579 65.4695 160.335 64.7021 160.335 63.7273V58.4229H161.642V63.3695C161.642 64.168 161.782 64.7591 162.062 65.1428C162.352 65.5162 162.793 65.7028 163.384 65.7028C164.038 65.7028 164.551 65.4954 164.924 65.0806C165.298 64.6554 165.484 64.0747 165.484 63.3384V58.4229H166.791V66.6673H165.547V64.6295L165.749 64.7384C165.583 65.4125 165.267 65.9362 164.8 66.3095C164.333 66.6725 163.747 66.8539 163.042 66.8539Z" fill="white"/>
<path d="M150.876 66.6675V55.623H154.843C156.077 55.623 157.036 55.9186 157.72 56.5097C158.405 57.1008 158.747 57.9201 158.747 58.9675C158.747 59.6727 158.592 60.2845 158.28 60.803C157.969 61.3112 157.523 61.7001 156.943 61.9697C156.362 62.2393 155.662 62.3741 154.843 62.3741H152.214V66.6675H150.876ZM152.214 61.0675H154.843C155.672 61.0675 156.294 60.8912 156.709 60.5386C157.134 60.186 157.347 59.6623 157.347 58.9675C157.347 58.2934 157.134 57.7853 156.709 57.443C156.294 57.1008 155.672 56.9297 154.843 56.9297H152.214V61.0675Z" fill="white"/>
<path d="M416.988 170V168.242H418.746V170H416.988Z" fill="#ADADAD"/>
<path d="M413.859 170V168.242H415.617V170H413.859Z" fill="#ADADAD"/>
<path d="M410.73 170V168.242H412.488V170H410.73Z" fill="#ADADAD"/>
<path d="M407.601 170V168.242H409.358V170H407.601Z" fill="#ADADAD"/>
<path d="M404.471 170V168.242H406.228V170H404.471Z" fill="#ADADAD"/>
<path d="M401.342 170V168.242H403.1V170H401.342Z" fill="#ADADAD"/>
<path d="M395.575 170.187C394.859 170.187 394.237 170.01 393.708 169.658C393.19 169.305 392.79 168.807 392.51 168.164C392.23 167.521 392.09 166.759 392.09 165.878C392.09 164.996 392.23 164.234 392.51 163.591C392.79 162.948 393.19 162.45 393.708 162.098C394.237 161.745 394.859 161.569 395.575 161.569C396.124 161.569 396.627 161.688 397.084 161.927C397.54 162.155 397.882 162.481 398.11 162.907V158.956H399.417V170H398.235L398.188 168.756C397.96 169.201 397.613 169.554 397.146 169.813C396.679 170.062 396.156 170.187 395.575 170.187ZM395.839 168.942C396.327 168.942 396.736 168.818 397.068 168.569C397.41 168.32 397.67 167.967 397.846 167.511C398.022 167.044 398.11 166.5 398.11 165.878C398.11 165.235 398.022 164.685 397.846 164.229C397.67 163.773 397.41 163.425 397.068 163.187C396.736 162.938 396.327 162.813 395.839 162.813C395.113 162.813 394.533 163.088 394.097 163.638C393.672 164.177 393.459 164.924 393.459 165.878C393.459 166.821 393.672 167.568 394.097 168.118C394.533 168.667 395.113 168.942 395.839 168.942Z" fill="#ADADAD"/>
<path d="M386.399 170.187C385.548 170.187 384.869 169.99 384.361 169.595C383.863 169.201 383.614 168.652 383.614 167.947C383.614 167.241 383.822 166.687 384.236 166.282C384.651 165.878 385.31 165.593 386.212 165.427L389.136 164.882C389.136 164.187 388.971 163.669 388.639 163.327C388.317 162.984 387.83 162.813 387.176 162.813C386.606 162.813 386.155 162.943 385.823 163.202C385.491 163.451 385.263 163.814 385.139 164.291L383.754 164.182C383.91 163.404 384.283 162.777 384.874 162.3C385.476 161.813 386.243 161.569 387.176 161.569C388.234 161.569 389.043 161.87 389.603 162.471C390.163 163.062 390.443 163.881 390.443 164.929V168.335C390.443 168.522 390.474 168.657 390.536 168.74C390.609 168.813 390.723 168.849 390.879 168.849H391.205V170C391.164 170.01 391.096 170.015 391.003 170.015C390.91 170.026 390.811 170.031 390.708 170.031C390.334 170.031 390.028 169.974 389.79 169.86C389.562 169.735 389.396 169.549 389.292 169.3C389.188 169.041 389.136 168.704 389.136 168.289L389.292 168.32C389.219 168.673 389.043 168.994 388.763 169.284C388.483 169.564 388.136 169.787 387.721 169.953C387.306 170.109 386.865 170.187 386.399 170.187ZM386.523 169.035C387.073 169.035 387.539 168.932 387.923 168.724C388.317 168.507 388.618 168.216 388.825 167.853C389.033 167.48 389.136 167.065 389.136 166.609V166.018L386.461 166.516C385.901 166.619 385.512 166.78 385.294 166.998C385.087 167.205 384.983 167.48 384.983 167.822C384.983 168.206 385.118 168.507 385.388 168.724C385.668 168.932 386.046 169.035 386.523 169.035Z" fill="#ADADAD"/>
<path d="M378.958 170.187C378.221 170.187 377.594 170.067 377.075 169.829C376.567 169.59 376.168 169.264 375.878 168.849C375.598 168.424 375.437 167.941 375.396 167.402L376.764 167.309C376.847 167.807 377.06 168.206 377.402 168.507C377.744 168.797 378.263 168.942 378.958 168.942C379.518 168.942 379.964 168.854 380.295 168.678C380.638 168.491 380.809 168.195 380.809 167.791C380.809 167.573 380.757 167.392 380.653 167.247C380.55 167.101 380.347 166.977 380.047 166.873C379.746 166.759 379.3 166.65 378.709 166.547C377.921 166.401 377.298 166.225 376.842 166.018C376.396 165.8 376.075 165.536 375.878 165.224C375.691 164.903 375.598 164.524 375.598 164.089C375.598 163.353 375.867 162.751 376.407 162.284C376.946 161.807 377.713 161.569 378.709 161.569C379.383 161.569 379.948 161.693 380.404 161.942C380.871 162.181 381.234 162.502 381.493 162.907C381.763 163.301 381.939 163.736 382.022 164.213L380.653 164.307C380.591 164.016 380.477 163.762 380.311 163.544C380.145 163.316 379.927 163.14 379.658 163.016C379.388 162.881 379.067 162.813 378.693 162.813C378.102 162.813 377.667 162.927 377.387 163.156C377.107 163.384 376.967 163.674 376.967 164.027C376.967 164.296 377.029 164.519 377.153 164.696C377.288 164.861 377.501 165.001 377.791 165.116C378.081 165.219 378.47 165.313 378.958 165.396C379.798 165.541 380.451 165.717 380.918 165.924C381.384 166.132 381.711 166.386 381.898 166.687C382.084 166.987 382.178 167.356 382.178 167.791C382.178 168.299 382.033 168.735 381.742 169.098C381.462 169.45 381.078 169.72 380.591 169.907C380.114 170.093 379.57 170.187 378.958 170.187Z" fill="#ADADAD"/>
<path d="M373.517 170C373.04 170 372.651 169.876 372.351 169.627C372.05 169.378 371.899 168.984 371.899 168.444V158.956H373.206V168.336C373.206 168.501 373.248 168.631 373.331 168.724C373.424 168.807 373.553 168.849 373.719 168.849H374.435V170H373.517Z" fill="#ADADAD"/>
<path d="M365.725 170.187C365.01 170.187 364.387 170.01 363.858 169.658C363.34 169.305 362.941 168.807 362.661 168.164C362.381 167.521 362.241 166.759 362.241 165.878C362.241 164.996 362.381 164.234 362.661 163.591C362.941 162.948 363.34 162.45 363.858 162.098C364.387 161.745 365.01 161.569 365.725 161.569C366.275 161.569 366.778 161.688 367.234 161.927C367.69 162.155 368.033 162.481 368.261 162.907V158.956H369.567V170H368.385L368.338 168.756C368.11 169.201 367.763 169.554 367.296 169.813C366.83 170.062 366.306 170.187 365.725 170.187ZM365.99 168.942C366.477 168.942 366.887 168.818 367.218 168.569C367.561 168.32 367.82 167.967 367.996 167.511C368.173 167.044 368.261 166.5 368.261 165.878C368.261 165.235 368.173 164.685 367.996 164.229C367.82 163.773 367.561 163.425 367.218 163.187C366.887 162.938 366.477 162.813 365.99 162.813C365.264 162.813 364.683 163.088 364.247 163.638C363.822 164.177 363.61 164.924 363.61 165.878C363.61 166.821 363.822 167.568 364.247 168.118C364.683 168.667 365.264 168.942 365.99 168.942Z" fill="#ADADAD"/>
<path d="M352.857 170C352.857 169.223 352.977 168.523 353.215 167.9C353.464 167.268 353.894 166.666 354.506 166.096C355.129 165.526 355.989 164.95 357.089 164.369C357.597 164.1 358.006 163.851 358.317 163.623C358.629 163.394 358.857 163.151 359.002 162.891C359.147 162.632 359.22 162.316 359.22 161.943C359.22 161.559 359.137 161.227 358.971 160.947C358.805 160.657 358.556 160.429 358.224 160.263C357.903 160.097 357.498 160.014 357.011 160.014C356.233 160.014 355.616 160.216 355.16 160.62C354.714 161.025 354.434 161.6 354.32 162.347L352.92 162.254C353.044 161.175 353.459 160.314 354.164 159.671C354.869 159.029 355.818 158.707 357.011 158.707C357.768 158.707 358.416 158.842 358.955 159.111C359.494 159.381 359.904 159.76 360.184 160.247C360.474 160.724 360.62 161.279 360.62 161.911C360.62 162.471 360.526 162.959 360.34 163.374C360.153 163.778 359.837 164.157 359.391 164.509C358.955 164.862 358.354 165.24 357.586 165.645C356.591 166.174 355.834 166.708 355.315 167.247C354.807 167.786 354.537 168.268 354.506 168.694H360.62V170H352.857Z" fill="#ADADAD"/>
<path d="M349.032 170V161.818H346.729V160.667H347.663C348.067 160.667 348.389 160.615 348.627 160.511C348.876 160.407 349.052 160.231 349.156 159.982C349.26 159.733 349.312 159.391 349.312 158.956H350.369V170H349.032Z" fill="#ADADAD"/>
<path d="M343.684 170V161.818H341.382V160.667H342.315C342.72 160.667 343.041 160.615 343.28 160.511C343.529 160.407 343.705 160.231 343.809 159.982C343.912 159.733 343.964 159.391 343.964 158.956H345.022V170H343.684Z" fill="#ADADAD"/>
<path d="M339.52 172.333H338.213V168.227L338.4 168.444C338.306 168.797 338.13 169.103 337.871 169.362C337.622 169.621 337.311 169.824 336.937 169.969C336.574 170.114 336.18 170.187 335.755 170.187C334.936 170.187 334.262 169.984 333.733 169.58C333.214 169.175 332.825 168.647 332.566 167.993C332.317 167.34 332.193 166.635 332.193 165.878C332.193 165.121 332.317 164.416 332.566 163.762C332.825 163.109 333.214 162.58 333.733 162.176C334.262 161.771 334.936 161.569 335.755 161.569C336.398 161.569 336.958 161.73 337.435 162.051C337.922 162.362 338.265 162.824 338.462 163.436L338.275 163.529L338.306 161.756H339.52V172.333ZM335.88 168.942C336.367 168.942 336.782 168.828 337.124 168.6C337.477 168.372 337.746 168.03 337.933 167.573C338.12 167.117 338.213 166.552 338.213 165.878C338.213 165.204 338.114 164.638 337.917 164.182C337.731 163.726 337.461 163.384 337.108 163.156C336.766 162.927 336.357 162.813 335.88 162.813C335.164 162.813 334.599 163.083 334.184 163.622C333.769 164.161 333.562 164.913 333.562 165.878C333.562 166.842 333.769 167.594 334.184 168.133C334.599 168.673 335.164 168.942 335.88 168.942Z" fill="#ADADAD"/>
<path d="M327.75 170.187C327.013 170.187 326.386 170.067 325.868 169.829C325.359 169.59 324.96 169.264 324.67 168.849C324.39 168.424 324.229 167.941 324.188 167.402L325.556 167.309C325.639 167.807 325.852 168.206 326.194 168.507C326.536 168.797 327.055 168.942 327.75 168.942C328.31 168.942 328.756 168.854 329.087 168.678C329.43 168.491 329.601 168.195 329.601 167.791C329.601 167.573 329.549 167.392 329.445 167.247C329.342 167.101 329.139 166.977 328.839 166.873C328.538 166.759 328.092 166.65 327.501 166.547C326.713 166.401 326.09 166.225 325.634 166.018C325.188 165.8 324.867 165.536 324.67 165.224C324.483 164.903 324.39 164.524 324.39 164.089C324.39 163.353 324.659 162.751 325.199 162.284C325.738 161.807 326.505 161.569 327.501 161.569C328.175 161.569 328.74 161.693 329.196 161.942C329.663 162.181 330.026 162.502 330.285 162.907C330.555 163.301 330.731 163.736 330.814 164.213L329.445 164.307C329.383 164.016 329.269 163.762 329.103 163.544C328.937 163.316 328.719 163.14 328.45 163.016C328.18 162.881 327.859 162.813 327.485 162.813C326.894 162.813 326.459 162.927 326.179 163.156C325.899 163.384 325.759 163.674 325.759 164.027C325.759 164.296 325.821 164.519 325.945 164.696C326.08 164.861 326.293 165.001 326.583 165.116C326.873 165.219 327.262 165.313 327.75 165.396C328.59 165.541 329.243 165.717 329.71 165.924C330.176 166.132 330.503 166.386 330.69 166.687C330.876 166.987 330.97 167.356 330.97 167.791C330.97 168.299 330.825 168.735 330.534 169.098C330.254 169.45 329.87 169.72 329.383 169.907C328.906 170.093 328.362 170.187 327.75 170.187Z" fill="#ADADAD"/>
<path d="M319.536 172.334V171.183H320.205C320.475 171.183 320.692 171.115 320.858 170.98C321.024 170.856 321.107 170.623 321.107 170.28V161.756H322.414V170.343C322.414 171.069 322.253 171.582 321.932 171.883C321.61 172.183 321.076 172.334 320.329 172.334H319.536ZM321.076 160.465V158.94H322.445V160.465H321.076Z" fill="#ADADAD"/>
<path d="M313.385 171.711L317.974 158.333H319.218L314.629 171.711H313.385Z" fill="#ADADAD"/>
<path d="M307.898 172.52C307.307 172.52 306.773 172.421 306.296 172.224C305.819 172.027 305.42 171.747 305.098 171.384C304.777 171.021 304.559 170.601 304.445 170.124L305.814 170.031C305.938 170.415 306.156 170.715 306.467 170.933C306.788 171.161 307.266 171.275 307.898 171.275C308.645 171.275 309.215 171.125 309.609 170.824C310.014 170.524 310.216 170.073 310.216 169.471V168.133C310.019 168.569 309.703 168.916 309.267 169.175C308.831 169.435 308.344 169.564 307.805 169.564C307.11 169.564 306.488 169.393 305.938 169.051C305.399 168.709 304.974 168.237 304.663 167.635C304.362 167.034 304.211 166.344 304.211 165.567C304.211 164.778 304.362 164.089 304.663 163.498C304.963 162.896 305.378 162.424 305.907 162.082C306.446 161.74 307.058 161.569 307.743 161.569C308.323 161.569 308.842 161.704 309.298 161.973C309.765 162.243 310.091 162.606 310.278 163.062V161.756H311.523V169.44C311.523 170.083 311.377 170.633 311.087 171.089C310.797 171.555 310.382 171.908 309.843 172.147C309.303 172.395 308.655 172.52 307.898 172.52ZM307.867 168.32C308.572 168.32 309.137 168.076 309.563 167.589C309.988 167.091 310.205 166.417 310.216 165.567C310.226 164.996 310.133 164.509 309.936 164.104C309.749 163.69 309.474 163.373 309.111 163.156C308.759 162.927 308.344 162.813 307.867 162.813C307.141 162.813 306.576 163.062 306.171 163.56C305.777 164.047 305.58 164.716 305.58 165.567C305.58 166.417 305.783 167.091 306.187 167.589C306.602 168.076 307.162 168.32 307.867 168.32Z" fill="#ADADAD"/>
<path d="M295.915 170V161.756H297.112L297.159 163.856L297.003 163.716C297.107 163.228 297.289 162.829 297.548 162.518C297.807 162.196 298.118 161.958 298.481 161.802C298.855 161.647 299.254 161.569 299.679 161.569C300.312 161.569 300.83 161.709 301.235 161.989C301.649 162.269 301.955 162.647 302.152 163.124C302.36 163.591 302.463 164.115 302.463 164.696V170H301.157V165.069C301.157 164.561 301.095 164.136 300.97 163.793C300.856 163.441 300.669 163.176 300.41 163C300.151 162.813 299.814 162.72 299.399 162.72C298.766 162.72 298.243 162.922 297.828 163.327C297.423 163.721 297.221 164.301 297.221 165.069V170H295.915Z" fill="#ADADAD"/>
<path d="M291.965 170V161.756H293.271V170H291.965ZM291.934 160.465V158.94H293.302V160.465H291.934Z" fill="#ADADAD"/>
<path d="M285.942 170.187C285.226 170.187 284.604 170.01 284.075 169.658C283.557 169.305 283.158 168.807 282.878 168.164C282.598 167.521 282.458 166.759 282.458 165.878C282.458 164.996 282.598 164.234 282.878 163.591C283.158 162.948 283.557 162.45 284.075 162.098C284.604 161.745 285.226 161.569 285.942 161.569C286.492 161.569 286.995 161.688 287.451 161.927C287.907 162.155 288.249 162.481 288.478 162.907V158.956H289.784V170H288.602L288.555 168.756C288.327 169.201 287.98 169.554 287.513 169.813C287.046 170.062 286.523 170.187 285.942 170.187ZM286.206 168.942C286.694 168.942 287.103 168.818 287.435 168.569C287.778 168.32 288.037 167.967 288.213 167.511C288.389 167.044 288.478 166.5 288.478 165.878C288.478 165.235 288.389 164.685 288.213 164.229C288.037 163.773 287.778 163.425 287.435 163.187C287.103 162.938 286.694 162.813 286.206 162.813C285.48 162.813 284.9 163.088 284.464 163.638C284.039 164.177 283.826 164.924 283.826 165.878C283.826 166.821 284.039 167.568 284.464 168.118C284.9 168.667 285.48 168.942 286.206 168.942Z" fill="#ADADAD"/>
<path d="M274.161 170V161.756H275.359L275.406 163.856L275.25 163.716C275.354 163.228 275.535 162.829 275.794 162.518C276.054 162.196 276.365 161.958 276.728 161.802C277.101 161.647 277.5 161.569 277.926 161.569C278.558 161.569 279.077 161.709 279.481 161.989C279.896 162.269 280.202 162.647 280.399 163.124C280.606 163.591 280.71 164.115 280.71 164.696V170H279.403V165.069C279.403 164.561 279.341 164.136 279.217 163.793C279.103 163.441 278.916 163.176 278.657 163C278.397 162.813 278.06 162.72 277.646 162.72C277.013 162.72 276.489 162.922 276.074 163.327C275.67 163.721 275.468 164.301 275.468 165.069V170H274.161Z" fill="#ADADAD"/>
<path d="M267.879 170.187C267.029 170.187 266.35 169.99 265.841 169.595C265.344 169.201 265.095 168.652 265.095 167.947C265.095 167.241 265.302 166.687 265.717 166.282C266.132 165.878 266.79 165.593 267.692 165.427L270.617 164.882C270.617 164.187 270.451 163.669 270.119 163.327C269.798 162.984 269.31 162.813 268.657 162.813C268.087 162.813 267.635 162.943 267.304 163.202C266.972 163.451 266.744 163.814 266.619 164.291L265.235 164.182C265.39 163.404 265.764 162.777 266.355 162.3C266.956 161.813 267.724 161.569 268.657 161.569C269.715 161.569 270.524 161.87 271.084 162.471C271.644 163.062 271.924 163.881 271.924 164.929V168.335C271.924 168.522 271.955 168.657 272.017 168.74C272.09 168.813 272.204 168.849 272.359 168.849H272.686V170C272.644 170.01 272.577 170.015 272.484 170.015C272.39 170.026 272.292 170.031 272.188 170.031C271.815 170.031 271.509 169.974 271.27 169.86C271.042 169.735 270.876 169.549 270.772 169.3C270.669 169.041 270.617 168.704 270.617 168.289L270.772 168.32C270.7 168.673 270.524 168.994 270.244 169.284C269.964 169.564 269.616 169.787 269.201 169.953C268.787 170.109 268.346 170.187 267.879 170.187ZM268.004 169.035C268.553 169.035 269.02 168.932 269.404 168.724C269.798 168.507 270.098 168.216 270.306 167.853C270.513 167.48 270.617 167.065 270.617 166.609V166.018L267.941 166.516C267.381 166.619 266.993 166.78 266.775 166.998C266.567 167.205 266.464 167.48 266.464 167.822C266.464 168.206 266.598 168.507 266.868 168.724C267.148 168.932 267.527 169.035 268.004 169.035Z" fill="#ADADAD"/>
<path d="M263.125 170C262.648 170 262.259 169.876 261.958 169.627C261.658 169.378 261.507 168.984 261.507 168.444V158.956H262.814V168.336C262.814 168.501 262.855 168.631 262.938 168.724C263.032 168.807 263.161 168.849 263.327 168.849H264.043V170H263.125Z" fill="#ADADAD"/>
<path d="M253.882 171.711L258.471 158.333H259.715L255.126 171.711H253.882Z" fill="#ADADAD"/>
<path d="M240.863 170V161.756H242.061L242.107 163.84L241.921 163.778C242.014 163.321 242.175 162.933 242.403 162.611C242.641 162.279 242.932 162.025 243.274 161.849C243.616 161.662 243.995 161.569 244.409 161.569C245.125 161.569 245.706 161.766 246.152 162.16C246.608 162.554 246.893 163.104 247.007 163.809L246.758 163.793C246.841 163.316 246.992 162.917 247.209 162.596C247.438 162.264 247.728 162.01 248.081 161.833C248.433 161.657 248.838 161.569 249.294 161.569C249.885 161.569 250.383 161.693 250.787 161.942C251.192 162.181 251.498 162.533 251.705 163C251.912 163.467 252.016 164.032 252.016 164.696V170H250.709V164.976C250.709 164.229 250.564 163.669 250.274 163.296C249.984 162.912 249.553 162.72 248.983 162.72C248.599 162.72 248.262 162.813 247.972 163C247.692 163.187 247.474 163.456 247.318 163.809C247.163 164.151 247.085 164.571 247.085 165.069V170H245.778V165.069C245.778 164.333 245.649 163.757 245.389 163.342C245.13 162.927 244.695 162.72 244.083 162.72C243.699 162.72 243.362 162.813 243.072 163C242.792 163.187 242.569 163.456 242.403 163.809C242.247 164.161 242.169 164.581 242.169 165.069V170H240.863Z" fill="#ADADAD"/>
<path d="M235.318 170.187C234.561 170.187 233.897 170.01 233.326 169.658C232.756 169.305 232.315 168.807 232.004 168.164C231.693 167.511 231.538 166.749 231.538 165.878C231.538 164.996 231.693 164.234 232.004 163.591C232.315 162.948 232.756 162.45 233.326 162.098C233.897 161.745 234.561 161.569 235.318 161.569C236.075 161.569 236.733 161.745 237.293 162.098C237.864 162.45 238.304 162.948 238.615 163.591C238.926 164.234 239.082 164.996 239.082 165.878C239.082 166.749 238.926 167.511 238.615 168.164C238.304 168.807 237.864 169.305 237.293 169.658C236.733 170.01 236.075 170.187 235.318 170.187ZM235.318 168.942C236.075 168.942 236.661 168.673 237.075 168.133C237.501 167.584 237.713 166.832 237.713 165.878C237.713 164.924 237.501 164.177 237.075 163.638C236.661 163.088 236.075 162.813 235.318 162.813C234.561 162.813 233.969 163.088 233.544 163.638C233.119 164.177 232.906 164.924 232.906 165.878C232.906 166.832 233.119 167.584 233.544 168.133C233.969 168.673 234.561 168.942 235.318 168.942Z" fill="#ADADAD"/>
<path d="M226.978 170.187C226.21 170.187 225.541 170.01 224.971 169.658C224.411 169.305 223.976 168.807 223.664 168.164C223.353 167.511 223.198 166.749 223.198 165.878C223.198 165.007 223.353 164.25 223.664 163.607C223.976 162.964 224.411 162.466 224.971 162.113C225.541 161.75 226.21 161.569 226.978 161.569C227.61 161.569 228.17 161.683 228.658 161.911C229.156 162.129 229.56 162.45 229.871 162.876C230.182 163.301 230.384 163.819 230.478 164.431L229.109 164.524C229.016 163.975 228.777 163.555 228.393 163.264C228.01 162.964 227.538 162.813 226.978 162.813C226.221 162.813 225.63 163.088 225.204 163.638C224.779 164.177 224.567 164.924 224.567 165.878C224.567 166.832 224.779 167.584 225.204 168.133C225.63 168.673 226.221 168.942 226.978 168.942C227.538 168.942 228.01 168.787 228.393 168.475C228.777 168.164 229.016 167.698 229.109 167.076L230.478 167.169C230.384 167.781 230.182 168.315 229.871 168.771C229.56 169.217 229.156 169.564 228.658 169.813C228.17 170.062 227.61 170.187 226.978 170.187Z" fill="#ADADAD"/>
<path d="M220.068 170V168.242H221.826V170H220.068Z" fill="#ADADAD"/>
<path d="M211.733 170V168.693L216.945 162.906H211.889V161.755H218.376V163.062L213.165 168.849H218.5V170H211.733Z" fill="#ADADAD"/>
<path d="M203.439 170V168.693L208.65 162.906H203.595V161.755H210.081V163.062L204.87 168.849H210.206V170H203.439Z" fill="#ADADAD"/>
<path d="M198.705 170.187C198.135 170.187 197.627 170.062 197.181 169.813C196.735 169.554 196.393 169.201 196.154 168.756L196.108 170H194.925V158.956H196.232V162.907C196.439 162.564 196.761 162.259 197.196 161.989C197.632 161.709 198.135 161.569 198.705 161.569C199.431 161.569 200.059 161.745 200.588 162.098C201.116 162.45 201.526 162.948 201.816 163.591C202.107 164.234 202.252 164.996 202.252 165.878C202.252 166.759 202.107 167.521 201.816 168.164C201.526 168.807 201.116 169.305 200.588 169.658C200.059 170.01 199.431 170.187 198.705 170.187ZM198.628 168.942C199.322 168.942 199.872 168.667 200.276 168.118C200.681 167.568 200.883 166.821 200.883 165.878C200.883 164.924 200.681 164.177 200.276 163.638C199.872 163.088 199.333 162.813 198.659 162.813C198.15 162.813 197.715 162.938 197.352 163.187C196.989 163.425 196.709 163.773 196.512 164.229C196.325 164.685 196.232 165.235 196.232 165.878C196.232 166.5 196.325 167.044 196.512 167.511C196.709 167.967 196.984 168.32 197.336 168.569C197.699 168.818 198.13 168.942 198.628 168.942Z" fill="#ADADAD"/>
<path d="M189.502 170V161.755H190.653L190.715 163.84L190.591 163.793C190.695 163.088 190.918 162.575 191.26 162.253C191.612 161.921 192.079 161.755 192.66 161.755H193.469V163H192.675C192.26 163 191.913 163.078 191.633 163.233C191.363 163.378 191.156 163.601 191.011 163.902C190.876 164.192 190.809 164.566 190.809 165.022V170H189.502Z" fill="#ADADAD"/>
<path d="M184.644 170V161.009C184.644 160.397 184.821 159.904 185.173 159.531C185.526 159.147 186.076 158.956 186.822 158.956H188.129V160.107H186.916C186.594 160.107 186.35 160.195 186.184 160.371C186.029 160.547 185.951 160.791 185.951 161.102V170H184.644ZM183.524 162.907V161.756H188.02V162.907H183.524Z" fill="#ADADAD"/>
<path d="M180.693 170V168.242H182.451V170H180.693Z" fill="#ADADAD"/>
<path d="M171.084 170L168.533 161.755H169.964L171.893 168.631L173.853 161.755H175.253L177.213 168.631L179.157 161.755H180.588L178.037 170H176.388L174.553 163.731L172.717 170H171.084Z" fill="#ADADAD"/>
<path d="M164.331 170.187C163.553 170.187 162.879 170.01 162.309 169.658C161.749 169.305 161.313 168.807 161.002 168.164C160.701 167.511 160.551 166.749 160.551 165.878C160.551 165.007 160.701 164.25 161.002 163.607C161.313 162.964 161.743 162.466 162.293 162.113C162.853 161.75 163.512 161.569 164.269 161.569C164.984 161.569 165.617 161.74 166.166 162.082C166.716 162.414 167.141 162.901 167.442 163.544C167.753 164.187 167.909 164.97 167.909 165.893V166.282H161.92C161.972 167.164 162.205 167.827 162.62 168.273C163.045 168.719 163.615 168.942 164.331 168.942C164.87 168.942 165.311 168.818 165.653 168.569C166.006 168.31 166.249 167.973 166.384 167.558L167.784 167.667C167.566 168.403 167.152 169.01 166.54 169.487C165.938 169.953 165.202 170.187 164.331 170.187ZM161.92 165.131H166.477C166.415 164.333 166.182 163.747 165.777 163.373C165.383 163 164.88 162.813 164.269 162.813C163.636 162.813 163.112 163.01 162.697 163.404C162.293 163.788 162.034 164.364 161.92 165.131Z" fill="#ADADAD"/>
<path d="M157.464 170V161.756H158.771V170H157.464ZM157.433 160.465V158.94H158.802V160.465H157.433Z" fill="#ADADAD"/>
<path d="M151.377 170L148.375 161.755H149.806L152.201 168.662L154.597 161.755H156.028L153.026 170H151.377Z" fill="#ADADAD"/>
<path d="M144.172 170.187C143.394 170.187 142.72 170.01 142.15 169.658C141.59 169.305 141.154 168.807 140.843 168.164C140.542 167.511 140.392 166.749 140.392 165.878C140.392 165.007 140.542 164.25 140.843 163.607C141.154 162.964 141.585 162.466 142.134 162.113C142.694 161.75 143.353 161.569 144.11 161.569C144.825 161.569 145.458 161.74 146.008 162.082C146.557 162.414 146.982 162.901 147.283 163.544C147.594 164.187 147.75 164.97 147.75 165.893V166.282H141.761C141.813 167.164 142.046 167.827 142.461 168.273C142.886 168.719 143.457 168.942 144.172 168.942C144.711 168.942 145.152 168.818 145.494 168.569C145.847 168.31 146.091 167.973 146.225 167.558L147.625 167.667C147.408 168.403 146.993 169.01 146.381 169.487C145.779 169.953 145.043 170.187 144.172 170.187ZM141.761 165.131H146.319C146.257 164.333 146.023 163.747 145.619 163.373C145.225 163 144.722 162.813 144.11 162.813C143.477 162.813 142.954 163.01 142.539 163.404C142.134 163.788 141.875 164.364 141.761 165.131Z" fill="#ADADAD"/>
<path d="M135.681 170V161.755H136.832L136.894 163.84L136.77 163.793C136.874 163.088 137.097 162.575 137.439 162.253C137.792 161.921 138.258 161.755 138.839 161.755H139.648V163H138.854C138.44 163 138.092 163.078 137.812 163.233C137.543 163.378 137.335 163.601 137.19 163.902C137.055 164.192 136.988 164.566 136.988 165.022V170H135.681Z" fill="#ADADAD"/>
<path d="M126.582 172.333V161.756H127.795L127.826 163.529L127.639 163.436C127.847 162.824 128.189 162.362 128.666 162.051C129.153 161.73 129.713 161.569 130.346 161.569C131.165 161.569 131.834 161.771 132.353 162.176C132.882 162.58 133.27 163.109 133.519 163.762C133.779 164.416 133.908 165.121 133.908 165.878C133.908 166.635 133.779 167.34 133.519 167.993C133.27 168.647 132.882 169.175 132.353 169.58C131.834 169.984 131.165 170.187 130.346 170.187C129.921 170.187 129.522 170.114 129.148 169.969C128.785 169.824 128.474 169.621 128.215 169.362C127.966 169.103 127.795 168.797 127.702 168.444L127.888 168.227V172.333H126.582ZM130.222 168.942C130.937 168.942 131.502 168.673 131.917 168.133C132.332 167.594 132.539 166.842 132.539 165.878C132.539 164.913 132.332 164.161 131.917 163.622C131.502 163.083 130.937 162.813 130.222 162.813C129.744 162.813 129.33 162.927 128.977 163.156C128.635 163.384 128.365 163.726 128.168 164.182C127.982 164.638 127.888 165.204 127.888 165.878C127.888 166.552 127.982 167.117 128.168 167.573C128.355 168.03 128.625 168.372 128.977 168.6C129.33 168.828 129.744 168.942 130.222 168.942Z" fill="#ADADAD"/>
<path d="M118.956 171.711L123.545 158.333H124.789L120.2 171.711H118.956Z" fill="#ADADAD"/>
<path d="M113.138 171.711L117.727 158.333H118.971L114.382 171.711H113.138Z" fill="#ADADAD"/>
<path d="M109.633 170V168.242H111.391V170H109.633ZM109.633 163.887V162.129H111.391V163.887H109.633Z" fill="#ADADAD"/>
<path d="M104.291 170.187C103.555 170.187 102.928 170.067 102.409 169.829C101.901 169.59 101.502 169.264 101.211 168.849C100.931 168.424 100.77 167.941 100.729 167.402L102.098 167.309C102.181 167.807 102.393 168.206 102.736 168.507C103.078 168.797 103.596 168.942 104.291 168.942C104.851 168.942 105.297 168.854 105.629 168.678C105.971 168.491 106.142 168.195 106.142 167.791C106.142 167.573 106.09 167.392 105.987 167.247C105.883 167.101 105.681 166.977 105.38 166.873C105.079 166.759 104.633 166.65 104.042 166.547C103.254 166.401 102.632 166.225 102.176 166.018C101.73 165.8 101.408 165.536 101.211 165.224C101.025 164.903 100.931 164.524 100.931 164.089C100.931 163.353 101.201 162.751 101.74 162.284C102.279 161.807 103.047 161.569 104.042 161.569C104.716 161.569 105.282 161.693 105.738 161.942C106.205 162.181 106.568 162.502 106.827 162.907C107.096 163.301 107.273 163.736 107.356 164.213L105.987 164.307C105.925 164.016 105.81 163.762 105.645 163.544C105.479 163.316 105.261 163.14 104.991 163.016C104.722 162.881 104.4 162.813 104.027 162.813C103.436 162.813 103 162.927 102.72 163.156C102.44 163.384 102.3 163.674 102.3 164.027C102.3 164.296 102.362 164.519 102.487 164.696C102.622 164.861 102.834 165.001 103.125 165.116C103.415 165.219 103.804 165.313 104.291 165.396C105.131 165.541 105.785 165.717 106.251 165.924C106.718 166.132 107.045 166.386 107.231 166.687C107.418 166.987 107.511 167.356 107.511 167.791C107.511 168.299 107.366 168.735 107.076 169.098C106.796 169.45 106.412 169.72 105.925 169.907C105.448 170.093 104.903 170.187 104.291 170.187Z" fill="#ADADAD"/>
<path d="M92.189 172.333V161.756H93.4023L93.4334 163.529L93.2467 163.436C93.4541 162.824 93.7964 162.362 94.2734 162.051C94.7608 161.73 95.3208 161.569 95.9534 161.569C96.7727 161.569 97.4415 161.771 97.9601 162.176C98.4889 162.58 98.8778 163.109 99.1267 163.762C99.386 164.416 99.5156 165.121 99.5156 165.878C99.5156 166.635 99.386 167.34 99.1267 167.993C98.8778 168.647 98.4889 169.175 97.9601 169.58C97.4415 169.984 96.7727 170.187 95.9534 170.187C95.5282 170.187 95.129 170.114 94.7556 169.969C94.3927 169.824 94.0816 169.621 93.8223 169.362C93.5734 169.103 93.4023 168.797 93.309 168.444L93.4956 168.227V172.333H92.189ZM95.829 168.942C96.5445 168.942 97.1097 168.673 97.5245 168.133C97.9393 167.594 98.1467 166.842 98.1467 165.878C98.1467 164.913 97.9393 164.161 97.5245 163.622C97.1097 163.083 96.5445 162.813 95.829 162.813C95.3519 162.813 94.9371 162.927 94.5845 163.156C94.2423 163.384 93.9727 163.726 93.7756 164.182C93.589 164.638 93.4956 165.204 93.4956 165.878C93.4956 166.552 93.589 167.117 93.7756 167.573C93.9623 168.03 94.2319 168.372 94.5845 168.6C94.9371 168.828 95.3519 168.942 95.829 168.942Z" fill="#ADADAD"/>
<path d="M84.3451 170C83.5985 170 83.0437 169.829 82.6807 169.487C82.3281 169.145 82.1518 168.611 82.1518 167.885V159.827H83.4585V167.854C83.4585 168.227 83.5414 168.486 83.7074 168.632C83.8733 168.777 84.1274 168.849 84.4696 168.849H85.6518V170H84.3451ZM80.9385 162.907V161.756H85.6518V162.907H80.9385ZM89.0273 170C88.2807 170 87.7259 169.829 87.3629 169.487C87.0103 169.145 86.834 168.611 86.834 167.885V159.827H88.1407V167.854C88.1407 168.227 88.2236 168.486 88.3896 168.632C88.5555 168.777 88.8096 168.849 89.1518 168.849H90.334V170H89.0273ZM85.6207 162.907V161.756H90.334V162.907H85.6207Z" fill="#ADADAD"/>
<path d="M72.9116 170V158.956H74.2183V163.576L74.0627 163.544C74.1664 163.088 74.3427 162.715 74.5916 162.424C74.8405 162.134 75.1464 161.921 75.5094 161.787C75.8724 161.641 76.2716 161.569 76.7072 161.569C77.2983 161.569 77.7961 161.704 78.2005 161.973C78.6153 162.233 78.9264 162.601 79.1338 163.078C79.3516 163.544 79.4605 164.084 79.4605 164.696V170H78.1538V165.069C78.1538 164.27 78.0086 163.679 77.7183 163.296C77.4383 162.912 77.0079 162.72 76.4272 162.72C75.7635 162.72 75.2294 162.922 74.8249 163.327C74.4205 163.731 74.2183 164.317 74.2183 165.084V170H72.9116Z" fill="#ADADAD"/>
<path d="M291.097 207.778V206.02H292.855V207.778H291.097Z" fill="white"/>
<path d="M285.96 207.964C285.203 207.964 284.539 207.788 283.969 207.435C283.398 207.082 282.957 206.585 282.646 205.942C282.335 205.288 282.18 204.526 282.18 203.655C282.18 202.774 282.335 202.011 282.646 201.368C282.957 200.725 283.398 200.228 283.969 199.875C284.539 199.522 285.203 199.346 285.96 199.346C286.717 199.346 287.375 199.522 287.935 199.875C288.506 200.228 288.946 200.725 289.257 201.368C289.569 202.011 289.724 202.774 289.724 203.655C289.724 204.526 289.569 205.288 289.257 205.942C288.946 206.585 288.506 207.082 287.935 207.435C287.375 207.788 286.717 207.964 285.96 207.964ZM285.96 206.72C286.717 206.72 287.303 206.45 287.717 205.911C288.143 205.361 288.355 204.609 288.355 203.655C288.355 202.701 288.143 201.954 287.717 201.415C287.303 200.865 286.717 200.591 285.96 200.591C285.203 200.591 284.612 200.865 284.186 201.415C283.761 201.954 283.549 202.701 283.549 203.655C283.549 204.609 283.761 205.361 284.186 205.911C284.612 206.45 285.203 206.72 285.96 206.72Z" fill="white"/>
<path d="M276.782 210.297C276.191 210.297 275.657 210.199 275.18 210.002C274.703 209.805 274.304 209.525 273.982 209.162C273.661 208.799 273.443 208.379 273.329 207.902L274.698 207.808C274.822 208.192 275.04 208.493 275.351 208.711C275.673 208.939 276.15 209.053 276.782 209.053C277.529 209.053 278.099 208.902 278.493 208.602C278.898 208.301 279.1 207.85 279.1 207.248V205.911C278.903 206.346 278.587 206.694 278.151 206.953C277.716 207.212 277.228 207.342 276.689 207.342C275.994 207.342 275.372 207.171 274.822 206.828C274.283 206.486 273.858 206.014 273.547 205.413C273.246 204.811 273.096 204.122 273.096 203.344C273.096 202.556 273.246 201.866 273.547 201.275C273.848 200.674 274.262 200.202 274.791 199.86C275.331 199.517 275.942 199.346 276.627 199.346C277.208 199.346 277.726 199.481 278.182 199.751C278.649 200.02 278.976 200.383 279.162 200.84V199.533H280.407V207.217C280.407 207.86 280.262 208.41 279.971 208.866C279.681 209.333 279.266 209.685 278.727 209.924C278.188 210.173 277.539 210.297 276.782 210.297ZM276.751 206.097C277.456 206.097 278.022 205.854 278.447 205.366C278.872 204.868 279.09 204.194 279.1 203.344C279.111 202.774 279.017 202.286 278.82 201.882C278.633 201.467 278.359 201.151 277.996 200.933C277.643 200.705 277.228 200.591 276.751 200.591C276.025 200.591 275.46 200.84 275.056 201.337C274.662 201.825 274.465 202.494 274.465 203.344C274.465 204.194 274.667 204.868 275.071 205.366C275.486 205.854 276.046 206.097 276.751 206.097Z" fill="white"/>
<path d="M267.404 207.964C266.553 207.964 265.874 207.767 265.366 207.373C264.868 206.979 264.619 206.429 264.619 205.724C264.619 205.019 264.827 204.464 265.241 204.06C265.656 203.655 266.315 203.37 267.217 203.204L270.141 202.66C270.141 201.965 269.975 201.446 269.644 201.104C269.322 200.762 268.835 200.591 268.181 200.591C267.611 200.591 267.16 200.72 266.828 200.98C266.496 201.228 266.268 201.591 266.144 202.068L264.759 201.96C264.915 201.182 265.288 200.554 265.879 200.077C266.481 199.59 267.248 199.346 268.181 199.346C269.239 199.346 270.048 199.647 270.608 200.248C271.168 200.84 271.448 201.659 271.448 202.706V206.113C271.448 206.3 271.479 206.434 271.541 206.517C271.614 206.59 271.728 206.626 271.884 206.626H272.21V207.777C272.169 207.788 272.101 207.793 272.008 207.793C271.915 207.803 271.816 207.808 271.712 207.808C271.339 207.808 271.033 207.751 270.795 207.637C270.567 207.513 270.401 207.326 270.297 207.077C270.193 206.818 270.141 206.481 270.141 206.066L270.297 206.097C270.224 206.45 270.048 206.771 269.768 207.062C269.488 207.342 269.141 207.565 268.726 207.731C268.311 207.886 267.87 207.964 267.404 207.964ZM267.528 206.813C268.078 206.813 268.544 206.709 268.928 206.502C269.322 206.284 269.623 205.994 269.83 205.631C270.038 205.257 270.141 204.842 270.141 204.386V203.795L267.466 204.293C266.906 204.397 266.517 204.557 266.299 204.775C266.092 204.982 265.988 205.257 265.988 205.6C265.988 205.983 266.123 206.284 266.392 206.502C266.672 206.709 267.051 206.813 267.528 206.813Z" fill="white"/>
<path d="M254.963 207.964C254.248 207.964 253.626 207.788 253.097 207.436C252.578 207.083 252.179 206.585 251.899 205.942C251.619 205.299 251.479 204.537 251.479 203.656C251.479 202.774 251.619 202.012 251.899 201.369C252.179 200.726 252.578 200.228 253.097 199.876C253.626 199.523 254.248 199.347 254.963 199.347C255.513 199.347 256.016 199.466 256.472 199.705C256.929 199.933 257.271 200.259 257.499 200.684V196.733H258.806V207.778H257.623L257.577 206.533C257.349 206.979 257.001 207.332 256.535 207.591C256.068 207.84 255.544 207.964 254.963 207.964ZM255.228 206.72C255.715 206.72 256.125 206.596 256.457 206.347C256.799 206.098 257.058 205.745 257.235 205.289C257.411 204.822 257.499 204.278 257.499 203.656C257.499 203.013 257.411 202.463 257.235 202.007C257.058 201.55 256.799 201.203 256.457 200.964C256.125 200.716 255.715 200.591 255.228 200.591C254.502 200.591 253.921 200.866 253.486 201.416C253.06 201.955 252.848 202.702 252.848 203.656C252.848 204.599 253.06 205.346 253.486 205.896C253.921 206.445 254.502 206.72 255.228 206.72Z" fill="white"/>
<path d="M243.183 207.777V199.533H244.38L244.427 201.633L244.272 201.493C244.375 201.005 244.557 200.606 244.816 200.295C245.075 199.974 245.386 199.735 245.749 199.58C246.123 199.424 246.522 199.346 246.947 199.346C247.58 199.346 248.098 199.486 248.503 199.766C248.917 200.046 249.223 200.425 249.42 200.902C249.628 201.368 249.732 201.892 249.732 202.473V207.777H248.425V202.846C248.425 202.338 248.363 201.913 248.238 201.571C248.124 201.218 247.937 200.954 247.678 200.777C247.419 200.591 247.082 200.497 246.667 200.497C246.034 200.497 245.511 200.7 245.096 201.104C244.692 201.498 244.489 202.079 244.489 202.846V207.777H243.183Z" fill="white"/>
<path d="M237.638 207.964C236.881 207.964 236.217 207.788 235.647 207.435C235.076 207.082 234.636 206.585 234.325 205.942C234.013 205.288 233.858 204.526 233.858 203.655C233.858 202.774 234.013 202.011 234.325 201.368C234.636 200.725 235.076 200.228 235.647 199.875C236.217 199.522 236.881 199.346 237.638 199.346C238.395 199.346 239.053 199.522 239.613 199.875C240.184 200.228 240.625 200.725 240.936 201.368C241.247 202.011 241.402 202.774 241.402 203.655C241.402 204.526 241.247 205.288 240.936 205.942C240.625 206.585 240.184 207.082 239.613 207.435C239.053 207.788 238.395 207.964 237.638 207.964ZM237.638 206.72C238.395 206.72 238.981 206.45 239.396 205.911C239.821 205.361 240.033 204.609 240.033 203.655C240.033 202.701 239.821 201.954 239.396 201.415C238.981 200.865 238.395 200.591 237.638 200.591C236.881 200.591 236.29 200.865 235.865 201.415C235.439 201.954 235.227 202.701 235.227 203.655C235.227 204.609 235.439 205.361 235.865 205.911C236.29 206.45 236.881 206.72 237.638 206.72Z" fill="white"/>
<path d="M229.298 207.964C228.53 207.964 227.861 207.788 227.291 207.435C226.731 207.082 226.295 206.585 225.984 205.942C225.673 205.288 225.518 204.526 225.518 203.655C225.518 202.784 225.673 202.027 225.984 201.384C226.295 200.741 226.731 200.243 227.291 199.891C227.861 199.528 228.53 199.346 229.298 199.346C229.93 199.346 230.49 199.46 230.978 199.688C231.475 199.906 231.88 200.228 232.191 200.653C232.502 201.078 232.704 201.597 232.798 202.208L231.429 202.302C231.335 201.752 231.097 201.332 230.713 201.042C230.329 200.741 229.858 200.591 229.298 200.591C228.541 200.591 227.949 200.865 227.524 201.415C227.099 201.954 226.886 202.701 226.886 203.655C226.886 204.609 227.099 205.361 227.524 205.911C227.949 206.45 228.541 206.72 229.298 206.72C229.858 206.72 230.329 206.564 230.713 206.253C231.097 205.942 231.335 205.475 231.429 204.853L232.798 204.946C232.704 205.558 232.502 206.092 232.191 206.548C231.88 206.994 231.475 207.342 230.978 207.591C230.49 207.84 229.93 207.964 229.298 207.964Z" fill="white"/>
<path d="M220.73 207.964C219.952 207.964 219.278 207.788 218.707 207.435C218.147 207.082 217.712 206.585 217.401 205.942C217.1 205.288 216.95 204.526 216.95 203.655C216.95 202.784 217.1 202.027 217.401 201.384C217.712 200.741 218.142 200.243 218.692 199.891C219.252 199.528 219.91 199.346 220.667 199.346C221.383 199.346 222.016 199.517 222.565 199.86C223.115 200.191 223.54 200.679 223.841 201.322C224.152 201.965 224.307 202.748 224.307 203.671V204.06H218.319C218.37 204.941 218.604 205.605 219.019 206.051C219.444 206.497 220.014 206.72 220.73 206.72C221.269 206.72 221.71 206.595 222.052 206.346C222.405 206.087 222.648 205.75 222.783 205.335L224.183 205.444C223.965 206.18 223.55 206.787 222.939 207.264C222.337 207.731 221.601 207.964 220.73 207.964ZM218.319 202.908H222.876C222.814 202.11 222.581 201.524 222.176 201.151C221.782 200.777 221.279 200.591 220.667 200.591C220.035 200.591 219.511 200.788 219.096 201.182C218.692 201.565 218.433 202.141 218.319 202.908Z" fill="white"/>
<path d="M212.506 207.964C211.77 207.964 211.142 207.845 210.624 207.606C210.116 207.368 209.716 207.041 209.426 206.626C209.146 206.201 208.985 205.719 208.944 205.18L210.313 205.086C210.396 205.584 210.608 205.983 210.951 206.284C211.293 206.574 211.811 206.72 212.506 206.72C213.066 206.72 213.512 206.631 213.844 206.455C214.186 206.268 214.357 205.973 214.357 205.568C214.357 205.351 214.305 205.169 214.202 205.024C214.098 204.879 213.896 204.754 213.595 204.651C213.294 204.537 212.848 204.428 212.257 204.324C211.469 204.179 210.847 204.002 210.391 203.795C209.945 203.577 209.623 203.313 209.426 203.002C209.239 202.68 209.146 202.302 209.146 201.866C209.146 201.13 209.416 200.528 209.955 200.062C210.494 199.585 211.262 199.346 212.257 199.346C212.931 199.346 213.496 199.471 213.953 199.72C214.419 199.958 214.782 200.28 215.042 200.684C215.311 201.078 215.488 201.514 215.571 201.991L214.202 202.084C214.139 201.794 214.025 201.54 213.859 201.322C213.693 201.094 213.476 200.917 213.206 200.793C212.936 200.658 212.615 200.591 212.242 200.591C211.651 200.591 211.215 200.705 210.935 200.933C210.655 201.161 210.515 201.451 210.515 201.804C210.515 202.074 210.577 202.297 210.702 202.473C210.836 202.639 211.049 202.779 211.339 202.893C211.63 202.997 212.019 203.09 212.506 203.173C213.346 203.318 213.999 203.494 214.466 203.702C214.933 203.909 215.259 204.163 215.446 204.464C215.633 204.765 215.726 205.133 215.726 205.568C215.726 206.077 215.581 206.512 215.291 206.875C215.011 207.228 214.627 207.497 214.139 207.684C213.662 207.871 213.118 207.964 212.506 207.964Z" fill="white"/>
<path d="M199.272 207.964C198.422 207.964 197.743 207.767 197.234 207.373C196.737 206.979 196.488 206.429 196.488 205.724C196.488 205.019 196.695 204.464 197.11 204.06C197.525 203.655 198.183 203.37 199.086 203.204L202.01 202.66C202.01 201.965 201.844 201.446 201.512 201.104C201.191 200.762 200.703 200.591 200.05 200.591C199.48 200.591 199.029 200.72 198.697 200.98C198.365 201.228 198.137 201.591 198.012 202.068L196.628 201.96C196.783 201.182 197.157 200.554 197.748 200.077C198.349 199.59 199.117 199.346 200.05 199.346C201.108 199.346 201.917 199.647 202.477 200.248C203.037 200.84 203.317 201.659 203.317 202.706V206.113C203.317 206.3 203.348 206.434 203.41 206.517C203.483 206.59 203.597 206.626 203.752 206.626H204.079V207.777C204.037 207.788 203.97 207.793 203.877 207.793C203.783 207.803 203.685 207.808 203.581 207.808C203.208 207.808 202.902 207.751 202.663 207.637C202.435 207.513 202.269 207.326 202.166 207.077C202.062 206.818 202.01 206.481 202.01 206.066L202.166 206.097C202.093 206.45 201.917 206.771 201.637 207.062C201.357 207.342 201.009 207.565 200.594 207.731C200.18 207.886 199.739 207.964 199.272 207.964ZM199.397 206.813C199.946 206.813 200.413 206.709 200.797 206.502C201.191 206.284 201.491 205.994 201.699 205.631C201.906 205.257 202.01 204.842 202.01 204.386V203.795L199.334 204.293C198.774 204.397 198.386 204.557 198.168 204.775C197.96 204.982 197.857 205.257 197.857 205.6C197.857 205.983 197.991 206.284 198.261 206.502C198.541 206.709 198.92 206.813 199.397 206.813Z" fill="white"/>
<path d="M190.085 207.778C189.338 207.778 188.783 207.607 188.42 207.264C188.068 206.922 187.892 206.388 187.892 205.662V197.604H189.198V205.631C189.198 206.004 189.281 206.264 189.447 206.409C189.613 206.554 189.867 206.627 190.209 206.627H191.392V207.778H190.085ZM186.678 200.684V199.533H191.392V200.684H186.678Z" fill="white"/>
<path d="M181.267 207.964C180.447 207.964 179.789 207.689 179.291 207.14C178.804 206.58 178.56 205.812 178.56 204.838V199.533H179.867V204.48C179.867 205.278 180.007 205.869 180.287 206.253C180.577 206.627 181.018 206.813 181.609 206.813C182.262 206.813 182.776 206.606 183.149 206.191C183.522 205.766 183.709 205.185 183.709 204.449V199.533H185.016V207.778H183.771V205.74L183.973 205.849C183.807 206.523 183.491 207.047 183.024 207.42C182.558 207.783 181.972 207.964 181.267 207.964Z" fill="white"/>
<path d="M173.015 207.964C172.258 207.964 171.595 207.788 171.024 207.435C170.454 207.082 170.013 206.585 169.702 205.942C169.391 205.288 169.235 204.526 169.235 203.655C169.235 202.774 169.391 202.011 169.702 201.368C170.013 200.725 170.454 200.228 171.024 199.875C171.595 199.522 172.258 199.346 173.015 199.346C173.772 199.346 174.431 199.522 174.991 199.875C175.561 200.228 176.002 200.725 176.313 201.368C176.624 202.011 176.78 202.774 176.78 203.655C176.78 204.526 176.624 205.288 176.313 205.942C176.002 206.585 175.561 207.082 174.991 207.435C174.431 207.788 173.772 207.964 173.015 207.964ZM173.015 206.72C173.772 206.72 174.358 206.45 174.773 205.911C175.198 205.361 175.411 204.609 175.411 203.655C175.411 202.701 175.198 201.954 174.773 201.415C174.358 200.865 173.772 200.591 173.015 200.591C172.258 200.591 171.667 200.865 171.242 201.415C170.817 201.954 170.604 202.701 170.604 203.655C170.604 204.609 170.817 205.361 171.242 205.911C171.667 206.45 172.258 206.72 173.015 206.72Z" fill="white"/>
<path d="M164.476 207.964C163.905 207.964 163.397 207.84 162.951 207.591C162.505 207.332 162.163 206.979 161.925 206.533L161.878 207.778H160.696V196.733H162.002V200.684C162.21 200.342 162.531 200.036 162.967 199.767C163.402 199.487 163.905 199.347 164.476 199.347C165.202 199.347 165.829 199.523 166.358 199.876C166.887 200.228 167.297 200.726 167.587 201.369C167.877 202.012 168.022 202.774 168.022 203.656C168.022 204.537 167.877 205.299 167.587 205.942C167.297 206.585 166.887 207.083 166.358 207.436C165.829 207.788 165.202 207.964 164.476 207.964ZM164.398 206.72C165.093 206.72 165.642 206.445 166.047 205.896C166.451 205.346 166.654 204.599 166.654 203.656C166.654 202.702 166.451 201.955 166.047 201.416C165.642 200.866 165.103 200.591 164.429 200.591C163.921 200.591 163.485 200.716 163.122 200.964C162.759 201.203 162.479 201.55 162.282 202.007C162.096 202.463 162.002 203.013 162.002 203.656C162.002 204.278 162.096 204.822 162.282 205.289C162.479 205.745 162.754 206.098 163.107 206.347C163.47 206.596 163.9 206.72 164.398 206.72Z" fill="white"/>
<path d="M154.474 207.964C153.624 207.964 152.945 207.767 152.437 207.373C151.939 206.979 151.69 206.429 151.69 205.724C151.69 205.019 151.897 204.464 152.312 204.06C152.727 203.655 153.385 203.37 154.288 203.204L157.212 202.66C157.212 201.965 157.046 201.446 156.714 201.104C156.393 200.762 155.905 200.591 155.252 200.591C154.682 200.591 154.231 200.72 153.899 200.98C153.567 201.228 153.339 201.591 153.214 202.068L151.83 201.96C151.985 201.182 152.359 200.554 152.95 200.077C153.551 199.59 154.319 199.346 155.252 199.346C156.31 199.346 157.119 199.647 157.679 200.248C158.239 200.84 158.519 201.659 158.519 202.706V206.113C158.519 206.3 158.55 206.434 158.612 206.517C158.685 206.59 158.799 206.626 158.954 206.626H159.281V207.777C159.24 207.788 159.172 207.793 159.079 207.793C158.985 207.803 158.887 207.808 158.783 207.808C158.41 207.808 158.104 207.751 157.865 207.637C157.637 207.513 157.471 207.326 157.368 207.077C157.264 206.818 157.212 206.481 157.212 206.066L157.368 206.097C157.295 206.45 157.119 206.771 156.839 207.062C156.559 207.342 156.211 207.565 155.797 207.731C155.382 207.886 154.941 207.964 154.474 207.964ZM154.599 206.813C155.148 206.813 155.615 206.709 155.999 206.502C156.393 206.284 156.694 205.994 156.901 205.631C157.108 205.257 157.212 204.842 157.212 204.386V203.795L154.537 204.293C153.977 204.397 153.588 204.557 153.37 204.775C153.163 204.982 153.059 205.257 153.059 205.6C153.059 205.983 153.194 206.284 153.463 206.502C153.743 206.709 154.122 206.813 154.599 206.813Z" fill="white"/>
<path d="M142.034 207.964C141.319 207.964 140.696 207.788 140.168 207.436C139.649 207.083 139.25 206.585 138.97 205.942C138.69 205.299 138.55 204.537 138.55 203.656C138.55 202.774 138.69 202.012 138.97 201.369C139.25 200.726 139.649 200.228 140.168 199.876C140.696 199.523 141.319 199.347 142.034 199.347C142.584 199.347 143.087 199.466 143.543 199.705C143.999 199.933 144.342 200.259 144.57 200.684V196.733H145.876V207.778H144.694L144.648 206.533C144.419 206.979 144.072 207.332 143.605 207.591C143.139 207.84 142.615 207.964 142.034 207.964ZM142.299 206.72C142.786 206.72 143.196 206.596 143.528 206.347C143.87 206.098 144.129 205.745 144.305 205.289C144.482 204.822 144.57 204.278 144.57 203.656C144.57 203.013 144.482 202.463 144.305 202.007C144.129 201.55 143.87 201.203 143.528 200.964C143.196 200.716 142.786 200.591 142.299 200.591C141.573 200.591 140.992 200.866 140.556 201.416C140.131 201.955 139.919 202.702 139.919 203.656C139.919 204.599 140.131 205.346 140.556 205.896C140.992 206.445 141.573 206.72 142.299 206.72Z" fill="#059669"/>
<path d="M133.762 207.964C132.984 207.964 132.31 207.788 131.74 207.435C131.18 207.082 130.744 206.585 130.433 205.942C130.132 205.288 129.982 204.526 129.982 203.655C129.982 202.784 130.132 202.027 130.433 201.384C130.744 200.741 131.175 200.243 131.724 199.891C132.284 199.528 132.943 199.346 133.7 199.346C134.415 199.346 135.048 199.517 135.597 199.86C136.147 200.191 136.572 200.679 136.873 201.322C137.184 201.965 137.34 202.748 137.34 203.671V204.06H131.351C131.403 204.941 131.636 205.605 132.051 206.051C132.476 206.497 133.046 206.72 133.762 206.72C134.301 206.72 134.742 206.595 135.084 206.346C135.437 206.087 135.68 205.75 135.815 205.335L137.215 205.444C136.997 206.18 136.583 206.787 135.971 207.264C135.369 207.731 134.633 207.964 133.762 207.964ZM131.351 202.908H135.909C135.846 202.11 135.613 201.524 135.209 201.151C134.815 200.777 134.312 200.591 133.7 200.591C133.067 200.591 132.543 200.788 132.129 201.182C131.724 201.565 131.465 202.141 131.351 202.908Z" fill="#059669"/>
<path d="M121.686 207.778V196.733H122.992V201.353L122.837 201.322C122.94 200.866 123.117 200.493 123.366 200.202C123.614 199.912 123.92 199.699 124.283 199.565C124.646 199.419 125.046 199.347 125.481 199.347C126.072 199.347 126.57 199.482 126.974 199.751C127.389 200.01 127.7 200.379 127.908 200.856C128.126 201.322 128.234 201.862 128.234 202.473V207.778H126.928V202.847C126.928 202.048 126.783 201.457 126.492 201.073C126.212 200.69 125.782 200.498 125.201 200.498C124.537 200.498 124.003 200.7 123.599 201.104C123.194 201.509 122.992 202.095 122.992 202.862V207.778H121.686Z" fill="#059669"/>
<path d="M116.682 207.964C115.946 207.964 115.319 207.845 114.8 207.606C114.292 207.368 113.893 207.041 113.602 206.626C113.322 206.201 113.162 205.719 113.12 205.18L114.489 205.086C114.572 205.584 114.785 205.983 115.127 206.284C115.469 206.574 115.988 206.72 116.682 206.72C117.242 206.72 117.688 206.631 118.02 206.455C118.362 206.268 118.533 205.973 118.533 205.568C118.533 205.351 118.482 205.169 118.378 205.024C118.274 204.879 118.072 204.754 117.771 204.651C117.47 204.537 117.025 204.428 116.433 204.324C115.645 204.179 115.023 204.002 114.567 203.795C114.121 203.577 113.799 203.313 113.602 203.002C113.416 202.68 113.322 202.302 113.322 201.866C113.322 201.13 113.592 200.528 114.131 200.062C114.67 199.585 115.438 199.346 116.433 199.346C117.108 199.346 117.673 199.471 118.129 199.72C118.596 199.958 118.959 200.28 119.218 200.684C119.488 201.078 119.664 201.514 119.747 201.991L118.378 202.084C118.316 201.794 118.202 201.54 118.036 201.322C117.87 201.094 117.652 200.917 117.382 200.793C117.113 200.658 116.791 200.591 116.418 200.591C115.827 200.591 115.391 200.705 115.111 200.933C114.831 201.161 114.691 201.451 114.691 201.804C114.691 202.074 114.753 202.297 114.878 202.473C115.013 202.639 115.225 202.779 115.516 202.893C115.806 202.997 116.195 203.09 116.682 203.173C117.522 203.318 118.176 203.494 118.642 203.702C119.109 203.909 119.436 204.163 119.622 204.464C119.809 204.765 119.902 205.133 119.902 205.568C119.902 206.077 119.757 206.512 119.467 206.875C119.187 207.228 118.803 207.497 118.316 207.684C117.839 207.871 117.294 207.964 116.682 207.964Z" fill="#059669"/>
<path d="M110.034 207.778V199.533H111.34V207.778H110.034ZM110.002 198.242V196.718H111.371V198.242H110.002Z" fill="#059669"/>
<path d="M107.627 207.778C107.15 207.778 106.761 207.653 106.46 207.404C106.159 207.156 106.009 206.762 106.009 206.222V196.733H107.315V206.113C107.315 206.279 107.357 206.409 107.44 206.502C107.533 206.585 107.663 206.627 107.829 206.627H108.544V207.778H107.627Z" fill="#059669"/>
<path d="M100.613 207.964C100.043 207.964 99.5345 207.84 99.0886 207.591C98.6426 207.332 98.3004 206.979 98.0619 206.533L98.0152 207.778H96.833V196.733H98.1397V200.684C98.3471 200.342 98.6686 200.036 99.1041 199.767C99.5397 199.487 100.043 199.347 100.613 199.347C101.339 199.347 101.966 199.523 102.495 199.876C103.024 200.228 103.434 200.726 103.724 201.369C104.014 202.012 104.16 202.774 104.16 203.656C104.16 204.537 104.014 205.299 103.724 205.942C103.434 206.585 103.024 207.083 102.495 207.436C101.966 207.788 101.339 207.964 100.613 207.964ZM100.535 206.72C101.23 206.72 101.78 206.445 102.184 205.896C102.589 205.346 102.791 204.599 102.791 203.656C102.791 202.702 102.589 201.955 102.184 201.416C101.78 200.866 101.24 200.591 100.566 200.591C100.058 200.591 99.6226 200.716 99.2597 200.964C98.8967 201.203 98.6167 201.55 98.4197 202.007C98.233 202.463 98.1397 203.013 98.1397 203.656C98.1397 204.278 98.233 204.822 98.4197 205.289C98.6167 205.745 98.8915 206.098 99.2441 206.347C99.6071 206.596 100.037 206.72 100.535 206.72Z" fill="#059669"/>
<path d="M90.8199 207.964C90.0007 207.964 89.3422 207.689 88.8444 207.14C88.357 206.58 88.1133 205.812 88.1133 204.838V199.533H89.4199V204.48C89.4199 205.278 89.5599 205.869 89.8399 206.253C90.1303 206.627 90.5711 206.813 91.1622 206.813C91.8155 206.813 92.3288 206.606 92.7022 206.191C93.0755 205.766 93.2622 205.185 93.2622 204.449V199.533H94.5688V207.778H93.3244V205.74L93.5266 205.849C93.3607 206.523 93.0444 207.047 92.5777 207.42C92.111 207.783 91.5251 207.964 90.8199 207.964Z" fill="#059669"/>
<path d="M78.6538 207.777V196.733H82.6205C83.8545 196.733 84.8138 197.028 85.4982 197.62C86.1827 198.211 86.5249 199.03 86.5249 200.077C86.5249 200.783 86.3693 201.394 86.0582 201.913C85.7471 202.421 85.3012 202.81 84.7205 203.08C84.1397 203.349 83.4397 203.484 82.6205 203.484H79.9916V207.777H78.6538ZM79.9916 202.177H82.6205C83.4501 202.177 84.0723 202.001 84.4871 201.648C84.9123 201.296 85.1249 200.772 85.1249 200.077C85.1249 199.403 84.9123 198.895 84.4871 198.553C84.0723 198.211 83.4501 198.04 82.6205 198.04H79.9916V202.177Z" fill="#059669"/>
<path d="M446.111 78.8892L445 78.8892L445 44.4448L446.111 44.4448L446.111 78.8892Z" fill="#181614"/>
<path d="M431.667 182.222L430.555 182.222L430.555 147.778L431.667 147.778L431.667 182.222Z" fill="#181614"/>
<path d="M142.778 61.1115C142.778 64.7934 139.793 67.7781 136.111 67.7781C132.43 67.7781 129.445 64.7934 129.445 61.1115C129.445 57.4296 132.43 54.4448 136.111 54.4448C139.793 54.4448 142.778 57.4296 142.778 61.1115Z" fill="#059669"/>
<path d="M56.1123 57.7784C56.1123 57.1647 55.6148 56.6673 55.0012 56.6673C54.3875 56.6673 53.8901 57.1647 53.8901 57.7784C53.8901 58.392 54.3875 58.8895 55.0012 58.8895C55.6148 58.8895 56.1123 58.392 56.1123 57.7784ZM47.2234 64.445C47.2234 65.0587 47.7209 65.5561 48.3345 65.5561C48.9482 65.5561 49.4456 65.0587 49.4456 64.445C49.4456 63.8314 48.9482 63.3339 48.3345 63.3339C47.7209 63.3339 47.2234 63.8314 47.2234 64.445ZM57.2234 57.7784C57.2234 58.8218 56.5036 59.6944 55.5339 59.9333C55.4198 61.2277 54.8552 62.4468 53.9291 63.373C53.003 64.2991 51.7839 64.8636 50.4895 64.9778C50.2505 65.9474 49.3779 66.6672 48.3345 66.6672C47.1072 66.6672 46.1123 65.6723 46.1123 64.445C46.1123 63.4098 46.8208 62.5424 47.779 62.2955V56.1117C47.779 55.8049 48.0277 55.5562 48.3345 55.5562C48.6413 55.5562 48.8901 55.8049 48.8901 56.1117V62.2955C49.6613 62.4943 50.2682 63.0949 50.4764 63.8623C51.4804 63.7544 52.4229 63.308 53.1435 62.5874C53.8642 61.8667 54.3105 60.9242 54.4185 59.9203C53.4742 59.664 52.779 58.8038 52.779 57.7784C52.779 56.5511 53.7739 55.5562 55.0012 55.5562C56.2285 55.5562 57.2234 56.5511 57.2234 57.7784Z" fill="#ADADAD"/>
<g clip-path="url(#clip1_923_2602)">
<path d="M86.1024 61.1116C86.1024 60.8136 86.1743 60.5199 86.3118 60.2555C86.4485 59.9927 86.646 59.7665 86.888 59.5957C87.0382 59.4881 87.143 59.3282 87.182 59.1476C87.221 58.9669 87.191 58.7782 87.0985 58.6181C87.006 58.4581 86.8577 58.3382 86.6818 58.2817C86.506 58.2253 86.3151 58.2359 86.1469 58.3121L86.1458 58.311C85.8769 58.4353 85.5824 58.4954 85.2864 58.4825C84.9887 58.4694 84.6982 58.384 84.4401 58.2351C84.1821 58.0861 83.9633 57.8775 83.8031 57.6263C83.6435 57.376 83.5466 57.0909 83.5199 56.7952L83.4939 56.6596C83.456 56.5282 83.3825 56.4089 83.2801 56.3156C83.1431 56.191 82.964 56.1214 82.7788 56.1214C82.5936 56.1214 82.4146 56.191 82.2775 56.3156C82.1408 56.4402 82.0553 56.611 82.0377 56.7952C82.0367 56.8058 82.0328 56.8162 82.0312 56.8267C82.0006 57.111 81.9063 57.385 81.7524 57.6263C81.5921 57.8775 81.3735 58.0862 81.1154 58.2351C80.8573 58.384 80.5668 58.4695 80.2691 58.4825C79.9734 58.4953 79.6794 58.4362 79.4108 58.3121V58.3132C79.2425 58.237 79.0517 58.2263 78.8758 58.2828C78.7 58.3394 78.5515 58.4592 78.4592 58.6192C78.367 58.779 78.3368 58.9672 78.3756 59.1476C78.4145 59.3282 78.5196 59.488 78.6697 59.5957H78.6686C78.9107 59.7666 79.1092 59.9926 79.2458 60.2555C79.3832 60.5198 79.4542 60.8137 79.4542 61.1116C79.4541 61.4095 79.3833 61.7034 79.2458 61.9677C79.1092 62.2305 78.9105 62.4555 78.6686 62.6263C78.5183 62.734 78.4136 62.8949 78.3745 63.0756C78.3356 63.2561 78.3657 63.4451 78.4581 63.6051C78.5506 63.765 78.6999 63.885 78.8758 63.9414C79.0517 63.9977 79.2426 63.9863 79.4108 63.91C79.6795 63.7857 79.9743 63.7279 80.2702 63.7407C80.568 63.7536 80.8582 63.8381 81.1165 63.987C81.3748 64.136 81.5931 64.3454 81.7534 64.5968C81.913 64.847 82.0099 65.1314 82.0366 65.4269C82.0542 65.6112 82.1406 65.783 82.2775 65.9076C82.4146 66.0322 82.5936 66.1018 82.7788 66.1018C82.964 66.1018 83.1431 66.0322 83.2801 65.9076C83.3828 65.8141 83.456 65.6942 83.4939 65.5625L83.5199 65.4269C83.5467 65.1316 83.6437 64.8469 83.8031 64.5968C83.9634 64.3456 84.182 64.136 84.4401 63.987C84.6981 63.8381 84.9887 63.7538 85.2864 63.7407C85.5822 63.7278 85.8771 63.7859 86.1458 63.91C86.3141 63.9864 86.5058 63.9979 86.6818 63.9414C86.8576 63.885 87.006 63.7649 87.0985 63.6051C87.1909 63.4451 87.2209 63.2562 87.182 63.0756C87.143 62.895 87.0381 62.7351 86.888 62.6274V62.6263C86.6463 62.4556 86.4484 62.2303 86.3118 61.9677C86.1744 61.7034 86.1024 61.4095 86.1024 61.1116ZM83.8899 61.1116C83.8899 60.4981 83.3923 60.0007 82.7788 60.0005C82.1652 60.0005 81.6678 60.498 81.6677 61.1116C81.6677 61.7252 82.1652 62.2227 82.7788 62.2227C83.3923 62.2225 83.8899 61.7251 83.8899 61.1116ZM85.001 61.1116C85.001 62.3388 84.0059 63.3336 82.7788 63.3338C81.5515 63.3338 80.5566 62.3389 80.5566 61.1116C80.5567 59.8843 81.5516 58.8894 82.7788 58.8894C84.0059 58.8896 85.001 59.8845 85.001 61.1116ZM87.2135 61.1116C87.2135 61.2309 87.2421 61.3486 87.297 61.4545C87.3384 61.5341 87.3945 61.6053 87.4609 61.665L87.5303 61.7203L87.5347 61.7236C87.9093 61.9919 88.1709 62.3908 88.2682 62.8412C88.3653 63.2914 88.2913 63.7618 88.0609 64.1606C87.8304 64.5596 87.4591 64.8587 87.0203 64.9994C86.5817 65.1399 86.1062 65.1128 85.6868 64.9223L85.6825 64.9202C85.5741 64.8697 85.4547 64.8455 85.3352 64.8507C85.2158 64.856 85.0992 64.8897 84.9956 64.9495C84.8922 65.0091 84.8049 65.093 84.7406 65.1936C84.6763 65.2944 84.6372 65.4098 84.6267 65.5289L84.6256 65.5321C84.5819 65.9918 84.3682 66.4194 84.0267 66.7301C83.6851 67.0404 83.2403 67.2129 82.7788 67.2129C82.3171 67.2129 81.8715 67.0407 81.5299 66.7301C81.1883 66.4194 80.9757 65.9918 80.932 65.5321L80.931 65.5289C80.9204 65.4097 80.8814 65.2945 80.817 65.1936C80.7528 65.093 80.6654 65.0092 80.562 64.9495C80.4586 64.8898 80.3417 64.856 80.2224 64.8507C80.103 64.8455 79.9835 64.8686 79.8752 64.9191L79.8698 64.9223C79.4503 65.1127 78.9749 65.14 78.5362 64.9994C78.0974 64.8587 77.7261 64.5596 77.4956 64.1606C77.2653 63.7618 77.1923 63.2914 77.2895 62.8412C77.3867 62.3908 77.6473 61.9919 78.0219 61.7236L78.0262 61.7203C78.1241 61.6516 78.2044 61.5605 78.2595 61.4545C78.3145 61.3485 78.343 61.231 78.3431 61.1116C78.3431 60.992 78.3147 60.8737 78.2595 60.7676C78.2044 60.6617 78.124 60.5704 78.0262 60.5018L78.0219 60.4985C77.6478 60.2301 77.3865 59.8321 77.2895 59.382C77.1925 58.9321 77.2667 58.4622 77.4967 58.0636C77.727 57.6649 78.0979 57.3658 78.5362 57.2249C78.9197 57.1017 79.3313 57.1064 79.7092 57.2368L79.8687 57.3008L79.8741 57.303C79.9825 57.3535 80.1018 57.3777 80.2213 57.3724C80.3407 57.3672 80.4574 57.3323 80.5609 57.2726C80.6643 57.2129 80.7517 57.1291 80.8159 57.0285C80.8802 56.9278 80.9193 56.8132 80.9299 56.6943C80.9309 56.6826 80.9347 56.671 80.9364 56.6596C80.9865 56.2118 81.1961 55.7968 81.5299 55.4931C81.8715 55.1825 82.3171 55.0103 82.7788 55.0103C83.2404 55.0103 83.6851 55.1826 84.0267 55.4931C84.3682 55.8037 84.5818 56.2304 84.6256 56.6899L84.6267 56.6943C84.6373 56.8132 84.6764 56.9278 84.7406 57.0285C84.8049 57.1292 84.8922 57.2129 84.9956 57.2726C85.0992 57.3324 85.2158 57.3672 85.3352 57.3724C85.4547 57.3777 85.5741 57.3535 85.6825 57.303L85.6868 57.3008C86.1062 57.1104 86.5817 57.0832 87.0203 57.2238C87.4591 57.3645 87.8304 57.6636 88.0609 58.0625C88.2913 58.4614 88.3654 58.9317 88.2682 59.382C88.1709 59.8323 87.9092 60.2302 87.5347 60.4985L87.5303 60.5018C87.4325 60.5704 87.3522 60.6616 87.297 60.7676C87.2419 60.8737 87.2135 60.992 87.2135 61.1116Z" fill="#ADADAD"/>
</g>
<path d="M483.889 132.222L483.889 133.333L45.001 133.333L45.001 132.222L483.889 132.222Z" fill="#181614"/>
<path d="M46.1118 101.111C46.1118 98.6568 48.1017 96.667 50.5562 96.667H479.444C481.899 96.667 483.888 98.6568 483.888 101.111V132.222H46.1118V101.111Z" fill="#111010"/>
<path d="M163.514 118.889L161.327 111.823H162.554L164.207 117.716L165.887 111.823H167.087L168.767 117.716L170.434 111.823H171.66L169.474 118.889H168.06L166.487 113.516L164.914 118.889H163.514Z" fill="#ADADAD"/>
<path d="M157.724 119.049C157.058 119.049 156.48 118.898 155.991 118.596C155.511 118.294 155.138 117.867 154.871 117.316C154.613 116.756 154.484 116.103 154.484 115.356C154.484 114.609 154.613 113.96 154.871 113.409C155.138 112.858 155.507 112.431 155.978 112.129C156.458 111.818 157.022 111.663 157.671 111.663C158.284 111.663 158.827 111.809 159.298 112.103C159.769 112.387 160.133 112.805 160.391 113.356C160.658 113.907 160.791 114.578 160.791 115.369V115.703H155.658C155.702 116.458 155.902 117.027 156.258 117.409C156.622 117.791 157.111 117.983 157.724 117.983C158.187 117.983 158.564 117.876 158.858 117.663C159.16 117.44 159.369 117.151 159.484 116.796L160.684 116.889C160.498 117.52 160.142 118.04 159.618 118.449C159.102 118.849 158.471 119.049 157.724 119.049ZM155.658 114.716H159.564C159.511 114.031 159.311 113.529 158.964 113.209C158.627 112.889 158.195 112.729 157.671 112.729C157.129 112.729 156.68 112.898 156.324 113.236C155.978 113.565 155.755 114.058 155.658 114.716Z" fill="#ADADAD"/>
<path d="M151.84 118.889V111.822H152.96V118.889H151.84ZM151.813 110.715V109.409H152.986V110.715H151.813Z" fill="#ADADAD"/>
<path d="M146.622 118.889L144.048 111.823H145.275L147.328 117.743L149.382 111.823H150.608L148.035 118.889H146.622Z" fill="#ADADAD"/>
<path d="M140.446 119.049C139.779 119.049 139.202 118.898 138.713 118.596C138.233 118.294 137.859 117.867 137.593 117.316C137.335 116.756 137.206 116.103 137.206 115.356C137.206 114.609 137.335 113.96 137.593 113.409C137.859 112.858 138.228 112.431 138.699 112.129C139.179 111.818 139.744 111.663 140.393 111.663C141.006 111.663 141.548 111.809 142.019 112.103C142.49 112.387 142.855 112.805 143.113 113.356C143.379 113.907 143.513 114.578 143.513 115.369V115.703H138.379C138.424 116.458 138.624 117.027 138.979 117.409C139.344 117.791 139.833 117.983 140.446 117.983C140.908 117.983 141.286 117.876 141.579 117.663C141.882 117.44 142.09 117.151 142.206 116.796L143.406 116.889C143.219 117.52 142.864 118.04 142.339 118.449C141.824 118.849 141.193 119.049 140.446 119.049ZM138.379 114.716H142.286C142.233 114.031 142.033 113.529 141.686 113.209C141.348 112.889 140.917 112.729 140.393 112.729C139.85 112.729 139.402 112.898 139.046 113.236C138.699 113.565 138.477 114.058 138.379 114.716Z" fill="#ADADAD"/>
<path d="M133.168 118.889V111.823H134.155L134.208 113.609L134.101 113.569C134.19 112.965 134.381 112.525 134.675 112.249C134.977 111.965 135.377 111.823 135.875 111.823H136.568V112.889H135.888C135.532 112.889 135.235 112.956 134.995 113.089C134.764 113.214 134.586 113.405 134.461 113.663C134.346 113.912 134.288 114.232 134.288 114.623V118.889H133.168Z" fill="#ADADAD"/>
<path d="M124.786 118.889V109.422H128.186C129.244 109.422 130.066 109.676 130.653 110.182C131.239 110.689 131.533 111.391 131.533 112.289C131.533 112.893 131.399 113.418 131.133 113.862C130.866 114.298 130.484 114.631 129.986 114.862C129.488 115.093 128.888 115.209 128.186 115.209H125.933V118.889H124.786ZM125.933 114.089H128.186C128.897 114.089 129.431 113.938 129.786 113.636C130.151 113.333 130.333 112.885 130.333 112.289C130.333 111.711 130.151 111.276 129.786 110.982C129.431 110.689 128.897 110.542 128.186 110.542H125.933V114.089Z" fill="#ADADAD"/>
<path d="M116.409 119.049C115.761 119.049 115.192 118.898 114.703 118.596C114.214 118.294 113.836 117.867 113.569 117.316C113.303 116.756 113.169 116.103 113.169 115.356C113.169 114.6 113.303 113.947 113.569 113.396C113.836 112.845 114.214 112.418 114.703 112.116C115.192 111.814 115.761 111.663 116.409 111.663C117.058 111.663 117.623 111.814 118.103 112.116C118.592 112.418 118.969 112.845 119.236 113.396C119.503 113.947 119.636 114.6 119.636 115.356C119.636 116.103 119.503 116.756 119.236 117.316C118.969 117.867 118.592 118.294 118.103 118.596C117.623 118.898 117.058 119.049 116.409 119.049ZM116.409 117.983C117.058 117.983 117.561 117.751 117.916 117.289C118.281 116.818 118.463 116.174 118.463 115.356C118.463 114.538 118.281 113.898 117.916 113.436C117.561 112.965 117.058 112.729 116.409 112.729C115.761 112.729 115.254 112.965 114.889 113.436C114.525 113.898 114.343 114.538 114.343 115.356C114.343 116.174 114.525 116.818 114.889 117.289C115.254 117.751 115.761 117.983 116.409 117.983Z" fill="#ADADAD"/>
<path d="M111.223 118.889C110.583 118.889 110.108 118.742 109.797 118.449C109.494 118.156 109.343 117.698 109.343 117.076V110.169H110.463V117.049C110.463 117.369 110.534 117.591 110.677 117.716C110.819 117.84 111.037 117.902 111.33 117.902H112.343V118.889H111.223ZM108.303 112.809V111.822H112.343V112.809H108.303Z" fill="#ADADAD"/>
<path d="M97.5557 118.889V109.422H98.6757V113.382L98.5423 113.356C98.6312 112.965 98.7823 112.645 98.9957 112.396C99.209 112.147 99.4712 111.965 99.7823 111.849C100.093 111.725 100.436 111.662 100.809 111.662C101.316 111.662 101.742 111.778 102.089 112.009C102.445 112.231 102.711 112.547 102.889 112.956C103.076 113.356 103.169 113.818 103.169 114.342V118.889H102.049V114.662C102.049 113.978 101.925 113.471 101.676 113.142C101.436 112.813 101.067 112.649 100.569 112.649C100 112.649 99.5423 112.822 99.1957 113.169C98.849 113.516 98.6757 114.018 98.6757 114.676V118.889H97.5557Z" fill="#ADADAD"/>
<path d="M93.2672 119.049C92.6361 119.049 92.0983 118.947 91.6539 118.743C91.2183 118.538 90.8761 118.258 90.6272 117.903C90.3872 117.538 90.2494 117.125 90.2139 116.663L91.3872 116.583C91.4583 117.009 91.6405 117.351 91.9339 117.609C92.2272 117.858 92.6716 117.983 93.2672 117.983C93.7472 117.983 94.1294 117.907 94.4139 117.756C94.7072 117.596 94.8539 117.343 94.8539 116.996C94.8539 116.809 94.8094 116.654 94.7205 116.529C94.6316 116.405 94.4583 116.298 94.2005 116.209C93.9427 116.111 93.5605 116.018 93.0539 115.929C92.3783 115.805 91.845 115.654 91.4539 115.476C91.0716 115.289 90.7961 115.063 90.6272 114.796C90.4672 114.52 90.3872 114.196 90.3872 113.823C90.3872 113.191 90.6183 112.676 91.0805 112.276C91.5428 111.867 92.2005 111.663 93.0539 111.663C93.6316 111.663 94.1161 111.769 94.5072 111.983C94.9072 112.187 95.2183 112.463 95.4405 112.809C95.6716 113.147 95.8227 113.52 95.8939 113.929L94.7205 114.009C94.6672 113.76 94.5694 113.543 94.4272 113.356C94.285 113.16 94.0983 113.009 93.8672 112.903C93.6361 112.787 93.3605 112.729 93.0405 112.729C92.5339 112.729 92.1605 112.827 91.9205 113.023C91.6805 113.218 91.5605 113.467 91.5605 113.769C91.5605 114 91.6139 114.191 91.7205 114.343C91.8361 114.485 92.0183 114.605 92.2672 114.703C92.5161 114.791 92.8494 114.871 93.2672 114.943C93.9872 115.067 94.5472 115.218 94.9472 115.396C95.3472 115.574 95.6272 115.791 95.7872 116.049C95.9472 116.307 96.0272 116.623 96.0272 116.996C96.0272 117.431 95.9027 117.805 95.6539 118.116C95.4139 118.418 95.085 118.649 94.6672 118.809C94.2583 118.969 93.7916 119.049 93.2672 119.049Z" fill="#ADADAD"/>
<path d="M87.5687 118.889V111.822H88.6887V118.889H87.5687ZM87.542 110.715V109.409H88.7153V110.715H87.542Z" fill="#ADADAD"/>
<path d="M85.5048 118.889C85.0959 118.889 84.7626 118.782 84.5048 118.569C84.2471 118.356 84.1182 118.018 84.1182 117.556V109.422H85.2382V117.462C85.2382 117.605 85.2737 117.716 85.3448 117.796C85.4248 117.867 85.5359 117.902 85.6782 117.902H86.2915V118.889H85.5048Z" fill="#ADADAD"/>
<path d="M79.4939 119.049C79.005 119.049 78.5695 118.942 78.1872 118.729C77.805 118.507 77.5117 118.205 77.3072 117.822L77.2672 118.889H76.2539V109.422H77.3739V112.809C77.5517 112.516 77.8272 112.253 78.2006 112.022C78.5739 111.782 79.005 111.662 79.4939 111.662C80.1161 111.662 80.6539 111.813 81.1072 112.116C81.5606 112.418 81.9117 112.845 82.1606 113.396C82.4094 113.947 82.5339 114.6 82.5339 115.356C82.5339 116.111 82.4094 116.765 82.1606 117.316C81.9117 117.867 81.5606 118.293 81.1072 118.596C80.6539 118.898 80.1161 119.049 79.4939 119.049ZM79.4272 117.982C80.0228 117.982 80.4939 117.747 80.8406 117.276C81.1872 116.805 81.3606 116.165 81.3606 115.356C81.3606 114.538 81.1872 113.898 80.8406 113.436C80.4939 112.965 80.0317 112.729 79.4539 112.729C79.0183 112.729 78.645 112.836 78.3339 113.049C78.0228 113.253 77.7828 113.551 77.6139 113.942C77.4539 114.333 77.3739 114.805 77.3739 115.356C77.3739 115.889 77.4539 116.356 77.6139 116.756C77.7828 117.147 78.0183 117.449 78.3206 117.662C78.6317 117.876 79.0006 117.982 79.4272 117.982Z" fill="#ADADAD"/>
<path d="M71.0998 119.049C70.3976 119.049 69.8331 118.814 69.4065 118.343C68.9887 117.863 68.7798 117.205 68.7798 116.369V111.823H69.8998V116.063C69.8998 116.747 70.0198 117.254 70.2598 117.583C70.5087 117.903 70.8864 118.063 71.3931 118.063C71.9531 118.063 72.3931 117.885 72.7131 117.529C73.0331 117.165 73.1931 116.667 73.1931 116.036V111.823H74.3131V118.889H73.2464V117.143L73.4198 117.236C73.2776 117.814 73.0064 118.263 72.6064 118.583C72.2064 118.894 71.7042 119.049 71.0998 119.049Z" fill="#ADADAD"/>
<path d="M60.6719 118.889V109.422H64.0719C65.1296 109.422 65.9519 109.676 66.5385 110.182C67.1252 110.689 67.4185 111.391 67.4185 112.289C67.4185 112.893 67.2852 113.418 67.0185 113.862C66.7519 114.298 66.3696 114.631 65.8719 114.862C65.3741 115.093 64.7741 115.209 64.0719 115.209H61.8185V118.889H60.6719ZM61.8185 114.089H64.0719C64.783 114.089 65.3163 113.938 65.6719 113.636C66.0363 113.333 66.2185 112.885 66.2185 112.289C66.2185 111.711 66.0363 111.276 65.6719 110.982C65.3163 110.689 64.783 110.542 64.0719 110.542H61.8185V114.089Z" fill="#ADADAD"/>
<path d="M451.83 164.052C452.046 163.835 452.398 163.835 452.615 164.052C452.832 164.269 452.832 164.62 452.615 164.837L450.393 167.06C450.289 167.164 450.147 167.222 450 167.222C449.853 167.222 449.711 167.164 449.607 167.06L448.496 165.948C448.279 165.732 448.279 165.38 448.496 165.163C448.713 164.946 449.065 164.946 449.282 165.163L450 165.881L451.83 164.052ZM452.222 159.445H448.889V160.556H452.222V159.445ZM453.333 160.556C453.333 161.169 452.836 161.667 452.222 161.667H448.889C448.314 161.667 447.84 161.23 447.783 160.67L447.778 160.556H447.222C447.075 160.556 446.934 160.614 446.83 160.718C446.725 160.823 446.667 160.964 446.667 161.111V168.889C446.667 169.036 446.725 169.178 446.83 169.282C446.934 169.386 447.075 169.445 447.222 169.445H453.889C454.036 169.445 454.178 169.386 454.282 169.282C454.386 169.178 454.445 169.036 454.445 168.889V161.111C454.445 160.964 454.386 160.823 454.282 160.718C454.178 160.614 454.036 160.556 453.889 160.556H453.333ZM453.889 159.445C454.331 159.445 454.755 159.62 455.067 159.933C455.38 160.245 455.556 160.669 455.556 161.111V168.889C455.556 169.331 455.38 169.755 455.067 170.067C454.755 170.38 454.331 170.556 453.889 170.556H447.222C446.78 170.556 446.357 170.38 446.044 170.067C445.731 169.755 445.556 169.331 445.556 168.889V161.111C445.556 160.669 445.731 160.245 446.044 159.933C446.357 159.62 446.78 159.445 447.222 159.445H447.778C447.778 158.831 448.275 158.333 448.889 158.333H452.222C452.836 158.333 453.333 158.831 453.333 159.445H453.889Z" fill="#F97F27"/>
<path d="M66.2743 200.718C66.4913 200.501 66.843 200.501 67.0599 200.718L69.8377 203.496C70.0547 203.713 70.0547 204.065 69.8377 204.282L67.0599 207.059C66.843 207.276 66.4913 207.276 66.2743 207.059C66.0574 206.842 66.0574 206.491 66.2743 206.274L68.1038 204.444H62.7783C62.0415 204.444 61.3352 204.152 60.8143 203.631C60.2934 203.11 60.0005 202.403 60.0005 201.667V197.778C60.0005 197.471 60.2492 197.222 60.556 197.222C60.8629 197.222 61.1116 197.471 61.1116 197.778V201.667L61.1203 201.832C61.1582 202.213 61.3264 202.572 61.5999 202.845C61.9124 203.158 62.3362 203.333 62.7783 203.333H68.1038L66.2743 201.504C66.0574 201.287 66.0574 200.935 66.2743 200.718Z" fill="white"/>
<path d="M485 224.445V225.556H46.1118V224.445H485Z" fill="#181614"/>
<path d="M198.864 266.666V255.622H200.17V260.242L200.015 260.211C200.119 259.755 200.295 259.381 200.544 259.091C200.793 258.801 201.099 258.588 201.462 258.453C201.825 258.308 202.224 258.235 202.659 258.235C203.25 258.235 203.748 258.37 204.153 258.64C204.567 258.899 204.879 259.267 205.086 259.744C205.304 260.211 205.413 260.75 205.413 261.362V266.666H204.106V261.735C204.106 260.937 203.961 260.346 203.67 259.962C203.39 259.578 202.96 259.387 202.379 259.387C201.716 259.387 201.182 259.589 200.777 259.993C200.373 260.398 200.17 260.984 200.17 261.751V266.666H198.864Z" fill="white"/>
<path d="M193.861 266.853C193.124 266.853 192.497 266.734 191.978 266.495C191.47 266.257 191.071 265.93 190.781 265.515C190.501 265.09 190.34 264.608 190.298 264.069L191.667 263.975C191.75 264.473 191.963 264.872 192.305 265.173C192.647 265.463 193.166 265.609 193.861 265.609C194.421 265.609 194.866 265.521 195.198 265.344C195.541 265.158 195.712 264.862 195.712 264.458C195.712 264.24 195.66 264.058 195.556 263.913C195.452 263.768 195.25 263.643 194.949 263.54C194.649 263.426 194.203 263.317 193.612 263.213C192.824 263.068 192.201 262.892 191.745 262.684C191.299 262.466 190.978 262.202 190.781 261.891C190.594 261.569 190.501 261.191 190.501 260.755C190.501 260.019 190.77 259.418 191.309 258.951C191.849 258.474 192.616 258.235 193.612 258.235C194.286 258.235 194.851 258.36 195.307 258.609C195.774 258.847 196.137 259.169 196.396 259.573C196.666 259.967 196.842 260.403 196.925 260.88L195.556 260.973C195.494 260.683 195.38 260.429 195.214 260.211C195.048 259.983 194.83 259.806 194.561 259.682C194.291 259.547 193.969 259.48 193.596 259.48C193.005 259.48 192.569 259.594 192.289 259.822C192.009 260.05 191.869 260.341 191.869 260.693C191.869 260.963 191.932 261.186 192.056 261.362C192.191 261.528 192.404 261.668 192.694 261.782C192.984 261.886 193.373 261.979 193.861 262.062C194.701 262.207 195.354 262.383 195.821 262.591C196.287 262.798 196.614 263.052 196.801 263.353C196.987 263.654 197.081 264.022 197.081 264.458C197.081 264.966 196.935 265.401 196.645 265.764C196.365 266.117 195.981 266.386 195.494 266.573C195.017 266.76 194.472 266.853 193.861 266.853Z" fill="white"/>
<path d="M187.212 266.666V258.422H188.519V266.666H187.212ZM187.181 257.13V255.606H188.55V257.13H187.181Z" fill="white"/>
<path d="M184.805 266.666C184.328 266.666 183.939 266.542 183.639 266.293C183.338 266.044 183.188 265.65 183.188 265.111V255.622H184.494V265.002C184.494 265.168 184.536 265.298 184.619 265.391C184.712 265.474 184.842 265.515 185.007 265.515H185.723V266.666H184.805Z" fill="white"/>
<path d="M177.792 266.853C177.221 266.853 176.713 266.729 176.267 266.48C175.821 266.221 175.479 265.868 175.241 265.422L175.194 266.666H174.012V255.622H175.318V259.573C175.526 259.231 175.847 258.925 176.283 258.655C176.718 258.375 177.221 258.235 177.792 258.235C178.518 258.235 179.145 258.412 179.674 258.764C180.203 259.117 180.612 259.615 180.903 260.258C181.193 260.901 181.338 261.663 181.338 262.544C181.338 263.426 181.193 264.188 180.903 264.831C180.612 265.474 180.203 265.972 179.674 266.324C179.145 266.677 178.518 266.853 177.792 266.853ZM177.714 265.609C178.409 265.609 178.958 265.334 179.363 264.784C179.767 264.235 179.969 263.488 179.969 262.544C179.969 261.59 179.767 260.844 179.363 260.304C178.958 259.755 178.419 259.48 177.745 259.48C177.237 259.48 176.801 259.604 176.438 259.853C176.075 260.092 175.795 260.439 175.598 260.895C175.412 261.352 175.318 261.901 175.318 262.544C175.318 263.166 175.412 263.711 175.598 264.178C175.795 264.634 176.07 264.986 176.423 265.235C176.786 265.484 177.216 265.609 177.714 265.609Z" fill="white"/>
<path d="M167.999 266.853C167.18 266.853 166.521 266.578 166.024 266.029C165.536 265.469 165.292 264.701 165.292 263.726V258.422H166.599V263.369C166.599 264.167 166.739 264.758 167.019 265.142C167.31 265.515 167.75 265.702 168.341 265.702C168.995 265.702 169.508 265.494 169.881 265.08C170.255 264.654 170.441 264.074 170.441 263.337V258.422H171.748V266.666H170.504V264.629L170.706 264.737C170.54 265.411 170.224 265.935 169.757 266.309C169.29 266.671 168.704 266.853 167.999 266.853Z" fill="white"/>
<path d="M156.193 269V258.422H157.406L157.437 260.195L157.251 260.102C157.458 259.49 157.8 259.029 158.277 258.718C158.765 258.396 159.325 258.235 159.957 258.235C160.777 258.235 161.445 258.438 161.964 258.842C162.493 259.246 162.882 259.775 163.131 260.429C163.39 261.082 163.52 261.787 163.52 262.544C163.52 263.301 163.39 264.006 163.131 264.66C162.882 265.313 162.493 265.842 161.964 266.246C161.445 266.651 160.777 266.853 159.957 266.853C159.532 266.853 159.133 266.781 158.76 266.635C158.397 266.49 158.085 266.288 157.826 266.029C157.577 265.769 157.406 265.463 157.313 265.111L157.5 264.893V269H156.193ZM159.833 265.609C160.548 265.609 161.114 265.339 161.528 264.8C161.943 264.261 162.151 263.509 162.151 262.544C162.151 261.58 161.943 260.828 161.528 260.289C161.114 259.749 160.548 259.48 159.833 259.48C159.356 259.48 158.941 259.594 158.588 259.822C158.246 260.05 157.977 260.392 157.78 260.849C157.593 261.305 157.5 261.87 157.5 262.544C157.5 263.218 157.593 263.783 157.78 264.24C157.966 264.696 158.236 265.038 158.588 265.266C158.941 265.495 159.356 265.609 159.833 265.609Z" fill="white"/>
<path d="M150.845 266.853C150.068 266.853 149.394 266.677 148.823 266.324C148.263 265.972 147.828 265.474 147.517 264.831C147.216 264.178 147.065 263.415 147.065 262.544C147.065 261.673 147.216 260.916 147.517 260.273C147.828 259.63 148.258 259.132 148.808 258.78C149.368 258.417 150.026 258.235 150.783 258.235C151.499 258.235 152.131 258.406 152.681 258.749C153.231 259.081 153.656 259.568 153.957 260.211C154.268 260.854 154.423 261.637 154.423 262.56V262.949H148.434C148.486 263.83 148.719 264.494 149.134 264.94C149.559 265.386 150.13 265.609 150.845 265.609C151.385 265.609 151.825 265.484 152.168 265.235C152.52 264.976 152.764 264.639 152.899 264.224L154.299 264.333C154.081 265.069 153.666 265.676 153.054 266.153C152.453 266.62 151.717 266.853 150.845 266.853ZM148.434 261.798H152.992C152.93 260.999 152.697 260.413 152.292 260.04C151.898 259.666 151.395 259.48 150.783 259.48C150.151 259.48 149.627 259.677 149.212 260.071C148.808 260.455 148.548 261.03 148.434 261.798Z" fill="white"/>
<path d="M137.543 266.666V255.622H141.727C142.505 255.622 143.174 255.757 143.734 256.027C144.294 256.296 144.724 256.685 145.025 257.193C145.336 257.691 145.492 258.282 145.492 258.967C145.492 259.464 145.373 259.91 145.134 260.304C144.906 260.688 144.61 260.994 144.247 261.222C143.884 261.45 143.506 261.575 143.112 261.595L143.019 261.455C143.693 261.455 144.221 261.611 144.605 261.922C144.999 262.233 145.227 262.731 145.29 263.415L145.601 266.666H144.247L143.967 263.555C143.926 263.099 143.76 262.762 143.47 262.544C143.19 262.326 142.728 262.218 142.085 262.218H138.881V266.666H137.543ZM138.881 260.911H141.899C142.573 260.911 143.107 260.74 143.501 260.398C143.895 260.055 144.092 259.568 144.092 258.935C144.092 258.292 143.89 257.8 143.485 257.458C143.081 257.105 142.495 256.929 141.727 256.929H138.881V260.911Z" fill="white"/>
<path d="M125.556 262.5C125.556 261.984 125.351 261.49 124.986 261.125C124.621 260.76 124.127 260.555 123.611 260.555H122.617C122.372 260.555 122.155 260.394 122.084 260.158C121.908 259.566 121.57 259.034 121.109 258.623C120.648 258.211 120.08 257.936 119.472 257.829C118.863 257.721 118.236 257.784 117.662 258.012C117.087 258.24 116.587 258.623 116.217 259.119C115.848 259.614 115.624 260.202 115.57 260.818C115.515 261.434 115.633 262.053 115.91 262.605C116.188 263.157 116.613 263.623 117.139 263.947C117.665 264.272 118.271 264.444 118.889 264.444H123.611C124.127 264.444 124.621 264.239 124.986 263.875C125.351 263.51 125.556 263.015 125.556 262.5ZM126.667 262.5C126.667 263.31 126.345 264.087 125.771 264.66C125.198 265.233 124.421 265.555 123.611 265.555H118.889C118.065 265.555 117.256 265.325 116.555 264.892C115.854 264.459 115.287 263.84 114.918 263.104C114.548 262.368 114.391 261.542 114.463 260.721C114.535 259.9 114.834 259.115 115.327 258.455C115.819 257.794 116.486 257.283 117.253 256.979C118.019 256.675 118.854 256.591 119.666 256.735C120.477 256.879 121.233 257.245 121.848 257.794C122.358 258.249 122.753 258.814 123.008 259.444H123.611C124.421 259.444 125.198 259.766 125.771 260.339C126.345 260.912 126.667 261.689 126.667 262.5Z" fill="white"/>
<path d="M398.279 266.666L395.728 258.422H397.159L399.088 265.297L401.048 258.422H402.448L404.408 265.297L406.352 258.422H407.784L405.232 266.666H403.584L401.748 260.397L399.912 266.666H398.279Z" fill="white"/>
<path d="M391.526 266.853C390.748 266.853 390.074 266.677 389.504 266.324C388.944 265.972 388.508 265.474 388.197 264.831C387.896 264.178 387.746 263.415 387.746 262.544C387.746 261.673 387.896 260.916 388.197 260.273C388.508 259.63 388.939 259.132 389.488 258.78C390.048 258.417 390.707 258.235 391.464 258.235C392.179 258.235 392.812 258.406 393.362 258.749C393.911 259.081 394.336 259.568 394.637 260.211C394.948 260.854 395.104 261.637 395.104 262.56V262.949H389.115C389.167 263.83 389.4 264.494 389.815 264.94C390.24 265.386 390.811 265.609 391.526 265.609C392.065 265.609 392.506 265.484 392.848 265.235C393.201 264.976 393.445 264.639 393.579 264.224L394.979 264.333C394.762 265.069 394.347 265.676 393.735 266.153C393.133 266.62 392.397 266.853 391.526 266.853ZM389.115 261.798H393.673C393.611 260.999 393.377 260.413 392.973 260.04C392.579 259.666 392.076 259.48 391.464 259.48C390.831 259.48 390.308 259.677 389.893 260.071C389.488 260.455 389.229 261.03 389.115 261.798Z" fill="white"/>
<path d="M384.66 266.666V258.422H385.967V266.666H384.66ZM384.629 257.13V255.606H385.998V257.13H384.629Z" fill="white"/>
<path d="M378.572 266.666L375.57 258.422H377.001L379.396 265.329L381.792 258.422H383.223L380.221 266.666H378.572Z" fill="white"/>
<path d="M371.367 266.853C370.59 266.853 369.916 266.677 369.345 266.324C368.785 265.972 368.35 265.474 368.039 264.831C367.738 264.178 367.587 263.415 367.587 262.544C367.587 261.673 367.738 260.916 368.039 260.273C368.35 259.63 368.78 259.132 369.33 258.78C369.89 258.417 370.548 258.235 371.305 258.235C372.021 258.235 372.653 258.406 373.203 258.749C373.753 259.081 374.178 259.568 374.478 260.211C374.79 260.854 374.945 261.637 374.945 262.56V262.949H368.956C369.008 263.83 369.241 264.494 369.656 264.94C370.081 265.386 370.652 265.609 371.367 265.609C371.907 265.609 372.347 265.484 372.69 265.235C373.042 264.976 373.286 264.639 373.421 264.224L374.821 264.333C374.603 265.069 374.188 265.676 373.576 266.153C372.975 266.62 372.239 266.853 371.367 266.853ZM368.956 261.798H373.514C373.452 260.999 373.218 260.413 372.814 260.04C372.42 259.666 371.917 259.48 371.305 259.48C370.673 259.48 370.149 259.677 369.734 260.071C369.33 260.455 369.07 261.03 368.956 261.798Z" fill="white"/>
<path d="M362.876 266.666V258.422H364.027L364.089 260.506L363.965 260.46C364.069 259.754 364.292 259.241 364.634 258.92C364.986 258.588 365.453 258.422 366.034 258.422H366.843V259.666H366.049C365.634 259.666 365.287 259.744 365.007 259.9C364.737 260.045 364.53 260.268 364.385 260.569C364.25 260.859 364.183 261.232 364.183 261.689V266.666H362.876Z" fill="white"/>
<path d="M353.098 266.666V255.622H357.064C358.298 255.622 359.258 255.918 359.942 256.509C360.627 257.1 360.969 257.919 360.969 258.967C360.969 259.672 360.813 260.284 360.502 260.802C360.191 261.31 359.745 261.699 359.164 261.969C358.584 262.238 357.884 262.373 357.064 262.373H354.435V266.666H353.098ZM354.435 261.067H357.064C357.894 261.067 358.516 260.89 358.931 260.538C359.356 260.185 359.569 259.661 359.569 258.967C359.569 258.292 359.356 257.784 358.931 257.442C358.516 257.1 357.894 256.929 357.064 256.929H354.435V261.067Z" fill="white"/>
<path d="M330.556 265V258.889C330.556 258.447 330.731 258.023 331.044 257.711C331.357 257.398 331.78 257.222 332.222 257.222H335.556C335.862 257.222 336.111 257.471 336.111 257.778C336.111 258.085 335.862 258.333 335.556 258.333H332.222C332.075 258.333 331.934 258.392 331.83 258.496C331.725 258.6 331.667 258.742 331.667 258.889V265C331.667 265.147 331.725 265.289 331.83 265.393C331.934 265.497 332.075 265.556 332.222 265.556H338.333C338.481 265.556 338.622 265.497 338.726 265.393C338.83 265.289 338.889 265.147 338.889 265V261.667C338.889 261.36 339.138 261.111 339.445 261.111C339.751 261.111 340 261.36 340 261.667V265C340 265.442 339.824 265.866 339.512 266.178C339.199 266.491 338.775 266.667 338.333 266.667H332.222C331.78 266.667 331.357 266.491 331.044 266.178C330.731 265.866 330.556 265.442 330.556 265ZM341.667 259.445C341.667 259.751 341.418 260 341.111 260C340.804 260 340.556 259.751 340.556 259.445V257.452L335.393 262.615C335.176 262.832 334.824 262.832 334.607 262.615C334.39 262.398 334.39 262.046 334.607 261.83L339.77 256.667H337.778C337.471 256.667 337.222 256.418 337.222 256.111C337.222 255.804 337.471 255.556 337.778 255.556H341.111C341.418 255.556 341.667 255.804 341.667 256.111V259.445Z" fill="white"/>
</g>
<defs>
<clipPath id="clip0_923_2602">
<rect width="530" height="340" fill="white"/>
</clipPath>
<clipPath id="clip1_923_2602">
<rect width="13.3333" height="13.3333" fill="white" transform="translate(76.1118 54.4448)"/>
</clipPath>
</defs>
</svg>
