<svg width="530" height="340" viewBox="0 0 530 340" fill="none" xmlns="http://www.w3.org/2000/svg">
<path d="M450.526 145.263H487.632C490.364 145.263 492.579 147.478 492.579 150.211V177.421C492.579 180.153 490.364 182.368 487.632 182.368H450.526V145.263Z" fill="#111010"/>
<path d="M503.711 67.3421V68.5789H105.447V67.3421H503.711ZM508.658 62.3947V35.1842C508.658 32.5373 506.579 30.3755 503.965 30.2429L503.711 30.2368H105.447C102.715 30.2368 100.5 32.4519 100.5 35.1842V62.3947C100.5 65.1271 102.715 67.3421 105.447 67.3421V68.5789C102.032 68.5789 99.2632 65.8102 99.2632 62.3947V35.1842C99.2632 31.7688 102.032 29 105.447 29H503.711L504.028 29.0085C507.296 29.1738 509.895 31.8753 509.895 35.1842V62.3947L509.886 62.7124C509.726 65.875 507.191 68.4105 504.028 68.5705L503.711 68.5789V67.3421C506.443 67.3421 508.658 65.1271 508.658 62.3947Z" fill="#181614"/>
<path d="M487.631 182.368V183.605H41.1315V182.368H487.631ZM492.579 177.421V150.211C492.579 147.478 490.364 145.263 487.631 145.263H41.1315C38.3991 145.263 36.1841 147.478 36.1841 150.211V177.421C36.1841 180.153 38.3991 182.368 41.1315 182.368V183.605L40.8138 183.597C37.546 183.432 34.9473 180.73 34.9473 177.421V150.211C34.9473 146.902 37.546 144.2 40.8138 144.035L41.1315 144.026H487.631C491.047 144.026 493.816 146.795 493.816 150.211V177.421L493.807 177.739C493.642 181.007 490.94 183.605 487.631 183.605V182.368C490.364 182.368 492.579 180.153 492.579 177.421Z" fill="#181614"/>
<path d="M253.868 289.973V291.21H43.6051V289.973H253.868ZM258.816 285.026V257.816C258.816 255.083 256.601 252.868 253.868 252.868H43.6051C40.8728 252.868 38.6577 255.083 38.6577 257.816V285.026C38.6577 287.758 40.8728 289.973 43.6051 289.973V291.21C40.1897 291.21 37.4209 288.442 37.4209 285.026V257.816C37.4209 254.4 40.1897 251.631 43.6051 251.631H253.868L254.186 251.64C257.454 251.805 260.052 254.507 260.052 257.816V285.026L260.044 285.344C259.884 288.506 257.349 291.042 254.186 291.202L253.868 291.21V289.973C256.601 289.973 258.816 287.758 258.816 285.026Z" fill="#181614"/>
<path d="M486.395 289.973V291.21H276.131V289.973H486.395ZM491.342 285.026V257.816C491.342 255.083 489.127 252.868 486.395 252.868H276.131C273.399 252.868 271.184 255.083 271.184 257.816V285.026C271.184 287.758 273.399 289.973 276.131 289.973V291.21C272.716 291.21 269.947 288.442 269.947 285.026V257.816C269.947 254.4 272.716 251.631 276.131 251.631H486.395L486.712 251.64C489.98 251.805 492.579 254.507 492.579 257.816V285.026L492.57 285.344C492.41 288.506 489.875 291.042 486.712 291.202L486.395 291.21V289.973C489.127 289.973 491.342 287.758 491.342 285.026Z" fill="#181614"/>
<path d="M503.711 309.763V311H26.2897V309.763H503.711ZM508.658 304.816V93.3156C508.658 90.6687 506.579 88.5069 503.966 88.3742L503.711 88.3682H26.2897C23.5573 88.3682 21.3423 90.5832 21.3423 93.3156V304.816C21.3423 307.548 23.5573 309.763 26.2897 309.763V311C22.8742 311 20.1055 308.231 20.1055 304.816V93.3156C20.1055 90.0067 22.7042 87.3052 25.972 87.1398L26.2897 87.1313H503.711L504.028 87.1398C507.296 87.3052 509.895 90.0067 509.895 93.3156V304.816C509.895 308.231 507.126 311 503.711 311V309.763C506.443 309.763 508.658 307.548 508.658 304.816Z" fill="#181614"/>
<path d="M490.905 46.497C491.146 46.2555 491.538 46.2555 491.779 46.497C492.021 46.7386 492.021 47.13 491.779 47.3715L488.069 51.0821C487.953 51.198 487.796 51.2632 487.632 51.2632C487.468 51.2632 487.31 51.198 487.194 51.0821L483.484 47.3715C483.242 47.13 483.242 46.7386 483.484 46.497C483.725 46.2555 484.117 46.2555 484.358 46.497L487.632 49.7703L490.905 46.497Z" fill="white"/>
<path d="M208.514 55.1817C207.717 55.1817 207.025 54.9854 206.436 54.593C205.859 54.2005 205.414 53.6464 205.103 52.9306C204.791 52.2149 204.635 51.3664 204.635 50.3852C204.635 49.404 204.791 48.5555 205.103 47.8398C205.414 47.1241 205.859 46.57 206.436 46.1775C207.025 45.785 207.717 45.5887 208.514 45.5887C209.126 45.5887 209.686 45.7215 210.194 45.987C210.702 46.241 211.082 46.6046 211.336 47.0779V42.6797H212.791V54.9739H211.475L211.423 53.5886C211.169 54.085 210.782 54.4775 210.263 54.7661C209.743 55.0432 209.16 55.1817 208.514 55.1817ZM208.808 53.7964C209.351 53.7964 209.807 53.6579 210.176 53.3808C210.557 53.1038 210.846 52.7113 211.042 52.2034C211.238 51.6839 211.336 51.0778 211.336 50.3852C211.336 49.6695 211.238 49.0577 211.042 48.5497C210.846 48.0418 210.557 47.6551 210.176 47.3896C209.807 47.1125 209.351 46.974 208.808 46.974C208 46.974 207.354 47.2799 206.869 47.8917C206.396 48.492 206.159 49.3232 206.159 50.3852C206.159 51.4357 206.396 52.2669 206.869 52.8787C207.354 53.4905 208 53.7964 208.808 53.7964Z" fill="white"/>
<path d="M199.305 55.1818C198.44 55.1818 197.689 54.9856 197.054 54.5931C196.431 54.2006 195.946 53.6465 195.6 52.9308C195.265 52.2035 195.098 51.355 195.098 50.3853C195.098 49.4157 195.265 48.573 195.6 47.8572C195.946 47.1415 196.425 46.5874 197.037 46.1949C197.66 45.7909 198.393 45.5889 199.236 45.5889C200.033 45.5889 200.737 45.7793 201.349 46.1603C201.96 46.5297 202.434 47.0723 202.769 47.788C203.115 48.5037 203.288 49.3753 203.288 50.4027V50.8356H196.621C196.679 51.8168 196.939 52.5556 197.401 53.052C197.874 53.5484 198.509 53.7966 199.305 53.7966C199.906 53.7966 200.396 53.658 200.777 53.381C201.17 53.0924 201.441 52.7172 201.591 52.2554L203.149 52.3767C202.907 53.1963 202.445 53.8716 201.764 54.4026C201.095 54.9221 200.275 55.1818 199.305 55.1818ZM196.621 49.5542H201.695C201.626 48.6653 201.366 48.0131 200.916 47.5975C200.477 47.1819 199.917 46.9741 199.236 46.9741C198.532 46.9741 197.949 47.1935 197.487 47.6321C197.037 48.0593 196.748 48.6999 196.621 49.5542Z" fill="white"/>
<path d="M185.863 54.9739V42.6797H187.317V47.8225L187.144 47.7878C187.26 47.2799 187.456 46.8643 187.733 46.5411C188.01 46.2179 188.35 45.9812 188.755 45.8312C189.159 45.6695 189.603 45.5887 190.088 45.5887C190.746 45.5887 191.3 45.7388 191.75 46.039C192.212 46.3275 192.558 46.7374 192.789 47.2684C193.032 47.7878 193.153 48.3881 193.153 49.0692V54.9739H191.698V49.4848C191.698 48.5959 191.537 47.9379 191.213 47.5108C190.902 47.0837 190.423 46.8701 189.776 46.8701C189.037 46.8701 188.443 47.0952 187.993 47.5454C187.542 47.9956 187.317 48.6479 187.317 49.5021V54.9739H185.863Z" fill="white"/>
<path d="M180.293 55.1818C179.473 55.1818 178.775 55.0491 178.198 54.7836C177.632 54.518 177.188 54.1544 176.864 53.6927C176.553 53.2194 176.374 52.6826 176.328 52.0823L177.851 51.9784C177.944 52.5325 178.18 52.9769 178.561 53.3117C178.942 53.6349 179.52 53.7966 180.293 53.7966C180.916 53.7966 181.413 53.6984 181.782 53.5022C182.163 53.2944 182.354 52.9654 182.354 52.5152C182.354 52.2728 182.296 52.0707 182.18 51.9091C182.065 51.7475 181.84 51.609 181.505 51.4936C181.17 51.3666 180.674 51.2454 180.016 51.1299C179.139 50.9683 178.446 50.7721 177.938 50.5412C177.442 50.2988 177.084 50.0044 176.864 49.6581C176.657 49.3002 176.553 48.8789 176.553 48.394C176.553 47.5744 176.853 46.9049 177.453 46.3854C178.053 45.8544 178.908 45.5889 180.016 45.5889C180.766 45.5889 181.395 45.7274 181.903 46.0044C182.423 46.27 182.827 46.6278 183.115 47.078C183.416 47.5167 183.612 48.0015 183.704 48.5326L182.18 48.6364C182.111 48.3132 181.984 48.0304 181.799 47.788C181.615 47.534 181.372 47.3378 181.072 47.1992C180.772 47.0492 180.414 46.9741 179.999 46.9741C179.341 46.9741 178.856 47.1011 178.544 47.3551C178.232 47.609 178.077 47.9323 178.077 48.3248C178.077 48.6249 178.146 48.8731 178.284 49.0693C178.434 49.254 178.671 49.4099 178.994 49.5369C179.317 49.6523 179.75 49.7562 180.293 49.8486C181.228 50.0102 181.955 50.2064 182.475 50.4373C182.994 50.6682 183.358 50.951 183.566 51.2858C183.773 51.6205 183.877 52.0303 183.877 52.5152C183.877 53.0808 183.716 53.5657 183.392 53.9697C183.081 54.3622 182.654 54.6623 182.111 54.8701C181.58 55.0779 180.974 55.1818 180.293 55.1818Z" fill="white"/>
<path d="M172.893 54.9736V45.7963H174.347V54.9736H172.893ZM172.858 44.3591V42.6621H174.382V44.3591H172.858Z" fill="white"/>
<path d="M170.212 54.9739C169.681 54.9739 169.249 54.8354 168.914 54.5583C168.579 54.2813 168.412 53.8426 168.412 53.2423V42.6797H169.866V53.1211C169.866 53.3058 169.912 53.4501 170.005 53.554C170.109 53.6464 170.253 53.6925 170.438 53.6925H171.234V54.9739H170.212Z" fill="white"/>
<path d="M162.405 55.1817C161.771 55.1817 161.205 55.0432 160.709 54.7661C160.212 54.4775 159.831 54.085 159.566 53.5886L159.514 54.9739H158.198V42.6797H159.652V47.0779C159.883 46.697 160.241 46.3564 160.726 46.0563C161.211 45.7446 161.771 45.5887 162.405 45.5887C163.214 45.5887 163.912 45.785 164.501 46.1775C165.089 46.57 165.545 47.1241 165.869 47.8398C166.192 48.5555 166.353 49.404 166.353 50.3852C166.353 51.3664 166.192 52.2149 165.869 52.9306C165.545 53.6464 165.089 54.2005 164.501 54.593C163.912 54.9854 163.214 55.1817 162.405 55.1817ZM162.319 53.7964C163.092 53.7964 163.704 53.4905 164.154 52.8787C164.605 52.2669 164.83 51.4357 164.83 50.3852C164.83 49.3232 164.605 48.492 164.154 47.8917C163.704 47.2799 163.104 46.974 162.354 46.974C161.788 46.974 161.303 47.1125 160.899 47.3896C160.495 47.6551 160.183 48.0418 159.964 48.5497C159.756 49.0577 159.652 49.6695 159.652 50.3852C159.652 51.0778 159.756 51.6839 159.964 52.2034C160.183 52.7113 160.489 53.1038 160.882 53.3808C161.286 53.6579 161.765 53.7964 162.319 53.7964Z" fill="white"/>
<path d="M151.505 55.1815C150.593 55.1815 149.86 54.8756 149.306 54.2638C148.763 53.6404 148.492 52.7862 148.492 51.7011V45.7964H149.946V51.3028C149.946 52.1917 150.102 52.8497 150.414 53.2768C150.737 53.6924 151.228 53.9002 151.886 53.9002C152.613 53.9002 153.184 53.6693 153.6 53.2075C154.015 52.7342 154.223 52.0878 154.223 51.2682V45.7964H155.678V54.9738H154.292V52.7054L154.518 52.8266C154.333 53.5769 153.981 54.1599 153.461 54.5755C152.942 54.9795 152.29 55.1815 151.505 55.1815Z" fill="white"/>
<path d="M137.961 54.9739V42.6797H142.377C143.751 42.6797 144.818 43.0087 145.58 43.6667C146.342 44.3247 146.723 45.2367 146.723 46.4026C146.723 47.1876 146.55 47.8687 146.204 48.4458C145.857 49.0115 145.361 49.4444 144.715 49.7445C144.068 50.0447 143.289 50.1947 142.377 50.1947H139.451V54.9739H137.961ZM139.451 48.7402H142.377C143.3 48.7402 143.993 48.544 144.455 48.1515C144.928 47.759 145.165 47.176 145.165 46.4026C145.165 45.6522 144.928 45.0866 144.455 44.7056C143.993 44.3247 143.3 44.1342 142.377 44.1342H139.451V48.7402Z" fill="white"/>
<path d="M434.188 170V168.043H436.144V170H434.188Z" fill="#ADADAD"/>
<path d="M430.704 170V168.043H432.661V170H430.704Z" fill="#ADADAD"/>
<path d="M427.221 170V168.043H429.177V170H427.221Z" fill="#ADADAD"/>
<path d="M423.737 170V168.043H425.694V170H423.737Z" fill="#ADADAD"/>
<path d="M420.254 170V168.043H422.211V170H420.254Z" fill="#ADADAD"/>
<path d="M416.771 170V168.043H418.727V170H416.771Z" fill="#ADADAD"/>
<path d="M410.351 170.208C409.554 170.208 408.862 170.012 408.273 169.619C407.696 169.227 407.251 168.673 406.94 167.957C406.628 167.241 406.472 166.393 406.472 165.412C406.472 164.43 406.628 163.582 406.94 162.866C407.251 162.15 407.696 161.596 408.273 161.204C408.862 160.811 409.554 160.615 410.351 160.615C410.963 160.615 411.523 160.748 412.031 161.013C412.538 161.267 412.919 161.631 413.173 162.104V157.706H414.628V170H413.312L413.26 168.615C413.006 169.111 412.619 169.504 412.1 169.792C411.58 170.07 410.997 170.208 410.351 170.208ZM410.645 168.823C411.188 168.823 411.644 168.684 412.013 168.407C412.394 168.13 412.683 167.738 412.879 167.23C413.075 166.71 413.173 166.104 413.173 165.412C413.173 164.696 413.075 164.084 412.879 163.576C412.683 163.068 412.394 162.681 412.013 162.416C411.644 162.139 411.188 162 410.645 162C409.837 162 409.191 162.306 408.706 162.918C408.233 163.518 407.996 164.35 407.996 165.412C407.996 166.462 408.233 167.293 408.706 167.905C409.191 168.517 409.837 168.823 410.645 168.823Z" fill="#ADADAD"/>
<path d="M400.136 170.208C399.19 170.208 398.433 169.988 397.868 169.55C397.314 169.111 397.037 168.499 397.037 167.714C397.037 166.929 397.267 166.312 397.729 165.861C398.191 165.411 398.924 165.094 399.928 164.909L403.184 164.303C403.184 163.53 402.999 162.952 402.63 162.571C402.272 162.19 401.729 162 401.002 162C400.367 162 399.865 162.144 399.495 162.433C399.126 162.71 398.872 163.114 398.734 163.645L397.192 163.524C397.366 162.658 397.781 161.96 398.439 161.429C399.109 160.886 399.963 160.615 401.002 160.615C402.179 160.615 403.08 160.95 403.703 161.619C404.327 162.277 404.638 163.189 404.638 164.355V168.147C404.638 168.355 404.673 168.505 404.742 168.597C404.823 168.678 404.95 168.719 405.123 168.719H405.487V170C405.441 170.011 405.366 170.017 405.262 170.017C405.158 170.029 405.048 170.035 404.933 170.035C404.517 170.035 404.177 169.971 403.911 169.844C403.657 169.706 403.472 169.498 403.357 169.221C403.241 168.932 403.184 168.557 403.184 168.095L403.357 168.13C403.276 168.522 403.08 168.88 402.768 169.203C402.456 169.515 402.07 169.763 401.608 169.948C401.146 170.121 400.656 170.208 400.136 170.208ZM400.275 168.926C400.887 168.926 401.406 168.811 401.833 168.58C402.272 168.338 402.607 168.014 402.837 167.61C403.068 167.195 403.184 166.733 403.184 166.225V165.567L400.205 166.121C399.582 166.237 399.149 166.416 398.907 166.658C398.676 166.889 398.56 167.195 398.56 167.576C398.56 168.003 398.71 168.338 399.011 168.58C399.322 168.811 399.744 168.926 400.275 168.926Z" fill="#ADADAD"/>
<path d="M391.853 170.208C391.034 170.208 390.335 170.075 389.758 169.809C389.193 169.544 388.748 169.18 388.425 168.719C388.113 168.245 387.934 167.708 387.888 167.108L389.412 167.004C389.504 167.558 389.741 168.003 390.122 168.338C390.503 168.661 391.08 168.822 391.853 168.822C392.477 168.822 392.973 168.724 393.343 168.528C393.724 168.32 393.914 167.991 393.914 167.541C393.914 167.299 393.856 167.097 393.741 166.935C393.625 166.773 393.4 166.635 393.066 166.519C392.731 166.392 392.234 166.271 391.576 166.156C390.699 165.994 390.006 165.798 389.499 165.567C389.002 165.325 388.644 165.03 388.425 164.684C388.217 164.326 388.113 163.905 388.113 163.42C388.113 162.6 388.413 161.931 389.014 161.411C389.614 160.88 390.468 160.615 391.576 160.615C392.327 160.615 392.956 160.753 393.464 161.03C393.983 161.296 394.387 161.654 394.676 162.104C394.976 162.543 395.172 163.027 395.265 163.558L393.741 163.662C393.672 163.339 393.545 163.056 393.36 162.814C393.175 162.56 392.933 162.364 392.633 162.225C392.333 162.075 391.975 162 391.559 162C390.901 162 390.416 162.127 390.105 162.381C389.793 162.635 389.637 162.958 389.637 163.351C389.637 163.651 389.706 163.899 389.845 164.095C389.995 164.28 390.232 164.436 390.555 164.563C390.878 164.678 391.311 164.782 391.853 164.874C392.789 165.036 393.516 165.232 394.035 165.463C394.555 165.694 394.918 165.977 395.126 166.312C395.334 166.646 395.438 167.056 395.438 167.541C395.438 168.107 395.276 168.592 394.953 168.996C394.641 169.388 394.214 169.688 393.672 169.896C393.141 170.104 392.535 170.208 391.853 170.208Z" fill="#ADADAD"/>
<path d="M385.797 170C385.266 170 384.834 169.862 384.499 169.585C384.164 169.308 383.997 168.869 383.997 168.269V157.706H385.451V168.147C385.451 168.332 385.497 168.476 385.59 168.58C385.694 168.673 385.838 168.719 386.023 168.719H386.819V170H385.797Z" fill="#ADADAD"/>
<path d="M377.123 170.208C376.326 170.208 375.634 170.012 375.045 169.619C374.468 169.227 374.023 168.673 373.712 167.957C373.4 167.241 373.244 166.393 373.244 165.412C373.244 164.43 373.4 163.582 373.712 162.866C374.023 162.15 374.468 161.596 375.045 161.204C375.634 160.811 376.326 160.615 377.123 160.615C377.735 160.615 378.295 160.748 378.802 161.013C379.31 161.267 379.691 161.631 379.945 162.104V157.706H381.4V170H380.084L380.032 168.615C379.778 169.111 379.391 169.504 378.872 169.792C378.352 170.07 377.769 170.208 377.123 170.208ZM377.417 168.823C377.96 168.823 378.416 168.684 378.785 168.407C379.166 168.13 379.455 167.738 379.651 167.23C379.847 166.71 379.945 166.104 379.945 165.412C379.945 164.696 379.847 164.084 379.651 163.576C379.455 163.068 379.166 162.681 378.785 162.416C378.416 162.139 377.96 162 377.417 162C376.609 162 375.963 162.306 375.478 162.918C375.005 163.518 374.768 164.35 374.768 165.412C374.768 166.462 375.005 167.293 375.478 167.905C375.963 168.517 376.609 168.823 377.417 168.823Z" fill="#ADADAD"/>
<path d="M362.8 170C362.8 169.134 362.933 168.355 363.198 167.662C363.475 166.958 363.954 166.289 364.635 165.654C365.328 165.019 366.286 164.378 367.51 163.732C368.075 163.432 368.531 163.154 368.878 162.9C369.224 162.647 369.478 162.375 369.64 162.087C369.801 161.798 369.882 161.446 369.882 161.03C369.882 160.603 369.79 160.234 369.605 159.922C369.42 159.599 369.143 159.345 368.774 159.16C368.416 158.976 367.966 158.883 367.423 158.883C366.557 158.883 365.87 159.108 365.363 159.559C364.866 160.009 364.554 160.649 364.428 161.481L362.869 161.377C363.008 160.176 363.469 159.218 364.254 158.502C365.039 157.787 366.096 157.429 367.423 157.429C368.266 157.429 368.987 157.579 369.588 157.879C370.188 158.179 370.644 158.6 370.956 159.143C371.279 159.674 371.44 160.292 371.44 160.996C371.44 161.619 371.337 162.162 371.129 162.623C370.921 163.074 370.569 163.495 370.072 163.887C369.588 164.28 368.918 164.701 368.064 165.152C366.956 165.74 366.113 166.335 365.536 166.935C364.97 167.535 364.67 168.072 364.635 168.545H371.44V170H362.8Z" fill="#ADADAD"/>
<path d="M358.54 170V160.892H355.978V159.611H357.016C357.467 159.611 357.825 159.553 358.09 159.438C358.367 159.322 358.563 159.126 358.679 158.849C358.794 158.572 358.852 158.191 358.852 157.706H360.029V170H358.54Z" fill="#ADADAD"/>
<path d="M352.588 170V160.892H350.025V159.611H351.064C351.514 159.611 351.872 159.553 352.137 159.438C352.414 159.322 352.611 159.126 352.726 158.849C352.842 158.572 352.899 158.191 352.899 157.706H354.077V170H352.588Z" fill="#ADADAD"/>
<path d="M347.952 172.597H346.498V168.026L346.705 168.268C346.601 168.661 346.405 169.001 346.117 169.29C345.84 169.579 345.493 169.804 345.078 169.965C344.674 170.127 344.235 170.208 343.762 170.208C342.85 170.208 342.099 169.983 341.511 169.532C340.933 169.082 340.501 168.493 340.212 167.766C339.935 167.039 339.796 166.254 339.796 165.411C339.796 164.569 339.935 163.784 340.212 163.056C340.501 162.329 340.933 161.74 341.511 161.29C342.099 160.84 342.85 160.615 343.762 160.615C344.477 160.615 345.101 160.794 345.632 161.152C346.174 161.498 346.555 162.012 346.775 162.693L346.567 162.797L346.601 160.823H347.952V172.597ZM343.9 168.822C344.443 168.822 344.905 168.695 345.285 168.441C345.678 168.188 345.978 167.807 346.186 167.299C346.394 166.791 346.498 166.162 346.498 165.411C346.498 164.661 346.388 164.032 346.169 163.524C345.961 163.016 345.661 162.635 345.268 162.381C344.887 162.127 344.431 162 343.9 162C343.104 162 342.475 162.3 342.013 162.9C341.551 163.501 341.32 164.338 341.32 165.411C341.32 166.485 341.551 167.322 342.013 167.922C342.475 168.522 343.104 168.822 343.9 168.822Z" fill="#ADADAD"/>
<path d="M334.85 170.208C334.03 170.208 333.332 170.075 332.755 169.809C332.189 169.544 331.745 169.18 331.422 168.719C331.11 168.245 330.931 167.708 330.885 167.108L332.409 167.004C332.501 167.558 332.738 168.003 333.119 168.338C333.499 168.661 334.077 168.822 334.85 168.822C335.473 168.822 335.97 168.724 336.339 168.528C336.72 168.32 336.911 167.991 336.911 167.541C336.911 167.299 336.853 167.097 336.738 166.935C336.622 166.773 336.397 166.635 336.062 166.519C335.727 166.392 335.231 166.271 334.573 166.156C333.696 165.994 333.003 165.798 332.495 165.567C331.999 165.325 331.641 165.03 331.422 164.684C331.214 164.326 331.11 163.905 331.11 163.42C331.11 162.6 331.41 161.931 332.01 161.411C332.611 160.88 333.465 160.615 334.573 160.615C335.323 160.615 335.953 160.753 336.46 161.03C336.98 161.296 337.384 161.654 337.673 162.104C337.973 162.543 338.169 163.027 338.261 163.558L336.738 163.662C336.668 163.339 336.541 163.056 336.357 162.814C336.172 162.56 335.929 162.364 335.629 162.225C335.329 162.075 334.971 162 334.556 162C333.898 162 333.413 162.127 333.101 162.381C332.79 162.635 332.634 162.958 332.634 163.351C332.634 163.651 332.703 163.899 332.841 164.095C332.992 164.28 333.228 164.436 333.551 164.563C333.875 164.678 334.308 164.782 334.85 164.874C335.785 165.036 336.512 165.232 337.032 165.463C337.551 165.694 337.915 165.977 338.123 166.312C338.331 166.646 338.434 167.056 338.434 167.541C338.434 168.107 338.273 168.592 337.95 168.996C337.638 169.388 337.211 169.688 336.668 169.896C336.137 170.104 335.531 170.208 334.85 170.208Z" fill="#ADADAD"/>
<path d="M325.708 172.597V171.316H326.452C326.752 171.316 326.995 171.241 327.179 171.091C327.364 170.952 327.456 170.693 327.456 170.312V160.823H328.911V170.381C328.911 171.189 328.732 171.76 328.374 172.095C328.016 172.43 327.422 172.597 326.591 172.597H325.708ZM327.422 159.385V157.688H328.946V159.385H327.422Z" fill="#ADADAD"/>
<path d="M318.86 171.905L323.968 157.013H325.353L320.245 171.905H318.86Z" fill="#ADADAD"/>
<path d="M312.752 172.805C312.094 172.805 311.5 172.695 310.969 172.476C310.438 172.257 309.993 171.945 309.635 171.541C309.278 171.137 309.035 170.669 308.908 170.138L310.432 170.035C310.57 170.462 310.813 170.796 311.159 171.039C311.517 171.293 312.048 171.42 312.752 171.42C313.583 171.42 314.218 171.252 314.657 170.918C315.107 170.583 315.332 170.081 315.332 169.411V167.922C315.113 168.407 314.761 168.794 314.276 169.082C313.791 169.371 313.249 169.515 312.648 169.515C311.875 169.515 311.182 169.325 310.57 168.944C309.97 168.563 309.497 168.037 309.151 167.368C308.816 166.698 308.648 165.931 308.648 165.065C308.648 164.188 308.816 163.42 309.151 162.762C309.485 162.092 309.947 161.567 310.536 161.186C311.136 160.805 311.817 160.615 312.579 160.615C313.226 160.615 313.803 160.765 314.311 161.065C314.83 161.365 315.194 161.769 315.402 162.277V160.823H316.787V169.377C316.787 170.092 316.625 170.704 316.302 171.212C315.979 171.731 315.517 172.124 314.917 172.389C314.316 172.667 313.595 172.805 312.752 172.805ZM312.718 168.13C313.503 168.13 314.132 167.859 314.605 167.316C315.078 166.762 315.321 166.012 315.332 165.065C315.344 164.43 315.24 163.887 315.021 163.437C314.813 162.975 314.507 162.623 314.103 162.381C313.71 162.127 313.249 162 312.718 162C311.91 162 311.28 162.277 310.83 162.831C310.392 163.374 310.172 164.118 310.172 165.065C310.172 166.012 310.397 166.762 310.848 167.316C311.309 167.859 311.933 168.13 312.718 168.13Z" fill="#ADADAD"/>
<path d="M299.413 170V160.823H300.746L300.798 163.16L300.625 163.004C300.741 162.462 300.943 162.017 301.231 161.671C301.52 161.313 301.866 161.048 302.27 160.874C302.686 160.701 303.13 160.615 303.604 160.615C304.308 160.615 304.885 160.771 305.335 161.082C305.797 161.394 306.137 161.815 306.357 162.346C306.588 162.866 306.703 163.449 306.703 164.095V170H305.249V164.511C305.249 163.945 305.179 163.472 305.041 163.091C304.914 162.698 304.706 162.404 304.417 162.208C304.129 162 303.754 161.896 303.292 161.896C302.588 161.896 302.005 162.121 301.543 162.571C301.093 163.01 300.868 163.657 300.868 164.511V170H299.413Z" fill="#ADADAD"/>
<path d="M295.016 170V160.823H296.471V170H295.016ZM294.981 159.385V157.688H296.505V159.385H294.981Z" fill="#ADADAD"/>
<path d="M288.312 170.208C287.515 170.208 286.823 170.012 286.234 169.619C285.657 169.227 285.212 168.673 284.901 167.957C284.589 167.241 284.433 166.393 284.433 165.412C284.433 164.43 284.589 163.582 284.901 162.866C285.212 162.15 285.657 161.596 286.234 161.204C286.823 160.811 287.515 160.615 288.312 160.615C288.924 160.615 289.484 160.748 289.991 161.013C290.499 161.267 290.88 161.631 291.134 162.104V157.706H292.589V170H291.273L291.221 168.615C290.967 169.111 290.58 169.504 290.061 169.792C289.541 170.07 288.958 170.208 288.312 170.208ZM288.606 168.823C289.149 168.823 289.605 168.684 289.974 168.407C290.355 168.13 290.644 167.738 290.84 167.23C291.036 166.71 291.134 166.104 291.134 165.412C291.134 164.696 291.036 164.084 290.84 163.576C290.644 163.068 290.355 162.681 289.974 162.416C289.605 162.139 289.149 162 288.606 162C287.798 162 287.152 162.306 286.667 162.918C286.194 163.518 285.957 164.35 285.957 165.412C285.957 166.462 286.194 167.293 286.667 167.905C287.152 168.517 287.798 168.823 288.606 168.823Z" fill="#ADADAD"/>
<path d="M275.198 170V160.823H276.531L276.583 163.16L276.41 163.004C276.525 162.462 276.727 162.017 277.016 161.671C277.305 161.313 277.651 161.048 278.055 160.874C278.47 160.701 278.915 160.615 279.388 160.615C280.092 160.615 280.67 160.771 281.12 161.082C281.582 161.394 281.922 161.815 282.141 162.346C282.372 162.866 282.488 163.449 282.488 164.095V170H281.033V164.511C281.033 163.945 280.964 163.472 280.825 163.091C280.698 162.698 280.491 162.404 280.202 162.208C279.913 162 279.538 161.896 279.076 161.896C278.372 161.896 277.789 162.121 277.328 162.571C276.877 163.01 276.652 163.657 276.652 164.511V170H275.198Z" fill="#ADADAD"/>
<path d="M268.205 170.208C267.258 170.208 266.502 169.988 265.936 169.55C265.382 169.111 265.105 168.499 265.105 167.714C265.105 166.929 265.336 166.312 265.798 165.861C266.259 165.411 266.992 165.094 267.997 164.909L271.252 164.303C271.252 163.53 271.067 162.952 270.698 162.571C270.34 162.19 269.798 162 269.07 162C268.435 162 267.933 162.144 267.564 162.433C267.194 162.71 266.94 163.114 266.802 163.645L265.261 163.524C265.434 162.658 265.85 161.96 266.508 161.429C267.177 160.886 268.031 160.615 269.07 160.615C270.248 160.615 271.148 160.95 271.772 161.619C272.395 162.277 272.707 163.189 272.707 164.355V168.147C272.707 168.355 272.741 168.505 272.811 168.597C272.891 168.678 273.018 168.719 273.191 168.719H273.555V170C273.509 170.011 273.434 170.017 273.33 170.017C273.226 170.029 273.116 170.035 273.001 170.035C272.585 170.035 272.245 169.971 271.979 169.844C271.725 169.706 271.541 169.498 271.425 169.221C271.31 168.932 271.252 168.557 271.252 168.095L271.425 168.13C271.344 168.522 271.148 168.88 270.837 169.203C270.525 169.515 270.138 169.763 269.676 169.948C269.215 170.121 268.724 170.208 268.205 170.208ZM268.343 168.926C268.955 168.926 269.474 168.811 269.901 168.58C270.34 168.338 270.675 168.014 270.906 167.61C271.137 167.195 271.252 166.733 271.252 166.225V165.567L268.274 166.121C267.65 166.237 267.218 166.416 266.975 166.658C266.744 166.889 266.629 167.195 266.629 167.576C266.629 168.003 266.779 168.338 267.079 168.58C267.391 168.811 267.812 168.926 268.343 168.926Z" fill="#ADADAD"/>
<path d="M262.913 170C262.382 170 261.949 169.862 261.614 169.585C261.279 169.308 261.112 168.869 261.112 168.269V157.706H262.566V168.147C262.566 168.332 262.613 168.476 262.705 168.58C262.809 168.673 262.953 168.719 263.138 168.719H263.934V170H262.913Z" fill="#ADADAD"/>
<path d="M252.624 171.905L257.732 157.013H259.117L254.009 171.905H252.624Z" fill="#ADADAD"/>
<path d="M238.131 170V160.823H239.465L239.517 163.143L239.309 163.074C239.413 162.566 239.592 162.133 239.846 161.775C240.111 161.406 240.434 161.123 240.815 160.926C241.196 160.719 241.618 160.615 242.079 160.615C242.876 160.615 243.522 160.834 244.019 161.273C244.527 161.711 244.844 162.323 244.971 163.108L244.694 163.091C244.786 162.56 244.954 162.115 245.196 161.758C245.45 161.388 245.773 161.105 246.166 160.909C246.558 160.713 247.009 160.615 247.517 160.615C248.175 160.615 248.729 160.753 249.179 161.03C249.629 161.296 249.97 161.688 250.2 162.208C250.431 162.727 250.547 163.356 250.547 164.095V170H249.092V164.407C249.092 163.576 248.931 162.952 248.607 162.537C248.284 162.11 247.805 161.896 247.17 161.896C246.743 161.896 246.368 162 246.045 162.208C245.733 162.416 245.491 162.716 245.317 163.108C245.144 163.489 245.058 163.957 245.058 164.511V170H243.603V164.511C243.603 163.691 243.459 163.051 243.17 162.589C242.882 162.127 242.397 161.896 241.716 161.896C241.289 161.896 240.913 162 240.59 162.208C240.279 162.416 240.03 162.716 239.846 163.108C239.672 163.501 239.586 163.968 239.586 164.511V170H238.131Z" fill="#ADADAD"/>
<path d="M231.959 170.208C231.116 170.208 230.377 170.011 229.742 169.619C229.107 169.226 228.617 168.672 228.27 167.957C227.924 167.229 227.751 166.381 227.751 165.411C227.751 164.43 227.924 163.582 228.27 162.866C228.617 162.15 229.107 161.596 229.742 161.203C230.377 160.811 231.116 160.615 231.959 160.615C232.801 160.615 233.534 160.811 234.158 161.203C234.793 161.596 235.283 162.15 235.63 162.866C235.976 163.582 236.149 164.43 236.149 165.411C236.149 166.381 235.976 167.229 235.63 167.957C235.283 168.672 234.793 169.226 234.158 169.619C233.534 170.011 232.801 170.208 231.959 170.208ZM231.959 168.822C232.801 168.822 233.454 168.522 233.915 167.922C234.389 167.31 234.625 166.473 234.625 165.411C234.625 164.349 234.389 163.518 233.915 162.918C233.454 162.306 232.801 162 231.959 162C231.116 162 230.458 162.306 229.985 162.918C229.511 163.518 229.275 164.349 229.275 165.411C229.275 166.473 229.511 167.31 229.985 167.922C230.458 168.522 231.116 168.822 231.959 168.822Z" fill="#ADADAD"/>
<path d="M222.675 170.208C221.821 170.208 221.076 170.011 220.441 169.619C219.818 169.226 219.333 168.672 218.987 167.957C218.64 167.229 218.467 166.381 218.467 165.411C218.467 164.442 218.64 163.599 218.987 162.883C219.333 162.167 219.818 161.613 220.441 161.221C221.076 160.817 221.821 160.615 222.675 160.615C223.379 160.615 224.003 160.742 224.545 160.996C225.099 161.238 225.549 161.596 225.896 162.069C226.242 162.543 226.467 163.12 226.571 163.801L225.047 163.905C224.943 163.293 224.678 162.825 224.251 162.502C223.824 162.167 223.298 162 222.675 162C221.832 162 221.174 162.306 220.701 162.918C220.228 163.518 219.991 164.349 219.991 165.411C219.991 166.473 220.228 167.31 220.701 167.922C221.174 168.522 221.832 168.822 222.675 168.822C223.298 168.822 223.824 168.649 224.251 168.303C224.678 167.957 224.943 167.437 225.047 166.745L226.571 166.848C226.467 167.53 226.242 168.124 225.896 168.632C225.549 169.128 225.099 169.515 224.545 169.792C224.003 170.069 223.379 170.208 222.675 170.208Z" fill="#ADADAD"/>
<path d="M214.984 170V168.043H216.941V170H214.984Z" fill="#ADADAD"/>
<path d="M205.705 170V168.546L211.506 162.104H205.878V160.823H213.099V162.277L207.298 168.719H213.237V170H205.705Z" fill="#ADADAD"/>
<path d="M196.473 170V168.546L202.273 162.104H196.646V160.823H203.867V162.277L198.066 168.719H204.005V170H196.473Z" fill="#ADADAD"/>
<path d="M191.203 170.208C190.568 170.208 190.003 170.07 189.506 169.792C189.01 169.504 188.629 169.111 188.364 168.615L188.312 170H186.996V157.706H188.45V162.104C188.681 161.723 189.039 161.383 189.524 161.083C190.009 160.771 190.568 160.615 191.203 160.615C192.011 160.615 192.71 160.811 193.299 161.204C193.887 161.596 194.343 162.15 194.666 162.866C194.99 163.582 195.151 164.43 195.151 165.412C195.151 166.393 194.99 167.241 194.666 167.957C194.343 168.673 193.887 169.227 193.299 169.619C192.71 170.012 192.011 170.208 191.203 170.208ZM191.117 168.823C191.89 168.823 192.502 168.517 192.952 167.905C193.402 167.293 193.628 166.462 193.628 165.412C193.628 164.35 193.402 163.518 192.952 162.918C192.502 162.306 191.902 162 191.151 162C190.586 162 190.101 162.139 189.697 162.416C189.293 162.681 188.981 163.068 188.762 163.576C188.554 164.084 188.45 164.696 188.45 165.412C188.45 166.104 188.554 166.71 188.762 167.23C188.981 167.738 189.287 168.13 189.68 168.407C190.084 168.684 190.563 168.823 191.117 168.823Z" fill="#ADADAD"/>
<path d="M180.959 170V160.823H182.24L182.31 163.143L182.171 163.091C182.287 162.306 182.535 161.735 182.916 161.377C183.308 161.007 183.828 160.823 184.474 160.823H185.375V162.208H184.491C184.03 162.208 183.643 162.295 183.331 162.468C183.031 162.629 182.8 162.878 182.639 163.212C182.489 163.536 182.414 163.951 182.414 164.459V170H180.959Z" fill="#ADADAD"/>
<path d="M175.551 170V159.992C175.551 159.311 175.748 158.762 176.14 158.347C176.533 157.92 177.144 157.706 177.976 157.706H179.43V158.987H178.08C177.722 158.987 177.45 159.086 177.266 159.282C177.093 159.478 177.006 159.749 177.006 160.096V170H175.551ZM174.305 162.104V160.823H179.309V162.104H174.305Z" fill="#ADADAD"/>
<path d="M171.153 170V168.043H173.11V170H171.153Z" fill="#ADADAD"/>
<path d="M160.456 170L157.616 160.823H159.209L161.356 168.476L163.538 160.823H165.097L167.278 168.476L169.443 160.823H171.036L168.196 170H166.361L164.317 163.022L162.274 170H160.456Z" fill="#ADADAD"/>
<path d="M152.939 170.208C152.073 170.208 151.323 170.011 150.688 169.619C150.064 169.226 149.579 168.672 149.233 167.957C148.898 167.229 148.731 166.381 148.731 165.411C148.731 164.442 148.898 163.599 149.233 162.883C149.579 162.167 150.059 161.613 150.67 161.221C151.294 160.817 152.027 160.615 152.869 160.615C153.666 160.615 154.37 160.805 154.982 161.186C155.594 161.556 156.067 162.098 156.402 162.814C156.748 163.53 156.921 164.401 156.921 165.429V165.861H150.255C150.312 166.843 150.572 167.581 151.034 168.078C151.507 168.574 152.142 168.822 152.939 168.822C153.539 168.822 154.03 168.684 154.411 168.407C154.803 168.118 155.074 167.743 155.224 167.281L156.783 167.403C156.54 168.222 156.079 168.897 155.398 169.428C154.728 169.948 153.908 170.208 152.939 170.208ZM150.255 164.58H155.328C155.259 163.691 154.999 163.039 154.549 162.623C154.11 162.208 153.551 162 152.869 162C152.165 162 151.582 162.219 151.121 162.658C150.67 163.085 150.382 163.726 150.255 164.58Z" fill="#ADADAD"/>
<path d="M145.295 170V160.823H146.75V170H145.295ZM145.261 159.385V157.688H146.785V159.385H145.261Z" fill="#ADADAD"/>
<path d="M138.519 170L135.177 160.823H136.77L139.436 168.511L142.103 160.823H143.696L140.354 170H138.519Z" fill="#ADADAD"/>
<path d="M130.499 170.208C129.633 170.208 128.883 170.011 128.248 169.619C127.625 169.226 127.14 168.672 126.794 167.957C126.459 167.229 126.292 166.381 126.292 165.411C126.292 164.442 126.459 163.599 126.794 162.883C127.14 162.167 127.619 161.613 128.231 161.221C128.854 160.817 129.587 160.615 130.43 160.615C131.227 160.615 131.931 160.805 132.543 161.186C133.154 161.556 133.628 162.098 133.962 162.814C134.309 163.53 134.482 164.401 134.482 165.429V165.861H127.815C127.873 166.843 128.133 167.581 128.595 168.078C129.068 168.574 129.703 168.822 130.499 168.822C131.1 168.822 131.59 168.684 131.971 168.407C132.364 168.118 132.635 167.743 132.785 167.281L134.343 167.403C134.101 168.222 133.639 168.897 132.958 169.428C132.289 169.948 131.469 170.208 130.499 170.208ZM127.815 164.58H132.889C132.82 163.691 132.56 163.039 132.11 162.623C131.671 162.208 131.111 162 130.43 162C129.726 162 129.143 162.219 128.681 162.658C128.231 163.085 127.942 163.726 127.815 164.58Z" fill="#ADADAD"/>
<path d="M121.047 170V160.823H122.328L122.398 163.143L122.259 163.091C122.374 162.306 122.623 161.735 123.004 161.377C123.396 161.007 123.916 160.823 124.562 160.823H125.462V162.208H124.579C124.118 162.208 123.731 162.295 123.419 162.468C123.119 162.629 122.888 162.878 122.727 163.212C122.576 163.536 122.501 163.951 122.501 164.459V170H121.047Z" fill="#ADADAD"/>
<path d="M110.918 172.597V160.823H112.269L112.303 162.797L112.095 162.693C112.326 162.012 112.707 161.498 113.238 161.152C113.781 160.794 114.404 160.615 115.108 160.615C116.02 160.615 116.765 160.84 117.342 161.29C117.931 161.74 118.364 162.329 118.641 163.056C118.929 163.784 119.074 164.569 119.074 165.411C119.074 166.254 118.929 167.039 118.641 167.766C118.364 168.493 117.931 169.082 117.342 169.532C116.765 169.983 116.02 170.208 115.108 170.208C114.635 170.208 114.191 170.127 113.775 169.965C113.371 169.804 113.025 169.579 112.736 169.29C112.459 169.001 112.269 168.661 112.165 168.268L112.372 168.026V172.597H110.918ZM114.97 168.822C115.766 168.822 116.396 168.522 116.857 167.922C117.319 167.322 117.55 166.485 117.55 165.411C117.55 164.338 117.319 163.501 116.857 162.9C116.396 162.3 115.766 162 114.97 162C114.439 162 113.977 162.127 113.585 162.381C113.204 162.635 112.904 163.016 112.684 163.524C112.476 164.032 112.372 164.661 112.372 165.411C112.372 166.162 112.476 166.791 112.684 167.299C112.892 167.807 113.192 168.188 113.585 168.441C113.977 168.695 114.439 168.822 114.97 168.822Z" fill="#ADADAD"/>
<path d="M102.43 171.905L107.538 157.013H108.923L103.815 171.905H102.43Z" fill="#ADADAD"/>
<path d="M95.9531 171.905L101.061 157.013H102.447L97.3384 171.905H95.9531Z" fill="#ADADAD"/>
<path d="M92.0513 170V168.043H94.008V170H92.0513ZM92.0513 163.195V161.238H94.008V163.195H92.0513Z" fill="#ADADAD"/>
<path d="M86.105 170.208C85.2854 170.208 84.5869 170.075 84.0098 169.809C83.4441 169.544 82.9997 169.18 82.6764 168.719C82.3648 168.245 82.1858 167.708 82.1396 167.108L83.6634 167.004C83.7558 167.558 83.9924 168.003 84.3734 168.338C84.7543 168.661 85.3315 168.822 86.105 168.822C86.7283 168.822 87.2247 168.724 87.5941 168.528C87.9751 168.32 88.1655 167.991 88.1655 167.541C88.1655 167.299 88.1078 167.097 87.9924 166.935C87.8769 166.773 87.6518 166.635 87.3171 166.519C86.9823 166.392 86.4859 166.271 85.8279 166.156C84.9506 165.994 84.2579 165.798 83.75 165.567C83.2536 165.325 82.8958 165.03 82.6764 164.684C82.4686 164.326 82.3648 163.905 82.3648 163.42C82.3648 162.6 82.6649 161.931 83.2652 161.411C83.8655 160.88 84.7197 160.615 85.8279 160.615C86.5783 160.615 87.2074 160.753 87.7153 161.03C88.2348 161.296 88.6388 161.654 88.9274 162.104C89.2276 162.543 89.4238 163.027 89.5162 163.558L87.9924 163.662C87.9231 163.339 87.7961 163.056 87.6114 162.814C87.4267 162.56 87.1843 162.364 86.8842 162.225C86.584 162.075 86.2262 162 85.8106 162C85.1526 162 84.6678 162.127 84.3561 162.381C84.0444 162.635 83.8885 162.958 83.8885 163.351C83.8885 163.651 83.9578 163.899 84.0963 164.095C84.2464 164.28 84.4831 164.436 84.8063 164.563C85.1295 164.678 85.5624 164.782 86.105 164.874C87.04 165.036 87.7673 165.232 88.2868 165.463C88.8062 165.694 89.1699 165.977 89.3776 166.312C89.5854 166.646 89.6893 167.056 89.6893 167.541C89.6893 168.107 89.5277 168.592 89.2045 168.996C88.8928 169.388 88.4657 169.688 87.9231 169.896C87.3921 170.104 86.7861 170.208 86.105 170.208Z" fill="#ADADAD"/>
<path d="M72.6338 172.597V160.823H73.9844L74.0191 162.797L73.8113 162.693C74.0421 162.012 74.4231 161.498 74.9541 161.152C75.4967 160.794 76.12 160.615 76.8242 160.615C77.7362 160.615 78.4808 160.84 79.0579 161.29C79.6467 161.74 80.0796 162.329 80.3566 163.056C80.6452 163.784 80.7895 164.569 80.7895 165.411C80.7895 166.254 80.6452 167.039 80.3566 167.766C80.0796 168.493 79.6467 169.082 79.0579 169.532C78.4808 169.983 77.7362 170.208 76.8242 170.208C76.3509 170.208 75.9065 170.127 75.4909 169.965C75.0869 169.804 74.7405 169.579 74.4519 169.29C74.1749 169.001 73.9844 168.661 73.8805 168.268L74.0883 168.026V172.597H72.6338ZM76.6857 168.822C77.4822 168.822 78.1114 168.522 78.5731 167.922C79.0349 167.322 79.2657 166.485 79.2657 165.411C79.2657 164.338 79.0349 163.501 78.5731 162.9C78.1114 162.3 77.4822 162 76.6857 162C76.1547 162 75.6929 162.127 75.3004 162.381C74.9195 162.635 74.6193 163.016 74.4 163.524C74.1922 164.032 74.0883 164.661 74.0883 165.411C74.0883 166.162 74.1922 166.791 74.4 167.299C74.6078 167.807 74.9079 168.188 75.3004 168.441C75.6929 168.695 76.1547 168.822 76.6857 168.822Z" fill="#ADADAD"/>
<path d="M63.902 170C63.0709 170 62.4533 169.81 62.0492 169.429C61.6567 169.048 61.4605 168.453 61.4605 167.645V158.676H62.915V167.611C62.915 168.026 63.0074 168.315 63.1921 168.477C63.3768 168.638 63.6596 168.719 64.0405 168.719H65.3565V170H63.902ZM60.1099 162.104V160.823H65.3565V162.104H60.1099ZM69.1141 170C68.2829 170 67.6653 169.81 67.2613 169.429C66.8688 169.048 66.6725 168.453 66.6725 167.645V158.676H68.1271V167.611C68.1271 168.026 68.2194 168.315 68.4041 168.477C68.5888 168.638 68.8717 168.719 69.2526 168.719H70.5686V170H69.1141ZM65.3219 162.104V160.823H70.5686V162.104H65.3219Z" fill="#ADADAD"/>
<path d="M51.1748 170V157.706H52.6293V162.849L52.4562 162.814C52.5716 162.306 52.7679 161.891 53.0449 161.567C53.322 161.244 53.6625 161.008 54.0665 160.858C54.4706 160.696 54.915 160.615 55.3999 160.615C56.0579 160.615 56.612 160.765 57.0622 161.065C57.5239 161.354 57.8702 161.764 58.1011 162.295C58.3435 162.814 58.4648 163.414 58.4648 164.096V170H57.0102V164.511C57.0102 163.622 56.8486 162.964 56.5254 162.537C56.2137 162.11 55.7346 161.896 55.0882 161.896C54.3494 161.896 53.7549 162.122 53.3046 162.572C52.8544 163.022 52.6293 163.674 52.6293 164.528V170H51.1748Z" fill="#ADADAD"/>
<path d="M294.05 212.052V210.096H296.007V212.052H294.05Z" fill="white"/>
<path d="M288.332 212.26C287.489 212.26 286.75 212.064 286.115 211.672C285.48 211.279 284.99 210.725 284.643 210.009C284.297 209.282 284.124 208.434 284.124 207.464C284.124 206.483 284.297 205.634 284.643 204.919C284.99 204.203 285.48 203.649 286.115 203.256C286.75 202.864 287.489 202.667 288.332 202.667C289.174 202.667 289.908 202.864 290.531 203.256C291.166 203.649 291.656 204.203 292.003 204.919C292.349 205.634 292.522 206.483 292.522 207.464C292.522 208.434 292.349 209.282 292.003 210.009C291.656 210.725 291.166 211.279 290.531 211.672C289.908 212.064 289.174 212.26 288.332 212.26ZM288.332 210.875C289.174 210.875 289.827 210.575 290.288 209.975C290.762 209.363 290.998 208.526 290.998 207.464C290.998 206.402 290.762 205.571 290.288 204.97C289.827 204.359 289.174 204.053 288.332 204.053C287.489 204.053 286.831 204.359 286.358 204.97C285.884 205.571 285.648 206.402 285.648 207.464C285.648 208.526 285.884 209.363 286.358 209.975C286.831 210.575 287.489 210.875 288.332 210.875Z" fill="white"/>
<path d="M278.116 214.858C277.458 214.858 276.863 214.748 276.332 214.529C275.801 214.309 275.357 213.998 274.999 213.594C274.641 213.19 274.398 212.722 274.271 212.191L275.795 212.087C275.934 212.514 276.176 212.849 276.523 213.092C276.88 213.346 277.411 213.473 278.116 213.473C278.947 213.473 279.582 213.305 280.02 212.97C280.471 212.636 280.696 212.133 280.696 211.464V209.975C280.476 210.46 280.124 210.846 279.639 211.135C279.155 211.423 278.612 211.568 278.012 211.568C277.238 211.568 276.546 211.377 275.934 210.996C275.333 210.615 274.86 210.09 274.514 209.421C274.179 208.751 274.012 207.983 274.012 207.118C274.012 206.24 274.179 205.473 274.514 204.815C274.849 204.145 275.31 203.62 275.899 203.239C276.499 202.858 277.181 202.667 277.942 202.667C278.589 202.667 279.166 202.818 279.674 203.118C280.193 203.418 280.557 203.822 280.765 204.33V202.875H282.15V211.429C282.15 212.145 281.989 212.757 281.665 213.265C281.342 213.784 280.88 214.177 280.28 214.442C279.68 214.719 278.958 214.858 278.116 214.858ZM278.081 210.183C278.866 210.183 279.495 209.911 279.968 209.369C280.442 208.815 280.684 208.064 280.696 207.118C280.707 206.483 280.603 205.94 280.384 205.49C280.176 205.028 279.87 204.676 279.466 204.434C279.074 204.18 278.612 204.053 278.081 204.053C277.273 204.053 276.644 204.33 276.194 204.884C275.755 205.426 275.536 206.171 275.536 207.118C275.536 208.064 275.761 208.815 276.211 209.369C276.673 209.911 277.296 210.183 278.081 210.183Z" fill="white"/>
<path d="M267.676 212.26C266.729 212.26 265.973 212.041 265.407 211.602C264.853 211.164 264.576 210.552 264.576 209.767C264.576 208.982 264.807 208.364 265.269 207.914C265.731 207.464 266.464 207.146 267.468 206.962L270.723 206.356C270.723 205.582 270.539 205.005 270.169 204.624C269.811 204.243 269.269 204.053 268.541 204.053C267.907 204.053 267.404 204.197 267.035 204.486C266.666 204.763 266.412 205.167 266.273 205.698L264.732 205.577C264.905 204.711 265.321 204.012 265.979 203.481C266.648 202.939 267.503 202.667 268.541 202.667C269.719 202.667 270.619 203.002 271.243 203.672C271.866 204.33 272.178 205.242 272.178 206.408V210.2C272.178 210.408 272.212 210.558 272.282 210.65C272.363 210.731 272.489 210.771 272.663 210.771H273.026V212.053C272.98 212.064 272.905 212.07 272.801 212.07C272.697 212.081 272.588 212.087 272.472 212.087C272.057 212.087 271.716 212.024 271.451 211.897C271.197 211.758 271.012 211.55 270.896 211.273C270.781 210.985 270.723 210.61 270.723 210.148L270.896 210.183C270.816 210.575 270.619 210.933 270.308 211.256C269.996 211.568 269.609 211.816 269.148 212.001C268.686 212.174 268.195 212.26 267.676 212.26ZM267.814 210.979C268.426 210.979 268.946 210.864 269.373 210.633C269.811 210.39 270.146 210.067 270.377 209.663C270.608 209.247 270.723 208.786 270.723 208.278V207.62L267.745 208.174C267.122 208.289 266.689 208.468 266.446 208.711C266.215 208.942 266.1 209.247 266.1 209.628C266.1 210.056 266.25 210.39 266.55 210.633C266.862 210.864 267.283 210.979 267.814 210.979Z" fill="white"/>
<path d="M253.827 212.26C253.031 212.26 252.338 212.064 251.75 211.672C251.172 211.279 250.728 210.725 250.416 210.009C250.105 209.294 249.949 208.445 249.949 207.464C249.949 206.483 250.105 205.634 250.416 204.918C250.728 204.203 251.172 203.649 251.75 203.256C252.338 202.864 253.031 202.667 253.827 202.667C254.439 202.667 254.999 202.8 255.507 203.066C256.015 203.32 256.396 203.683 256.65 204.157V199.758H258.104V212.053H256.788L256.737 210.667C256.483 211.164 256.096 211.556 255.576 211.845C255.057 212.122 254.474 212.26 253.827 212.26ZM254.122 210.875C254.664 210.875 255.12 210.737 255.49 210.459C255.871 210.182 256.159 209.79 256.356 209.282C256.552 208.763 256.65 208.156 256.65 207.464C256.65 206.748 256.552 206.136 256.356 205.628C256.159 205.12 255.871 204.734 255.49 204.468C255.12 204.191 254.664 204.053 254.122 204.053C253.314 204.053 252.667 204.359 252.182 204.97C251.709 205.571 251.473 206.402 251.473 207.464C251.473 208.514 251.709 209.345 252.182 209.957C252.667 210.569 253.314 210.875 254.122 210.875Z" fill="white"/>
<path d="M240.714 212.053V202.875H242.047L242.099 205.213L241.926 205.057C242.041 204.514 242.243 204.07 242.532 203.724C242.821 203.366 243.167 203.1 243.571 202.927C243.987 202.754 244.431 202.667 244.904 202.667C245.608 202.667 246.186 202.823 246.636 203.135C247.098 203.447 247.438 203.868 247.657 204.399C247.888 204.919 248.004 205.501 248.004 206.148V212.053H246.549V206.564C246.549 205.998 246.48 205.525 246.342 205.144C246.215 204.751 246.007 204.457 245.718 204.261C245.43 204.053 245.054 203.949 244.593 203.949C243.888 203.949 243.305 204.174 242.844 204.624C242.393 205.063 242.168 205.709 242.168 206.564V212.053H240.714Z" fill="white"/>
<path d="M234.541 212.26C233.699 212.26 232.96 212.064 232.325 211.672C231.69 211.279 231.199 210.725 230.853 210.009C230.507 209.282 230.333 208.434 230.333 207.464C230.333 206.483 230.507 205.634 230.853 204.919C231.199 204.203 231.69 203.649 232.325 203.256C232.96 202.864 233.699 202.667 234.541 202.667C235.384 202.667 236.117 202.864 236.74 203.256C237.375 203.649 237.866 204.203 238.212 204.919C238.559 205.634 238.732 206.483 238.732 207.464C238.732 208.434 238.559 209.282 238.212 210.009C237.866 210.725 237.375 211.279 236.74 211.672C236.117 212.064 235.384 212.26 234.541 212.26ZM234.541 210.875C235.384 210.875 236.036 210.575 236.498 209.975C236.971 209.363 237.208 208.526 237.208 207.464C237.208 206.402 236.971 205.571 236.498 204.97C236.036 204.359 235.384 204.053 234.541 204.053C233.699 204.053 233.041 204.359 232.567 204.97C232.094 205.571 231.857 206.402 231.857 207.464C231.857 208.526 232.094 209.363 232.567 209.975C233.041 210.575 233.699 210.875 234.541 210.875Z" fill="white"/>
<path d="M225.258 212.26C224.403 212.26 223.659 212.064 223.024 211.672C222.4 211.279 221.916 210.725 221.569 210.009C221.223 209.282 221.05 208.434 221.05 207.464C221.05 206.494 221.223 205.652 221.569 204.936C221.916 204.22 222.4 203.666 223.024 203.274C223.659 202.869 224.403 202.667 225.258 202.667C225.962 202.667 226.585 202.794 227.128 203.048C227.682 203.291 228.132 203.649 228.478 204.122C228.825 204.595 229.05 205.172 229.154 205.854L227.63 205.957C227.526 205.346 227.26 204.878 226.833 204.555C226.406 204.22 225.881 204.053 225.258 204.053C224.415 204.053 223.757 204.359 223.284 204.97C222.81 205.571 222.574 206.402 222.574 207.464C222.574 208.526 222.81 209.363 223.284 209.975C223.757 210.575 224.415 210.875 225.258 210.875C225.881 210.875 226.406 210.702 226.833 210.356C227.26 210.009 227.526 209.49 227.63 208.797L229.154 208.901C229.05 209.582 228.825 210.177 228.478 210.685C228.132 211.181 227.682 211.568 227.128 211.845C226.585 212.122 225.962 212.26 225.258 212.26Z" fill="white"/>
<path d="M215.72 212.26C214.855 212.26 214.104 212.064 213.469 211.672C212.846 211.279 212.361 210.725 212.015 210.009C211.68 209.282 211.513 208.434 211.513 207.464C211.513 206.494 211.68 205.652 212.015 204.936C212.361 204.22 212.84 203.666 213.452 203.274C214.075 202.869 214.808 202.667 215.651 202.667C216.448 202.667 217.152 202.858 217.764 203.239C218.376 203.608 218.849 204.151 219.184 204.867C219.53 205.582 219.703 206.454 219.703 207.481V207.914H213.036C213.094 208.895 213.354 209.634 213.816 210.131C214.289 210.627 214.924 210.875 215.72 210.875C216.321 210.875 216.811 210.737 217.192 210.46C217.585 210.171 217.856 209.796 218.006 209.334L219.565 209.455C219.322 210.275 218.86 210.95 218.179 211.481C217.51 212.001 216.69 212.26 215.72 212.26ZM213.036 206.633H218.11C218.041 205.744 217.781 205.092 217.331 204.676C216.892 204.261 216.332 204.053 215.651 204.053C214.947 204.053 214.364 204.272 213.902 204.711C213.452 205.138 213.163 205.779 213.036 206.633Z" fill="white"/>
<path d="M206.566 212.26C205.747 212.26 205.048 212.128 204.471 211.862C203.906 211.597 203.461 211.233 203.138 210.771C202.826 210.298 202.647 209.761 202.601 209.161L204.125 209.057C204.217 209.611 204.454 210.056 204.835 210.39C205.216 210.714 205.793 210.875 206.566 210.875C207.19 210.875 207.686 210.777 208.056 210.581C208.436 210.373 208.627 210.044 208.627 209.594C208.627 209.351 208.569 209.149 208.454 208.988C208.338 208.826 208.113 208.688 207.779 208.572C207.444 208.445 206.947 208.324 206.289 208.209C205.412 208.047 204.719 207.851 204.211 207.62C203.715 207.377 203.357 207.083 203.138 206.737C202.93 206.379 202.826 205.957 202.826 205.473C202.826 204.653 203.126 203.983 203.727 203.464C204.327 202.933 205.181 202.667 206.289 202.667C207.04 202.667 207.669 202.806 208.177 203.083C208.696 203.349 209.1 203.706 209.389 204.157C209.689 204.595 209.885 205.08 209.978 205.611L208.454 205.715C208.385 205.392 208.258 205.109 208.073 204.867C207.888 204.613 207.646 204.416 207.346 204.278C207.045 204.128 206.688 204.053 206.272 204.053C205.614 204.053 205.129 204.18 204.817 204.434C204.506 204.688 204.35 205.011 204.35 205.403C204.35 205.704 204.419 205.952 204.558 206.148C204.708 206.333 204.944 206.488 205.268 206.615C205.591 206.731 206.024 206.835 206.566 206.927C207.501 207.089 208.229 207.285 208.748 207.516C209.268 207.747 209.631 208.03 209.839 208.364C210.047 208.699 210.151 209.109 210.151 209.594C210.151 210.159 209.989 210.644 209.666 211.048C209.354 211.441 208.927 211.741 208.385 211.949C207.854 212.157 207.247 212.26 206.566 212.26Z" fill="white"/>
<path d="M191.834 212.26C190.888 212.26 190.132 212.041 189.566 211.602C189.012 211.164 188.735 210.552 188.735 209.767C188.735 208.982 188.966 208.364 189.428 207.914C189.889 207.464 190.622 207.146 191.627 206.962L194.882 206.356C194.882 205.582 194.697 205.005 194.328 204.624C193.97 204.243 193.427 204.053 192.7 204.053C192.065 204.053 191.563 204.197 191.194 204.486C190.824 204.763 190.57 205.167 190.432 205.698L188.891 205.577C189.064 204.711 189.479 204.012 190.137 203.481C190.807 202.939 191.661 202.667 192.7 202.667C193.878 202.667 194.778 203.002 195.401 203.672C196.025 204.33 196.336 205.242 196.336 206.408V210.2C196.336 210.408 196.371 210.558 196.44 210.65C196.521 210.731 196.648 210.771 196.821 210.771H197.185V212.053C197.139 212.064 197.064 212.07 196.96 212.07C196.856 212.081 196.746 212.087 196.631 212.087C196.215 212.087 195.875 212.024 195.609 211.897C195.355 211.758 195.171 211.55 195.055 211.273C194.94 210.985 194.882 210.61 194.882 210.148L195.055 210.183C194.974 210.575 194.778 210.933 194.466 211.256C194.155 211.568 193.768 211.816 193.306 212.001C192.844 212.174 192.354 212.26 191.834 212.26ZM191.973 210.979C192.585 210.979 193.104 210.864 193.531 210.633C193.97 210.39 194.305 210.067 194.536 209.663C194.767 209.247 194.882 208.786 194.882 208.278V207.62L191.904 208.174C191.28 208.289 190.847 208.468 190.605 208.711C190.374 208.942 190.259 209.247 190.259 209.628C190.259 210.056 190.409 210.39 190.709 210.633C191.021 210.864 191.442 210.979 191.973 210.979Z" fill="white"/>
<path d="M181.608 212.053C180.776 212.053 180.159 211.862 179.755 211.481C179.362 211.1 179.166 210.506 179.166 209.698V200.728H180.621V209.663C180.621 210.079 180.713 210.367 180.898 210.529C181.082 210.69 181.365 210.771 181.746 210.771H183.062V212.053H181.608ZM177.815 204.157V202.875H183.062V204.157H177.815Z" fill="white"/>
<path d="M171.792 212.261C170.88 212.261 170.147 211.955 169.593 211.343C169.05 210.72 168.779 209.865 168.779 208.78V202.875H170.233V208.382C170.233 209.271 170.389 209.929 170.701 210.356C171.024 210.771 171.515 210.979 172.173 210.979C172.9 210.979 173.471 210.748 173.887 210.287C174.303 209.813 174.51 209.167 174.51 208.347V202.875H175.965V212.053H174.58V209.784L174.805 209.906C174.62 210.656 174.268 211.239 173.748 211.655C173.229 212.059 172.577 212.261 171.792 212.261Z" fill="white"/>
<path d="M162.606 212.26C161.763 212.26 161.025 212.064 160.39 211.672C159.755 211.279 159.264 210.725 158.918 210.009C158.572 209.282 158.398 208.434 158.398 207.464C158.398 206.483 158.572 205.634 158.918 204.919C159.264 204.203 159.755 203.649 160.39 203.256C161.025 202.864 161.763 202.667 162.606 202.667C163.449 202.667 164.182 202.864 164.805 203.256C165.44 203.649 165.931 204.203 166.277 204.919C166.623 205.634 166.797 206.483 166.797 207.464C166.797 208.434 166.623 209.282 166.277 210.009C165.931 210.725 165.44 211.279 164.805 211.672C164.182 212.064 163.449 212.26 162.606 212.26ZM162.606 210.875C163.449 210.875 164.101 210.575 164.563 209.975C165.036 209.363 165.273 208.526 165.273 207.464C165.273 206.402 165.036 205.571 164.563 204.97C164.101 204.359 163.449 204.053 162.606 204.053C161.763 204.053 161.105 204.359 160.632 204.97C160.159 205.571 159.922 206.402 159.922 207.464C159.922 208.526 160.159 209.363 160.632 209.975C161.105 210.575 161.763 210.875 162.606 210.875Z" fill="white"/>
<path d="M153.1 212.26C152.465 212.26 151.9 212.122 151.403 211.845C150.907 211.556 150.526 211.164 150.261 210.667L150.209 212.053H148.893V199.758H150.347V204.157C150.578 203.776 150.936 203.435 151.421 203.135C151.906 202.823 152.465 202.667 153.1 202.667C153.908 202.667 154.607 202.864 155.196 203.256C155.784 203.649 156.24 204.203 156.563 204.918C156.887 205.634 157.048 206.483 157.048 207.464C157.048 208.445 156.887 209.294 156.563 210.009C156.24 210.725 155.784 211.279 155.196 211.672C154.607 212.064 153.908 212.26 153.1 212.26ZM153.014 210.875C153.787 210.875 154.399 210.569 154.849 209.957C155.299 209.345 155.525 208.514 155.525 207.464C155.525 206.402 155.299 205.571 154.849 204.97C154.399 204.359 153.799 204.053 153.048 204.053C152.483 204.053 151.998 204.191 151.594 204.468C151.19 204.734 150.878 205.12 150.659 205.628C150.451 206.136 150.347 206.748 150.347 207.464C150.347 208.156 150.451 208.763 150.659 209.282C150.878 209.79 151.184 210.182 151.577 210.459C151.981 210.737 152.46 210.875 153.014 210.875Z" fill="white"/>
<path d="M141.967 212.26C141.021 212.26 140.264 212.041 139.699 211.602C139.145 211.164 138.868 210.552 138.868 209.767C138.868 208.982 139.099 208.364 139.56 207.914C140.022 207.464 140.755 207.146 141.759 206.962L145.015 206.356C145.015 205.582 144.83 205.005 144.461 204.624C144.103 204.243 143.56 204.053 142.833 204.053C142.198 204.053 141.696 204.197 141.327 204.486C140.957 204.763 140.703 205.167 140.565 205.698L139.024 205.577C139.197 204.711 139.612 204.012 140.27 203.481C140.94 202.939 141.794 202.667 142.833 202.667C144.01 202.667 144.911 203.002 145.534 203.672C146.158 204.33 146.469 205.242 146.469 206.408V210.2C146.469 210.408 146.504 210.558 146.573 210.65C146.654 210.731 146.781 210.771 146.954 210.771H147.318V212.053C147.272 212.064 147.197 212.07 147.093 212.07C146.989 212.081 146.879 212.087 146.764 212.087C146.348 212.087 146.008 212.024 145.742 211.897C145.488 211.758 145.303 211.55 145.188 211.273C145.073 210.985 145.015 210.61 145.015 210.148L145.188 210.183C145.107 210.575 144.911 210.933 144.599 211.256C144.288 211.568 143.901 211.816 143.439 212.001C142.977 212.174 142.487 212.26 141.967 212.26ZM142.106 210.979C142.718 210.979 143.237 210.864 143.664 210.633C144.103 210.39 144.438 210.067 144.668 209.663C144.899 209.247 145.015 208.786 145.015 208.278V207.62L142.036 208.174C141.413 208.289 140.98 208.468 140.738 208.711C140.507 208.942 140.391 209.247 140.391 209.628C140.391 210.056 140.542 210.39 140.842 210.633C141.153 210.864 141.575 210.979 142.106 210.979Z" fill="white"/>
<path d="M128.119 212.26C127.322 212.26 126.63 212.064 126.041 211.672C125.464 211.279 125.019 210.725 124.708 210.009C124.396 209.294 124.24 208.445 124.24 207.464C124.24 206.483 124.396 205.634 124.708 204.918C125.019 204.203 125.464 203.649 126.041 203.256C126.63 202.864 127.322 202.667 128.119 202.667C128.731 202.667 129.291 202.8 129.799 203.066C130.307 203.32 130.687 203.683 130.941 204.157V199.758H132.396V212.053H131.08L131.028 210.667C130.774 211.164 130.387 211.556 129.868 211.845C129.348 212.122 128.765 212.26 128.119 212.26ZM128.413 210.875C128.956 210.875 129.412 210.737 129.781 210.459C130.162 210.182 130.451 209.79 130.647 209.282C130.843 208.763 130.941 208.156 130.941 207.464C130.941 206.748 130.843 206.136 130.647 205.628C130.451 205.12 130.162 204.734 129.781 204.468C129.412 204.191 128.956 204.053 128.413 204.053C127.605 204.053 126.959 204.359 126.474 204.97C126.001 205.571 125.764 206.402 125.764 207.464C125.764 208.514 126.001 209.345 126.474 209.957C126.959 210.569 127.605 210.875 128.413 210.875Z" fill="#059669"/>
<path d="M118.911 212.26C118.045 212.26 117.295 212.064 116.66 211.672C116.036 211.279 115.552 210.725 115.205 210.009C114.871 209.282 114.703 208.434 114.703 207.464C114.703 206.494 114.871 205.652 115.205 204.936C115.552 204.22 116.031 203.666 116.642 203.274C117.266 202.869 117.999 202.667 118.842 202.667C119.638 202.667 120.342 202.858 120.954 203.239C121.566 203.608 122.039 204.151 122.374 204.867C122.72 205.582 122.893 206.454 122.893 207.481V207.914H116.227C116.285 208.895 116.544 209.634 117.006 210.131C117.479 210.627 118.114 210.875 118.911 210.875C119.511 210.875 120.002 210.737 120.383 210.46C120.775 210.171 121.046 209.796 121.197 209.334L122.755 209.455C122.513 210.275 122.051 210.95 121.37 211.481C120.7 212.001 119.881 212.26 118.911 212.26ZM116.227 206.633H121.3C121.231 205.744 120.971 205.092 120.521 204.676C120.083 204.261 119.523 204.053 118.842 204.053C118.137 204.053 117.554 204.272 117.093 204.711C116.642 205.138 116.354 205.779 116.227 206.633Z" fill="#059669"/>
<path d="M105.468 212.053V199.758H106.922V204.901L106.749 204.866C106.865 204.359 107.061 203.943 107.338 203.62C107.615 203.296 107.955 203.06 108.36 202.91C108.764 202.748 109.208 202.667 109.693 202.667C110.351 202.667 110.905 202.817 111.355 203.118C111.817 203.406 112.163 203.816 112.394 204.347C112.637 204.866 112.758 205.467 112.758 206.148V212.053H111.303V206.563C111.303 205.675 111.142 205.017 110.818 204.589C110.507 204.162 110.028 203.949 109.381 203.949C108.642 203.949 108.048 204.174 107.598 204.624C107.147 205.074 106.922 205.726 106.922 206.581V212.053H105.468Z" fill="#059669"/>
<path d="M99.8984 212.26C99.0788 212.26 98.3804 212.128 97.8032 211.862C97.2376 211.597 96.7931 211.233 96.4699 210.771C96.1582 210.298 95.9793 209.761 95.9331 209.161L97.4569 209.057C97.5492 209.611 97.7859 210.056 98.1668 210.39C98.5478 210.714 99.125 210.875 99.8984 210.875C100.522 210.875 101.018 210.777 101.388 210.581C101.769 210.373 101.959 210.044 101.959 209.594C101.959 209.351 101.901 209.149 101.786 208.988C101.67 208.826 101.445 208.688 101.111 208.572C100.776 208.445 100.279 208.324 99.6214 208.209C98.744 208.047 98.0514 207.851 97.5435 207.62C97.0471 207.377 96.6892 207.083 96.4699 206.737C96.2621 206.379 96.1582 205.957 96.1582 205.473C96.1582 204.653 96.4584 203.983 97.0586 203.464C97.6589 202.933 98.5132 202.667 99.6214 202.667C100.372 202.667 101.001 202.806 101.509 203.083C102.028 203.349 102.432 203.706 102.721 204.157C103.021 204.595 103.217 205.08 103.31 205.611L101.786 205.715C101.717 205.392 101.59 205.109 101.405 204.867C101.22 204.613 100.978 204.416 100.678 204.278C100.377 204.128 100.02 204.053 99.6041 204.053C98.9461 204.053 98.4612 204.18 98.1495 204.434C97.8378 204.688 97.682 205.011 97.682 205.403C97.682 205.704 97.7513 205.952 97.8898 206.148C98.0399 206.333 98.2765 206.488 98.5997 206.615C98.923 206.731 99.3559 206.835 99.8984 206.927C100.833 207.089 101.561 207.285 102.08 207.516C102.6 207.747 102.963 208.03 103.171 208.364C103.379 208.699 103.483 209.109 103.483 209.594C103.483 210.159 103.321 210.644 102.998 211.048C102.686 211.441 102.259 211.741 101.717 211.949C101.186 212.157 100.58 212.26 99.8984 212.26Z" fill="#059669"/>
<path d="M92.4975 212.053V202.875H93.952V212.053H92.4975ZM92.4629 201.438V199.741H93.9867V201.438H92.4629Z" fill="#059669"/>
<path d="M89.8174 212.053C89.2864 212.053 88.8535 211.914 88.5188 211.637C88.184 211.36 88.0166 210.921 88.0166 210.321V199.758H89.4711V210.2C89.4711 210.384 89.5173 210.529 89.6097 210.633C89.7135 210.725 89.8578 210.771 90.0425 210.771H90.8391V212.053H89.8174Z" fill="#059669"/>
<path d="M82.011 212.26C81.376 212.26 80.8104 212.122 80.314 211.845C79.8176 211.556 79.4367 211.164 79.1712 210.667L79.1192 212.053H77.8032V199.758H79.2577V204.157C79.4886 203.776 79.8465 203.435 80.3313 203.135C80.8162 202.823 81.376 202.667 82.011 202.667C82.819 202.667 83.5174 202.864 84.1062 203.256C84.6949 203.649 85.1509 204.203 85.4741 204.918C85.7973 205.634 85.959 206.483 85.959 207.464C85.959 208.445 85.7973 209.294 85.4741 210.009C85.1509 210.725 84.6949 211.279 84.1062 211.672C83.5174 212.064 82.819 212.26 82.011 212.26ZM81.9244 210.875C82.6978 210.875 83.3096 210.569 83.7599 209.957C84.2101 209.345 84.4352 208.514 84.4352 207.464C84.4352 206.402 84.2101 205.571 83.7599 204.97C83.3096 204.359 82.7094 204.053 81.959 204.053C81.3934 204.053 80.9085 204.191 80.5045 204.468C80.1005 204.734 79.7888 205.12 79.5694 205.628C79.3616 206.136 79.2577 206.748 79.2577 207.464C79.2577 208.156 79.3616 208.763 79.5694 209.282C79.7888 209.79 80.0947 210.182 80.4872 210.459C80.8912 210.737 81.3703 210.875 81.9244 210.875Z" fill="#059669"/>
<path d="M71.1096 212.261C70.1977 212.261 69.4646 211.955 68.9105 211.343C68.368 210.72 68.0967 209.865 68.0967 208.78V202.875H69.5512V208.382C69.5512 209.271 69.707 209.929 70.0187 210.356C70.342 210.771 70.8326 210.979 71.4906 210.979C72.2178 210.979 72.7893 210.748 73.2048 210.287C73.6204 209.813 73.8282 209.167 73.8282 208.347V202.875H75.2827V212.053H73.8975V209.784L74.1226 209.906C73.9379 210.656 73.5858 211.239 73.0663 211.655C72.5468 212.059 71.8946 212.261 71.1096 212.261Z" fill="#059669"/>
<path d="M57.5669 212.053V199.758H61.9824C63.3561 199.758 64.4239 200.087 65.1858 200.745C65.9477 201.403 66.3287 202.315 66.3287 203.481C66.3287 204.266 66.1555 204.947 65.8092 205.524C65.4629 206.09 64.9665 206.523 64.3201 206.823C63.6736 207.123 62.8944 207.273 61.9824 207.273H59.0561V212.053H57.5669ZM59.0561 205.819H61.9824C62.9059 205.819 63.5986 205.623 64.0603 205.23C64.5336 204.838 64.7703 204.255 64.7703 203.481C64.7703 202.731 64.5336 202.165 64.0603 201.784C63.5986 201.403 62.9059 201.213 61.9824 201.213H59.0561V205.819Z" fill="#059669"/>
<path d="M466.605 68.5789L465.369 68.5789L465.369 30.2368L466.605 30.2368L466.605 68.5789Z" fill="#181614"/>
<path d="M450.526 183.605L449.29 183.605L449.29 145.263L450.526 145.263L450.526 183.605Z" fill="#181614"/>
<path d="M128.948 48.7897C128.948 52.8882 125.625 56.2108 121.527 56.2108C117.428 56.2108 114.105 52.8882 114.105 48.7897C114.105 44.6912 117.428 41.3687 121.527 41.3687C125.625 41.3687 128.948 44.6912 128.948 48.7897Z" fill="#059669"/>
<path d="M32.4739 45.0792C32.4739 44.3961 31.9201 43.8423 31.237 43.8423C30.5539 43.8423 30.0002 44.3961 30.0002 45.0792C30.0002 45.7622 30.5539 46.316 31.237 46.316C31.9201 46.316 32.4739 45.7622 32.4739 45.0792ZM22.5791 52.5002C22.5791 53.1833 23.1329 53.737 23.816 53.737C24.4991 53.737 25.0528 53.1833 25.0528 52.5002C25.0528 51.8171 24.4991 51.2634 23.816 51.2634C23.1329 51.2634 22.5791 51.8171 22.5791 52.5002ZM33.7107 45.0792C33.7107 46.2406 32.9094 47.212 31.8301 47.4779C31.703 48.9188 31.0746 50.2759 30.0437 51.3068C29.0127 52.3378 27.6556 52.9662 26.2148 53.0933C25.9488 54.1726 24.9774 54.9739 23.816 54.9739C22.4498 54.9739 21.3423 53.8664 21.3423 52.5002C21.3423 51.3478 22.131 50.3823 23.1975 50.1074V43.2239C23.1975 42.8823 23.4744 42.6055 23.816 42.6055C24.1575 42.6055 24.4344 42.8823 24.4344 43.2239V50.1074C25.2929 50.3287 25.9684 50.9974 26.2003 51.8516C27.3178 51.7314 28.367 51.2346 29.1692 50.4324C29.9714 49.6301 30.4682 48.581 30.5884 47.4635C29.5373 47.1782 28.7633 46.2206 28.7633 45.0792C28.7633 43.713 29.8708 42.6055 31.237 42.6055C32.6032 42.6055 33.7107 43.713 33.7107 45.0792Z" fill="#ADADAD"/>
<g clip-path="url(#clip0_922_1809)">
<path d="M65.8578 48.7898C65.8578 48.4581 65.9379 48.1311 66.0909 47.8368C66.2431 47.5443 66.463 47.2926 66.7323 47.1024C66.8995 46.9826 67.0162 46.8047 67.0596 46.6036C67.1031 46.4024 67.0696 46.1923 66.9666 46.0142C66.8637 45.8361 66.6986 45.7026 66.5028 45.6397C66.3071 45.5769 66.0946 45.5887 65.9073 45.6735L65.9061 45.6723C65.6068 45.8107 65.279 45.8776 64.9495 45.8632C64.6181 45.8486 64.2947 45.7536 64.0074 45.5878C63.7202 45.422 63.4767 45.1897 63.2984 44.9102C63.1206 44.6315 63.0129 44.3141 62.9831 43.985L62.9541 43.834C62.912 43.6878 62.8301 43.5549 62.7162 43.4511C62.5637 43.3124 62.3643 43.2349 62.1582 43.2349C61.952 43.2349 61.7527 43.3124 61.6001 43.4511C61.4479 43.5898 61.3527 43.78 61.3332 43.985C61.3321 43.9968 61.3277 44.0084 61.326 44.02C61.2919 44.3365 61.1869 44.6415 61.0155 44.9102C60.8371 45.1898 60.5938 45.422 60.3065 45.5878C60.0192 45.7536 59.6958 45.8487 59.3644 45.8632C59.0353 45.8775 58.708 45.8116 58.409 45.6735V45.6748C58.2216 45.59 58.0093 45.578 57.8135 45.6409C57.6178 45.7039 57.4525 45.8373 57.3497 46.0154C57.247 46.1933 57.2135 46.4028 57.2567 46.6036C57.3 46.8046 57.417 46.9825 57.584 47.1024H57.5828C57.8523 47.2926 58.0732 47.5442 58.2254 47.8368C58.3783 48.131 58.4573 48.4582 58.4573 48.7898C58.4573 49.1214 58.3784 49.4486 58.2254 49.7428C58.0733 50.0353 57.8521 50.2859 57.5828 50.476C57.4155 50.5958 57.2989 50.7749 57.2555 50.976C57.2122 51.177 57.2456 51.3874 57.3485 51.5655C57.4514 51.7435 57.6176 51.8771 57.8135 51.9399C58.0093 52.0025 58.2218 51.9899 58.409 51.9049C58.7082 51.7665 59.0362 51.7021 59.3656 51.7164C59.6972 51.7308 60.0203 51.8248 60.3077 51.9906C60.5953 52.1565 60.8382 52.3896 61.0167 52.6694C61.1944 52.9479 61.3022 53.2646 61.332 53.5934C61.3515 53.7986 61.4477 53.9898 61.6001 54.1285C61.7527 54.2673 61.952 54.3447 62.1582 54.3447C62.3643 54.3447 62.5637 54.2672 62.7162 54.1285C62.8304 54.0245 62.912 53.891 62.9541 53.7444L62.9831 53.5934C63.0129 53.2647 63.1209 52.9478 63.2984 52.6694C63.4768 52.3898 63.7201 52.1564 64.0074 51.9906C64.2947 51.8249 64.6182 51.731 64.9495 51.7164C65.2787 51.702 65.607 51.7667 65.9061 51.9049C66.0935 51.9899 66.3069 52.0027 66.5028 51.9399C66.6985 51.8771 66.8637 51.7434 66.9666 51.5655C67.0695 51.3874 67.103 51.1771 67.0596 50.976C67.0162 50.775 66.8994 50.597 66.7323 50.4772V50.476C66.4632 50.2859 66.243 50.0351 66.0909 49.7428C65.9379 49.4486 65.8579 49.1214 65.8578 48.7898ZM63.395 48.7898C63.395 48.1069 62.841 47.5532 62.1582 47.553C61.4751 47.553 60.9214 48.1068 60.9213 48.7898C60.9213 49.4729 61.4751 50.0267 62.1582 50.0267C62.8411 50.0264 63.395 49.4728 63.395 48.7898ZM64.6318 48.7898C64.6318 50.1558 63.5242 51.2633 62.1582 51.2635C60.792 51.2635 59.6845 50.156 59.6845 48.7898C59.6845 47.4237 60.792 46.3161 62.1582 46.3161C63.5241 46.3163 64.6318 47.4238 64.6318 48.7898ZM67.0947 48.7898C67.0947 48.9226 67.1265 49.0536 67.1877 49.1715C67.2338 49.2601 67.2961 49.3394 67.3701 49.4058L67.4474 49.4674L67.4522 49.471C67.8692 49.7697 68.1604 50.2138 68.2687 50.7151C68.3768 51.2163 68.2945 51.7399 68.038 52.1839C67.7814 52.628 67.3681 52.9609 66.8797 53.1175C66.3914 53.274 65.8621 53.2438 65.3952 53.0318L65.3904 53.0294C65.2697 52.9732 65.1369 52.9463 65.0039 52.9521C64.8709 52.9579 64.7411 52.9955 64.6258 53.062C64.5107 53.1284 64.4135 53.2218 64.342 53.3338C64.2704 53.446 64.2269 53.5744 64.2151 53.707L64.2139 53.7106C64.1653 54.2223 63.9274 54.6983 63.5472 55.0441C63.167 55.3896 62.6719 55.5815 62.1582 55.5816C61.6442 55.5816 61.1482 55.3899 60.7679 55.0441C60.3877 54.6983 60.151 54.2223 60.1024 53.7106L60.1012 53.707C60.0895 53.5743 60.046 53.446 59.9744 53.3338C59.9029 53.2218 59.8056 53.1284 59.6905 53.062C59.5753 52.9955 59.4453 52.9579 59.3125 52.9521C59.1796 52.9463 59.0465 52.972 58.9259 53.0282L58.9199 53.0318C58.453 53.2437 57.9238 53.2741 57.4355 53.1175C56.947 52.9609 56.5337 52.628 56.2771 52.1839C56.0207 51.7399 55.9395 51.2163 56.0476 50.7151C56.1559 50.2138 56.446 49.7697 56.8629 49.471L56.8678 49.4674C56.9767 49.391 57.0661 49.2896 57.1275 49.1715C57.1887 49.0536 57.2204 48.9227 57.2205 48.7898C57.2205 48.6567 57.1888 48.525 57.1275 48.4069C57.0661 48.289 56.9766 48.1874 56.8678 48.111L56.8629 48.1074C56.4465 47.8085 56.1556 47.3655 56.0476 46.8645C55.9397 46.3637 56.0222 45.8407 56.2783 45.3969C56.5346 44.9531 56.9475 44.6202 57.4355 44.4633C57.8624 44.3261 58.3205 44.3314 58.7411 44.4766L58.9187 44.5478L58.9247 44.5502C59.0454 44.6065 59.1783 44.6334 59.3113 44.6275C59.4441 44.6217 59.5741 44.5829 59.6893 44.5164C59.8044 44.4499 59.9017 44.3567 59.9732 44.2447C60.0447 44.1326 60.0882 44.0051 60.1 43.8726C60.1011 43.8597 60.1053 43.8467 60.1072 43.834C60.163 43.3355 60.3964 42.8736 60.7679 42.5355C61.1482 42.1897 61.6442 41.998 62.1582 41.998C62.672 41.9981 63.167 42.1899 63.5472 42.5355C63.9274 42.8813 64.1652 43.3563 64.2139 43.8678L64.2151 43.8726C64.2269 44.0051 64.2705 44.1326 64.342 44.2447C64.4135 44.3567 64.5107 44.4499 64.6258 44.5164C64.7411 44.5829 64.8709 44.6217 65.0039 44.6275C65.1369 44.6334 65.2697 44.6065 65.3904 44.5502L65.3952 44.5478C65.8621 44.3358 66.3914 44.3056 66.8797 44.4621C67.3681 44.6187 67.7814 44.9516 68.038 45.3957C68.2944 45.8398 68.3769 46.3633 68.2687 46.8645C68.1604 47.3658 67.8691 47.8087 67.4522 48.1074L67.4474 48.111C67.3385 48.1874 67.2491 48.2889 67.1877 48.4069C67.1263 48.525 67.0947 48.6567 67.0947 48.7898Z" fill="#ADADAD"/>
</g>
<path d="M508.658 127.947L508.658 129.184L20.1055 129.184L20.1055 127.947L508.658 127.947Z" fill="#181614"/>
<path d="M21.3423 93.316C21.3423 90.5837 23.5573 88.3687 26.2897 88.3687H503.711C506.443 88.3687 508.658 90.5837 508.658 93.316V127.948H21.3423V93.316Z" fill="#111010"/>
<path d="M152.029 113.106L149.595 105.239H150.961L152.801 111.799L154.671 105.239H156.007L157.877 111.799L159.732 105.239H161.098L158.664 113.106H157.09L155.339 107.124L153.588 113.106H152.029Z" fill="#ADADAD"/>
<path d="M145.585 113.284C144.843 113.284 144.2 113.115 143.656 112.779C143.121 112.443 142.706 111.968 142.409 111.354C142.122 110.731 141.979 110.003 141.979 109.172C141.979 108.341 142.122 107.619 142.409 107.005C142.706 106.392 143.116 105.917 143.641 105.581C144.175 105.234 144.803 105.061 145.526 105.061C146.209 105.061 146.812 105.224 147.337 105.551C147.861 105.867 148.267 106.333 148.554 106.946C148.85 107.559 148.999 108.307 148.999 109.187V109.558H143.285C143.334 110.399 143.557 111.033 143.953 111.458C144.358 111.883 144.902 112.096 145.585 112.096C146.1 112.096 146.52 111.977 146.847 111.74C147.183 111.493 147.416 111.171 147.544 110.775L148.88 110.879C148.672 111.582 148.277 112.161 147.693 112.616C147.119 113.061 146.416 113.284 145.585 113.284ZM143.285 108.46H147.633C147.574 107.698 147.351 107.139 146.965 106.783C146.589 106.427 146.11 106.248 145.526 106.248C144.922 106.248 144.423 106.436 144.027 106.812C143.641 107.179 143.393 107.728 143.285 108.46Z" fill="#ADADAD"/>
<path d="M139.034 113.105V105.239H140.281V113.105H139.034ZM139.004 104.007V102.552H140.31V104.007H139.004Z" fill="#ADADAD"/>
<path d="M133.226 113.106L130.361 105.239H131.727L134.012 111.829L136.298 105.239H137.664L134.799 113.106H133.226Z" fill="#ADADAD"/>
<path d="M126.351 113.284C125.609 113.284 124.966 113.115 124.422 112.779C123.887 112.443 123.472 111.968 123.175 111.354C122.888 110.731 122.745 110.003 122.745 109.172C122.745 108.341 122.888 107.619 123.175 107.005C123.472 106.392 123.883 105.917 124.407 105.581C124.941 105.234 125.57 105.061 126.292 105.061C126.975 105.061 127.578 105.224 128.103 105.551C128.627 105.867 129.033 106.333 129.32 106.946C129.617 107.559 129.765 108.307 129.765 109.187V109.558H124.051C124.1 110.399 124.323 111.033 124.719 111.458C125.124 111.883 125.669 112.096 126.351 112.096C126.866 112.096 127.286 111.977 127.613 111.74C127.949 111.493 128.182 111.171 128.31 110.775L129.646 110.879C129.438 111.582 129.043 112.161 128.459 112.616C127.885 113.061 127.182 113.284 126.351 113.284ZM124.051 108.46H128.399C128.34 107.698 128.117 107.139 127.732 106.783C127.356 106.427 126.876 106.248 126.292 106.248C125.688 106.248 125.189 106.436 124.793 106.812C124.407 107.179 124.16 107.728 124.051 108.46Z" fill="#ADADAD"/>
<path d="M118.25 113.106V105.239H119.348L119.407 107.228L119.288 107.184C119.387 106.511 119.6 106.021 119.927 105.714C120.263 105.398 120.708 105.239 121.262 105.239H122.034V106.427H121.277C120.882 106.427 120.55 106.501 120.283 106.649C120.026 106.788 119.828 107.001 119.689 107.287C119.561 107.565 119.496 107.921 119.496 108.356V113.106H118.25Z" fill="#ADADAD"/>
<path d="M108.919 113.105V102.567H112.704C113.882 102.567 114.797 102.849 115.45 103.413C116.103 103.977 116.43 104.759 116.43 105.758C116.43 106.431 116.281 107.015 115.984 107.51C115.687 107.995 115.262 108.366 114.708 108.623C114.154 108.88 113.486 109.009 112.704 109.009H110.196V113.105H108.919ZM110.196 107.762H112.704C113.496 107.762 114.089 107.594 114.485 107.257C114.891 106.921 115.094 106.421 115.094 105.758C115.094 105.115 114.891 104.63 114.485 104.304C114.089 103.977 113.496 103.814 112.704 103.814H110.196V107.762Z" fill="#ADADAD"/>
<path d="M99.5949 113.284C98.8726 113.284 98.2393 113.115 97.6951 112.779C97.1509 112.443 96.7304 111.968 96.4335 111.354C96.1367 110.731 95.9883 110.003 95.9883 109.172C95.9883 108.331 96.1367 107.604 96.4335 106.991C96.7304 106.377 97.1509 105.902 97.6951 105.566C98.2393 105.229 98.8726 105.061 99.5949 105.061C100.317 105.061 100.946 105.229 101.48 105.566C102.024 105.902 102.445 106.377 102.741 106.991C103.038 107.604 103.187 108.331 103.187 109.172C103.187 110.003 103.038 110.731 102.741 111.354C102.445 111.968 102.024 112.443 101.48 112.779C100.946 113.115 100.317 113.284 99.5949 113.284ZM99.5949 112.096C100.317 112.096 100.876 111.839 101.272 111.324C101.678 110.8 101.881 110.083 101.881 109.172C101.881 108.262 101.678 107.55 101.272 107.035C100.876 106.511 100.317 106.248 99.5949 106.248C98.8726 106.248 98.3086 106.511 97.9029 107.035C97.4972 107.55 97.2944 108.262 97.2944 109.172C97.2944 110.083 97.4972 110.8 97.9029 111.324C98.3086 111.839 98.8726 112.096 99.5949 112.096Z" fill="#ADADAD"/>
<path d="M93.8217 113.105C93.1093 113.105 92.5799 112.942 92.2336 112.615C91.8972 112.289 91.729 111.779 91.729 111.087V103.398H92.9757V111.057C92.9757 111.413 93.0549 111.661 93.2132 111.799C93.3715 111.938 93.6139 112.007 93.9404 112.007H95.0684V113.105H93.8217ZM90.5713 106.337V105.239H95.0684V106.337H90.5713Z" fill="#ADADAD"/>
<path d="M78.6074 113.105V102.567H79.8542V106.975L79.7057 106.946C79.8047 106.51 79.9729 106.154 80.2104 105.877C80.4478 105.6 80.7397 105.397 81.0861 105.269C81.4324 105.13 81.8133 105.061 82.2289 105.061C82.7929 105.061 83.2678 105.189 83.6537 105.447C84.0495 105.694 84.3464 106.045 84.5443 106.501C84.7521 106.946 84.856 107.46 84.856 108.044V113.105H83.6092V108.4C83.6092 107.638 83.4707 107.074 83.1936 106.708C82.9265 106.342 82.5158 106.159 81.9617 106.159C81.3285 106.159 80.8189 106.352 80.433 106.738C80.0471 107.124 79.8542 107.683 79.8542 108.415V113.105H78.6074Z" fill="#ADADAD"/>
<path d="M73.8334 113.284C73.1309 113.284 72.5323 113.17 72.0375 112.942C71.5527 112.715 71.1717 112.403 70.8947 112.007C70.6275 111.601 70.4741 111.141 70.4346 110.627L71.7407 110.538C71.8198 111.013 72.0227 111.394 72.3492 111.681C72.6757 111.958 73.1705 112.096 73.8334 112.096C74.3677 112.096 74.7932 112.012 75.1098 111.844C75.4364 111.666 75.5996 111.384 75.5996 110.998C75.5996 110.79 75.5501 110.617 75.4512 110.478C75.3523 110.34 75.1593 110.221 74.8724 110.122C74.5854 110.013 74.1599 109.909 73.5959 109.811C72.8439 109.672 72.2503 109.504 71.8149 109.306C71.3894 109.098 71.0827 108.846 70.8947 108.549C70.7166 108.242 70.6275 107.881 70.6275 107.465C70.6275 106.763 70.8848 106.189 71.3993 105.744C71.9138 105.289 72.646 105.061 73.5959 105.061C74.2391 105.061 74.7784 105.18 75.2137 105.417C75.659 105.645 76.0053 105.952 76.2527 106.337C76.5099 106.713 76.6781 107.129 76.7573 107.584L75.4512 107.673C75.3918 107.396 75.283 107.154 75.1247 106.946C74.9664 106.728 74.7586 106.56 74.5013 106.441C74.244 106.313 73.9373 106.248 73.5811 106.248C73.0171 106.248 72.6015 106.357 72.3344 106.575C72.0672 106.793 71.9336 107.07 71.9336 107.406C71.9336 107.663 71.993 107.876 72.1117 108.044C72.2404 108.203 72.4432 108.336 72.7203 108.445C72.9973 108.544 73.3684 108.633 73.8334 108.712C74.6349 108.851 75.2583 109.019 75.7035 109.217C76.1488 109.415 76.4605 109.657 76.6386 109.944C76.8167 110.231 76.9057 110.582 76.9057 110.998C76.9057 111.483 76.7672 111.898 76.4901 112.245C76.223 112.581 75.8569 112.838 75.3918 113.016C74.9367 113.195 74.4172 113.284 73.8334 113.284Z" fill="#ADADAD"/>
<path d="M67.4906 113.105V105.239H68.7374V113.105H67.4906ZM67.4609 104.007V102.552H68.767V104.007H67.4609Z" fill="#ADADAD"/>
<path d="M65.193 113.105C64.7378 113.105 64.3668 112.987 64.0798 112.749C63.7929 112.512 63.6494 112.136 63.6494 111.621V102.567H64.8962V111.517C64.8962 111.675 64.9357 111.799 65.0149 111.888C65.1039 111.967 65.2276 112.007 65.3859 112.007H66.0687V113.105H65.193Z" fill="#ADADAD"/>
<path d="M58.5017 113.283C57.9574 113.283 57.4726 113.165 57.0471 112.927C56.6217 112.68 56.2951 112.343 56.0675 111.918L56.023 113.105H54.895V102.567H56.1418V106.337C56.3397 106.011 56.6464 105.719 57.062 105.462C57.4775 105.194 57.9574 105.061 58.5017 105.061C59.1943 105.061 59.7929 105.229 60.2975 105.565C60.8022 105.902 61.193 106.377 61.4701 106.99C61.7471 107.604 61.8857 108.331 61.8857 109.172C61.8857 110.013 61.7471 110.74 61.4701 111.354C61.193 111.967 60.8022 112.442 60.2975 112.779C59.7929 113.115 59.1943 113.283 58.5017 113.283ZM58.4274 112.096C59.0904 112.096 59.6148 111.834 60.0007 111.309C60.3866 110.785 60.5795 110.073 60.5795 109.172C60.5795 108.262 60.3866 107.549 60.0007 107.035C59.6148 106.51 59.1003 106.248 58.4571 106.248C57.9723 106.248 57.5567 106.367 57.2104 106.604C56.8641 106.832 56.5969 107.163 56.4089 107.599C56.2308 108.034 56.1418 108.559 56.1418 109.172C56.1418 109.766 56.2308 110.285 56.4089 110.731C56.5969 111.166 56.8591 111.502 57.1955 111.74C57.5419 111.977 57.9525 112.096 58.4274 112.096Z" fill="#ADADAD"/>
<path d="M49.1577 113.284C48.376 113.284 47.7477 113.021 47.2728 112.497C46.8077 111.963 46.5752 111.231 46.5752 110.3V105.239H47.8219V109.959C47.8219 110.721 47.9555 111.285 48.2227 111.651C48.4997 112.007 48.9202 112.185 49.4842 112.185C50.1076 112.185 50.5974 111.987 50.9536 111.592C51.3098 111.186 51.4879 110.632 51.4879 109.929V105.239H52.7347V113.106H51.5473V111.161L51.7402 111.265C51.5819 111.908 51.2801 112.408 50.8349 112.764C50.3896 113.111 49.8306 113.284 49.1577 113.284Z" fill="#ADADAD"/>
<path d="M37.5498 113.105V102.567H41.3345C42.512 102.567 43.4273 102.849 44.0803 103.413C44.7334 103.977 45.0599 104.759 45.0599 105.758C45.0599 106.431 44.9115 107.015 44.6146 107.51C44.3178 107.995 43.8923 108.366 43.3382 108.623C42.7841 108.88 42.1162 109.009 41.3345 109.009H38.8262V113.105H37.5498ZM38.8262 107.762H41.3345C42.1261 107.762 42.7198 107.594 43.1156 107.257C43.5213 106.921 43.7241 106.421 43.7241 105.758C43.7241 105.115 43.5213 104.63 43.1156 104.304C42.7198 103.977 42.1261 103.814 41.3345 103.814H38.8262V107.762Z" fill="#ADADAD"/>
<path d="M472.971 163.379C473.213 163.137 473.604 163.137 473.846 163.379C474.087 163.62 474.087 164.012 473.846 164.253L471.372 166.727C471.256 166.843 471.099 166.908 470.935 166.908C470.771 166.908 470.613 166.843 470.497 166.727L469.261 165.49C469.019 165.248 469.019 164.857 469.261 164.615C469.502 164.374 469.894 164.374 470.135 164.615L470.935 165.415L472.971 163.379ZM473.408 158.25H469.698V159.487H473.408V158.25ZM474.645 159.487C474.645 160.17 474.091 160.724 473.408 160.724H469.698C469.058 160.724 468.531 160.237 468.467 159.614L468.461 159.487H467.843C467.679 159.487 467.521 159.552 467.405 159.668C467.289 159.784 467.224 159.941 467.224 160.105V168.763C467.224 168.927 467.289 169.084 467.405 169.2C467.521 169.316 467.679 169.382 467.843 169.382H475.264C475.428 169.382 475.585 169.316 475.701 169.2C475.817 169.084 475.882 168.927 475.882 168.763V160.105C475.882 159.941 475.817 159.784 475.701 159.668C475.585 159.552 475.428 159.487 475.264 159.487H474.645ZM475.264 158.25C475.756 158.25 476.227 158.446 476.575 158.794C476.923 159.141 477.119 159.613 477.119 160.105V168.763C477.119 169.255 476.923 169.727 476.575 170.075C476.227 170.423 475.756 170.618 475.264 170.618H467.843C467.351 170.618 466.879 170.423 466.531 170.075C466.183 169.727 465.987 169.255 465.987 168.763V160.105C465.987 159.613 466.183 159.141 466.531 158.794C466.879 158.446 467.351 158.25 467.843 158.25H468.461C468.461 157.567 469.015 157.013 469.698 157.013H473.408C474.091 157.013 474.645 157.567 474.645 158.25H475.264Z" fill="#F97F27"/>
<path d="M43.7865 204.194C44.0281 203.953 44.4195 203.953 44.661 204.194L47.7531 207.287C47.9946 207.528 47.9946 207.92 47.7531 208.161L44.661 211.253C44.4195 211.495 44.0281 211.495 43.7865 211.253C43.545 211.012 43.545 210.62 43.7865 210.379L45.823 208.342H39.8948C39.0748 208.342 38.2885 208.016 37.7086 207.436C37.1287 206.856 36.8027 206.07 36.8027 205.25V200.921C36.8027 200.58 37.0796 200.303 37.4212 200.303C37.7627 200.303 38.0396 200.58 38.0396 200.921V205.25L38.0492 205.434C38.0915 205.858 38.2787 206.257 38.5831 206.562C38.931 206.91 39.4028 207.105 39.8948 207.105H45.823L43.7865 205.069C43.545 204.827 43.545 204.436 43.7865 204.194Z" fill="white"/>
<path d="M509.895 230.605V231.842H21.3423V230.605H509.895Z" fill="#181614"/>
<path d="M191.38 277.605V265.311H192.834V270.454L192.661 270.419C192.777 269.911 192.973 269.496 193.25 269.172C193.527 268.849 193.868 268.613 194.272 268.463C194.676 268.301 195.12 268.22 195.605 268.22C196.263 268.22 196.817 268.37 197.267 268.67C197.729 268.959 198.075 269.369 198.306 269.9C198.549 270.419 198.67 271.019 198.67 271.701V277.605H197.215V272.116C197.215 271.227 197.054 270.569 196.73 270.142C196.419 269.715 195.94 269.501 195.293 269.501C194.554 269.501 193.96 269.727 193.51 270.177C193.06 270.627 192.834 271.279 192.834 272.133V277.605H191.38Z" fill="white"/>
<path d="M185.811 277.813C184.991 277.813 184.293 277.68 183.715 277.415C183.15 277.149 182.705 276.786 182.382 276.324C182.07 275.851 181.891 275.314 181.845 274.714L183.369 274.61C183.461 275.164 183.698 275.608 184.079 275.943C184.46 276.266 185.037 276.428 185.811 276.428C186.434 276.428 186.93 276.33 187.3 276.134C187.681 275.926 187.871 275.597 187.871 275.147C187.871 274.904 187.813 274.702 187.698 274.54C187.583 274.379 187.357 274.24 187.023 274.125C186.688 273.998 186.191 273.877 185.533 273.761C184.656 273.6 183.964 273.403 183.456 273.173C182.959 272.93 182.601 272.636 182.382 272.289C182.174 271.932 182.07 271.51 182.07 271.025C182.07 270.206 182.37 269.536 182.971 269.017C183.571 268.486 184.425 268.22 185.533 268.22C186.284 268.22 186.913 268.359 187.421 268.636C187.94 268.901 188.344 269.259 188.633 269.709C188.933 270.148 189.129 270.633 189.222 271.164L187.698 271.268C187.629 270.945 187.502 270.662 187.317 270.419C187.132 270.165 186.89 269.969 186.59 269.831C186.29 269.681 185.932 269.605 185.516 269.605C184.858 269.605 184.373 269.732 184.062 269.986C183.75 270.24 183.594 270.564 183.594 270.956C183.594 271.256 183.663 271.504 183.802 271.701C183.952 271.885 184.189 272.041 184.512 272.168C184.835 272.284 185.268 272.388 185.811 272.48C186.746 272.642 187.473 272.838 187.992 273.069C188.512 273.3 188.875 273.582 189.083 273.917C189.291 274.252 189.395 274.662 189.395 275.147C189.395 275.712 189.233 276.197 188.91 276.601C188.598 276.994 188.171 277.294 187.629 277.501C187.098 277.709 186.492 277.813 185.811 277.813Z" fill="white"/>
<path d="M178.41 277.605V268.428H179.864V277.605H178.41ZM178.375 266.99V265.293H179.899V266.99H178.375Z" fill="white"/>
<path d="M175.73 277.605C175.199 277.605 174.766 277.467 174.431 277.19C174.097 276.913 173.929 276.474 173.929 275.874V265.311H175.384V275.752C175.384 275.937 175.43 276.081 175.522 276.185C175.626 276.278 175.77 276.324 175.955 276.324H176.752V277.605H175.73Z" fill="white"/>
<path d="M167.923 277.813C167.288 277.813 166.723 277.675 166.226 277.397C165.73 277.109 165.349 276.716 165.083 276.22L165.031 277.605H163.715V265.311H165.17V269.709C165.401 269.328 165.759 268.988 166.243 268.688C166.728 268.376 167.288 268.22 167.923 268.22C168.731 268.22 169.43 268.416 170.018 268.809C170.607 269.201 171.063 269.755 171.386 270.471C171.709 271.187 171.871 272.035 171.871 273.017C171.871 273.998 171.709 274.846 171.386 275.562C171.063 276.278 170.607 276.832 170.018 277.224C169.43 277.617 168.731 277.813 167.923 277.813ZM167.836 276.428C168.61 276.428 169.222 276.122 169.672 275.51C170.122 274.898 170.347 274.067 170.347 273.017C170.347 271.955 170.122 271.123 169.672 270.523C169.222 269.911 168.621 269.605 167.871 269.605C167.305 269.605 166.821 269.744 166.417 270.021C166.013 270.286 165.701 270.673 165.482 271.181C165.274 271.689 165.17 272.301 165.17 273.017C165.17 273.709 165.274 274.315 165.482 274.835C165.701 275.343 166.007 275.735 166.399 276.012C166.803 276.289 167.282 276.428 167.836 276.428Z" fill="white"/>
<path d="M157.022 277.813C156.11 277.813 155.377 277.507 154.823 276.896C154.281 276.272 154.009 275.418 154.009 274.333V268.428H155.464V273.935C155.464 274.824 155.62 275.482 155.931 275.909C156.255 276.324 156.745 276.532 157.403 276.532C158.13 276.532 158.702 276.301 159.117 275.839C159.533 275.366 159.741 274.72 159.741 273.9V268.428H161.195V277.606H159.81V275.337L160.035 275.458C159.85 276.209 159.498 276.792 158.979 277.207C158.459 277.611 157.807 277.813 157.022 277.813Z" fill="white"/>
<path d="M143.88 280.203V268.428H145.231L145.265 270.402L145.057 270.298C145.288 269.617 145.669 269.103 146.2 268.757C146.743 268.399 147.366 268.22 148.07 268.22C148.982 268.22 149.727 268.445 150.304 268.896C150.893 269.346 151.326 269.934 151.603 270.662C151.891 271.389 152.036 272.174 152.036 273.017C152.036 273.859 151.891 274.644 151.603 275.372C151.326 276.099 150.893 276.688 150.304 277.138C149.727 277.588 148.982 277.813 148.07 277.813C147.597 277.813 147.153 277.732 146.737 277.571C146.333 277.409 145.987 277.184 145.698 276.895C145.421 276.607 145.231 276.266 145.127 275.874L145.334 275.631V280.203H143.88ZM147.932 276.428C148.728 276.428 149.357 276.128 149.819 275.527C150.281 274.927 150.512 274.09 150.512 273.017C150.512 271.943 150.281 271.106 149.819 270.506C149.357 269.906 148.728 269.605 147.932 269.605C147.401 269.605 146.939 269.732 146.547 269.986C146.166 270.24 145.865 270.621 145.646 271.129C145.438 271.637 145.334 272.266 145.334 273.017C145.334 273.767 145.438 274.396 145.646 274.904C145.854 275.412 146.154 275.793 146.547 276.047C146.939 276.301 147.401 276.428 147.932 276.428Z" fill="white"/>
<path d="M137.927 277.813C137.062 277.813 136.311 277.617 135.676 277.224C135.053 276.832 134.568 276.278 134.222 275.562C133.887 274.835 133.72 273.986 133.72 273.017C133.72 272.047 133.887 271.204 134.222 270.489C134.568 269.773 135.047 269.219 135.659 268.826C136.282 268.422 137.015 268.22 137.858 268.22C138.655 268.22 139.359 268.411 139.971 268.792C140.583 269.161 141.056 269.704 141.391 270.419C141.737 271.135 141.91 272.007 141.91 273.034V273.467H135.244C135.301 274.448 135.561 275.187 136.023 275.683C136.496 276.18 137.131 276.428 137.927 276.428C138.528 276.428 139.018 276.289 139.399 276.012C139.792 275.724 140.063 275.349 140.213 274.887L141.772 275.008C141.529 275.828 141.067 276.503 140.386 277.034C139.717 277.553 138.897 277.813 137.927 277.813ZM135.244 272.186H140.317C140.248 271.297 139.988 270.644 139.538 270.229C139.099 269.813 138.539 269.605 137.858 269.605C137.154 269.605 136.571 269.825 136.109 270.263C135.659 270.691 135.37 271.331 135.244 272.186Z" fill="white"/>
<path d="M123.12 277.605V265.311H127.778C128.643 265.311 129.388 265.461 130.011 265.761C130.635 266.061 131.114 266.494 131.449 267.06C131.795 267.614 131.968 268.272 131.968 269.034C131.968 269.588 131.835 270.084 131.57 270.523C131.316 270.95 130.987 271.291 130.583 271.545C130.179 271.799 129.757 271.937 129.319 271.96L129.215 271.804C129.965 271.804 130.554 271.978 130.981 272.324C131.42 272.67 131.674 273.224 131.743 273.986L132.089 277.605H130.583L130.271 274.142C130.225 273.634 130.04 273.259 129.717 273.017C129.405 272.774 128.892 272.653 128.176 272.653H124.609V277.605H123.12ZM124.609 271.198H127.968C128.718 271.198 129.313 271.008 129.752 270.627C130.19 270.246 130.41 269.703 130.41 268.999C130.41 268.284 130.184 267.735 129.734 267.354C129.284 266.962 128.632 266.766 127.778 266.766H124.609V271.198Z" fill="white"/>
<g clip-path="url(#clip1_922_1809)">
<path d="M109.776 272.967C109.776 272.393 109.548 271.843 109.142 271.437C108.736 271.031 108.186 270.802 107.612 270.802H106.505C106.232 270.802 105.99 270.623 105.912 270.36C105.716 269.701 105.34 269.109 104.826 268.651C104.313 268.193 103.681 267.887 103.004 267.767C102.326 267.647 101.629 267.718 100.989 267.971C100.349 268.225 99.7926 268.652 99.3813 269.203C98.9703 269.755 98.7207 270.41 98.6602 271.095C98.5999 271.78 98.7311 272.469 99.0395 273.084C99.348 273.699 99.8214 274.217 100.407 274.578C100.992 274.94 101.667 275.131 102.355 275.131H107.612C108.186 275.131 108.736 274.903 109.142 274.497C109.548 274.091 109.776 273.541 109.776 272.967ZM111.013 272.967C111.013 273.869 110.654 274.734 110.016 275.372C109.379 276.01 108.514 276.368 107.612 276.368H102.355C101.438 276.368 100.538 276.112 99.757 275.63C98.9767 275.148 98.3456 274.459 97.9343 273.64C97.523 272.82 97.3478 271.901 97.4282 270.987C97.5087 270.073 97.8414 269.2 98.3897 268.464C98.9381 267.729 99.6807 267.159 100.534 266.821C101.386 266.483 102.317 266.39 103.22 266.55C104.123 266.71 104.964 267.118 105.649 267.729C106.217 268.235 106.656 268.864 106.94 269.566H107.612C108.514 269.566 109.379 269.924 110.016 270.562C110.654 271.2 111.013 272.065 111.013 272.967Z" fill="white"/>
</g>
<path d="M413.361 277.606L410.521 268.428H412.115L414.262 276.082L416.443 268.428H418.002L420.184 276.082L422.348 268.428H423.941L421.101 277.606H419.266L417.223 270.627L415.179 277.606H413.361Z" fill="white"/>
<path d="M405.844 277.813C404.978 277.813 404.228 277.617 403.593 277.224C402.97 276.832 402.485 276.278 402.138 275.562C401.804 274.835 401.636 273.986 401.636 273.017C401.636 272.047 401.804 271.204 402.138 270.489C402.485 269.773 402.964 269.219 403.576 268.826C404.199 268.422 404.932 268.22 405.775 268.22C406.571 268.22 407.275 268.411 407.887 268.792C408.499 269.161 408.972 269.704 409.307 270.419C409.653 271.135 409.827 272.007 409.827 273.034V273.467H403.16C403.218 274.448 403.477 275.187 403.939 275.683C404.413 276.18 405.047 276.428 405.844 276.428C406.444 276.428 406.935 276.289 407.316 276.012C407.708 275.724 407.98 275.349 408.13 274.887L409.688 275.008C409.446 275.828 408.984 276.503 408.303 277.034C407.633 277.553 406.814 277.813 405.844 277.813ZM403.16 272.186H408.234C408.164 271.297 407.905 270.644 407.454 270.229C407.016 269.813 406.456 269.605 405.775 269.605C405.071 269.605 404.488 269.825 404.026 270.263C403.576 270.691 403.287 271.331 403.16 272.186Z" fill="white"/>
<path d="M398.201 277.605V268.428H399.655V277.605H398.201ZM398.166 266.99V265.293H399.69V266.99H398.166Z" fill="white"/>
<path d="M391.424 277.606L388.082 268.428H389.675L392.342 276.116L395.008 268.428H396.601L393.259 277.606H391.424Z" fill="white"/>
<path d="M383.404 277.813C382.538 277.813 381.788 277.617 381.153 277.224C380.53 276.832 380.045 276.278 379.698 275.562C379.364 274.835 379.196 273.986 379.196 273.017C379.196 272.047 379.364 271.204 379.698 270.489C380.045 269.773 380.524 269.219 381.136 268.826C381.759 268.422 382.492 268.22 383.335 268.22C384.131 268.22 384.835 268.411 385.447 268.792C386.059 269.161 386.532 269.704 386.867 270.419C387.214 271.135 387.387 272.007 387.387 273.034V273.467H380.72C380.778 274.448 381.038 275.187 381.499 275.683C381.973 276.18 382.607 276.428 383.404 276.428C384.004 276.428 384.495 276.289 384.876 276.012C385.268 275.724 385.54 275.349 385.69 274.887L387.248 275.008C387.006 275.828 386.544 276.503 385.863 277.034C385.193 277.553 384.374 277.813 383.404 277.813ZM380.72 272.186H385.794C385.724 271.297 385.465 270.644 385.014 270.229C384.576 269.813 384.016 269.605 383.335 269.605C382.631 269.605 382.048 269.825 381.586 270.263C381.136 270.691 380.847 271.331 380.72 272.186Z" fill="white"/>
<path d="M373.952 277.606V268.428H375.234L375.303 270.749L375.164 270.697C375.28 269.912 375.528 269.34 375.909 268.982C376.301 268.613 376.821 268.428 377.467 268.428H378.368V269.813H377.485C377.023 269.813 376.636 269.9 376.324 270.073C376.024 270.235 375.793 270.483 375.632 270.818C375.482 271.141 375.407 271.557 375.407 272.065V277.606H373.952Z" fill="white"/>
<path d="M363.067 277.605V265.311H367.482C368.856 265.311 369.924 265.64 370.686 266.298C371.448 266.956 371.829 267.868 371.829 269.034C371.829 269.819 371.656 270.5 371.309 271.077C370.963 271.643 370.467 272.076 369.82 272.376C369.174 272.676 368.394 272.826 367.482 272.826H364.556V277.605H363.067ZM364.556 271.372H367.482C368.406 271.372 369.099 271.175 369.56 270.783C370.034 270.39 370.27 269.807 370.27 269.034C370.27 268.284 370.034 267.718 369.56 267.337C369.099 266.956 368.406 266.766 367.482 266.766H364.556V271.372Z" fill="white"/>
<path d="M337.974 275.75V268.947C337.974 268.455 338.169 267.984 338.517 267.636C338.865 267.288 339.337 267.092 339.829 267.092H343.539C343.881 267.092 344.158 267.369 344.158 267.711C344.158 268.052 343.881 268.329 343.539 268.329H339.829C339.665 268.329 339.508 268.394 339.392 268.51C339.276 268.626 339.21 268.783 339.21 268.947V275.75C339.21 275.914 339.276 276.071 339.392 276.187C339.508 276.303 339.665 276.368 339.829 276.368H346.632C346.796 276.368 346.953 276.303 347.069 276.187C347.185 276.071 347.25 275.914 347.25 275.75V272.039C347.25 271.698 347.527 271.421 347.868 271.421C348.21 271.421 348.487 271.698 348.487 272.039V275.75C348.487 276.242 348.291 276.714 347.943 277.062C347.595 277.41 347.124 277.605 346.632 277.605H339.829C339.337 277.605 338.865 277.41 338.517 277.062C338.169 276.714 337.974 276.242 337.974 275.75ZM350.342 269.566C350.342 269.907 350.065 270.184 349.724 270.184C349.382 270.184 349.105 269.907 349.105 269.566V267.348L343.358 273.095C343.117 273.337 342.725 273.337 342.484 273.095C342.242 272.854 342.242 272.462 342.484 272.221L348.231 266.474H346.013C345.672 266.474 345.395 266.197 345.395 265.855C345.395 265.514 345.672 265.237 346.013 265.237H349.724C350.065 265.237 350.342 265.514 350.342 265.855V269.566Z" fill="white"/>
<defs>
<clipPath id="clip0_922_1809">
<rect width="14.8421" height="14.8421" fill="white" transform="translate(54.7368 41.3687)"/>
</clipPath>
<clipPath id="clip1_922_1809">
<rect width="14.8421" height="14.8421" fill="white" transform="translate(96.7896 264)"/>
</clipPath>
</defs>
</svg>
